<?xml version="1.0" encoding="utf-8"?>
<!-- Generator: Adobe Illustrator 16.0.0, SVG Export Plug-In . SVG Version: 6.00 Build 0)  -->
<!DOCTYPE svg PUBLIC "-//W3C//DTD SVG 1.1//EN" "http://www.w3.org/Graphics/SVG/1.1/DTD/svg11.dtd">
<svg version="1.1" id="Layer_2" xmlns="http://www.w3.org/2000/svg" xmlns:xlink="http://www.w3.org/1999/xlink" x="0px" y="0px"
	 width="32px" height="32px" viewBox="0 0 32 32" enable-background="new 0 0 32 32" xml:space="preserve">
<g>
	<path d="M19.046,0C11.891,0,6.092,5.799,6.092,12.954c0,3.079,1.08,5.905,2.873,8.13l-8.562,8.562c-0.538,0.538-0.538,1.412,0,1.95
		c0.538,0.539,1.413,0.539,1.951,0l8.562-8.562c2.225,1.794,5.051,2.874,8.13,2.874C26.201,25.908,32,20.109,32,12.954
		S26.201,0,19.046,0z M19.046,23.915c-6.045,0-10.962-4.917-10.962-10.961c0-6.045,4.917-10.961,10.962-10.961
		c6.044,0,10.961,4.916,10.961,10.961C30.007,18.998,25.09,23.915,19.046,23.915z"/>
</g>
</svg>
