<?xml version="1.0" encoding="utf-8"?>
<!-- Generator: Adobe Illustrator 16.0.0, SVG Export Plug-In . SVG Version: 6.00 Build 0)  -->
<!DOCTYPE svg PUBLIC "-//W3C//DTD SVG 1.1//EN" "http://www.w3.org/Graphics/SVG/1.1/DTD/svg11.dtd">
<svg version="1.1" id="Layer_2" xmlns="http://www.w3.org/2000/svg" xmlns:xlink="http://www.w3.org/1999/xlink" x="0px" y="0px"
	 width="32px" height="32px" viewBox="0 0 32 32" enable-background="new 0 0 32 32" xml:space="preserve">
<path fill="#444444" d="M20-0.001c-6.627,0-12,5.373-12,12c0,2.44,0.738,4.704,1.989,6.599L9.96,18.568L0.991,27.23
	c-1.227,1.104-1.33,2.908-0.23,4.008s2.903,0.996,4.008-0.23l8.621-8.997l-0.025-0.025c1.902,1.267,4.178,2.014,6.635,2.014
	c6.627,0,12-5.373,12-12S26.627-0.001,20-0.001z M19.999,20c-4.418,0-8-3.582-8-8s3.582-8,8-8s8,3.582,8,8S24.417,20,19.999,20z"/>
</svg>
