<?xml version="1.0" encoding="utf-8"?>
<!-- Generator: Adobe Illustrator 16.0.0, SVG Export Plug-In . SVG Version: 6.00 Build 0)  -->
<!DOCTYPE svg PUBLIC "-//W3C//DTD SVG 1.1//EN" "http://www.w3.org/Graphics/SVG/1.1/DTD/svg11.dtd">
<svg version="1.1" id="Layer_1" xmlns="http://www.w3.org/2000/svg" xmlns:xlink="http://www.w3.org/1999/xlink" x="0px" y="0px"
	 width="32px" height="32px" viewBox="0 0 32 32" enable-background="new 0 0 32 32" xml:space="preserve">
<path d="M31.836,21.003V6.75c0,0-14.411,10.057-15.813,10.578C14.646,16.83,0.164,6.75,0.164,6.75v14.252
	c0,1.979,0.419,2.376,2.375,2.376h26.92C31.463,23.379,31.836,23.029,31.836,21.003z M31.812,3.957C31.812,2.515,31.393,2,29.46,2
	H2.54C0.552,2,0.164,2.618,0.164,4.059L0.188,4.28c0,0,14.307,9.851,15.835,10.388c1.618-0.625,15.813-10.609,15.813-10.609
	L31.812,3.957z"/>
</svg>
