<?xml version="1.0" encoding="utf-8"?>
<!-- Generator: Adobe Illustrator 16.0.0, SVG Export Plug-In . SVG Version: 6.00 Build 0)  -->
<!DOCTYPE svg PUBLIC "-//W3C//DTD SVG 1.1//EN" "http://www.w3.org/Graphics/SVG/1.1/DTD/svg11.dtd">
<svg version="1.1" id="Layer_1" xmlns="http://www.w3.org/2000/svg" xmlns:xlink="http://www.w3.org/1999/xlink" x="0px" y="0px"
	 width="36px" height="34px" viewBox="0 0 36 34" enable-background="new 0 0 36 34" xml:space="preserve">
<g id="layer2">
	<g id="g4041">
		<g id="g4036">
			<path id="path3932" fill="#9EA3A8" d="M18.163,0c-0.12,0.001-0.237,0.005-0.354,0.011c-0.091,0.003-0.175,0.012-0.266,0.021
				c-0.085,0.009-0.171,0.025-0.261,0.039c-0.06,0.015-0.129,0.017-0.191,0.026c-0.032,0.006-0.063,0.01-0.097,0.02
				c-0.028,0.012-0.056,0.026-0.084,0.045c-0.019,0.017-0.037,0.034-0.046,0.053c-0.012,0.021-0.021,0.039-0.029,0.061
				c-0.018,0.043-0.027,0.095-0.036,0.137c0,0.028-0.008,0.055-0.011,0.083c-0.007,0.028-0.017,0.056-0.024,0.083
				c-0.004,0.028-0.011,0.053-0.02,0.081c0,0.026-0.005,0.053-0.004,0.083c0.004,0.013,0.004,0.022,0.012,0.032
				c0.001,0.009,0.01,0.018,0.018,0.019c0.004,0.009,0.011,0.01,0.021,0.017c0.009,0.001,0.019,0.001,0.028,0.001
				c0.019,0.003,0.039,0,0.058-0.008c0.021-0.003,0.04-0.013,0.053-0.028c0.019,0.017,0.037,0.028,0.061,0.036
				c0.022,0.009,0.042,0.016,0.067,0.018c0.021,0,0.046-0.003,0.067-0.009c0.022-0.008,0.046-0.018,0.065-0.028
				c0.009-0.009,0.019-0.009,0.031-0.009c0.012-0.002,0.022,0,0.034,0c0.019,0.002,0.037,0.013,0.056,0.022
				c0.02,0.01,0.042,0.021,0.063,0.024c0.011,0,0.021,0,0.03,0s0.023-0.007,0.037-0.009c0.019-0.009,0.037-0.018,0.056-0.021
				c0.019-0.007,0.039-0.009,0.06-0.014c0.021-0.002,0.042-0.002,0.061,0.005c0.019,0.002,0.037,0.009,0.056,0.021
				c0.014,0.007,0.027,0.009,0.037,0.016c0.011,0.003,0.025,0.003,0.037,0.003c0.022,0,0.046-0.009,0.072-0.011
				c0.021-0.007,0.048-0.015,0.069-0.016c0.014,0,0.025,0.001,0.034,0.009c0.01,0,0.023,0.008,0.037,0.017
				c0.022,0.011,0.047,0.014,0.07,0.019c0.023,0.002,0.048-0.004,0.07-0.007c0.024-0.006,0.046-0.011,0.069-0.021
				c0.023-0.007,0.044-0.02,0.065-0.029c0.021,0.003,0.041,0.012,0.064,0.021c0.022,0.009,0.044,0.019,0.064,0.028
				c0.02,0.009,0.042,0.019,0.063,0.019c0.011,0,0.021-0.001,0.03-0.007c0.015-0.002,0.021-0.01,0.035-0.017
				c0.006-0.012,0.018-0.019,0.022-0.023c0.013-0.009,0.019-0.012,0.032-0.017c0.021-0.001,0.039-0.001,0.059-0.001
				c0.037,0.009,0.077,0.027,0.12,0.037c0.026-0.009,0.046-0.011,0.065-0.017c0.018-0.001,0.04-0.001,0.062-0.001
				c0.024,0,0.047,0,0.066,0.006c0.02,0.003,0.037,0.012,0.06,0.02c0.051-0.017,0.102-0.026,0.147-0.039
				c0.027-0.005,0.053-0.015,0.072-0.024c0.02-0.013,0.041-0.028,0.055-0.046c0.008-0.028,0.006-0.059,0-0.091
				c0-0.029-0.006-0.057-0.018-0.085c-0.02-0.059-0.037-0.118-0.057-0.174c-0.021-0.045-0.037-0.099-0.055-0.15
				c-0.002-0.023-0.02-0.047-0.033-0.065c-0.004-0.011-0.014-0.021-0.023-0.03c-0.01-0.007-0.018-0.017-0.037-0.025
				c-0.037-0.019-0.074-0.035-0.118-0.047c-0.047-0.009-0.085-0.019-0.13-0.028c-0.049-0.008-0.086-0.009-0.134-0.014
				c-0.044-0.004-0.085-0.004-0.133-0.006C18.399,0.005,18.282-0.001,18.163,0L18.163,0z"/>
			<path id="path2991" fill="#9EA3A8" d="M17.05,0.638 M18.088,0.621 M17.282,0.587 M17.161,0.534 M17.177,0.441 M18.433,0.427
				 M18.993,0.391c-0.018,0.042,0.056,0.143,0.06,0.087c-0.069-0.037,0.066-0.036-0.004-0.056
				C19.021,0.431,19.01,0.404,18.993,0.391z M18.362,0.256c0.008,0.009,0.019,0.01,0.033,0.027c0.004,0.053,0.023,0.136,0.023,0.029
				c-0.003-0.019-0.004-0.039-0.02-0.053c-0.022-0.03-0.041-0.033-0.064-0.039c-0.108,0.007-0.064,0.146-0.061,0.22
				c0.017,0.084,0.023,0.176,0.051,0.26c0.02-0.073,0-0.186-0.011-0.251c-0.007-0.073-0.027-0.137-0.007-0.175
				C18.315,0.257,18.346,0.246,18.362,0.256L18.362,0.256z M17.263,0.257c-0.072-0.001-0.121,0.153-0.043,0.163
				c0.006,0.029,0.062,0.068,0.073,0.051C17.311,0.413,17.337,0.283,17.263,0.257L17.263,0.257z M17.476,0.246
				c-0.084,0.037-0.044,0.159-0.055,0.237c0,0.041,0.005,0.199,0.022,0.078c-0.029-0.103,0.117-0.095,0.099-0.194
				C17.542,0.321,17.532,0.246,17.476,0.246L17.476,0.246z M17.726,0.229c-0.064,0.009,0.02,0.147-0.059,0.073
				c-0.033,0.016-0.015,0.084,0.032,0.077c0.037,0.081,0.008,0.202,0.019,0.259c0-0.061,0.044-0.15,0.083-0.077
				c0.019-0.092,0.018-0.19,0-0.279C17.789,0.252,17.755,0.23,17.726,0.229L17.726,0.229L17.726,0.229z M18.039,0.228
				c-0.126-0.008-0.099,0.13-0.089,0.213c0.026,0.074-0.028,0.211,0.046,0.245c0.037-0.078-0.002-0.179,0.007-0.263
				c-0.007-0.037,0.014-0.167,0.037-0.065c0.003,0.037,0.03,0.102,0.021,0.02C18.038,0.331,18.116,0.228,18.039,0.228L18.039,0.228z
				 M18.567,0.227c-0.074,0.046,0,0.159,0,0.233c0.021,0.083,0.037,0.168,0.074,0.25c0.018-0.083-0.028-0.175-0.037-0.26
				c-0.006-0.037-0.065-0.204,0.007-0.135c0.021,0.116,0.048,0.235,0.089,0.341c0.07,0.062,0.021-0.129,0.004-0.169
				c-0.025-0.093-0.025-0.213-0.119-0.26L18.567,0.227L18.567,0.227z M18.956,0.22c-0.055,0.037,0.068,0.222,0.064,0.096
				C19.012,0.283,18.999,0.228,18.956,0.22z M18.77,0.22c-0.055,0.076,0.02,0.193,0.032,0.285c0.013,0.045,0.024,0.122,0.052,0.143
				c-0.006-0.067-0.037-0.14-0.027-0.207c0.055,0.019,0.037,0.167,0.092,0.167c-0.055-0.119-0.055-0.25-0.111-0.367
				C18.8,0.228,18.79,0.219,18.77,0.22L18.77,0.22z M19.178,0.378c-0.043-0.093-0.041-0.216-0.148-0.271
				c-0.153-0.078-0.334-0.084-0.514-0.096c-0.233-0.016-0.473-0.012-0.707,0c-0.176,0.005-0.351,0.031-0.526,0.06
				c-0.121,0.026-0.263,0.016-0.372,0.092c-0.074,0.056-0.093,0.167-0.111,0.251c-0.009,0.111-0.064,0.215-0.06,0.329
				c0.016,0.097,0.133,0.081,0.189,0.034c0.074,0.063,0.176,0.062,0.26,0.016c0.088-0.048,0.158,0.077,0.25,0.027
				c0.074-0.028,0.158-0.054,0.232-0.008c0.092,0.065,0.198-0.052,0.286,0.017c0.093,0.042,0.189,0.002,0.275-0.037
				c0.087,0.01,0.171,0.107,0.258,0.043c0.066-0.085,0.15-0.022,0.233-0.004c0.087-0.028,0.171-0.028,0.254,0.007
				c0.09-0.033,0.211-0.035,0.274-0.109C19.271,0.608,19.215,0.49,19.178,0.378L19.178,0.378L19.178,0.378z M17.189,0.152
				c0.176-0.027,0.353-0.059,0.529-0.073c0.315-0.015,0.635-0.018,0.951,0.018c0.122,0.02,0.258,0.036,0.367,0.103
				c0.074,0.119,0.1,0.26,0.146,0.39c0.045,0.075,0.012,0.158-0.078,0.155c-0.084,0.043-0.166,0.04-0.24,0
				c-0.084-0.008-0.168,0.083-0.239-0.002c-0.077-0.069-0.132,0.073-0.216,0.052c-0.084-0.052-0.202-0.091-0.292-0.028
				c-0.093,0.053-0.167-0.057-0.26-0.019c-0.1,0.056-0.176-0.022-0.278-0.019C17.486,0.705,17.347,0.84,17.3,0.71
				c-0.008-0.084-0.062,0.046-0.117,0.013c-0.062,0.03-0.155,0.098-0.217,0.014c0.016-0.062,0-0.177,0.065-0.212
				c0.019,0.033,0.012,0.11,0.037,0.027c0.019-0.09,0.037-0.186,0-0.27c-0.088-0.066-0.082,0.115-0.102,0.168
				c-0.021,0.093-0.027,0.196-0.073,0.288c-0.057,0.05-0.131,0.006-0.094-0.071c0.017-0.105,0.065-0.208,0.082-0.314
				c0.011-0.077,0.054-0.163,0.141-0.17C17.078,0.172,17.133,0.163,17.189,0.152L17.189,0.152L17.189,0.152z"/>
		</g>
		<path id="path3828" fill="#9EA3A8" d="M16.957,0.682c-0.211,0.074-0.211,0.788-0.078,0.891c0.06,0.047,0.046,0.077,0.028,0.243
			c-0.08,0.732-0.186,1.847-0.237,2.865c-0.061,1.197,0.09,2.032-0.295,2.728c-0.343,0.436-0.875,0.816-0.876,1.437
			c-0.006,3.016,0,6.029,0,9.051c0,0.26,0.331,0.653,0.819,0.84C16.809,18.922,17.43,19,18,19c0.567-0.001,1.19-0.08,1.68-0.266
			s0.82-0.58,0.82-0.838c0-3.023,0.014-6.035,0-9.051c-0.004-0.621-0.533-1-0.877-1.437c-0.385-0.696-0.234-1.531-0.297-2.728
			c-0.049-1.017-0.15-2.132-0.236-2.863c-0.018-0.166-0.027-0.196,0.033-0.245c0.129-0.102,0.129-0.816-0.082-0.891
			C18.811,0.608,18.332,0.616,18,0.615C17.666,0.614,17.187,0.607,16.957,0.682L16.957,0.682z"/>
	</g>
</g>
</svg>
