<?xml version="1.0" standalone="no"?>
<!DOCTYPE svg PUBLIC "-//W3C//DTD SVG 1.1//EN" "http://www.w3.org/Graphics/SVG/1.1/DTD/svg11.dtd" >
<svg xmlns="http://www.w3.org/2000/svg">
<metadata>
Created by FontPrep 20130207 at Thu Oct  1 18:37:45 2015
 By malauzat romain
Created with the help of MyScriptFont.com
Copyright belongs to the Creator.
</metadata>
<defs>
<font id="d56b83153b8b59e3eddbacf631cc50f3" horiz-adv-x='1024' >
  <font-face 
    font-family="hirlemann"
    font-weight="500"
    font-stretch="normal"
    units-per-em="2048"
    panose-1="2 0 6 3 0 0 0 0 0 0"
    ascent="1638"
    descent="-410"
    x-height="1073"
    cap-height="1348"
    bbox="17.1579 -150 1495.04 1640.17"
    underline-thickness="102"
    underline-position="-205"
    unicode-range="U+0020-20AC"
  />
<missing-glyph horiz-adv-x="745" 
d="M135 68h408v1228h-408v-1228zM68 0v1364h542v-1364h-542z" />
    <glyph glyph-name=".notdef" horiz-adv-x="745" 
d="M135 68h408v1228h-408v-1228zM68 0v1364h542v-1364h-542z" />
    <glyph glyph-name=".null" horiz-adv-x="0" 
 />
    <glyph glyph-name="nonmarkingreturn" horiz-adv-x="681" 
 />
    <glyph glyph-name="space" unicode=" " horiz-adv-x="860" 
 />
    <glyph glyph-name="exclam" unicode="!" horiz-adv-x="212" 
d="M84 463q49 0 49 -90q-2 -55 -20 -95t-45 -42q-39 -4 -46 43q-8 47 12 105t29 69q8 10 21 10zM143 1368q72 0 41 -150t-41 -372q-10 -220 -22 -234t-35 -17t-32 6t-3 266t47 413q14 56 22 72t23 16z" />
    <glyph glyph-name="numbersign" unicode="#" horiz-adv-x="1075" 
d="M674 774q0 10 -115 10h-115l-10 -51q-14 -61 -5 -69t97 -9h107l18 56q23 53 23 63zM784 950q0 -22 14 -35t110 -24t122 -29t25 -46q0 -28 -5 -34t-30 -11t-65 4t-121 9h-89l-10 -39q-12 -35 -12 -67t8 -38q9 -7 65 -22q56 -16 76 -28t20 -35t-20 -29t-94 -4l-92 4
l-10 -28q-12 -29 -50 -180t-50 -180q-13 -28 -20 -32t-18 0q-37 13 14 209q50 195 50 199t-13 7t-36 6t-54 9t-59 8q-28 3 -42 -9q-14 -11 -47 -137q-32 -126 -56 -126q-8 0 -15 49t13 125t13 86t-82 14q-74 4 -106 22q-32 17 -36 55l-2 30l256 6l14 29q14 29 19 62l6 32
l-125 6q-206 9 -221 30t-11 43q8 34 34 41q40 11 179 11l179 5l26 92q82 274 100 298t34 15t20 -29t-34 -148t-56 -169t-18 -51t114 -11h113l12 54q14 72 62 254q49 182 57 196t20 7t17 -35q15 -80 -17 -144q-14 -27 -18 -53t-31 -124t-27 -120z" />
    <glyph glyph-name="dollar" unicode="$" horiz-adv-x="735" 
d="M340 362q0 -22 9 -25t65 -3t86 11q31 11 65 46q17 19 21 31t0 35q-16 85 -82 171t-74 87q-8 0 -17 -32t-41 -166q-32 -133 -32 -155zM451 1245q0 29 -54 -24q-41 -45 -48 -68t5 -85t25 -58q12 0 42 112t30 123zM461 872q0 -57 49 -102q23 -20 79 -116t62 -128
q19 -78 -13 -146t-105 -113q-73 -44 -179 -44q-45 0 -58 -11q-12 -11 -28 -57t-38 -75t-39 -29q-17 1 -12 43t17 78t13 50q-1 15 -69 50t-91 63q-52 63 -14 169q19 52 41 72t27 15t-2 -34t-3 -71t12 -55t55 -48q46 -35 65 -28t42 82t35 133t26 112q13 56 14 76q4 73 -33 143
q-36 71 -46 137t-8 84t26 64t53 78q31 32 91 66t66 59t23 53t36 26q8 0 16 -26q9 -26 9 -55q0 -28 28 -35q131 -31 101 -162q-12 -49 -47 -70q-48 -32 -58 -22t23 53q49 66 -19 100q-25 13 -34 15t-21 -12t-52 -169q-40 -156 -40 -213z" />
    <glyph glyph-name="percent" unicode="%" horiz-adv-x="993" 
d="M752 378q0 -106 -72 -151q-33 -20 -108 -20q-74 0 -114 18t-71 66q-29 49 -27 101t36 92t79 40t2 -35q-2 -2 -6 -4q-61 -47 14 -129q11 -14 27 -18t66 -4t67 18q16 18 -4 66q-12 28 -35 24t-33 8t-10 37q0 52 49 70q18 6 30 4t38 -22q72 -55 72 -161zM937 1268
q30 0 33 -5t-1 -28q-16 -74 -74 -115q-39 -30 -161 -154t-163 -176t-86 -103q-45 -52 -103 -128t-103 -128q-45 -51 -95 -111t-72 -84q-24 -24 -44 -23q-41 0 -48 35q-6 35 29 78q88 117 178 214t269 332q37 50 180 192t187 173t74 31zM210 1116q56 0 76 18t13 56
q-6 40 -21 62q-38 58 -96 20q-14 -10 -29 -11t-31 -17t-18 -27q-2 -10 10 -45q12 -36 25 -46q15 -10 71 -10zM97 1324q28 36 75 68t59 34t48 -15q70 -33 92 -117t19 -127t-30 -89q-28 -46 -52 -63t-79 -28q-123 -23 -184 68q-45 66 0 174q25 59 52 95z" />
    <glyph glyph-name="ampersand" unicode="&#x26;" horiz-adv-x="911" 
d="M98 460q0 -44 16 -79t45 -52q28 -17 85 -17t94 20q37 18 75 51t38 43t-34 48t-79 112t-59 76q-39 6 -110 -76t-71 -126zM309 795q13 -1 73 31t136 105t117 132t48 79t7 62t-6 56t-34 40t-50 36q-22 9 -86 14q-115 10 -195 -56t-79 -178q0 -63 28 -192t41 -129zM580 430
q0 -23 87 -86q87 -64 148 -90t71 -40t-10 -32q-22 -18 -125 33t-225 143q-12 6 -61 -30t-111 -74q-100 -62 -196 -32t-125 128t24 209q23 45 45 70q24 25 78 69t57 63t-15 73t-34 147q-14 92 -12 141q10 192 260 264q131 36 217 4t107 -126q12 -62 -4 -118t-72 -126
q-115 -154 -252 -248q-76 -49 -78 -61q-8 -19 60 -121t94 -113q14 -7 78 57t69 98q7 34 13 39t25 -2t17 -53t-20 -78t-64 -63t-46 -45z" />
    <glyph glyph-name="parenleft" unicode="(" horiz-adv-x="606" 
d="M356 223q4 0 4 -33q0 -34 -28 -98q-66 -150 -128 -111q-36 22 -90 124q-54 101 -70 169t-24 205q-2 131 10 206q11 75 58 251q115 415 324 450q50 10 76 -2t57 -57q63 -92 28 -178q-12 -29 -23 -31q-10 -2 -28 20t-63 38q-45 14 -69 6t-92 -74t-110 -156t-72 -242
t-26 -231q4 -80 43 -163t61 -102t32 -20q11 -1 69 14q57 15 61 15z" />
    <glyph glyph-name="parenright" unicode=")" horiz-adv-x="530" 
d="M399 255q0 -11 -52 -79t-93 -100q-41 -31 -84 -44q-43 -12 -56 -12t-41 14t-42 46q-14 31 -9 63q4 33 26 41t64 8t74 22t93 87q115 119 145 231t-12 367l-10 65t-44 144q-35 92 -65 121q-23 16 -41 22q-31 9 -30 63t33 80t72 -5q77 -60 123 -238q17 -70 50 -250
q20 -125 2 -287t-60 -255t-43 -104z" />
    <glyph glyph-name="asterisk" unicode="*" horiz-adv-x="733" 
d="M421 1348q32 0 42 -20t5 -64q-5 -46 -5 -66t3 -20t78 17t122 15t47 -20q0 -31 -126 -63t-126 -56q-1 -10 27 -34t62 -43q64 -36 17 -74q-18 -16 -31 -20q-12 -4 -62 3q-50 8 -59 2q-9 -5 -17 -65t-20 -71q-13 -11 -56 9q-82 39 -62 115q15 50 12 92q-4 41 -8 41
q-55 -10 -74 -14q-164 -38 -170 19q0 20 34 32t91 26q58 15 68 25t-16 72q-54 116 -27 145q37 45 102 -24l39 -41l37 41q41 41 73 41z" />
    <glyph glyph-name="plus" unicode="+" horiz-adv-x="751" 
d="M344 1126q31 0 38 -22t3 -123l-6 -123l70 -8q86 -10 157 -10t93 -3t30 -17t-6 -30q-14 -14 -47 -18t-135 -6l-162 -2l6 -64q20 -211 14 -251t-11 -48q-4 -8 -24 -8q-20 -1 -33 17t-27 90q-13 72 -13 153l-2 115l-119 -6q-92 -6 -121 0t-29 29q0 17 102 33q102 14 122 22
t24 19t4 73t14 116q13 54 20 63t38 9z" />
    <glyph glyph-name="comma" unicode="," horiz-adv-x="262" 
d="M184 344q33 37 54 -6q10 -29 -4 -74t-62 -140q-97 -189 -133 -165q-25 14 -14 55q9 40 75 176t84 154z" />
    <glyph glyph-name="hyphen" unicode="-" horiz-adv-x="550" 
d="M221 690q4 6 147 5t158 -16q6 -5 3 -27q-7 -49 -84 -59q-36 -5 -185 -10t-186 -12t-45 4q-9 11 -9 39t15 39q12 11 97 21t89 16z" />
    <glyph glyph-name="period" unicode="." horiz-adv-x="198" 
d="M178 332q0 -25 -24 -58t-41 -36q-61 -16 -84 28q-12 26 -6 66q5 40 31 74t75 8t49 -82z" />
    <glyph glyph-name="slash" unicode="/" horiz-adv-x="751" 
d="M272 631q66 115 186 355t173 320q53 81 76 80q73 0 -45 -176q-54 -80 -166 -309t-239 -451q-126 -222 -155 -257q-12 -11 -38 -13t-37 10q-25 22 77 174t168 267z" />
    <glyph glyph-name="zero" unicode="0" horiz-adv-x="735" 
d="M548 1174q-16 13 -74 40t-110 30q-51 3 -64 -1t-40 -33q-205 -215 -160 -454q4 -24 20 -102t62 -168q47 -90 78 -109t80 -23t80 12t85 96q55 79 77 134t39 138q42 220 -34 376q-24 49 -39 64zM268 1339q27 21 45 25t93 0t106 -25q94 -68 148 -216t54 -308t-30 -258
q-31 -98 -92 -181q-120 -163 -236 -163q-74 2 -165 69t-144 263q-16 61 -21 105q-6 44 -6 144t5 137q4 38 22 95q61 196 221 313z" />
    <glyph glyph-name="one" unicode="1" horiz-adv-x="526" 
d="M180 290q0 23 7 29q7 7 35 11t36 22q14 36 24 222t21 194q8 12 8 26t-15 1t-15 -23t-41 -57q-33 -33 -74 -87t-54 -63q-13 -10 -39 -10q-51 0 -53 55q0 25 19 52q18 27 111 137q43 51 98 166t84 221t38 136t15 38t29 5t39 -27t19 -43q3 -20 -37 -267q-40 -248 -50 -516
l-6 -156l43 -6q41 -6 60 -23q18 -17 22 -27t-5 -36q-9 -27 -21 -40t-79 -18t-111 1t-76 33t-32 50z" />
    <glyph glyph-name="two" unicode="2" horiz-adv-x="567" 
d="M88 1098q16 30 88 96t138 106t86 54t51 13t41 -21q18 -27 19 -95q2 -150 -75 -335q-40 -94 -142 -298t-101 -212q-1 -18 171 -28t178 -18t5 -54q-2 -46 -13 -59q-10 -13 -66 -19t-218 -8q-162 -3 -190 -1q-30 2 -33 19q-12 37 8 95q19 58 123 264t136 257q32 50 83 196
t43 153t-83 -29t-104 -44q-51 -10 -70 -43t5 -65t4 -82q-8 -14 -18 -19t-37 -6h-43l-6 46q-12 72 20 137z" />
    <glyph glyph-name="three" unicode="3" horiz-adv-x="745" 
d="M426 1333q178 0 208 -11q30 -10 30 -62t-41 -122t-91 -106q-50 -37 -51 -44q0 -7 68 -40q115 -53 145 -113t31 -196q0 -135 -11 -183t-47 -100t-88 -87q-51 -36 -79 -36t-140 30t-152 44t-99 58q-139 94 -60 193q21 26 33 26t46 -54t136 -96t192 -41q90 -1 118 13
q26 14 50 55t31 63t7 90q0 70 -20 113t-83 74q-61 31 -147 41t-113 -10q-58 -42 -80 12q-16 41 26 95q42 55 139 131q96 76 116 94t20 28t-129 13t-165 9t-46 27q-8 23 8 53t38 35q22 4 200 4z" />
    <glyph glyph-name="four" unicode="4" horiz-adv-x="565" 
d="M545 724q0 -163 -11 -304q-12 -142 -26 -164t-38 -22q-47 -1 -36 149l6 104l-88 -8q-88 -10 -181 -10t-118 10t-31 42t6 67q11 35 52 135q84 193 108 338q41 268 66 303q39 61 51 -33q10 -94 -37 -319q-14 -85 -19 -104t-11 -46t-40 -114q-34 -86 -36 -105l-6 -31l94 6
q127 10 149 13l58 6l6 90q15 268 35 268q8 0 24 -17t20 -54t3 -200z" />
    <glyph glyph-name="five" unicode="5" horiz-adv-x="741" 
d="M125 1069v-72h70q57 -2 95 -10t105 -35q227 -92 299 -303q47 -135 7 -239q-39 -104 -111 -144q-72 -39 -195 -28q-193 16 -295 85t-73 166q14 55 77 56q25 0 30 -11q5 -12 -7 -24t4 -35q38 -55 120 -85q81 -30 191 -14t154 62q43 46 50 66t-3 59q-45 166 -235 258
q-47 25 -75 32t-83 11l-80 4l-43 -49q-31 -31 -41 -37t-31 2l-26 13l4 231q1 200 7 250t28 69t126 12q105 -7 199 -27q93 -20 109 -27q16 -8 25 -30t0 -45q-9 -22 -17 -30t-55 -8t-213 35q-98 16 -120 9t-10 -51t13 -116z" />
    <glyph glyph-name="six" unicode="6" horiz-adv-x="567" 
d="M409 504q-69 0 -74 -6t-84 -34t-79 -46q0 -45 121 -70q164 -35 205 88q14 48 -3 58t-86 10zM299 227q-55 0 -75 5t-58 33q-39 28 -78 85t-47 81t-18 119t15 194q25 100 57 182t50 108q19 26 25 48q6 21 47 92t65 108q44 66 107 84q33 8 59 -22t16 -60q-11 -31 -51 -48
t-68 -48t-66 -96q-156 -264 -179 -449q-14 -113 41 -106q13 0 111 42t137 49t82 -4q43 -12 60 -50t15 -120t-26 -121q-23 -39 -71 -67q-47 -28 -71 -34t-79 -5z" />
    <glyph glyph-name="seven" unicode="7" horiz-adv-x="567" 
d="M272 320q0 -14 -22 -40t-33 -26q-12 0 -20 41q-7 41 31 163t38 152t-37 33q-65 8 -107 35t-42 52q0 24 8 30t50 12t110 -2l74 -6l14 31q16 31 16 50t46 163t51 192l6 49l-88 -8q-91 -8 -187 -8t-128 11t-32 49t31 49q31 10 181 18t202 14t66 4t28 -12q27 -25 14 -109
q-14 -84 -72 -264t-62 -204q-4 -25 1 -29t40 -10q74 -14 61 -66q-10 -33 -24 -43t-60 -14l-61 -4l-46 -146q-47 -143 -47 -157z" />
    <glyph glyph-name="eight" unicode="8" horiz-adv-x="700" 
d="M296 725q-11 0 -33 -45q-21 -45 -21 -140t14 -123t45 -46q31 -17 46 -13t48 70q29 68 23 102q-18 99 -82 165q-29 30 -40 30zM512 1196q0 8 -85 10t-177 -2t-105 -10q-25 -8 -25 -26t78 -121q77 -104 95 -109q14 -2 63 70q55 74 105 122q51 58 51 66zM397 1356
q80 6 157 -4t99 -29q37 -35 25 -88t-72 -109q-102 -90 -137 -129t-86 -110l-23 -33l33 -72q25 -57 44 -95t17 -166t-14 -166t-53 -73q-41 -36 -67 -42t-53 2q-44 13 -58 44q-13 32 -24 53q-47 90 -38 197q8 107 56 209l33 72l-39 41q-35 36 -97 118t-74 120q-13 38 11 84
q79 153 360 176z" />
    <glyph glyph-name="nine" unicode="9" horiz-adv-x="671" 
d="M385 1064q0 18 44 59q44 40 38 72q-5 32 -65 62q-60 29 -79 29t-69 -20t-66 -36q-18 -16 -43 -66q-25 -48 -25 -65t38 -53q37 -36 59 -42q67 -20 93 -24t78 10q52 13 54 24q2 8 -20 18q-37 14 -37 32zM449 885q-23 -1 -79 -11t-142 6t-120 38q-36 20 -59 63
q-35 74 -27 127q7 52 55 126t66 94q19 20 60 40q205 102 319 -53q27 -37 37 -74q4 -29 8 -32t29 10q53 25 55 -43q3 -51 -31 -134q-34 -84 -46 -172t-12 -332q-1 -244 -7 -275q-7 -30 -27 -49t-32 -9t-22 4t-19 11q-28 47 -19 67q8 21 14 169t17 308l6 121h-24z" />
    <glyph glyph-name="colon" unicode=":" horiz-adv-x="356" 
d="M172 339q0 -48 -27 -75t-63 -31t-53 19q-18 22 -1 88t53 80q35 14 63 -10t28 -71zM270 846q50 0 62 -60t-20 -94q-61 -63 -111 -24q-27 20 -17 78t47 88q18 12 39 12z" />
    <glyph glyph-name="semicolon" unicode=";" horiz-adv-x="423" 
d="M23 -2q-6 26 4 60q9 34 73 162t84 150t38 8q20 -14 20 -58q0 -45 -84 -196t-113 -153q-16 0 -22 27zM340 846q49 0 61 -60q11 -60 -23 -96q-34 -35 -66 -35t-49 32t-7 75q10 44 36 64t48 20z" />
    <glyph glyph-name="less" unicode="&#x3c;" horiz-adv-x="1050" 
d="M934 436q0 -33 -4 -38t-38 -5q-34 -1 -85 25t-85 38t-290 142q-256 129 -295 159q-39 29 -73 47t-42 58q-6 40 22 66q28 27 192 81t387 151t255 128t71 44q38 14 51 14q12 0 24 -14t0 -59q-12 -46 -82 -93t-258 -128t-262 -105q-74 -25 -129 -49t-60 -32q-3 -12 7 -24
t65 -46t65 -37t196 -89t236 -95q50 -10 64 -19t41 -48t27 -72z" />
    <glyph glyph-name="equal" unicode="=" horiz-adv-x="933" 
d="M76 684q31 10 48 5q18 -5 198 -10t354 -8t179 -6t-2 -39t-23 -54t-87 -24q-69 -5 -373 3t-333 18q-16 14 -17 39q1 60 56 76zM47 903q-1 25 23 43t64 22t344 14t325 28q8 8 48 0t53 -20t1 -42q-12 -29 -34 -41q-23 -12 -95 -27q-72 -14 -156 -20t-234 -8q-152 -2 -208 -4
t-87 5q-30 7 -37 16t-7 34z" />
    <glyph glyph-name="greater" unicode="&#x3e;" horiz-adv-x="905" 
d="M682 850q0 8 -74 47t-86 39t-107 38t-137 58t-93 64q-50 42 -62 70t-12 63t12 47q15 12 31 6t82 -50t108 -67q43 -23 115 -47q104 -40 174 -70t102 -38q78 -16 114 -52t36 -86q1 -49 -11 -66t-82 -86t-125 -105q-56 -36 -241 -126l-2 -2h-2l-2 -2h-2l-2 -2h-2l-2 -2h-2
l-2 -2h-2l-3 -2h-2l-2 -2h-2l-2 -2h-2l-2 -2h-2l-2 -2h-2l-2 -2h-2l-2 -2q-294 -147 -332 -148q-22 3 -22 35q-8 53 3 83t55 60t172 86q127 56 277 145t150 124z" />
    <glyph glyph-name="question" unicode="?" horiz-adv-x="591" 
d="M115 274q1 20 19 80t32 76q32 37 62 -12t21 -115t-63 -86t-69 27q-2 10 -2 30zM209 514q-23 0 -29 6t-12 38t-18 68t-11 50q2 14 35 69t55 80q25 25 95 119t88 130q20 34 36 96t17 102v39l-37 -8q-6 1 -95 -13t-116 -24t-55 -37t-37 -51q-10 -24 -8 -32q3 -8 25 -30
q22 -20 22 -46t-6 -30t-37 -4t-45 5t-31 26q-23 23 -25 33t12 55t47 75q32 30 138 81t174 67q131 35 166 -16t-4 -188q-23 -88 -51 -142t-109 -162q-80 -106 -100 -153t-17 -109q4 -94 -67 -94z" />
    <glyph glyph-name="at" unicode="@" horiz-adv-x="1515" 
d="M905 946q-66 0 -86 -5t-63 -34q-92 -59 -164 -165t-80 -193q-2 -39 2 -49t31 -26t85 -30t108 6t116 82q109 105 109 201l41 195q0 12 -16 15t-83 3zM1118 -29q-18 0 -32 -10t-30 -9q-17 1 -18 3q0 2 7 5t29 17q22 15 38 19t-16 4q-47 2 -95 -41q-12 -10 -45 -13t-178 -3
t-151 9q-5 9 -19 9t-14 -3t10 -14q10 -12 22 -12t26 -16q13 -16 36 -19t114 -4t125 -7t40 5q8 10 53 11h49l-31 -15q-26 -16 -60 -16t-41 -11t-222 -7l-213 6l-76 37q-76 34 -113 68t-73 46q-94 31 -160 162q-39 82 -50 144t-7 171t20 176q34 143 186 345q86 112 124 146
t82 74t103 92t109 77q51 25 137 51t150 38q64 11 166 7q100 -4 148 -21q48 -16 98 -56t76 -81t50 -136t23 -163q0 -68 -43 -250q-44 -182 -70 -234t-36 -91q-25 -72 -122 -192t-143 -132q-16 -4 -30 4t-45 39q-84 78 -84 195q0 35 -10 37t-31 -27q-41 -57 -164 -86
q-63 -16 -109 -10t-100 39q-104 61 -100 182q2 47 32 138q31 91 65 144q34 54 82 116t65 76t48 42q31 30 84 58t119 28q65 0 93 -10t69 -48t51 -58t23 -78q41 -193 -66 -332l-41 -51v-101q0 -74 3 -87t22 -13q37 0 133 127q45 57 103 188q59 131 83 220t28 204q3 115 -8 139
t-50 53q-40 27 -102 51t-210 30q-253 10 -400 -88q-62 -42 -181 -156q-307 -300 -339 -515q-5 -34 -5 -109q0 -74 4 -102t18 -57q55 -111 151 -179t242 -107q62 -15 110 -19t202 0l223 4l80 41q80 41 121 82q37 41 51 41q45 0 -47 -82q-58 -53 -54 -69t-34 -38
q-40 -22 -58 -22z" />
    <glyph glyph-name="A" unicode="A" horiz-adv-x="550" 
d="M170 768v-252l104 2q104 2 115 10q9 12 15 104t17 241q11 148 18 269q7 120 15 132t-1 38q-11 26 -19 30t-39 4t-92 -36t-106 -81l-52 -51l13 -78q12 -78 12 -332zM114 1386q16 0 21 -6q6 -6 11 -32q4 -26 14 -28q10 -3 41 17q70 49 184 49q51 0 67 -4t37 -24
q55 -57 37 -195q-6 -47 -24 -269t-25 -284q-8 -62 7 -86q16 -24 16 -32t-14 -36t-17 -122q-10 -162 -53 -162q-29 0 -37 32t-2 126l6 114h-107q-104 0 -114 -12q-6 -14 -6 -97t-18 -94t-36 6t-21 94t-7 89t-25 21q-29 10 -29 27t29 30l29 10l6 146q12 262 3 447t-4 223
t10 45t21 7z" />
    <glyph glyph-name="B" unicode="B" horiz-adv-x="610" 
d="M154 254q46 0 120 36t117 81q88 92 88 377q0 108 -13 152t-51 85t-69 41q-74 -2 -170 -70l-47 -32l-2 -277q-2 -283 -9 -307t4 -56q11 -30 32 -30zM143 1026q26 0 72 62q45 62 63 99q18 36 21 86q2 50 -13 63q-14 14 -58 18t-58 -4q-27 -20 -37 -172t10 -152zM403 1310
q0 -50 -8 -74t-42 -88t-29 -71q6 -4 80 -8t111 -38q73 -65 75 -300q0 -326 -154 -430q-88 -59 -133 -75t-149 -14q-104 1 -120 28q-7 10 -11 42t0 430q4 400 11 506t27 140t71 28q52 -6 130 2t121 -16q20 -12 20 -62z" />
    <glyph glyph-name="C" unicode="C" horiz-adv-x="557" 
d="M320 254q36 0 58 22t50 74q28 51 53 77q27 27 35 17t9 -55t-29 -89t-52 -61t-74 -33q-97 -29 -169 13q-71 41 -110 118q-73 148 -71 421q2 127 16 181q14 53 24 107q9 54 48 134q60 127 138 178q39 28 85 28t62 -5t47 -29q32 -24 52 -68q20 -43 35 -122t4 -91t-25 0
t-20 52t-46 111q-39 71 -69 91l-35 25l-39 -45q-178 -197 -164 -625q6 -133 13 -182t30 -110q23 -62 65 -98t79 -36z" />
    <glyph glyph-name="D" unicode="D" horiz-adv-x="575" 
d="M164 262q34 0 112 71t117 149t50 226t-19 289t-64 205q-33 64 -92 96q-43 25 -87 29t-57 -13q-13 -16 -4 -168t6 -210t7 -328t16 -308t15 -38zM77 222q-5 9 -10 51t-15 91t-15 375q-6 326 -12 446q-6 121 -4 145q3 24 23 42t52 23q32 4 103 -2q145 -3 207 -61t108 -260
q47 -202 40 -336q-7 -136 -79 -281q-39 -80 -75 -121t-91 -74q-108 -65 -209 -51q-18 4 -23 13z" />
    <glyph glyph-name="E" unicode="E" horiz-adv-x="380" 
d="M229 1317q133 0 131 -35q0 -14 -8 -19t-47 -11t-94 4q-55 11 -71 -2t-27 -328l-4 -174l86 6q86 6 86 -8q-1 -14 -21 -24t-78 -26l-71 -20v-158q0 -102 3 -140t20 -83q18 -45 32 -45t92 38t78 30t-15 -25q-15 -16 -107 -60t-114 -44q-20 0 -27 9q-7 10 -25 72t-23 158
q-6 96 -2 388t12 394q9 102 29 116q20 16 47 16t46 -14t72 -15z" />
    <glyph glyph-name="F" unicode="F" horiz-adv-x="583" 
d="M168 815q131 0 131 -24q0 -33 -123 -43l-67 -7v-217q0 -263 -17 -283q-6 -7 -20 -7t-20 8q-6 10 -12 78q-7 68 -15 407q-8 338 -5 424q4 86 14 113q8 27 32 44t48 20t122 2t144 10q46 12 107 12t74 -11q9 -13 -14 -28q-22 -14 -59 -23t-179 -2q-18 2 -93 -11t-89 -21
q-26 -14 -33 -220q-8 -131 4 -176l13 -45h57z" />
    <glyph glyph-name="G" unicode="G" horiz-adv-x="581" 
d="M373 1407q35 0 49 -6q53 -23 92 -136t44 -173t2 -68q-2 -8 -26 -8t-41 30t-45 132t-59 145l-31 47l-49 -49q-47 -45 -71 -89t-69 -182q-46 -138 -56 -248q-11 -110 17 -239t52 -180t68 -76q28 -12 58 -13t41 13q11 15 31 105t21 127v45h-51q-33 0 -41 3t-6 17t57 32
t90 10q36 -7 44 -23t2 -78q-18 -217 -98 -294t-214 -3q-53 29 -82 78t-52 140t-27 131t-1 141t12 147q9 47 23 98t21 78q49 176 139 262q51 52 86 68t70 16z" />
    <glyph glyph-name="H" unicode="H" horiz-adv-x="600" 
d="M571 1337q9 0 9 -37t-9 -83q-35 -163 -49 -553t-22 -431t-43 -40q-23 -1 -29 35t-6 163v135l-43 -6q-8 -2 -40 -6q-179 -22 -179 -47q0 -13 9 -105t7 -110t-16 -35q-25 -25 -35 -24q-33 0 -46 173q-13 172 -31 342t-25 362q-5 192 1 232q6 42 29 54q41 20 46 12t11 -194
t35 -533l9 -88l69 6q209 15 215 45q2 10 -3 54t2 112t13 136q27 330 62 390q8 16 26 28t33 13z" />
    <glyph glyph-name="I" unicode="I" horiz-adv-x="165" 
d="M127 603q0 -329 -5 -353q-4 -24 -24 -40t-40 -17q-20 1 -23 279q-2 278 -11 322t3 98q11 54 36 84t38 29t19 -37t7 -365zM123 1348q20 0 22 -106t-20 -132q-9 -14 -29 -14t-25 9t-13 51t2 94q8 52 30 76q22 22 33 22z" />
    <glyph glyph-name="J" unicode="J" horiz-adv-x="401" 
d="M172 213q-64 0 -92 13q-28 14 -43 50q-16 36 -17 53q0 17 12 77t25 65q5 2 9 -2t4 -8q0 -53 62 -149t114 -36q29 30 36 130t8 466t9 400t35 66t43 5q8 -16 4 -440q-4 -425 -8 -491t-23 -103q-34 -77 -94 -91q-20 -4 -84 -5z" />
    <glyph glyph-name="K" unicode="K" 
d="M70 1348q51 0 55 -191q0 -84 14 -145l13 -62l22 35q18 35 41 90q19 55 29 67t50 87t57 97t37 22t24 -6t4 -36t-35 -102q-197 -414 -197 -450q0 -61 258 26q72 25 82 25q28 1 -13 -187q-11 -50 -23 -162q-12 -110 -12 -154q2 -44 -20 -66t-50 -23q-28 0 -34 5t-12 26
q-16 90 22 274t28 201q-8 10 -58 -7q-50 -18 -79 -18q-30 0 -68 -16l-41 -14v-66q0 -70 10 -112t12 -156l4 -119l-26 4q-20 2 -44 34t-36 73q-10 40 -10 146t-16 148t-32 364q-15 322 7 351q12 17 37 17z" />
    <glyph glyph-name="L" unicode="L" horiz-adv-x="466" 
d="M150 293q16 0 50 6q249 44 246 14q0 -10 -30 -32q-29 -27 -86 -31q-201 -23 -251 -42t-56 36q-6 49 6 152q11 102 33 282t32 297q27 348 94 381q37 16 39 -16t-24 -179t-56 -472q-30 -323 -37 -345t8 -36q16 -14 32 -15z" />
    <glyph glyph-name="M" unicode="M" horiz-adv-x="847" 
d="M762 1368q27 0 46 -20t20 -28t-9 -42q-10 -33 -53 -253t-55 -296q-13 -75 -13 -231t-5 -199q-10 -82 -76 -86q-34 -2 -43 8t-13 49t-4 73q0 35 11 105q10 70 16 187t42 299t17 182q-25 0 -125 -98t-121 -110q-20 -13 -53 -13t-40 5t-11 28t-59 96q-54 74 -60 84
q-33 41 -37 10q1 -20 21 -116t45 -171q25 -74 43 -269q18 -196 25 -216t1 -78q-12 -98 -84 -55q-32 21 -32 23t-11 163q-12 262 -28 397t-62 341q-31 157 -33 183t6 30q9 4 20 9t41 -3t48 -22q17 -14 37 -50q20 -35 60 -84t68 -91q59 -89 87 -74q16 9 150 127
q135 118 155 155t30 44t38 7z" />
    <glyph glyph-name="N" unicode="N" horiz-adv-x="653" 
d="M56 1386q24 0 36 -14t22 -49t95 -249q84 -214 129 -354q44 -140 66 -179t27 -49q14 -29 27 -10q13 18 28 105q16 87 23 119t8 155q1 124 20 256q18 133 32 151t38 18t26 -24q3 -24 -7 -80t-28 -182t-28 -184t-13 -220q-2 -162 -35 -295q-8 -37 -15 -43t-34 -3t-38 16
t-77 149t-124 331q-60 196 -82 203q-19 5 10 -309q39 -422 -31 -409q-23 4 -32 53t-17 367t-40 517q-32 198 -16 209q6 4 30 4z" />
    <glyph glyph-name="O" unicode="O" horiz-adv-x="532" 
d="M406 493q8 37 20 173t-3 292t-22 232t-30 121t-46 53q-24 8 -61 -14q-84 -53 -117 -171t-31 -419t72 -436q31 -55 107 -37q29 6 37 13t14 38t29 74t31 81zM512 792q0 -174 -17 -278t-57 -173q-41 -71 -61 -85q-19 -14 -87 -28t-84 -14q-16 1 -44 13q-72 39 -103 172
t-37 384t16 347t72 160t164 125q23 12 58 11q36 -1 64 -17q28 -17 47 -67t39 -153t24 -163q6 -60 6 -234z" />
    <glyph glyph-name="P" unicode="P" horiz-adv-x="432" 
d="M307 944q0 137 8 170q11 33 -14 168q-8 43 -44 60t-83 -1l-37 -16l-6 -127q-6 -104 -10 -336l-6 -211l28 8q29 6 67 32t52 48q45 68 45 205zM96 559q0 -43 11 -95t-7 -142l-16 -89h-64l3 283q2 328 13 540q10 212 16 246t16 47t18 19t14 11t16 7t23 4q12 2 41 3l66 -2
q66 -3 84 -7t36 -26t35 -113q17 -92 7 -135t-10 -123t-16 -157q-15 -77 -38 -113q-33 -57 -184 -99l-64 -16v-43z" />
    <glyph glyph-name="Q" unicode="Q" horiz-adv-x="577" 
d="M294 1327q-44 0 -57 -5q-60 -23 -108 -245q-20 -94 -20 -277t6 -215t14 -73q8 -40 15 -76t29 -78q23 -42 45 -54q22 -11 79 -11h57l15 65q12 74 8 104t-41 90t-45 107q-8 90 53 -2q6 -6 10 -14q37 -59 49 -55q11 4 13 185t-2 239t-24 152t-29 107t-7 23t-7 22
q-9 11 -53 11zM448 303q-8 0 -49 -33t-57 -38t-85 -5q-69 -1 -99 15t-58 69q-37 76 -54 172q-17 95 -23 261t12 276t58 209q41 99 59 123q36 48 147 39q55 -5 86 -21t28 -36t17 -58t36 -118t21 -156q4 -76 5 -285v-328l36 -74q27 -51 29 -64t-10 -26q-31 -33 -72 41
q-19 37 -27 37z" />
    <glyph glyph-name="R" unicode="R" horiz-adv-x="395" 
d="M125 735q10 0 54 32q44 31 74 63t40 88t9 186q-1 131 -10 178t-38 61q-29 13 -76 11t-57 -18t-8 -309q2 -292 12 -292zM223 727q0 -4 36 -16q36 -11 72 -23t38 -14q10 -8 6 -190t-8 -215t-26 -55t-34 -21q-37 0 -8 350q6 74 -6 88t-84 14t-84 -14q-12 -13 -11 -195
t-4 -190t-30 -12t-28 0q-3 6 -18 516t-14 546q2 36 20 54t58 27q39 9 122 5t112 -17t36 -62t5 -228l-4 -207l-29 -39q-33 -39 -75 -69t-42 -33z" />
    <glyph glyph-name="S" unicode="S" horiz-adv-x="421" 
d="M213 1386q74 0 88 -16q49 -57 84 -199q14 -59 15 -78t-11 -44q-13 -25 -29 -29q-33 -8 -47 76q-4 45 -29 126q-26 80 -42 104t-40 21t-48 -32t-31 -59q-6 -30 -3 -97t9 -96t37 -93t72 -124q90 -132 118 -272t22 -208q-7 -68 -49 -111q-42 -42 -108 -44t-93 29t-44 84
q-16 53 -16 100t22 112q23 65 55 42q13 -8 13 -112t18 -136q18 -33 48 -49t52 4q12 12 13 118q0 227 -124 389t-145 337q-2 26 6 75t21 76t39 63q26 35 40 39t87 4z" />
    <glyph glyph-name="T" unicode="T" horiz-adv-x="497" 
d="M285 1093q0 -17 -27 -37q-28 -20 -64 -26t-48 -16t-12 -289q-1 -279 13 -346l13 -66h41q49 0 143 32q93 32 113 36t20 -8t-97 -51t-214 -74q-45 -12 -64 3q-18 15 -36 71t-20 112q-3 58 -3 322t-11 283t-10 25t17 20q17 12 31 68t14 124t37 100q58 37 68 -22q5 -29 1 -37
t-16 -99q-12 -92 -16 -104t10 -12q10 -2 64 3t53 -12z" />
    <glyph glyph-name="U" unicode="U" horiz-adv-x="548" 
d="M272 293q106 0 107 69q2 29 15 61t18 111q4 79 8 397t18 355q8 20 37 21q23 0 29 -39t11 -248t6 -235q1 -27 0 -81t5 -105t-9 -119t-42 -114t-69 -90t-58 -54q-16 -9 -53 -13q-100 -12 -170 31t-82 129q-6 47 -10 293t-10 366q-6 121 7 211q12 90 36 119t45 28h22
l-2 -473q-4 -389 3 -467t48 -120q20 -23 34 -28t56 -5z" />
    <glyph glyph-name="V" unicode="V" horiz-adv-x="598" 
d="M31 1350q10 29 28 26q16 -3 84 -278q67 -274 103 -440t63 -173q16 23 83 327t95 497q10 63 58 57q35 -6 34 -47t-41 -245t-92 -421t-60 -257q-7 -40 -56 -140q-6 -14 -36 -32t-37 -10q-7 7 -55 211q-48 205 -80 377t-75 326t-16 222z" />
    <glyph glyph-name="W" unicode="W" horiz-adv-x="892" 
d="M281 536q0 -22 13 -22t19 83t95 402q12 59 18 73t23 13q35 0 63 -48t29 -96q0 -47 7 -77t33 -172q25 -142 33 -174q8 -31 8 -47t4 -21q3 -6 13 -2q9 4 25 132t42 238t26 138t32 200q33 170 35 192t7 30t21 8q45 0 45 -51q0 -35 -17 -122t-31 -121t-13 -64q2 -32 -12 -60
q-15 -28 -25 -145t-21 -185t-11 -117q0 -48 -19 -125t-39 -120t-30 -51t-34 -10q-26 -2 -32 4t-16 53t-34 145q-24 97 -37 162l-22 110q-8 46 -8 67q0 31 -20 10t-43 -180q-23 -158 -39 -219q-30 -113 -84 -113q-14 0 -21 7q-6 7 -11 37t-99 412t-118 512q-25 131 -5 154
q43 41 75 -73q6 -23 58 -259t84 -362q33 -124 33 -146z" />
    <glyph glyph-name="X" unicode="X" horiz-adv-x="571" 
d="M551 1348q0 -24 -39 -94t-83 -185t-91 -225q-11 -30 20 -115q31 -84 62 -180t63 -176q59 -145 17 -174q-40 -24 -82 98q-8 18 -66 184t-65 169q-5 3 -13 -8t-20 -39t-32 -73t-59 -147q-40 -102 -56 -126q-15 -23 -44 -24h-6q-20 1 -28 5q-21 12 34 135q166 367 154 430
q-6 31 -53 159t-84 289q-14 68 9 87t39 -6q16 -26 76 -204t74 -178t57 106q42 106 56 126q14 22 47 82t62 75q51 33 51 9z" />
    <glyph glyph-name="Y" unicode="Y" horiz-adv-x="489" 
d="M255 1057q13 0 54 107q41 108 61 144t47 58q26 22 42 20q37 0 -39 -194t-101 -281q-16 -78 -74 -252q-58 -175 -81 -251t-41 -109q-19 -33 -45 -46t-34 -13t-19 12q-10 12 8 78t121 360q28 82 28 154t-6 99q-6 26 -41 97q-127 260 -86 328q33 49 68 -35q10 -25 25 -71
q16 -46 58 -126q42 -79 55 -79z" />
    <glyph glyph-name="Z" unicode="Z" horiz-adv-x="731" 
d="M683 1397q28 -1 28 -19q-1 -18 -49 -100t-108 -187t-128 -220t-137 -263q-67 -149 -105 -226t-30 -86t126 38t196 89q78 41 136 63t68 13t-21 -35q-65 -54 -233 -114q-33 -12 -117 -50q-83 -38 -149 -62t-101 -25q-35 0 -37 12t21 49q55 76 176 381q17 37 41 79t118 208
t144 243q49 77 49 87t-8 13q-22 8 -196 -44q-225 -63 -228 -35q1 8 19 24t73 34q55 20 235 72t184 57q5 4 33 4z" />
    <glyph glyph-name="bracketleft" unicode="[" 
d="M457 10q0 -24 -22 -52q-23 -28 -61 -48t-189 -4q-151 15 -161 68q-12 69 10 397q24 327 32 375t36 227q29 181 40 239q10 58 18 107t43 72t107 31t77 14t65 -2t72 -18t10 -48q-2 -37 -33 -50q-30 -13 -114 -12t-123 -12l-35 -10l-39 -197q-34 -167 -48 -331
q-13 -164 -22 -257t-9 -261l-2 -170l30 -17q33 -14 174 -14l144 2v-29z" />
    <glyph glyph-name="backslash" unicode="\" horiz-adv-x="299" 
d="M250 504q0 -31 15 -113t13 -130t-42 -48q-14 0 -22 13q-7 13 -20 79q-14 67 -14 105t-40 220t-42 206q0 26 -30 162t-35 196q-6 60 -9 64t-4 22q0 18 5 37q10 78 43 37q10 -12 24 -97t35 -180q23 -94 61 -273t50 -224t12 -76z" />
    <glyph glyph-name="bracketright" unicode="]" horiz-adv-x="614" 
d="M247 1279q-11 3 -19 20t-6 27q4 10 24 30q20 22 42 26t41 11q18 7 104 -9q85 -16 111 -28t40 -88t6 -210t-13 -218t-40 -425t-70 -446q-10 -25 -25 -37q-33 -25 -227 -24q-63 0 -87 3t-58 23t-41 39q-6 17 -7 27q-3 27 129 32q131 5 173 12t82 24q22 8 52 216t44 462
t19 340t-4 121q-9 36 -40 48q-71 27 -145 24t-85 0z" />
    <glyph glyph-name="a" unicode="a" horiz-adv-x="862" 
d="M406 946q-18 0 -74 -40q-55 -40 -74 -68q-45 -68 -87 -166t-42 -147t52 -109q51 -60 93 -62q42 0 113 31t88 76q6 14 6 66t27 142t31 138q-1 12 -15 22q-14 11 -19 47t-12 44t-38 17t-49 9zM599 936q1 0 2 15t14 25t38 60q25 52 34 61t32 9t31 -32q17 -67 -54 -211
q-71 -143 -100 -341q-9 -62 4 -88t50 -40t96 -32t77 -29q19 -11 19 -36t-41 -55t-83 -35q-42 -6 -116 11t-100 40t-45 24q-18 1 -58 -28t-120 -37t-119 11t-65 46q-25 27 -25 39q0 13 -25 63t-25 89t31 155t117 253q86 138 172 198q27 16 76 15t77 -18q27 -17 59 -56
q32 -40 39 -58t8 -18z" />
    <glyph glyph-name="b" unicode="b" horiz-adv-x="880" 
d="M180 431q0 -13 12 -23t109 -32q98 -22 126 -22q29 0 149 54t141 73q45 53 55 135t-18 138t-58 81q-29 26 -80 46q-129 53 -206 -4q-27 -18 -80 -85q-52 -68 -68 -98t-49 -140t-33 -123zM428 1407q14 0 19 -8t11 -49t-2 -80q-9 -39 -52 -148q-43 -108 -38 -112q4 -4 72 24
t161 12q171 -31 228 -206q31 -90 33 -155t-24 -171t-80 -160q-53 -55 -174 -98q-215 -72 -369 49q-45 33 -63 32t-34 -44t-26 -52q-12 -9 -36 1t-28 18q-23 38 28 210q52 173 84 224t58 134t104 285q79 202 89 241q9 39 17 46t22 7z" />
    <glyph glyph-name="c" unicode="c" horiz-adv-x="595" 
d="M460 1069q48 -1 85 -19t31 -136t-62 -119q-18 0 -21 7t1 48q12 117 -82 55q-49 -33 -125 -109t-104 -136q-29 -60 -31 -136t1 -94t20 -34t37 -20q20 -3 86 -1t94 8t86 34t61 27q17 0 3 -32t-34 -58q-43 -58 -149 -91q-105 -32 -155 -33t-87 24q-145 88 -65 346t247 381
q67 52 92 68q23 20 71 20z" />
    <glyph glyph-name="d" unicode="d" horiz-adv-x="866" 
d="M150 556q0 -54 22 -86q22 -34 73 -59q52 -25 78 -31t92 -7q66 0 98 9t40 22t28 84q19 71 19 103q0 33 20 99t19 132q-2 66 -7 79q-17 38 -108 40q-90 3 -121 -9q-129 -49 -221 -230q-20 -44 -26 -68t-6 -78zM772 1339q35 80 57 21q19 -45 17 -80t-39 -195t-63 -316
q-26 -155 -46 -257t-28 -139t-24 -62t-30 -27t-54 -1q-40 2 -88 -30t-153 -31t-149 31q-44 31 -83 97q-80 132 -62 230t44 159t90 159q65 98 125 140t173 56q113 16 188 -33q23 -16 35 -8q12 9 41 123t49 163z" />
    <glyph glyph-name="e" unicode="e" horiz-adv-x="661" 
d="M361 1106q9 0 61 -15t84 -49q33 -34 69 -104q35 -70 43 -96t10 -82q2 -58 -14 -90q-27 -47 -229 -68q-75 -8 -99 -6t-50 14t-34 24q-10 12 -18 44q-8 33 14 43t132 14q213 10 213 60q0 41 -31 88t-73 68q-43 21 -71 11t-92 -76t-86 -95q-20 -29 -20 -51t-17 -40t-29 -65
t-13 -107q0 -60 60 -105q60 -44 143 -47t114 2t100 32q106 36 114 28t-18 -52t-63 -76t-119 -58t-150 -25q-68 0 -91 5t-60 26q-174 100 -98 389q18 68 55 150q36 81 60 117t109 114t94 78z" />
    <glyph glyph-name="f" unicode="f" horiz-adv-x="663" 
d="M559 1208q0 35 -4 49q-3 14 -23 33t-37 13q-17 -7 -53 -59t-105 -238t-69 -242v-31l105 8q137 10 172 2t35 -53t-64 -82t-124 -34q-62 3 -113 -6t-58 -17q-29 -37 -55 -174t-48 -159t-34 -23q-12 0 -35 18q-20 18 -19 45t24 131t24 138q0 34 -21 44q-47 31 -34 111
q4 31 11 37t45 12t57 34t43 118t145 348q84 180 170 217q28 10 38 11t25 -9q43 -28 69 -104t15 -145t-14 -89q-2 -20 -16 -81t-27 -82q-14 -21 -28 -29t-40 14l-24 24l20 41q47 88 47 209z" />
    <glyph glyph-name="g" unicode="g" horiz-adv-x="806" 
d="M682 936l4 65l-45 3q-43 2 -76 -18t-93 -82q-60 -64 -98 -139t-42 -123t2 -61t39 -45t44 -36t50 8t83 49t56 72q0 2 36 121q36 118 40 186zM317 -150q-109 0 -143 12t-74 54q-96 109 -75 234q5 44 31 68t85 36t101 -2t43 -35q0 -31 -113 -33q-58 -2 -72 -15t-1 -57
t67 -92t114 -67q60 -20 87 -12t67 51q40 44 52 68q11 24 31 139t40 202q6 23 -16 23q-23 -2 -70 -30t-109 -10t-90 76q-29 58 -29 110q-1 52 19 136t50 137q59 106 170 187t163 71q51 -9 77 -19t44 -26q18 -15 19 -61t-33 -181q-35 -136 -43 -174q-7 -38 -23 -84t-59 -252
t-67 -281q-24 -74 -75 -129l-39 -44h-129z" />
    <glyph glyph-name="h" unicode="h" horiz-adv-x="780" 
d="M588 373v-37l86 -19q86 -16 86 -26q0 -33 -62 -76t-99 -43q-38 0 -52 7t-41 34l-41 41l6 65q10 73 96 351q31 104 31 151t-4 59t-33 29t-51 15t-90 -37q-70 -35 -100 -80t-83 -213q-55 -168 -73 -245t-64 -128q-18 -16 -26 -19t-23 3q-51 21 -17 159q16 62 39 168
q24 106 51 163t59 113t41 96q9 41 84 206q74 166 100 223t44 71t36 -27q20 -40 12 -93t-52 -145q-44 -91 -36 -99q6 -8 44 10t81 16q43 -3 77 -32q34 -30 52 -68q16 -38 20 -112t-9 -148t-51 -184t-38 -149z" />
    <glyph glyph-name="i" unicode="i" horiz-adv-x="366" 
d="M246 959q0 -25 -25 -111t-47 -136t-41 -136q-18 -86 -18 -150v-53h80q67 0 77 -9q10 -10 -12 -58t-90 -66t-103 10t-42 79q-8 52 1 166t63 292t93 221q12 14 18 13t26 -19t20 -43zM304 1255q6 0 24 -16t18 -61q-2 -82 -47 -82q-27 0 -31 50t12 80t24 29z" />
    <glyph glyph-name="j" unicode="j" horiz-adv-x="622" 
d="M502 1047q35 0 38 -68t-26 -149q-29 -82 -68 -276q-40 -194 -40 -236t-8 -78t-18 -77q-11 -42 -18 -77t-38 -95q-31 -59 -62 -95t-43 -40t-63 -3l-66 4l-35 69q-23 47 -28 73q-7 26 -7 79t5 68q3 15 37 48t38 25q8 -6 -5 -20t-10 -79t22 -105t41 -42t55 31q80 82 112 344
q17 118 36 238t67 290q49 170 84 171zM582 1151q-12 -10 -24 2q-12 11 -12 59q1 48 13 63q13 15 25 10t16 -30q10 -80 -18 -104z" />
    <glyph glyph-name="k" unicode="k" horiz-adv-x="739" 
d="M719 1098q-1 -67 -87 -182q-171 -227 -290 -300q-63 -36 -50 -54q14 -18 53 -48q38 -30 53 -42l91 -71q29 -23 102 -29t90 -18t2 -42t-63 -62t-76 -31q-28 0 -116 57q-88 58 -122 94t-73 60t-51 21q-12 -4 -18 -29q-6 -24 -36 -90t-62 -79t-40 -4q-9 9 -3 62t22 95
q25 51 26 103q1 53 6 71t31 50q44 53 135 294t122 288q6 10 37 79q32 69 44 89t28 15q16 -4 26 -38t-29 -153t-86 -213t-69 -161t-15 -72q10 -10 130 104t177 189q94 123 107 88q4 -8 4 -41z" />
    <glyph glyph-name="l" unicode="l" horiz-adv-x="546" 
d="M430 1262q-10 25 -22 24q-16 0 -56 -33t-49 -55q-8 -22 -39 -150t-44 -196t-20 -94q-7 -25 6 -22t48 36q84 86 142 264t34 226zM526 1253q0 -23 -10 -73q-47 -248 -124 -400t-204 -250q-24 -16 -30 -28t-6 -46t-18 -126t-25 -105q-11 -12 -37 -12t-37 8t-15 77
q-4 70 12 159q14 91 32 205t48 202t30 110q0 24 27 123q28 99 46 144q49 117 131 172q53 35 81 33q54 -4 89 -131q10 -39 10 -62z" />
    <glyph glyph-name="m" unicode="m" horiz-adv-x="1165" 
d="M727 846q7 0 73 64t131 100t103 37q38 -1 48 -7q11 -6 26 -26q43 -66 34 -163t-77 -302q-11 -37 -31 -84t-10 -65t56 -36q46 -20 52 -42q5 -22 -24 -37q-66 -31 -111 -31t-57 12t-20 38t9 99q17 72 38 114t39 117q18 74 31 102t14 100v69h-43q-80 0 -189 -105t-145 -229
q-36 -123 -75 -217q-40 -94 -50 -107t-35 -13t-31 4t-6 26t44 168q44 145 61 172q47 72 47 161q1 89 -17 115t-72 26t-206 -120q-44 -34 -60 -60t-44 -122t-82 -223q-56 -127 -72 -127q-10 0 -35 10q-23 12 -19 39t40 114t69 208t86 252t90 172q31 38 45 27t14 -45
q0 -33 -4 -57q-6 -24 0 -26t60 32t77 42t71 9t75 -21q63 -48 69 -106t13 -58z" />
    <glyph glyph-name="n" unicode="n" horiz-adv-x="819" 
d="M799 375q0 -37 -82 -91t-132 -54q-49 0 -65 18t-20 71q-6 98 106 404q31 82 31 122t-4 50q-13 33 -99 31q-156 -3 -220 -80q-30 -36 -58 -138t-90 -270q-60 -168 -78 -188t-40 -18q-47 6 -9 141q23 78 92 262q70 184 89 294t56 105q12 -2 25 -18l14 -23l52 23
q47 19 88 30t109 5q68 -7 92 -21t46 -63q43 -97 -61 -396q-2 -4 -4 -16q-47 -139 -40 -162t97 -16q8 2 56 5t49 -7z" />
    <glyph glyph-name="o" unicode="o" horiz-adv-x="729" 
d="M709 744q-1 -68 -17 -143t-42 -126t-64 -107t-64 -73q-43 -35 -138 -48q-96 -13 -148 1t-99 53t-66 72t-35 99t-16 90t32 166t67 196q70 109 180 147q53 16 80 13q27 -4 53 -30t31 -35q4 -9 -4 -24q-12 -20 -47 -34t-74 -15q-104 0 -166 -121q-27 -53 -39 -171t3 -148
t43 -58q27 -28 53 -41t110 -13t142 37q58 38 98 118t48 127q9 47 0 94t-22 69q-12 22 -45 56q-94 102 -80 137q7 16 51 14t76 -27q32 -26 66 -116q33 -91 33 -159z" />
    <glyph glyph-name="p" unicode="p" horiz-adv-x="839" 
d="M260 479q0 -65 144 -65t216 56q73 56 103 181q19 100 -58 195q-38 47 -73 65q-35 19 -102 13t-95 -31q-12 -8 -17 -33q-5 -24 -33 -94q-29 -70 -57 -167t-28 -120zM819 698q0 -23 -12 -75q-57 -256 -240 -347q-39 -18 -63 -23t-88 -5q-63 0 -114 24q-50 24 -63 26t-25 -9
q-12 -12 -47 -168q-36 -156 -49 -194t-32 -52q-25 -14 -43 -9t-21 14t3 54q6 46 70 306q63 260 109 412t83 292t69 140q12 1 30 -19q18 -19 34 -23t80 -3t90 -3q88 -14 156 -114q44 -66 58 -134t15 -90z" />
    <glyph glyph-name="q" unicode="q" horiz-adv-x="704" 
d="M237 441q23 -7 73 2t96 13t59 26q15 22 29 111t42 189t23 116q-4 16 -18 20t-91 5t-118 -13t-90 -68q-211 -227 -66 -359q37 -35 61 -42zM640 1106q20 0 26 -10t15 -60t-5 -96t-58 -249q-44 -201 -53 -239t-31 -131t-42 -145t-58 -181q-38 -130 -60 -139q-9 -6 -47 -6
t-38 5q2 18 36 129q34 110 52 154t39 122q22 78 8 90t-68 -34t-78 -56q-26 -10 -63 -4q-117 23 -176 186q-39 93 4 275q25 80 100 184q76 104 142 146q35 20 115 31t130 4q50 -6 63 -4t20 15t27 13z" />
    <glyph glyph-name="r" unicode="r" horiz-adv-x="655" 
d="M216 1057q12 0 26 -28q16 -27 20 -65t8 -38t44 28t114 52l78 22l43 -20q86 -43 86 -131q0 -41 -9 -41q-10 0 -62 34t-74 35t-76 -23q-55 -24 -90 -53q-74 -53 -110 -132t-72 -233t-52 -182t-38 -28t-29 12q-6 12 5 94t56 253q45 172 57 229q46 215 75 215z" />
    <glyph glyph-name="s" unicode="s" horiz-adv-x="573" 
d="M514 756q-14 0 -19 7t-11 36t3 67q8 38 7 48q-2 12 -16 28t-32 20q-16 4 -64 5q-48 0 -64 -5t-37 -28q-59 -63 -48 -100q6 -18 66 -84q98 -106 132 -234t-19 -192q-35 -40 -73 -58q-37 -18 -103 -18t-96 15t-68 69q-61 84 -48 158t72 73q27 0 29 -8t-12 -40
q-13 -32 -13 -40t19 -26q39 -43 93 -53t112 18q43 20 28 75q-14 55 -60 97t-85 104q-49 86 -48 168t56 146t151 82q96 17 149 -54q52 -72 32 -207q-6 -47 -12 -58q-7 -11 -21 -11z" />
    <glyph glyph-name="t" unicode="t" horiz-adv-x="616" 
d="M432 1057q152 0 160 -19q4 -8 4 -40t-10 -46q-17 -24 -180 -24l-156 -4l-53 -156q-84 -271 -86 -301t12 -45q70 -78 260 -33q66 16 70 10q20 -18 -64 -67q-43 -25 -100 -62t-85 -37t-69 22q-41 21 -73 55t-39 66t15 143t87 309t133 337q23 45 47 6q12 -23 19 -63l6 -51
h102z" />
    <glyph glyph-name="u" unicode="u" horiz-adv-x="702" 
d="M121 442q1 -22 23 -46t40 -24t64 34q46 33 82 73q88 102 152 301t75 212q12 13 35 -11q47 -49 -2 -191q-50 -142 -64 -243q-14 -102 9 -121q10 -8 72 -18t72 -31q3 -8 -1 -33q-8 -48 -78 -65q-71 -17 -105 -5t-59 56q-24 44 -30 43q-6 1 -77 -53t-98 -70q-55 -39 -129 12
q-26 18 -36 36t-24 61q-14 44 -6 85q7 42 38 146t43 128t28 82q15 58 11 63t-39 -25t-66 -22q-31 7 -31 46t35 71t164 120q29 18 42 22t28 -2q59 -27 -7 -183t-114 -291q-47 -135 -47 -157z" />
    <glyph glyph-name="v" unicode="v" horiz-adv-x="1034" 
d="M1014 1072q0 -14 -29 -42q-31 -27 -121 -46t-110 -30q-25 -10 -66 -63t-207 -293q-49 -68 -89 -112t-92 -139t-70 -106t-34 4t-16 60t8 185t16 169t7 80q0 51 11 107t14 88l8 63l-68 -6q-61 -8 -100 -2t-47 11q-9 5 -9 25t18 31q18 10 78 20q62 10 91 20q74 25 108 -21
q13 -21 15 -41t-5 -78t-17 -196t-19 -184q-8 -46 1 -51t26 21t75 93q57 61 93 109t113 166t98 134t80 26q59 9 97 15q38 5 90 1t52 -18z" />
    <glyph glyph-name="w" unicode="w" horiz-adv-x="1454" 
d="M724 888q20 -91 19 -138t43 -166t51 -117t30 57q24 54 39 102t98 215q82 167 95 186t101 35t133 11q106 -14 101 -45q-8 -45 -158 -67q-74 -13 -96 -21t-46 -36q-26 -28 -85 -144t-71 -154t-52 -126q-39 -88 -45 -127q-5 -39 -25 -69t-34 -30t-34 16q-12 16 -44 104
t-41 132q-9 42 -29 118t-22 127q-1 50 -13 72l-12 25l-19 -25q-14 -23 -40 -95t-48 -118q-70 -136 -92 -246t-49 -112q-11 0 -27 16t-48 118t-32 129q0 25 -50 135t-78 180t-54 92t-48 28t-22 29q0 47 64 47q29 0 40 -7q55 -35 195 -377q35 -82 39 -102t19 -38q10 -16 17 -4
q30 51 69 143t39 100q0 7 53 137t80 187q29 55 53 -10q8 -23 12 -49t24 -118z" />
    <glyph glyph-name="x" unicode="x" horiz-adv-x="1095" 
d="M559 655q-25 0 -71 -47q-46 -46 -76 -104t-29 -84q0 -26 43 -54q44 -26 110 -6t76 40q10 22 2 100t-24 117q-16 38 -31 38zM702 600q0 -131 86 -205q94 -88 202 22q42 42 49 75t18 32q18 4 18 -60t-48 -134t-123 -90t-165 28q-59 35 -63 35q-4 1 -43 -25t-107 -32
t-136 14t-78 67q-11 47 46 157t82 148t59 74q33 36 33 46q0 8 -42 65t-52 57t-82 -169q-41 -94 -198 -306q-125 -168 -135 -110q-2 8 -3 18q0 33 82 137q163 204 310 541q23 49 33 66q11 16 24 16q23 0 29 -31t66 -136t71 -105q20 1 48 23q29 22 49 62t87 100t117 82t63 23
q12 0 20 -39t-20 -79q-8 -15 -123 -101q-114 -86 -144 -132t-30 -134z" />
    <glyph glyph-name="y" unicode="y" horiz-adv-x="964" 
d="M215 137q0 -21 -46 -31t-58 -21q-13 -11 -13 -50t16 -52t54 -8q80 10 178 85q98 76 132 140t60 104t42 89t9 57t-42 -26q-63 -53 -117 -15q-53 38 -80 154q-8 37 -7 66t19 122t38 165t8 83q-2 4 -7 -10q-10 -23 -43 -49t-55 -25q-45 1 -11 57t110 105t104 6q8 -10 2 -42
q-6 -31 -37 -151t-40 -186t-2 -95q7 -30 31 -51t32 -22q26 -3 84 54q59 57 87 107q28 49 93 183t99 200t49 74q16 7 34 -29t-9 -87q-75 -142 -115 -246t-62 -152t-41 -120q-53 -188 -161 -368t-190 -220q-41 -18 -86 -46t-113 -32q-67 -4 -81 0q-14 3 -27 21q-14 25 -23 79
t-8 72t17 57q31 73 119 75q37 0 47 -3t10 -18z" />
    <glyph glyph-name="z" unicode="z" horiz-adv-x="964" 
d="M484 1036q114 0 170 18t65 19q10 0 20 -10q12 -17 0 -67t-25 -78t-81 -130q-68 -104 -62 -111q7 -7 115 72t183 -15t75 -296q0 -293 -213 -491q-68 -63 -112 -79t-156 -16q-111 -1 -139 3t-46 17q-17 14 -32 38t-32 48t-17 98q0 73 32 139q61 122 210 97q73 -11 73 -42
q0 -23 -27 -33t-103 -13q-76 -4 -98 -22t-22 -95t45 -116q23 -21 74 -37t71 -11t60 7q38 2 106 40t113 86t70 89t55 127t17 211q-11 125 -60 179q-27 26 -57 22t-82 -39q-51 -35 -134 -115q-84 -80 -104 -116t-42 -38q-22 -3 -27 2t-5 38t28 80q127 216 208 387q37 67 33 69
t-97 -6q-92 -8 -112 -3t-44 -5t-30 -26q-8 -16 -26 -104q-36 -177 -126 -313q-91 -136 -153 -108q-23 9 -23 21t35 49t43 37t62 70t76 118q22 46 32 150t-12 124q-39 34 -25 91q15 39 25 39t38 -22q28 -20 52 -24t138 -4z" />
    <glyph glyph-name="braceleft" unicode="{" horiz-adv-x="550" 
d="M462 1278q-22 0 -59 -17t-75 -51t-43 -76t17 -203t-48 -253l-35 -45l27 -68q51 -123 3 -239t-47 -163q1 -46 40 -85q40 -39 66 -52t110 -39t82 -38q-4 -9 -52 -29t-66 -22q-17 -2 -54 4q-145 33 -189 145q-18 47 -7 140t44 167q14 37 12 95l-4 61l-80 39q-55 29 -68 40
t-16 34q-6 78 64 88q41 6 92 32l49 27l-4 76q-2 154 -4 194l-2 121l41 76q33 59 78 100t91 50t76 -3q29 -12 29 -36t-24 -46q-22 -24 -44 -24z" />
    <glyph glyph-name="bar" unicode="|" horiz-adv-x="20" 
 />
    <glyph glyph-name="braceright" unicode="}" horiz-adv-x="407" 
d="M377 218q0 -50 -4 -72t-26 -56q-47 -72 -134 -90q-86 -18 -139 -2t-54 59q0 13 14 21t84 22q68 14 110 36t51 32q29 42 -25 168q-31 74 -34 104t3 199q0 31 -8 108t3 126t12 89q2 40 22 114t20 143v65l-67 6q-174 16 -174 32t21 36q21 22 45 29t110 5t107 -10
q22 -8 38 -49q36 -90 -9 -267q-44 -176 -41 -228t9 -62t27 -20q45 -18 49 -62t-39 -76q-43 -36 -45 -84t29 -125t38 -109t7 -82z" />
    <glyph glyph-name="asciitilde" unicode="~" horiz-adv-x="833" 
d="M203 784q-59 0 -77 -12t-34 -92q-18 -80 -30 -102t-28 -23q-17 0 -7 82t57 156q99 147 403 -78q81 -59 99 -59t128 100q110 102 99 61q-4 -16 -39 -63q-45 -68 -100 -119t-89 -57t-59 5q-26 11 -108 87t-119 94q-37 20 -96 20z" />
    <glyph glyph-name="cent" unicode="&#xa2;" horiz-adv-x="739" 
d="M434 875q0 31 -12 30q-18 -1 -84 -73q-141 -154 -164 -271q-10 -39 -7 -54t21 -50t30 -47t28 -15h4q16 -2 27 19t84 225q73 205 73 236zM583 715q-30 0 -13 45q7 18 36 53t29 61q1 26 -19 44t-38 18q-28 0 -58 -110t-97 -274q-67 -165 -57 -174q10 -10 66 14q55 24 82 46
q104 92 150 86q12 -2 12 -15t-74 -91t-107 -104q-35 -26 -99 -58t-78 -33q-14 0 -48 -97q-34 -96 -54 -140t-45 -61q-26 -17 -34 -10t32 138t32 154q-6 14 -68 55q-86 61 -108 139q-23 72 51 203q35 62 53 103q19 41 71 115t80 105q28 30 112 85q84 56 106 80t63 128t61 119
q20 16 36 2q14 -14 6 -69t-24 -88t-14 -68q3 -35 25 -51q49 -41 63 -116q20 -117 -76 -199q-40 -34 -55 -35z" />
    <glyph glyph-name="sterling" unicode="&#xa3;" horiz-adv-x="774" 
d="M80 436q0 -39 33 -69q55 -53 117 -53t104 48q14 14 15 22t-13 38t-74 73q-58 43 -120 27t-62 -86zM394 324q-6 0 -42 -29q-82 -63 -146 -65t-94 14t-60 58t-32 77t28 93t85 92q55 32 117 20q31 -4 49 -14t53 -44q51 -47 64 25q18 89 19 108q1 18 -1 56q-4 23 -30 34
t-92 21t-79 39q-2 10 7 16q50 31 116 31t82 18t22 114t42 200q37 106 92 143q20 13 57 15t54 -11q51 -43 49 -135t-83 -158q-11 -8 -15 -4t23 56q26 52 29 83q3 30 -16 58q-41 63 -90 16t-70 -139q-38 -176 -36 -215t43 -45q201 -31 213 -55q6 -13 -20 -37t-78 -32t-99 5
q-47 12 -62 -4t-21 -87t-17 -131q-9 -61 -9 -79t11 -37q27 -53 83 -59t118 29t69 29q8 -6 -16 -52q-51 -90 -148 -92q-31 0 -51 6t-66 37t-52 31z" />
    <glyph glyph-name="section" unicode="&#xa7;" horiz-adv-x="20" 
 />
    <glyph glyph-name="guillemotleft" unicode="&#xab;" horiz-adv-x="512" 
d="M49 1096q8 0 34 -31t26 -41q1 -10 111 -124t110 -130q0 -35 -90 0q-149 57 -200 172q-34 74 -9 129q10 25 18 25zM420 815q-22 0 -46 25q-24 26 -72 98t-57 96t-9 71q0 48 12 66q10 9 16 9t26 -19t58 -89t90 -129q54 -61 54 -73t-25 -34t-47 -21z" />
    <glyph glyph-name="guillemotright" unicode="&#xbb;" horiz-adv-x="477" 
d="M432 1124q18 0 23 -45q10 -78 -43 -157q-37 -52 -102 -94t-111 -44q-39 0 -22 28t87 102t103 126q47 84 65 84zM209 1190q35 42 45 -22t-16 -131t-99 -156q-61 -80 -102 -11l-17 31l46 55q45 54 86 134t57 100z" />
    <glyph glyph-name="questiondown" unicode="&#xbf;" horiz-adv-x="577" 
d="M434 725q14 0 18 -6q4 -7 8 -47q3 -40 -26 -122q-30 -82 -72 -133q-42 -49 -76 -63t-112 -12l-88 2v-78q0 -72 12 -112t56 -100q92 -123 217 -60q57 29 94 73t20 66q-10 17 -6 23t30 6t37 -14t11 -50q0 -78 -89 -156t-165 -80q-145 -2 -250 191q-23 47 -27 73
q-6 26 -6 112q-1 160 48 204q18 18 94 14t108 10t69 72q38 58 38 74t13 54q14 39 22 49t22 10zM494 1067q16 0 20 -7t4 -46t-15 -75t-32 -32q-37 7 -14 107q8 35 14 44q7 9 23 9z" />
    <glyph glyph-name="Agrave" unicode="&#xc0;" horiz-adv-x="552" 
d="M162 516h104q106 -2 116 10t14 76q5 64 19 227q13 161 19 269t17 166q3 55 -7 67q-26 29 -102 0t-139 -90l-41 -39v-686zM408 172q-48 0 -37 166l6 106h-215v-75q0 -78 -7 -107t-26 -29q-47 0 -55 127q-2 56 -6 70t-26 20t-22 30t22 29t26 23q16 72 16 388t2 401v65h33
q20 0 27 -5q8 -5 14 -29t13 -25q7 1 55 25t70 29q24 5 77 5t69 -5t46 -31t36 -39q8 -14 7 -56q-1 -43 -23 -261t-28 -317q-7 -99 -14 -115t8 -38q16 -24 16 -32t-14 -36t-16 -128q-3 -100 -13 -128t-41 -28zM262 1614q0 16 7 20t33 4t34 -3t8 -19t23 -35q49 -39 43 -76
q-2 -18 -20 -18t-74 55q-54 56 -54 72z" />
    <glyph glyph-name="Aacute" unicode="&#xc1;" 
d="M162 516h104q104 -2 115 10q9 14 25 199t26 291q30 292 10 315q-28 33 -120 -9t-134 -105l-26 -39v-662zM121 1386q18 0 25 -5q6 -5 12 -29t13 -25q7 1 55 25t72 29t79 5t83 -10t52 -45l2 -2q20 -31 20 -76t-20 -217q-19 -172 -31 -321q-6 -131 -10 -143t9 -50t-2 -62
t-18 -127t-13 -132t-41 -29q-23 0 -31 36t-6 134l4 102h-213v-75q0 -80 -7 -108t-27 -28t-33 23q-13 24 -13 50t-5 71t-11 56t-21 16q-27 7 -23 29t31 36l33 14l2 357q2 393 2 430l2 71h29zM352 1621q0 17 33 17t40 -4t7 -18t-39 -56t-52 -42t-16 11t0 26t15 32t12 34z" />
    <glyph glyph-name="Acircumflex" unicode="&#xc2;" horiz-adv-x="563" 
d="M164 894q0 -144 -8 -246t2 -118q12 -14 98 -14t106 3t26 15t12 113q5 101 19 274q13 173 17 279l6 148h-39q-82 -2 -192 -105l-64 -61l9 -76q8 -68 8 -212zM116 1386q14 0 19 -6q6 -6 11 -32q4 -26 14 -28q10 -3 41 17q68 49 184 49q49 0 67 -4t38 -24q22 -20 31 -56
q9 -34 7 -71t-14 -139q-2 -63 -12 -128t-20 -240q-10 -176 -9 -194q2 -18 14 -23q11 -5 13 -19t-13 -17q-10 -4 -23 -75q-13 -72 -12 -104q0 -32 -6 -68t-11 -44t-19 -8q-37 0 -45 39t4 154l8 79h-233v-67q0 -143 -25 -144q-37 0 -43 111q-4 54 -9 70t-24 30q-59 41 0 64
l31 10v404q0 400 5 426t11 32t20 6zM528 1497q-10 -1 -63 61t-53 71t31 9t43 -7q32 -20 45 -60q14 -40 11 -57q-4 -17 -14 -17zM301 1620q0 -14 -57 -74t-72 -59q-10 0 -12 17q-2 18 6 28t39 32t46 51q15 28 38 23q12 -4 12 -18z" />
    <glyph glyph-name="Adieresis" unicode="&#xc4;" 
d="M162 516h104q104 -2 115 10q13 20 31 262q12 106 20 222q28 301 10 321q-28 33 -120 -9t-134 -105l-26 -39v-662zM126 1386q16 0 21 -6q6 -6 11 -28q12 -60 43 -22t123 53t141 -7q25 -10 47 -46t23 -88q-1 -52 -23 -237t-26 -363t-13 -192q-10 -15 -10 -128
q-4 -92 -14 -121t-41 -29q-23 0 -31 36t-6 134l4 102h-213v-67q0 -82 -8 -113t-29 -31q-33 0 -40 78t-14 105t-26 33q-27 7 -23 29t31 36l33 14l2 387q2 380 7 419q5 40 10 46t21 6zM412 1638q41 0 51 -3t10 -25q1 -22 -23 -57t-44 -35q-39 1 -50 73l-6 47h62zM176 1591
l-8 47h104l-8 -32q-10 -53 -28 -76q-18 -22 -36 -6t-24 67z" />
    <glyph glyph-name="Ccedilla" unicode="&#xc7;" horiz-adv-x="546" 
d="M330 254q56 0 86 82q8 31 43 70q67 75 67 2q-2 -86 -76 -152t-169 -66q-35 2 -88 35t-84 74q-74 96 -86 371q-6 174 2 230q7 56 33 148t46 136q20 43 60 93t78 77q84 63 174 16q40 -22 72 -90t36 -144t-12 -69q-12 4 -31 55q-70 184 -114 209q-19 10 -29 7t-41 -33
q-100 -104 -147 -334q-16 -71 -16 -265t18 -266q20 -72 71 -130q51 -56 107 -56z" />
    <glyph glyph-name="Egrave" unicode="&#xc8;" horiz-adv-x="395" 
d="M301 313q-10 0 -34 -20q-24 -21 -38 -21t-47 -19t-76 -20h-40l-17 52q-23 81 -27 367t8 464q13 178 13 198t8 30t43 25t49 4t123 -18t109 -42q0 -21 -39 -29t-103 -2l-86 6l-12 -39q-10 -39 -10 -258v-217l80 6q80 8 80 -3t-31 -26q-32 -15 -68 -15t-48 -15
q-12 -14 -25 -94q-12 -80 0 -126t12 -116t30 -89q29 -18 103 18t74 29t-6 -15q-15 -15 -25 -15zM254 1514q0 -32 -10 -34t-36 15q-26 19 -64 71q-40 52 -40 62t31 10t44 -9t44 -46t31 -69z" />
    <glyph glyph-name="Eacute" unicode="&#xc9;" horiz-adv-x="393" 
d="M373 1313q0 -44 -144 -31l-84 6l-12 -39q-10 -39 -10 -258v-217l80 6q80 6 80 -2q0 -16 -26 -30q-25 -14 -71 -18t-51 -5q-14 0 -14 -189t12 -219q25 -53 129 0q72 37 66 19q-11 -23 -87 -62q-75 -39 -115 -42q-40 -4 -53 4t-31 66t-22 579q0 49 8 196q7 147 12 192t5 48
q2 14 42 42q40 27 54 15t123 -19q109 -6 109 -42zM276 1638q24 0 30 -3q5 -3 -3 -29t-38 -57t-45 -31t-17 16t3 38t14 39q8 17 20 22t36 5z" />
    <glyph glyph-name="Ecircumflex" unicode="&#xca;" horiz-adv-x="428" 
d="M108 233q-32 1 -46 21t-25 90q-12 70 -15 158q-3 86 1 357t12 374q9 103 29 118t125 10t130 -12t34 -23t-3 -34q-10 -10 -29 -12t-88 2l-102 6l-6 -82q-2 -51 -12 -258l-7 -176l89 8q53 4 69 3t17 -11q0 -25 -78 -36t-86 -36t-4 -165q4 -233 43 -248q16 -5 95 33t85 20
q2 -2 -5 -13t-99 -53t-124 -41zM388 1579q-10 -1 -34 21t-24 30t38 8t40 -10l-9 -37q0 -12 -11 -12zM98 1631q0 -7 -26 -35t-36 -28q-9 0 -7 22t5 31q7 21 35 19q29 -2 29 -9z" />
    <glyph glyph-name="Edieresis" unicode="&#xcb;" horiz-adv-x="391" 
d="M371 1313q0 -21 -39 -29t-103 -2l-84 6l-12 -39q-12 -39 -12 -258v-217l80 6q80 6 80 -2q0 -16 -26 -30q-27 -14 -71 -18t-51 -5q-12 0 -12 -189t12 -219q25 -53 129 0q47 27 64 27q31 0 -45 -47q-97 -61 -135 -63t-58 -3q-35 2 -46 71q-11 68 -16 300t-6 269l11 262
q8 147 14 175q7 28 23 38t18 12q39 28 53 16t123 -19q109 -6 109 -42zM242 1633q0 5 36 5t45 -3t9 -15q0 -33 -33 -40t-45 24q-12 24 -12 29zM61 1620q1 12 9 15t40 3t37 -4q4 -4 -9 -32t-45 -22q-32 7 -32 40z" />
    <glyph glyph-name="Icircumflex" unicode="&#xce;" horiz-adv-x="432" 
d="M158 312q-4 54 -6 318t4 311q6 48 43 83t48 -7q11 -43 5 -241t-9 -330t-11 -166q-8 -32 -25 -41t-31 5t-18 68zM398 1237q-14 0 -67 47t-71 79t-34 33t-41 -33q-26 -34 -84 -90t-69 -56q-12 1 -12 23t13 38q14 14 41 32t73 91q46 72 63 91q16 19 30 11t43 -61t77 -96
q33 -25 42 -40q10 -15 10 -42t-14 -27z" />
    <glyph glyph-name="Idieresis" unicode="&#xcf;" horiz-adv-x="342" 
d="M150 1016q37 45 47 16q16 -42 14 -370t-9 -378t-44 -51q-25 1 -30 47t-6 278t-11 277q-10 44 1 98t38 83zM244 1456q31 35 57 -24q14 -31 19 -81q4 -51 -20 -95t-52 -41t-39 53q-3 24 11 98t24 90zM27 1237q-10 23 -3 125t19 124q25 45 59 -7q18 -29 24 -62t-8 -101
q-12 -68 -26 -85q-14 -16 -37 -14t-28 20z" />
    <glyph glyph-name="Ntilde" unicode="&#xd1;" horiz-adv-x="659" 
d="M47 1386q10 0 35 -11t33 -54q15 -49 69 -178t152 -410t121 -287q4 -2 8 4t4 22t8 48t25 124q16 91 26 133t2 72t2 129t16 168q6 70 16 96q11 26 40 26t34 -18t-5 -76q-55 -308 -57 -406t-7 -152q-4 -54 -8 -91q-4 -36 -12 -96q-8 -61 -14 -115q-5 -54 -17 -67t-40 -13
t-34 4q-6 6 -12 32t-42 82t-130 342t-117 260q-8 -10 -2 -78q5 -68 17 -128t19 -258t-3 -230t-23 -37t-33 15t-24 57t-10 231q-18 616 -57 785q-12 49 -1 62t21 13zM137 1530q0 29 10 46q11 17 15 36q4 18 13 22t52 4t59 -5t44 -33q30 -28 64 -46t52 -12t60 51t41 27
q0 -14 -29 -55q-53 -78 -115 -64q-25 6 -77 53q-52 46 -102 52t-56 -37q-2 -23 -16 -49l-15 -27v37z" />
    <glyph glyph-name="Oacute" unicode="&#xd3;" horiz-adv-x="532" 
d="M115 808q0 -186 14 -289t43 -159q30 -56 56 -70q26 -13 62 -5t43 14t7 28t31 82t41 143t6 301q-7 405 -62 490q-29 43 -96 3q-33 -20 -49 -40t-45 -80t-40 -146t-11 -272zM512 796q0 -330 -84 -470q-31 -56 -51 -70q-19 -14 -87 -28t-84 -14q-16 1 -44 13q-58 31 -96 137
t-43 451q-5 219 15 311t62 154q42 61 112 100t107 45t70 -13t49 -61q16 -43 40 -161t29 -174t5 -220zM270 1576q0 24 2 35q5 27 47 27t41 -6q0 -14 -37 -60t-50 -28q-3 8 -3 32z" />
    <glyph glyph-name="Ocircumflex" unicode="&#xd4;" horiz-adv-x="538" 
d="M358 1335q-51 63 -122 -2q-27 -25 -59 -95t-43 -128q-11 -59 -8 -314q3 -256 14 -320t37 -111q55 -99 120 -80q35 12 46 23t17 45t28 81t31 125q9 79 13 263t-13 234t-21 128t-11 101q-6 23 -29 50zM53 440q-35 222 -33 438t45 328t119 155q38 21 71 43q32 22 74 24
t68 -21q87 -65 109 -363t2 -465t-84 -268q-32 -47 -56 -62t-82 -25t-74 -9q-69 8 -117 96q-30 55 -42 129zM484 1579q-12 -1 -34 21q-24 22 -24 30t38 8t38 -10l-6 -37q0 -12 -12 -12zM162 1638q33 0 33 -9q-1 -9 -27 -35t-34 -28q-8 -3 -21 9q-12 11 -6 33t14 26t41 4z" />
    <glyph glyph-name="Odieresis" unicode="&#xd6;" horiz-adv-x="542" 
d="M119 891q0 -12 1 -38q13 -331 35 -419q23 -88 72 -135q21 -21 31 -23t44 10t45 21q11 10 19 45t26 80q37 88 44 389q4 127 2 165t-16 65t-20 139t-46 156q-66 66 -154 -61q-44 -62 -52 -100t-20 -160q-11 -122 -11 -134zM522 744q0 -48 -10 -140q-20 -195 -82 -291
q-32 -49 -56 -64t-94 -27t-108 5q-37 16 -71 82q-34 65 -52 173t-26 313q-11 205 31 357t122 200q47 28 80 50t74 24t67 -13q49 -35 75 -137t38 -293t12 -239zM395 1638q45 0 50 -8t-5 -55q-20 -87 -67 -65t-37 92l6 36h53zM139 1610q0 20 7 24q6 4 50 4t49 -8t-5 -55
q-20 -88 -66 -66q-35 17 -35 101z" />
    <glyph glyph-name="Ugrave" unicode="&#xd9;" horiz-adv-x="522" 
d="M113 1114v-184q2 -42 2 -102t6 -222t11 -196q14 -97 136 -113q63 -10 97 65q40 97 46 198q5 102 4 402t10 327q11 28 27 34t30 -7q12 -13 16 -87t4 -361v-430l-45 -67q-37 -59 -83 -103t-75 -50q-29 -7 -99 4t-91 26q-59 37 -73 169t-15 477q-1 344 7 406t50 89
q31 18 45 5t2 -102q-12 -90 -12 -178zM266 1615q0 15 6 19t32 4t36 -7t29 -42q41 -72 -11 -71q-14 0 -53 41t-39 56z" />
    <glyph glyph-name="Uacute" unicode="&#xda;" horiz-adv-x="544" 
d="M124 1407q11 0 17 -39t-4 -80t-8 -422q2 -380 14 -440q11 -60 53 -96t90 -37q48 0 63 18t42 88q57 158 33 676q-6 127 2 176t43 67t45 -31q10 -51 10 -371t-3 -382q-8 -173 -136 -278q-35 -27 -51 -33t-60 -4q-190 6 -217 133q-12 46 -19 356t-14 350t2 121t20 127t38 76
q29 25 40 25zM297 1528q-14 0 -18 24t7 49t19 31q7 6 31 6q42 0 40 -9q-7 -21 -7 -29t-32 -40t-40 -32z" />
    <glyph glyph-name="Ucircumflex" unicode="&#xdb;" horiz-adv-x="522" 
d="M113 892q0 -330 9 -421q9 -92 42 -129t92 -44t81 23t50 138l33 121l-4 352q-2 252 0 305t14 70q20 20 32 19t26 -27q13 -26 14 -433v-407l-27 -58q-27 -53 -73 -104t-80 -70q-25 -10 -44 -11t-92 9t-107 48q-34 37 -46 139q-13 102 -13 458t8 424t50 95q45 27 51 -9
q2 -22 -7 -90t-9 -398zM408 1630q0 8 24 8t25 -20q0 -20 -13 -21q-10 1 -23 13t-13 20zM135 1630q-1 -8 -23 -30t-33 -21q-11 0 -12 6t5 30q6 23 34 23t29 -8z" />
    <glyph glyph-name="Udieresis" unicode="&#xdc;" horiz-adv-x="548" 
d="M126 1407q12 0 14 -29q3 -28 -5 -72t-6 -442t12 -441q10 -42 40 -75t82 -47t77 5q59 45 80 319q12 172 8 215q-4 42 -4 238t13 222q23 45 59 7q12 -14 16 -44t4 -151t7 -338q7 -216 -10 -294t-75 -162t-116 -99q-18 -6 -87 2q-69 7 -89 15t-49 38q-30 30 -42 57
q-12 29 -19 363t-13 403t8 152t25 107q10 24 34 38q24 13 36 13zM389 1638q35 0 43 -4t8 -24t-17 -40t-25 -24t-28 5t-20 15t-6 42l-6 30h51zM188 1638q35 0 43 -4q9 -4 9 -24t-18 -40t-25 -24q-8 -4 -28 5t-19 18q-1 4 -7 39l-6 30h51z" />
    <glyph glyph-name="germandbls" unicode="&#xdf;" horiz-adv-x="794" 
d="M414 686q-82 31 -99 6q-10 -12 -42 -140t-31 -155v-26l108 6q98 4 142 16t80 45q36 34 39 54t-19 65q-37 74 -178 129zM373 905q23 0 99 47q161 100 202 201q20 57 15 71t-50 34q-45 22 -105 38t-75 8q-16 -8 -35 -75q-82 -324 -51 -324zM774 1199q0 -40 -22 -97t-50 -95
q-28 -37 -98 -93t-111 -77t-41 -31t50 -36q113 -57 166 -171t6 -204t-187 -133q-43 -14 -75 -17t-97 1l-104 6l-14 -33q-12 -27 -52 -174q-39 -166 -59 -168q-4 0 -14 8q-10 9 -1 93t35 190t19 117q-6 10 -49 26t-53 49q-10 32 12 54q21 22 29 23t23 -10t38 -12t32 10
t39 130t32 141t-13 31q-14 8 -14 60t53 83q14 10 37 130t19 153t8 91q14 58 14 76t-7 23t-50 5q-78 1 -156 -67q-78 -67 -78 -26q0 77 92 136q45 28 82 36q94 23 271 -8t231 -80q57 -57 57 -140z" />
    <glyph glyph-name="agrave" unicode="&#xe0;" horiz-adv-x="870" 
d="M465 934q-113 52 -240 -160q-126 -211 -61 -342q28 -51 62 -66q34 -16 96 -4t104 50q43 38 53 92q43 197 57 248t13 60q-2 8 -25 26t-28 51q-6 33 -31 45zM468 293q-11 0 -64 -34q-54 -34 -134 -43q-124 -14 -171 49q-15 19 -43 75t-32 76t3 96q8 76 75 232
q68 157 132 236q64 78 145 100q82 22 131 -19q27 -23 53 -76l27 -49l20 22q10 12 39 66t43 69t30 13q32 -4 34 -80q-2 -55 -78 -190q-18 -37 -45 -153t-29 -179l-4 -88l59 -25q57 -27 123 -42t69 -38q1 -6 -9 -24q-55 -104 -234 -68q-51 11 -70 19t-39 32t-31 23zM340 1346
q0 72 131 -95q53 -68 37 -90q-4 -4 -15 -4t-82 67q-71 66 -71 122z" />
    <glyph glyph-name="aacute" unicode="&#xe1;" horiz-adv-x="864" 
d="M215 766q-8 0 -19 -34t-42 -118l-31 -84l22 -55q21 -49 37 -72q54 -75 176 -30q70 27 95 67t53 171q28 132 28 167q2 35 -18 74q-20 40 -20 56t-39 27t-43 9q-43 -8 -89 -46t-74 -85t-36 -47zM226 213q-104 0 -160 111q-39 80 -44 114t17 113q57 217 141 344t144 167
t132 24q71 -16 113 -103l25 -49l18 29q2 4 32 52t36 68q6 21 26 23t35 -16q37 -47 -28 -187q-35 -73 -71 -187t-38 -155l-10 -75q0 -11 4 -37q16 -49 158 -91q78 -20 87 -47t-48 -67q-69 -55 -185 -28q-56 14 -75 22t-35 30t-34 24q-18 1 -76 -39q-60 -40 -164 -40z
M385 1222q1 30 31 52t103 52t95 30t21 -33q0 -33 -38 -61q-39 -28 -109 -52q-70 -26 -87 -22q-16 4 -16 34z" />
    <glyph glyph-name="acircumflex" unicode="&#xe2;" horiz-adv-x="864" 
d="M540 797q2 23 -12 29t-21 44t-38 57t-55 17t-69 -28q-46 -26 -97 -97q-51 -72 -85 -161t-30 -145t43 -98q39 -43 68 -53t80 2t81 30q31 18 55 62t24 70t26 138q27 110 30 133zM710 1106q38 0 36 -84q-1 -40 -47 -136q-45 -94 -67 -196t-31 -134t-9 -68t6 -49
q20 -43 133 -77q113 -35 113 -51q0 -29 -43 -61t-86 -40q-43 -7 -114 9t-97 39t-46 24q-19 2 -46 -18t-87 -36q-61 -16 -105 -15t-82 25t-52 44t-43 86q-29 68 -21 133q7 65 59 200t117 230q66 95 116 125q102 60 184 11q24 -14 50 -56t25 -63q0 -35 29 6q14 16 27 43
q51 109 81 109zM470 1348q-11 0 -58 -69t-107 -97q-33 -14 -33 8q0 14 63 80t87 105t39 57q16 18 27 14t31 -35t71 -85t62 -72q12 -18 12 -48q0 -29 -17 -28q-12 0 -58 44t-77 85t-42 41z" />
    <glyph glyph-name="adieresis" unicode="&#xe4;" horiz-adv-x="866" 
d="M276 354q30 0 92 23t87 63t51 171q26 132 29 167q1 35 -19 74q-20 40 -20 56t-39 27t-41 9q-41 -8 -88 -45q-48 -37 -66 -71t-34 -51t-44 -87t-33 -96q-5 -27 -3 -78q5 -100 67 -139q31 -23 61 -23zM682 1083q6 21 26 23t35 -16q35 -47 -28 -181q-41 -88 -50 -125
t-31 -104t-26 -156l-4 -106l49 -21q51 -25 117 -42q134 -35 25 -111q-69 -55 -185 -28q-56 14 -75 22t-35 30t-34 24q-18 1 -64 -32t-126 -43q-121 -15 -171 47q-15 18 -47 81t-35 89q-8 25 16 117q59 219 161 374t191 160q74 6 111 -14t69 -86l25 -51l16 29q15 15 39 60
q25 46 31 60zM551 1448q29 0 43 -44t8 -100t-26 -78t-27 -26q-8 -4 -19 2q-31 18 -35 50q-5 32 10 98t22 82t24 16zM335 1492q9 11 15 10t23 -17q43 -43 34 -155t-57 -130q-18 -8 -33 12q-27 38 -9 154q18 115 27 126z" />
    <glyph glyph-name="ccedilla" unicode="&#xe7;" horiz-adv-x="610" 
d="M526 774q-12 0 -19 54t-19 68t-40 8q-28 -7 -79 -44t-61 -53q-10 -15 -51 -61q-42 -46 -74 -128q-31 -82 -31 -135t13 -75t52 -43q39 -19 128 -7t142 45q35 19 45 19t11 -19q0 -59 -109 -120t-198 -61t-132 35q-43 34 -65 112l-19 67l27 103q25 100 37 119q12 20 28 64
t67 118q52 74 95 104q40 34 60 48q20 15 38 31t63 26q43 10 59 9q16 0 47 -16t43 -55q4 -37 5 -43t-4 -30t-7 -56t-16 -58t-36 -26z" />
    <glyph glyph-name="egrave" unicode="&#xe8;" horiz-adv-x="671" 
d="M541 786q0 56 -46 108q-47 52 -99 52t-139 -88t-87 -139q0 -19 -17 -37t-29 -64t-13 -94q0 -48 57 -102q133 -125 407 -8q68 32 74 26t-9 -41t-34 -61q-47 -66 -223 -111q-69 -18 -91 -19q-22 0 -84 16q-135 36 -173 161q-14 51 -15 89q0 38 18 127t67 193q47 104 93 152
q46 46 60 66t53 46t76 24t80 -22t59 -40t47 -80q70 -131 56 -240q-8 -43 -33 -60q-24 -17 -140 -39q-116 -23 -184 -13t-83 62t2 64t83 8q66 -5 105 0q39 4 93 18t62 21q7 7 7 25zM270 1343q0 36 9 35q14 0 74 -60q59 -60 73 -88t14 -41t-14 -18q-28 -12 -92 62t-64 110z
" />
    <glyph glyph-name="eacute" unicode="&#xe9;" horiz-adv-x="679" 
d="M334 721q106 0 178 27q51 20 2 118q-35 66 -89 78q-55 12 -105 -27t-96 -96t-52 -81t-24 -63q-18 -38 -31 -95q-12 -57 -6 -82q5 -25 37 -61q95 -109 276 -70q76 16 111 30q116 46 124 31q-1 -12 -39 -66t-57 -69q-57 -45 -182 -65t-189 -3q-64 19 -104 63
q-77 83 -66 205q6 55 32 165t96 216t167 183q63 51 158 -2q33 -19 50 -39t46 -80q70 -133 54 -238q-7 -47 -29 -61q-22 -13 -99 -29q-221 -45 -283 -2q-40 29 -21 86q8 18 21 22q14 4 120 5zM497 1356q21 0 21 -33t-38 -61t-108 -52q-70 -26 -87 -22t-17 34t30 52t105 55
q72 27 94 27z" />
    <glyph glyph-name="ecircumflex" unicode="&#xea;" horiz-adv-x="679" 
d="M392 1085q30 -1 82 -29t72 -56t47 -94q26 -66 36 -112q10 -44 -1 -94t-38 -67q-39 -29 -252 -45q-84 -8 -124 22t-19 84q8 18 19 22q10 4 110 0q100 -3 188 32q18 6 23 15q4 9 4 36q0 59 -43 103t-103 44q-29 0 -47 -12t-76 -72t-72 -85q-15 -24 -42 -81t-38 -114t-5 -82
t37 -61t57 -50q92 -47 217 -20q78 16 114 31q114 47 121 26q-1 -10 -31 -56t-58 -72t-119 -56t-147 -29q-56 0 -120 24q-64 25 -96 57q-31 32 -49 92q-19 60 -19 80t20 130t79 222t157 202q46 43 66 54t50 11zM404 1448q14 0 46 -60t72 -94q40 -35 48 -49q10 -14 10 -41
q0 -26 -14 -26t-72 54t-72 78t-22 25q-21 6 -60 -49q-43 -68 -98 -106q-54 -38 -54 -18t46 66t102 133q55 87 68 87z" />
    <glyph glyph-name="edieresis" unicode="&#xeb;" horiz-adv-x="679" 
d="M334 721q106 0 178 27q51 20 2 118q-35 66 -89 78q-53 12 -105 -28t-97 -97t-55 -93t-25 -50q-12 -16 -25 -85t-7 -93q5 -24 37 -60q92 -109 276 -69q76 16 111 30q116 46 124 31q1 -12 -37 -66t-59 -69q-57 -45 -182 -65t-189 -3q-64 19 -104 63q-76 83 -66 204
q19 219 129 383q72 108 164 182q66 51 160 -2q35 -19 51 -39t45 -80q70 -133 54 -238q-7 -47 -29 -61q-22 -13 -99 -29q-221 -45 -283 -2q-40 29 -19 86q6 18 19 22q14 4 120 5zM469 1446q10 0 35 -32q26 -32 22 -110t-37 -98q-43 -23 -67 8q-14 18 -12 46t21 107t38 79z
M271 1483q5 0 20 -13q39 -35 38 -123q-1 -89 -23 -131t-54 -28q-23 12 -31 53q-4 43 -1 57t16 90q13 75 22 87q8 8 13 8z" />
    <glyph glyph-name="icircumflex" unicode="&#xee;" horiz-adv-x="430" 
d="M228 1036q16 0 28 -25t12 -43t-17 -93q-17 -74 -52 -158t-51 -199t4 -129q18 -14 86 -8l69 6l-8 -29q-14 -61 -61 -92q-23 -14 -73 -15t-77 11q-62 34 -34 266t118 422q41 86 56 86zM29 1147q-27 0 18 61q12 14 46 51t59 72q24 41 51 68q19 25 33 19t33 -41
q19 -36 75 -95t64 -82t-15 -37q-17 -8 -77 56q-60 63 -75 89t-35 14t-42 -54q-24 -44 -72 -82t-63 -39z" />
    <glyph glyph-name="idieresis" unicode="&#xef;" horiz-adv-x="342" 
d="M208 1036q16 0 30 -24q16 -24 16 -48q0 -26 -26 -114t-54 -156t-44 -178q-15 -111 1 -127q17 -16 83 -10t76 -1t-12 -51t-73 -66q-51 -21 -99 -9t-61 49q-14 37 -14 122t7 115t9 62q12 127 125 389q20 47 36 47zM258 1448q14 0 34 -27t29 -67q8 -40 -10 -114
q-17 -74 -65 -52t-17 174q15 86 29 86zM53 1473q43 51 70 -58q12 -47 1 -117t-36 -98l-20 -24l-23 24q-25 26 -26 64t11 118t23 91z" />
    <glyph glyph-name="oacute" unicode="&#xf3;" horiz-adv-x="718" 
d="M348 946q-27 0 -76 -24q-48 -24 -78 -59q-30 -33 -53 -115q-60 -211 31 -310q35 -41 67 -53q33 -12 95 -7t100 19t76 50q70 65 108 196l21 76l-21 59q-20 60 -66 110t-58 76t-9 54q7 20 13 24t38 -1t56 -27q26 -22 58 -86q32 -62 42 -126t0 -154q-10 -89 -28 -141
t-73 -134t-110 -114t-145 -32t-108 5q-19 5 -66 37t-76 70t-47 95q-19 58 -19 106t21 148t35 140t52 98t66 84q28 25 66 39q39 14 82 16t64 -4q16 -8 30 -36t8 -46q-8 -33 -96 -33zM532 1348q20 0 25 -6q4 -6 4 -27q0 -61 -96 -105q-117 -53 -143 -20q-35 43 102 113
q88 45 108 45z" />
    <glyph glyph-name="ocircumflex" unicode="&#xf4;" horiz-adv-x="712" 
d="M351 946q-29 0 -71 -22q-133 -67 -149 -209q-25 -164 -17 -192q8 -27 49 -73q42 -46 70 -63q53 -27 145 -7t139 78q46 56 79 143q34 87 22 145t-28 90q-16 30 -72 90t-55 74q0 14 19 30q75 65 163 -108q27 -53 35 -82q8 -28 12 -102t-12 -146t-32 -107t-62 -101
q-44 -66 -78 -101t-79 -46q-44 -10 -115 -10q-70 0 -92 5t-60 30t-79 76q-42 50 -57 104t2 199t54 223q38 78 102 134t136 70q72 13 110 -42q20 -33 15 -45q-5 -11 -35 -23t-59 -12zM389 1368q-11 0 -69 -84t-105 -96q-25 -6 -25 18t62 83t90 105q29 46 42 61q12 15 24 10
t30 -44t72 -94t64 -73q8 -18 8 -37q0 -20 -13 -21q-16 0 -63 45t-76 86t-41 41z" />
    <glyph glyph-name="odieresis" unicode="&#xf6;" horiz-adv-x="722" 
d="M344 946q-25 0 -73 -24t-66 -42q-19 -18 -41 -68t-28 -82t-10 -119q-3 -87 3 -111t39 -62q34 -37 60 -51t82 -12t114 19t116 94t80 159t-7 150q-28 68 -109 149q-25 25 -27 41t19 39q49 49 120 -42q35 -44 59 -118q25 -74 27 -103q2 -30 -11 -116t-31 -138t-74 -135
q-54 -83 -110 -115t-144 -32t-109 5q-20 5 -59 32q-82 56 -119 150t-18 204q27 184 76 280q77 143 226 167q44 6 72 -4q15 -8 29 -36t10 -46q-10 -33 -96 -33zM444 1229q0 45 12 109t21 75q33 39 62 -22q40 -94 0 -174q-23 -45 -59 -39t-36 51zM301 1464q13 0 33 -19t23 -37
t3 -78q0 -58 -3 -81t-21 -45t-39 -26q-20 -2 -27 5q-23 27 -8 154q14 127 39 127z" />
    <glyph glyph-name="ugrave" unicode="&#xf9;" horiz-adv-x="704" 
d="M275 1065q13 0 28 -14q16 -21 10 -71q-7 -50 -37 -112t-76 -186q-46 -125 -66 -208t30 -109q24 -10 48 5t94 83q70 69 105 133q37 64 77 196t51 160q11 29 29 40t32 -9q14 -19 14 -61t-46 -200t-46 -218t6 -74t75 -27q69 -12 78 -23t-9 -46q-33 -63 -129 -64
q-47 2 -72 16t-42 56t-23 41q-6 1 -74 -63t-107 -80t-51 -14q-12 1 -43 14q-31 14 -61 54t-35 78q-11 70 59 277t47 207q-12 0 -40 -24t-42 -25q-14 -2 -26 9t-13 41q0 30 8 46q8 17 86 75q76 58 112 78t49 19zM342 1267q-33 50 -38 86t9 33q18 -4 88 -79q51 -59 65 -89
t-3 -46q-16 -16 -52 14q-36 31 -69 81z" />
    <glyph glyph-name="uacute" unicode="&#xfa;" horiz-adv-x="698" 
d="M506 473q0 -31 18 -43t86 -22t68 -50q-2 -36 -41 -62t-96 -26q-100 0 -119 80q-8 39 -12 43t-62 -51q-88 -86 -146 -104t-112 28t-55 154q-1 67 59 249q60 181 57 185t-47 -18q-76 -39 -81 4q-9 38 13 70t94 84t105 70q32 17 46 10t24 -48q16 -63 -69 -229
q-25 -51 -63 -167t-43 -154t-2 -50q2 -12 24 -35t48 -13t100 87q74 76 120 167q45 91 112 316q14 47 28 54t32 -21q43 -63 6 -143q-18 -46 -55 -190t-37 -175zM285 1249q0 37 26 58q27 20 37 20t72 28q62 29 76 31q16 2 27 -10t-7 -50t-84 -70t-104 -35l-43 -7v35z" />
    <glyph glyph-name="ucircumflex" unicode="&#xfb;" horiz-adv-x="694" 
d="M121 432q1 -39 27 -55q26 -15 35 -17q26 -4 105 76q79 81 103 115q51 79 97 233t61 181l16 22l23 -22q47 -43 2 -177q-27 -80 -58 -208q-32 -128 -26 -142t41 -29t74 -19t46 -11q7 -6 7 -34t-17 -46q-14 -19 -63 -31q-137 -32 -172 72q-12 33 -20 33t-47 -41
q-40 -41 -101 -80t-89 -39t-71 45q-74 76 -59 172q10 90 86 293q45 123 18 123q-10 -2 -43 -29q-32 -27 -54 -19t-22 47t24 67t86 70t86 61t48 21t38 -13q13 -17 12 -61t-15 -70q-51 -92 -115 -270t-63 -218zM399 1327q-12 0 -52 -58t-78 -95t-53 -37q-15 -1 -15 25t61 86
t89 106t42 60q13 15 25 10t30 -43t72 -94q54 -55 64 -73t8 -37t-12 -20q-16 0 -65 44q-48 44 -76 85t-40 41z" />
    <glyph glyph-name="udieresis" unicode="&#xfc;" horiz-adv-x="706" 
d="M133 448q0 -40 13 -62q14 -24 34 -24t60 25t63 53q125 136 184 340q59 205 85 205q10 0 26 -22q14 -23 20 -50t-18 -104q-86 -279 -86 -330t8 -60t79 -23q71 -13 78 -18t7 -24q0 -52 -50 -76t-110 -15t-76 23t-22 50q-6 37 -11 37t-47 -32t-78 -65t-78 -49t-67 -8
q-68 25 -92 84q-49 117 74 434q35 86 35 99q0 28 -47 -12t-77 -22t-15 68q11 48 163 150q68 44 86 46q19 1 25 -8t10 -35t-9 -84q-13 -59 -45 -121t-77 -196t-45 -174zM549 1272q1 -115 -55 -115q-30 0 -34 6t-10 32q-5 26 9 119t30 93q10 0 37 -25q14 -18 18 -34t5 -76z
M248 1245q6 10 17 106t33 92q5 -1 19 -11q39 -37 38 -136t-38 -141q-18 -20 -41 -7t-28 50q-6 37 0 47z" />
    <glyph glyph-name="eogonek" unicode="&#x119;" horiz-adv-x="20" 
 />
    <glyph glyph-name="quoteright" unicode="&#x2019;" horiz-adv-x="243" 
d="M156 1346q32 68 58 22t-7 -151q0 -8 -4 -15q-23 -68 -64 -132t-63 -71q-27 -5 -42 5t-14 32q7 44 136 310z" />
    <glyph glyph-name="quotedblleft" unicode="&#x201c;" horiz-adv-x="591" 
d="M342 0q0 18 74 170t100 182q26 29 42 -8q17 -37 10 -68q-7 -30 -48 -114t-84 -146t-59 -65q-14 0 -25 15q-10 16 -10 34zM231 292q0 -42 -50 -144t-92 -149q-42 -48 -55 -46t-14 45q0 44 69 186t83 162q20 37 45 6q14 -18 14 -60z" />
    <glyph glyph-name="quotedblright" unicode="&#x201d;" horiz-adv-x="612" 
d="M393 956q-14 0 -19 28t4 60q8 32 72 160t80 146q31 37 52 -9q14 -31 6 -63t-60 -129q-100 -193 -135 -193zM184 1346q41 45 49 -15q10 -51 -8 -100t-91 -170t-103 -92q-35 37 30 153q39 70 71 134t52 90z" />
    <glyph glyph-name="bullet" unicode="&#x2022;" horiz-adv-x="20" 
 />
    <glyph glyph-name="Euro" unicode="&#x20ac;" horiz-adv-x="913" 
d="M412 950q0 -14 233 -32q101 -10 117 -24t9 -41q-13 -48 -97 -52q-39 -2 -162 2l-188 6l-9 -29q-5 -29 7 -38t45 1q33 9 86 11q119 3 119 -32q0 -22 -28 -50t-68 -38q-40 -9 -122 -9h-92v-62q0 -61 14 -88q34 -69 136 -111t172 -20q113 31 172 98q37 41 47 41t10 -47
q0 -98 -108 -157q-35 -19 -65 -25t-132 -12t-142 5q-38 11 -84 45t-72 73t-30 61t-4 100t-4 96t-22 31q-31 20 -60 46t-29 34q0 7 37 15t76 8t49 4q9 4 15 19t-8 25t-65 22q-52 12 -98 32t-47 33q0 13 75 29t139 16t85 15q20 15 84 111t154 184t137 104q84 29 135 -2
q88 -55 54 -234q-16 -82 -43 -81t-29 93t-39 112q-10 5 -47 7l-55 2l-80 -78q-62 -61 -120 -133t-58 -86z" />
  </font>
</defs>
</svg>
