<?xml version="1.0" standalone="no"?>
<!DOCTYPE svg PUBLIC "-//W3C//DTD SVG 1.1//EN" "http://www.w3.org/Graphics/SVG/1.1/DTD/svg11.dtd" >
<svg xmlns="http://www.w3.org/2000/svg">
<metadata>
Created by FontPrep 20130207 at Thu Oct  1 18:37:50 2015
 By malauzat romain
Romain Malauzat
</metadata>
<defs>
<font id="498084ec2949bbf6a75648bdfa8eb32b" horiz-adv-x='1024' >
  <font-face 
    font-family="RomHand-Medium"
    font-weight="400"
    font-stretch="normal"
    units-per-em="2048"
    panose-1="0 0 5 0 0 0 0 0 0 0"
    ascent="1638"
    descent="-410"
    x-height="940"
    cap-height="1206"
    bbox="15.2211 -160 1419.77 1642.38"
    underline-thickness="102"
    underline-position="-205"
    unicode-range="U+000D-20AC"
  />
<missing-glyph horiz-adv-x="745" 
d="M135 1296v-1228h408v1228h-408zM610 0h-542v1364h542v-1364z" />
    <glyph glyph-name=".notdef" horiz-adv-x="745" 
d="M135 1296v-1228h408v1228h-408zM610 0h-542v1364h542v-1364z" />
    <glyph glyph-name="uni0000" horiz-adv-x="0" 
 />
    <glyph glyph-name="uni0000" horiz-adv-x="0" 
 />
    <glyph glyph-name="uni000D" unicode="&#xd;" horiz-adv-x="681" 
 />
    <glyph glyph-name="space" unicode=" " horiz-adv-x="860" 
 />
    <glyph glyph-name="exclam" unicode="!" horiz-adv-x="382" 
d="M186 176q20 -36 -18 -62t-83 -15q-47 11 -61 48t10 61t78 8q56 -15 74 -40zM314 1434q40 0 46 -19q2 -17 -10 -119t-66 -256t-102 -346q-48 -194 -40 -228q7 -34 -5 -60q-20 -45 -55 -50q-91 -5 43 418q63 217 69 238t17 53q12 14 25 152q18 137 28 177t50 40z" />
    <glyph glyph-name="numbersign" unicode="#" horiz-adv-x="1107" 
d="M455 722q0 -70 10 -78t86 3q76 12 108 12q39 0 52 76q16 68 24 113q8 23 -4 33q-14 6 -67 5q-52 -1 -114 -23q-62 -23 -78 -47t-17 -94zM489 932q0 -20 41 -20q41 1 123 24t95 36q12 12 16 112t43 225t76 125q20 0 21 -56t-19 -67q-13 -10 -27 -73q-14 -64 -22 -136
t-13 -82q-10 -31 17 -33q14 -2 130 11q116 14 117 -14q-1 -28 -35 -50t-71 -8t-114 -17t-76 -67q-1 -40 -13 -102t-6 -70t58 6t52 -10t-16 -25q-18 4 -62 -10t-50 -31q-10 -18 3 -86t-7 -100t-49 -16q-28 15 -21 53q8 96 -8 114t-103 8q-18 -2 -41 -2l-54 -4q-13 0 -16 -6
t-8 -8q-4 -2 -6 -16q-2 -15 -3 -21t-2 -32t-5 -69t-6 -125t-9 -94t-20 -8q-27 10 -28 93q-6 81 8 161t8 90t-56 -4q-49 -14 -58 -16t-21 -5t-23 1t-34 21q-23 18 -13 49q18 36 108 36t101 10q12 10 12 78t17 105q10 31 -2 31q-23 2 -152 -36t-157 -65q-33 -27 -66 -9t-18 52
q8 31 190 74q33 6 75 13t59 11q59 12 72 28q25 32 28 67q4 35 9 199t11 245q4 16 37 17q26 -2 24 -76t-17 -197t-17 -139t-6 -32q-4 -15 -1 -34v-24z" />
    <glyph glyph-name="dollar" unicode="$" horiz-adv-x="708" 
d="M489 659q-18 0 -20 -8q-6 -10 -9 -56t6 -58q9 -13 50 -13q40 0 44 10t-23 68q-25 57 -48 57zM357 819q-17 0 -29 -37t-1 -57t-8 -20q-6 0 -12 -19q-41 -102 37 -126q33 -9 45 7q17 27 27 99t-13 118q-29 35 -46 35zM597 1319q-5 -1 -27 -57t1 -52q48 27 33 78
q-2 31 -7 31zM500 1411q-27 0 -41 -51q-14 -50 -41 -68t8 -41q41 -23 8 -22q-30 0 -22 -49q8 -50 -8 -72t-27 -90q-12 -68 -6 -90t35 -50t38 -24t18 65q9 62 24 153q14 90 22 188t6 124t-14 27zM385 1413q-57 -5 -115 -67q-57 -62 -67 -114t18 -128q31 -72 76 -111
q19 -18 27 -10q8 7 25 185t39 214t-3 31zM608 1616q74 0 23 -125q-17 -45 17 -85t40 -104t-22 -109q-28 -44 -68 -38q-41 6 -48 -3t3 -61t-12 -80t-21 -71q6 -35 -12 -88t54 -145t80 -120q10 -28 -14 -67t-50 -53q-29 -12 -77 -12q-49 -1 -63 -15t-26 -80q-25 -96 -52 -106
q-23 -6 -22 25q-2 18 4 81q8 62 3 90t-32 34t-40 -12t-37 -120t-56 -102q-33 0 -20 61l28 144q10 55 -1 73t-59 44t-76 51t-29 39q-7 49 33 49t91 -43t67 -46t20 2t4 22q0 16 23 104t19 114t-53 80q-154 172 -88 338q29 72 101 134t125 63q40 0 71 80q14 35 34 57t38 22
q35 0 20 -39q-49 -121 -14 -120q20 1 34 69t60 68z" />
    <glyph glyph-name="percent" unicode="%" horiz-adv-x="1257" 
d="M903 536q0 -24 11 -31t26 1t24 32t7 46q-6 37 -37 6q-31 -30 -31 -54zM1108 571q0 23 -25 45t-53 21v-8q0 -37 6 -60q10 -67 -30 -113t-100 -46t-80 24q-19 25 -18 86q1 60 38 112t94 77q58 25 118 17t98 -45q38 -38 42 -94t-31 -71q-59 -25 -59 55zM268 1206
q-55 0 -108 -81q-54 -81 -54 -161t28 -107q28 -28 65 -2q37 27 71 97t37 170q4 48 -6 66t-33 18zM157 752q-50 0 -86 50t-46 126q-18 152 86 286q47 62 99 84t80 17q28 -4 76 -42t56 -71t-16 -82q-25 -37 -37 -131q-12 -73 -87 -155t-125 -82zM910 1090q106 162 172 234
t84 80q19 8 46 -8t24 -26q-4 -10 -26 -21t-84 -85q-49 -63 -122 -164q-195 -283 -586 -746q-94 -113 -105 -135q-10 -33 -37 -42t-49 9q-13 14 7 50t142 171q122 136 178 212t152 192q98 117 204 279z" />
    <glyph glyph-name="ampersand" unicode="&#x26;" horiz-adv-x="833" 
d="M358 779q0 24 -22 61q-22 36 -104 -58q-84 -94 -106 -181t5 -187q23 -104 51 -121q29 -15 117 25t141 94l72 71l-76 135q-78 137 -78 161zM664 1190q-33 101 -132 81q-53 -11 -94 -54q-45 -41 -53 -80t6 -91q15 -52 29 -60q14 -7 74 4t121 81q62 70 49 119zM743 1187
q0 -75 -49 -155q-36 -53 -110 -99t-123 -46q-70 0 16 -164q45 -88 67 -116q22 -29 41 -17t55 92t36 127t32 74t68 15t37 -26q-1 -12 -67 -152t-75 -178q-9 -36 11 -50q40 -29 62 -78q22 -48 4 -60t-14 -36q5 -24 -9 -31q-29 -17 -61 5t-52 77l-26 69l-62 -69
q-49 -57 -134 -117t-144 -80t-103 6q-43 27 -77 105q-74 147 -29 332t180 294q68 55 79 81t3 96t-1 102t38 69q55 72 100 86q39 25 126 22t134 -53t47 -125z" />
    <glyph glyph-name="parenleft" unicode="(" horiz-adv-x="598" 
d="M391 1323q55 61 85 81t64 13q34 -8 38 -35q-6 -12 -23 -16q-37 0 -112 -82t-101 -154t-49 -94q-23 -16 -113 -252q-164 -428 -59 -657q19 -49 39 -74t28 -20q33 20 37 -13q5 -32 -29 -72t-54 -34t-52 82q-78 160 -68 337q9 177 99 409t130 348t140 233z" />
    <glyph glyph-name="parenright" unicode=")" horiz-adv-x="366" 
d="M229 1354q10 35 52 30q27 -6 37 -45t18 -155q23 -304 -4 -608t-88 -451q-27 -55 -35 -98q-15 -49 -71 -85t-93 -22l-20 10q-14 5 3 21t52 45q34 28 64 92t78 226t53 464q5 303 -27 426t-19 150z" />
    <glyph glyph-name="asterisk" unicode="*" horiz-adv-x="704" 
d="M305 1292q0 109 28 137q28 27 45 27q16 0 30 -57t7 -109t38 -57q45 -6 111 43t106 33q39 -18 -25 -86q-35 -35 -96 -87t-61 -70q0 -19 58 -54q104 -62 95 -87q-8 -24 -74 -18q-65 6 -97 32t-62 -15q-18 -25 -38 -27t-31 12q-9 14 1 39t-25 73t-61 54q-26 7 -104 -13
t-104 -8t-26 30t16 36t40 19q92 0 37 61q-51 49 -19 77t94 -15q16 -8 50 -43t50 -35t17 108z" />
    <glyph glyph-name="plus" unicode="+" horiz-adv-x="671" 
d="M358 905q0 240 68 228q14 -1 24 -17t8 -30l-3 -42q-2 -30 -5 -64t-4 -46l-8 -100l113 6q104 6 100 -19v-4q-18 -49 -139 -78q-45 -8 -52 -24t1 -86q16 -98 -21 -125q-37 -35 -53 14q-14 31 -22 100l-17 99l-147 6q-176 8 -181 49q0 12 20 32t171 17l147 -4v88z" />
    <glyph glyph-name="comma" unicode="," horiz-adv-x="417" 
d="M336 410q43 0 57 -27t-20 -47q-37 -16 -37 -66t-54 -150q-54 -99 -126 -178t-104 -79t-32 12q4 23 86 122t118 173t52 172q13 52 13 64q4 4 47 4z" />
    <glyph glyph-name="hyphen" unicode="-" horiz-adv-x="614" 
d="M594 676q0 -29 -78 -41q-78 -13 -238 -17t-199 4q-38 8 -52 34q-14 28 -3 47q10 19 290 11t280 -38z" />
    <glyph glyph-name="period" unicode="." horiz-adv-x="155" 
d="M135 358q0 -52 -36 -102q-73 -103 -79 48q-1 75 17 89q12 16 57 17q41 0 41 -52z" />
    <glyph glyph-name="slash" unicode="/" horiz-adv-x="796" 
d="M279 764q47 78 250 385t221 301q32 -12 22 -49t-88 -131t-114 -162q-36 -66 -152 -243t-324 -584q-37 -80 -71 -31q-10 16 20 82q88 197 236 432z" />
    <glyph glyph-name="zero" unicode="0" horiz-adv-x="616" 
d="M374 1024q-24 0 -24 28t8 29q8 0 58 -43q55 -53 65 -49q7 4 19 45t-31 87t-105 38t-118 -72q-58 -74 -104 -180q-46 -107 -56 -193t-1 -112t69 -84t147 -68t145 36t63 130t-22 168q-23 90 -42 102t-33 74q-14 64 -38 64zM510 926q0 -14 29 -66q102 -178 26 -354
q-41 -92 -124 -132t-180 -19t-157 85t-72 101t-12 147t15 162q14 54 89 206t216 199q61 19 94 9t87 -64q55 -54 67 -82q12 -26 0 -78t-45 -76t-33 -38z" />
    <glyph glyph-name="one" unicode="1" horiz-adv-x="526" 
d="M450 1546q18 0 37 -16t17 -45t-36 -129t-65 -247q-31 -146 -51 -197q-20 -50 -44 -228q-22 -178 -10 -255t-30 -120q-20 -18 -44 -2q-24 15 -20 143t29 236t59 283q34 176 52 213q18 25 -6 24q-8 0 -22 -9t-19 -21q-53 -84 -159 -130t-118 1q0 29 12 43t19 14
q47 2 131 74t153 162t69 136q0 44 16 56q12 14 30 14z" />
    <glyph glyph-name="two" unicode="2" horiz-adv-x="638" 
d="M490 1296q42 0 50 -15q9 -15 9 -87q0 -186 -285 -623l-100 -157l96 -11q123 -10 227 -2q131 2 131 -14t-77 -47q-78 -37 -238 -33t-206 9q-46 4 -65 22t-5 45q12 27 55 74q111 123 244 359t133 312q0 44 -33 12t-44 -90t-46 -82t-64 7q-23 20 17 105q39 84 99 150t102 66
z" />
    <glyph glyph-name="three" unicode="3" horiz-adv-x="610" 
d="M257 272q-159 0 -204 27q-41 31 -24 86q16 55 53 85t41 22t-4 -48q-4 -49 8 -60t76 -15q307 -29 307 166q0 88 -33 141q-33 54 -133 116t-108 103q-10 41 67 109q139 127 139 217q0 45 -86 25t-145 -91q-39 -45 -68 -53q-57 -16 -19 91q17 47 55 79t118 61t116 30t76 -20
q66 -35 43 -129t-114 -215l-68 -84l103 -88q75 -63 101 -114t34 -156q14 -135 -79 -210t-252 -75z" />
    <glyph glyph-name="four" unicode="4" horiz-adv-x="602" 
d="M430 1343q45 0 45 -19q0 -20 -78 -168t-137 -247q-100 -156 -67 -196q9 -8 39 -8q30 -1 140 39t128 67q25 31 57 31q18 0 25 -33q10 -80 -36 -171t-59 -337q-8 -156 -51 -162q-16 -4 -30 21q-23 32 -8 232t44 245q12 20 -6 20t-170 -43q-246 -68 -246 2q0 23 146 321
t182 352t82 54z" />
    <glyph glyph-name="five" unicode="5" horiz-adv-x="716" 
d="M459 532q0 -10 11 -23t26 -17q32 -14 20 -36t22 -86q34 -66 34 -80t-36 -50q-34 -37 -115 -33t-177 53q-96 43 -145 90q-48 48 -68 116t0 106t90 66t84 11q12 -20 -39 -62q-102 -84 39 -198q43 -35 111 -61t114 -28q45 -3 53 15q0 29 -61 149t-94 158t-17 37q16 4 -41 60
q-115 115 -164 261q-50 146 -4 224t59 107t28 37q34 18 266 2q233 -16 239 -54q2 -14 -26 -43t-220 -23q-194 6 -225 -22q-139 -115 123 -487q113 -162 113 -189z" />
    <glyph glyph-name="six" unicode="6" horiz-adv-x="741" 
d="M416 365q117 43 158 127t-41 127q-82 42 -242 22q-43 -4 -51 -20t-6 -85t14 -99t47 -54q37 -29 59 -32t62 14zM20 540q0 36 28 72t73 64q29 25 67 125q72 192 330 456q90 94 141 121q39 18 57 -24t-46 -88q-102 -78 -211 -200t-148 -202q-51 -112 -70 -112t-3 -25t114 -8
q188 25 281 -62q43 -41 45 -101t-33 -116q-82 -135 -209 -168q-68 -14 -131 0q-66 23 -118 103q-52 81 -54 145t-5 67t-6 -1l-16 -33q-26 -53 -56 -51t-30 38z" />
    <glyph glyph-name="seven" unicode="7" horiz-adv-x="847" 
d="M702 1116q0 -22 -14 -29q-18 -2 -55 -90t-94 -211q-23 -41 14 -63q41 -19 33 -39t-58 -30t-72 -43q-24 -32 -71 -164q-47 -131 -35 -151t-37 -46q-70 -39 -69 12q0 47 59 189l78 186h-135q-137 0 -142 -4q-14 -9 -49 27t-35 61t38 29t235 -27q86 -11 117 8q31 20 52 53
t35 69q13 36 20 50t13 31l27 65q123 281 123 291q0 4 -84 -6t-117 -16l-43 -6q-57 -6 -115 -20t-81 8t8 58t121 36q91 0 205 33q114 34 147 66t63 35t41 -20q17 -17 -53 -169q-70 -151 -70 -173z" />
    <glyph glyph-name="eight" unicode="8" horiz-adv-x="745" 
d="M270 432v125q0 125 -28 125t-91 -67q-62 -67 -63 -91q0 -92 105 -92h77zM384 1274q-91 0 -117 -53q-27 -53 -7 -209t14 -176q-4 -20 29 -5q70 43 184 175q109 133 101 196q-7 32 -60 52t-144 20zM520 1389q0 35 60 -1t110 -106q49 -68 31 -106q-9 -14 -25 -14t-29 -18
q-13 -17 -18 -40q-16 -53 -174 -211q-102 -98 -129 -135t-16 -82q33 -150 -4 -242t-121 -91t-134 45q-51 44 -51 114t105 180l102 111l-34 120q-72 240 4 363q35 58 90 76t163 7t101 -1q-31 13 -31 31z" />
    <glyph glyph-name="nine" unicode="9" horiz-adv-x="776" 
d="M539 893q39 35 45 63t-8 148q-14 118 -12 149q1 31 -14 41t-48 4q-68 -14 -131 -85t-85 -163t11 -167q19 -47 35 -55t86 3q70 12 121 62zM418 1356q133 55 233 4q104 -57 105 -148q-4 -55 -37 -92t-35 -160t-17 -150t-43 -135t-79 -199t-109 -142q-78 -64 -219 -34
t-186 101q-29 47 6 78t75 -22t138 -63t123 1q25 10 73 72q90 106 138 336q6 29 -4 28q-16 -6 -54 -34q-162 -119 -274 -6q-41 39 -52 71t-7 118q4 87 24 146t82 132t119 98z" />
    <glyph glyph-name="colon" unicode=":" horiz-adv-x="352" 
d="M51 438q14 18 42 14t35 -24q7 -18 3 -68t-40 -92t-62 -24q-14 8 -5 86t27 108zM260 1024q24 0 48 -34t24 -64t-18 -60q-18 -31 -44 -48q-25 -17 -39 -5q-14 11 -14 77t14 97q12 37 29 37z" />
    <glyph glyph-name="semicolon" unicode=";" horiz-adv-x="577" 
d="M231 352q60 129 97 49q14 -37 -40 -140t-132 -193t-117 -91q-27 0 -13 26q14 27 94 127t80 118t31 104zM406 914q-7 50 22 78t70 30t55 -23t-28 -79q-41 -54 -77 -56q-36 0 -42 50z" />
    <glyph glyph-name="less" unicode="&#x3c;" horiz-adv-x="798" 
d="M168 847q0 -17 39 -50t144 -85t130 -52t107 -72q82 -70 82 -92t-52 -20q-52 3 -111 49q-59 45 -157 95t-117 48q-14 -8 -113 85q-100 93 -100 133t88 54t314 124t287 126q61 14 69 -31q6 -35 -126 -81t-308 -130t-176 -101z" />
    <glyph glyph-name="equal" unicode="=" horiz-adv-x="954" 
d="M27 670q10 23 92 28q188 14 596 -4q18 0 155 -8q53 -6 51 -20q-3 -14 -67 -26t-436 -24q-372 -14 -383 -2q-20 21 -8 56zM43 983q25 8 451 -1t436 -17t-1 -30t-34 -37t-37 -11q-25 12 -377 8t-406 2t-55 37q0 39 23 49z" />
    <glyph glyph-name="greater" unicode="&#x3e;" horiz-adv-x="1038" 
d="M131 1163q0 23 41 21t75 -42t591 -227q180 -57 180 -71q0 -63 -320 -150q-182 -49 -371 -124q-189 -74 -229 -114t-66 -24q-28 16 3 60q16 26 154 108t167 82t239 61t224 76q2 8 -37 29q-145 72 -342 121q-70 18 -94 12t-119 53q-96 59 -96 129z" />
    <glyph glyph-name="question" unicode="?" horiz-adv-x="665" 
d="M83 105q-4 42 22 68q26 25 57 15t44 -46t-21 -70t-66 -19q-33 10 -36 52zM309 1081q-1 -41 -31 -75t-50 -22q-20 11 -20 49q-2 107 104 205q62 56 120 85q111 49 170 -12t40 -178t-26 -162q-12 -100 -116 -250q-104 -151 -263 -303t-177 -153t-31 23q-12 24 -4 42
q13 18 73 62t198 197t183 235t63 184t4 173q-15 71 -67 70q-41 -1 -105 -65t-65 -105z" />
    <glyph glyph-name="at" unicode="@" horiz-adv-x="1441" 
d="M825 831q-16 70 -83 60t-142 -92q-266 -295 -65 -391q133 -74 258 63q49 53 33 67t-51 -19q-36 -32 -51 -34t-36 15q-20 18 -16 31t55 57t81 116q30 70 17 127zM1180 1544q121 49 175 -4q54 -54 61 -198t1 -224t-30 -153q-25 -74 -25 -80q-24 -98 -92 -221t-133 -191
q-147 -152 -236 -72q-29 25 -45 24t-64 -40t-136 -65t-132 -11q-125 47 -142 162t79 260q197 297 330 263t143 -380q4 -160 57 -159q23 0 104 86t103 134t72 122q96 147 92 440q0 156 -29 207t-102 31t-260 -132q-427 -258 -611 -437t-264 -419q-41 -121 -18 -200
q8 -37 28 -25q12 -4 7 -41q-10 -55 88 -150t179 -115t229 -16q148 5 244 22t99 13q-12 -20 -196 -65t-282 -42q-98 2 -232 66q-133 64 -168 136q-55 108 -51 234q8 250 145 444q84 125 334 358q6 6 127 88q72 38 285 184t266 166z" />
    <glyph glyph-name="A" unicode="A" horiz-adv-x="745" 
d="M178 700q0 -21 105 -6q39 0 82 13q16 0 34 8l25 8q6 2 13 17t7 26l-4 37q-2 25 -22 112l-10 48q-22 101 -43 136q-9 17 -23 0t-41 -71t-75 -180q-48 -127 -48 -148zM563 713q0 -37 119 -264l43 -84h-53q-53 0 -78 32q-30 32 -73 170q-5 16 -9 32t-23 40t-57 16l-43 -12
q-53 -14 -57 -16l-80 -27q-92 -31 -113 -62q-20 -32 -12 -132q4 -29 -40 -52t-62 -4q-13 8 11 120t6 144t-7 62q10 29 39 29t45 65q8 28 55 150t127 337q10 41 46 38t67 -48q37 -49 79 -235t58 -221q16 -41 47 -41l29 -7q0 -2 -32 -10t-32 -20z" />
    <glyph glyph-name="B" unicode="B" horiz-adv-x="751" 
d="M428 996q0 18 -53 77q-49 59 -91 73t-54 -5q-11 -19 -22 -117q-10 -98 -16 -128q-11 -60 43 -56q53 4 123 70q70 68 70 86zM731 400q0 -26 -20 -54q-72 -100 -416 -102q-115 0 -160 7t-74 37t-13 51t65 1q47 -30 270 -14t257 62t-66 164t-177 160q-76 42 -145 27l-80 -14
l14 -160q14 -156 29 -192q6 -18 -25 -29q-49 -12 -65 14t-19 282q-2 257 13 372q8 117 0 110q-16 -29 -58 -8q-94 50 31 103q80 35 133 31t133 -42q118 -59 136 -145t-66 -182q-59 -70 -51 -80q2 -6 22 -13q57 -18 171 -132t138 -171t23 -83z" />
    <glyph glyph-name="C" unicode="C" horiz-adv-x="806" 
d="M696 1145q0 -49 -28 -63q-29 -13 -97 8l-67 20l57 23q8 4 18 8q29 12 17 22q-14 6 -21 8q-55 25 -135 -3t-138 -87t-89 -113t-74 -157q-82 -197 -16 -334q43 -85 109 -111t196 -19q131 7 167 19t71 56q49 66 84 52q36 -14 36 -34q0 -18 -28 -55q-76 -100 -316 -125
q-86 -8 -133 -1t-108 40q-313 164 -84 627q55 114 143 208t174 127t174 -4t88 -112z" />
    <glyph glyph-name="D" unicode="D" horiz-adv-x="776" 
d="M215 1112q0 -8 3 -24t15 -240q11 -225 13 -275q2 -51 8 -57t16 -4q23 4 23 -20q0 -29 61 -39q60 -10 140 5t122 48q60 43 60 95q0 53 -55 159t-107 168q-92 112 -246 180l-30 12q-17 6 -20 3t-3 -11zM567 393q0 -17 -141 -26q-135 -2 -172 -27q-27 -23 -73 21t-103 63
q-25 4 -41 18q-17 14 -17 32q-1 31 82 20l84 -15l-18 322q-16 324 -47 354q-19 19 -17 35t38 54t48 39t52 -36t146 -111q107 -74 220 -230t137 -265q15 -61 9 -91t-53 -86t-91 -54q-44 0 -43 -17z" />
    <glyph glyph-name="E" unicode="E" horiz-adv-x="839" 
d="M543 1186q0 -45 -205 -53l-102 -7l-39 -147q-37 -152 -39 -156t98 -2t145 0q93 -10 27 -51t-169 -41t-122 -22q-4 -6 -14 -35t-12 -51l-13 -80q-27 -199 62 -199q41 0 228 48q188 48 198 60t82 42l110 43q37 14 37 -21q0 -47 -175 -122q-175 -74 -360 -114t-227 -6
q-63 55 -10 344q20 119 0 144q-23 23 18 65q35 47 57 151t21 120q-4 14 -37 12q-57 -6 -57 31q0 43 64 73q2 2 6 2q71 31 157 34q86 4 148 -22t93 -22q30 4 30 -18z" />
    <glyph glyph-name="F" unicode="F" horiz-adv-x="630" 
d="M610 1170q0 -34 -36 -58q-36 -25 -58 -2t-114 27q-91 4 -175 -13l-71 -14v-334l86 -14q129 -20 139 -45t-121 -45l-100 -17l8 -94q0 -35 10 -67t21 -35q29 -8 25 -50t-34 -67q-45 -39 -63 12q-19 52 -29 182t-45 154q-20 12 -27 32t1 36q9 16 31 16t28 30t-7 150t-33 147
q-20 26 -20 40q0 15 22 37t74 30q54 8 230 7t217 -6t41 -39z" />
    <glyph glyph-name="G" unicode="G" horiz-adv-x="808" 
d="M563 1058q0 54 -48 66t-120 -22t-120 -93q-48 -61 -101 -183q-52 -122 -66 -178t9 -79t-2 -22q-41 0 -11 -105t93 -135q51 -14 163 39t172 125q68 72 73 109t-46 77q-72 59 -5 85t169 -11q2 -2 8 -2q57 -20 57 -49q4 -19 -32 -21q-12 0 -33 -24q-20 -25 -45 -83
t-111 -148q-86 -91 -171 -134t-176 -42t-132 46q-70 76 -66 199q3 123 78 352q144 416 420 389q125 -10 144 -120q8 -45 -19 -82t-55 -23q-28 15 -27 69z" />
    <glyph glyph-name="H" unicode="H" horiz-adv-x="688" 
d="M129 1050q0 172 31 198t51 24q45 -12 23 -132t-23 -231l-2 -102l272 -12v211q1 208 17 251q2 4 4 9q24 53 62 25t24 -101l-6 -27q-23 -82 -16 -348q6 -265 18 -333t46 -110t36 -55q2 -12 -17 -24q-57 -37 -80 -8q-33 35 -71 311q-2 6 -6 44t-17 58q-17 18 -33 18t-163 -5
l-99 -6l-14 -140q-10 -87 -6 -117t32 -46t25 -36q-2 -20 -41 -67q-72 -84 -84 4q-8 45 3 183t6 176t-38 64t-41 54t11 47q18 17 50 9t38 16q8 25 8 198z" />
    <glyph glyph-name="I" unicode="I" horiz-adv-x="366" 
d="M244 342q0 -22 -30 -52q-30 -28 -55 10t-31 133t-5 401q2 306 9 326q6 20 20 34q14 12 24 12t17 -16q9 -42 4 -317q-6 -275 -1 -359q4 -84 26 -117t22 -55z" />
    <glyph glyph-name="J" unicode="J" horiz-adv-x="759" 
d="M160 400q0 -26 89 -76t135 -52q46 0 56 52q10 36 4 230t-19 354t-23 182q-10 24 -57 24q-46 0 -58 9t-6 34q5 23 41 33t188 22t166 26t40 -6t22 -32t-36 -36t-76 -28t-57 -20q-29 -33 -36 -157q-7 -123 -10 -377t-34 -331q-16 -42 -55 -65q-38 -24 -68 -18t-114 45
q-215 102 -229 180q-8 33 21 49q30 16 73 0t43 -42z" />
    <glyph glyph-name="K" unicode="K" horiz-adv-x="692" 
d="M247 887q42 0 141 93t134 171q33 78 44 90t52 -4q70 -25 -94 -213l-73 -80l-134 -137l39 -82q39 -83 132 -191q94 -108 140 -125t45 -45t-48 -55q-23 -14 -37 -11t-40 38t-103 116q-77 80 -126 154t-83 113q-31 29 -41 24q-25 -6 -20 -95t32 -103q16 -21 9 -61t-37 -80
q-29 -40 -57 -39q-28 -1 -26 117t-5 154t-37 52t-34 50t29 46q25 14 31 232t35 237q51 33 69 18t5 -94t-22 -209t-2 -130q7 -2 13 10q27 39 69 39z" />
    <glyph glyph-name="L" unicode="L" horiz-adv-x="692" 
d="M198 1319q6 0 24 -29q18 -28 18 -96t-32 -179t-79 -454l-18 -133l184 16q180 14 233 34q54 20 98 22q44 0 45 -5t-32 -40q-55 -49 -325 -105t-291 -2q-14 35 67 503t108 468z" />
    <glyph glyph-name="M" unicode="M" horiz-adv-x="1230" 
d="M938 1146q0 64 31 93t61 -2q14 -14 50 -218t49 -338t49 -205q36 -72 32 -114q-2 -42 -49 -42t-71 63q-25 59 -48 244q-35 324 -61 342q-11 7 -15 -3q-5 -11 -5 -22q0 -39 -125 -294t-125 -272t-32 -47t-48 -22q-61 29 -178 223q-49 76 -126 228t-87 164l-13 12
q-20 12 -34 -43q-8 -33 -50 -275q-45 -297 -92 -296q-12 -4 -22 10q-23 23 14 253q37 231 57 413t33 227q12 39 55 27t54 -60q39 -152 180 -434t196 -314q18 -10 118 172q99 182 155 324q47 142 47 206z" />
    <glyph glyph-name="N" unicode="N" horiz-adv-x="970" 
d="M20 283q0 106 28 270q28 163 42 375t35 289q16 74 55 75q31 4 49 -20q19 -30 41 -100t46 -113t32 -39q10 2 14 -3t0 -13q-14 -23 121 -315t172 -324q23 -23 47 45q8 14 11 28l59 197q31 102 31 151t22 70t33 250q10 229 13 235t23 -1t36 -53t19 -82t-7 -44
q-16 0 -18 -122t-43 -269q-19 -78 -41 -179t-70 -235t-73 -154q-26 -20 -60 31q-53 77 -233 445t-191 369q-12 0 -16 -50q-18 -315 -46 -511t-51 -228q-80 -115 -80 25z" />
    <glyph glyph-name="O" unicode="O" horiz-adv-x="835" 
d="M551 1206q0 27 -15 36t-74 8q-59 -2 -100 -26t-83 -98q-91 -147 -143 -335t-32 -299q14 -70 86 -145t127 -75q101 0 199 94t158 248t59 298q0 144 -16 145q-4 0 -10 -6q-63 -63 -64 41q0 41 -10 55t-37 14q-45 0 -45 45zM705 1251q23 0 71 -79q48 -78 38 -108
q-9 -30 -21 -177q-17 -270 -133 -464t-287 -241q-90 -24 -121 -18q-30 6 -100 72t-102 150q-32 85 -30 216q2 195 105 416q102 221 225 297q131 84 275 -21q63 -43 80 -43z" />
    <glyph glyph-name="P" unicode="P" horiz-adv-x="616" 
d="M96 680q20 0 21 100q-4 113 15 226t48 135q51 39 58 -27q4 -41 -13 -110q-33 -113 -35 -226q-6 -88 2 -103t46 -3q127 39 212 124q84 86 68 154t-72 142t-111 98q-56 24 -134 6q-78 -16 -92 -57q-31 -92 -75 -8t79 135q69 30 155 28t151 -39t65 -52t34 -50q35 -35 48 -74
q12 -39 22 -127t-1 -119t-80 -93t-165 -116t-132 -54t-40 -29q0 -32 -12 -146q-8 -168 -62 -168q-49 0 -18 195q12 86 9 115t-35 55t-26 53q5 26 21 29l25 4q12 2 24 2z" />
    <glyph glyph-name="Q" unicode="Q" horiz-adv-x="813" 
d="M508 998q0 38 20 70t-7 66q-27 33 -95 25q-68 -7 -128 -67t-121 -214q-62 -154 -62 -265q-1 -110 25 -167q54 -120 217 -114q81 2 81 24q0 16 -45 68t-51 74q-6 20 10 40t35 15q27 -17 81 -69t78 -52t81 88t77 163t23 173q4 98 -11 108q-26 18 -26 -59q0 -55 -22 -93
t-54 -38q-24 0 -8 58t6 110q-10 54 -16 63t-14 6t-34 -27t-33 -24t-7 38zM430 1274q22 0 163 -70q140 -70 164 -98t33 -180q8 -150 -10 -239t-90 -202l-69 -100l69 -23q68 -28 68 -72t-31 -49t-99 29t-92 37t-82 -27t-143 -28q-84 2 -145 37q-90 53 -128 193t3 272
q111 362 293 477q74 43 96 43z" />
    <glyph glyph-name="R" unicode="R" horiz-adv-x="800" 
d="M209 659q33 0 138 86t118 123q20 59 -6 116q-27 56 -85 83t-78 24q-57 -9 -87 -348q-10 -84 0 -84zM274 588q0 -14 89 -64t165 -118q76 -70 150 -118t92 -73t-4 -63t-45 -37q-22 1 -139 109t-245 192t-167 84q-14 0 -2 -108t7 -138t-34 -58t-38 -28t-21 35t-1 151t8 153
q-3 36 -28 46q-35 12 -42 43t18 51q20 20 59 15q14 0 28 40t10 62q-5 20 9 108q15 88 11 120q-4 30 -29 57t-22 41t43 61t98 48t174 -48q47 -18 75 -47t52 -84q39 -102 31 -140t-86 -116q-76 -78 -117 -102t-70 -46t-29 -28z" />
    <glyph glyph-name="S" unicode="S" horiz-adv-x="606" 
d="M586 348q0 -68 -58 -80q-57 -14 -184 23t-227 94t-97 88q4 23 37 36t65 7t32 -27q0 -13 26 -37t62 -42q106 -55 227 -64q41 -4 47 8q0 35 -139 224q-6 8 -29 34t-53 64q-31 37 -95 112q-140 165 -139 324q-1 54 13 82t61 63t145 39t178 -38q81 -42 99 -122
q17 -80 -13 -98t-76 -2t-19 33q53 33 -7 93t-149 59q-12 0 -33 -4q-68 -17 -90 -55t-8 -124t43 -140t113 -146t176 -228t92 -176z" />
    <glyph glyph-name="T" unicode="T" horiz-adv-x="886" 
d="M754 1161q-55 1 -134 -21t-103 -42q-25 -20 -47 -99t-56 -285t-36 -285q-1 -79 -13 -111t-46 -56l-55 -41l15 146q14 141 45 326t46 215t17 116l8 102l-102 -6q-88 -2 -164 -14t-92 -7q-17 5 -17 44t33 56t416 23t395 -8q4 -6 -10 -20q-45 -33 -100 -33z" />
    <glyph glyph-name="U" unicode="U" horiz-adv-x="681" 
d="M76 1128q12 50 34 110t62 58q39 0 44 -42t-23 -99q-68 -129 -83 -365t37 -352q80 -172 187 -80q131 115 213 535q33 156 35 218t-23 86t8 66q33 41 65 29t28 -118t-46 -300t-59 -192q-18 0 -5 -33q14 -33 -56 -175t-119 -191q-68 -61 -114 -65t-97 48q-76 72 -106 140
t-35 235q-10 225 53 487z" />
    <glyph glyph-name="V" unicode="V" horiz-adv-x="638" 
d="M39 1264q17 20 29 22t34 -18t25 -220q4 -200 -14 -394t-7 -257l13 -67l59 102q156 266 258 557q44 131 64 161t53 46q33 15 65 4q2 -8 -36 -84t-86 -187q-47 -112 -173 -377q-126 -266 -158 -324t-62 -55t-48 67q-27 84 -34 538t18 486z" />
    <glyph glyph-name="W" unicode="W" horiz-adv-x="854" 
d="M729 1282q4 88 12 109q7 21 29 21t40 -12q18 -11 21 -26q13 -32 -55 -356t-116 -456t-103 -179l-55 -53l-39 53q-39 45 -85 244t-65 209q-18 14 -6 -9q13 -25 -25 -211t-71 -254q-61 -127 -100 -122q-16 4 -25 28q-41 127 -59 541t14 442q23 23 51 15t31 -35
q2 -27 -13 -110q-16 -83 -8 -340t29 -314q6 -12 8 -17q9 -22 18 2q3 7 6 16t17 43t40 211q28 177 32 290q6 186 53 170q6 -2 17 -13q23 -23 94 -320t98 -329q10 -16 23 -12q23 8 85 188t83 295q22 115 24 291z" />
    <glyph glyph-name="X" unicode="X" horiz-adv-x="829" 
d="M117 1207q0 50 43 46q43 -5 82 -69t48 -128q8 -64 68 -184q60 -122 66 -116q20 25 120 169q99 144 128 191q28 48 72 64t65 -17q12 -20 -90 -141q-103 -121 -103 -138t-30 -47t-78 -102l-49 -73l55 -132q59 -133 88 -194q8 -25 26 -44t27 -20q43 0 25 -59q-8 -27 -33 -49
t-49 -14q-27 2 -27 30t-133 326l-37 84l-147 -168q-117 -133 -164 -167t-67 -3q-21 31 105 162t191 204l52 62l-127 240q-127 237 -127 287z" />
    <glyph glyph-name="Y" unicode="Y" horiz-adv-x="788" 
d="M564 1024q0 24 60 160q60 135 102 135t42 -16q0 -25 -40 -137t-52 -119q-14 -15 -47 -97t-106 -242t-96 -206q-23 -45 -23 -71t-36 -69t-56 -43q-20 1 -28 47q-9 46 9 58q20 12 20 42q1 30 65 140t48 115q-4 2 -20 -4q-82 -27 -192 83t-163 269q-74 217 23 217
q27 0 40 -24t31 -118q17 -96 73 -190t120 -131q33 -20 54 -10t70 61q102 108 102 150z" />
    <glyph glyph-name="Z" unicode="Z" horiz-adv-x="903" 
d="M883 455q-2 0 -6 4q-19 14 -61 -34t-64 -53t-90 13q-94 29 -197 -10q-103 -33 -163 -33t-152 -57q-122 -88 -130 -11q0 25 134 157t215 251q82 129 125 178q84 117 176 285q37 66 24 78q-14 13 -184 -11t-203 -24t-53 16t-21 38q0 22 35 35q36 13 234 24t270 36
q55 27 81 18q25 -9 13 -65t-49 -96q-43 -42 -208 -290t-249 -357q-98 -117 -51 -111q46 15 255 32q208 18 250 26t63 -21q8 -18 6 -18z" />
    <glyph glyph-name="bracketleft" unicode="[" horiz-adv-x="886" 
d="M553 15q0 -34 -24 -43t-169 -36q-145 -28 -212 -66t-103 -22q-35 0 -12 77t81 248t80 235q23 64 64 202t45 172q0 68 22 153t46 241t51 182q25 31 199 30t217 -32q24 -18 28 -45t-14 -43t-59 0t-111 23t-113 -3q-94 -24 -154 -360q-59 -336 -117 -488t-95 -276
q-37 -125 -29 -135t116 12t178 34q69 11 80 -15q5 -12 5 -45z" />
    <glyph glyph-name="backslash" unicode="\" horiz-adv-x="477" 
d="M457 221q-1 -39 -43 -39q-22 0 -41 -4q-19 -2 -69 161t-116 465t-124 506q-57 204 -39 254t38 50q39 0 66 -148q70 -324 95 -498q24 -174 72 -360t66 -198t56 -90t39 -99z" />
    <glyph glyph-name="bracketright" unicode="]" horiz-adv-x="833" 
d="M290 1409q38 0 146 -36t195 -23q147 25 168 14q12 -8 14 -41q6 -51 -49 -115q-84 -92 -232 -535t-182 -712l-16 -121h-156q-111 0 -133 8q-25 6 -25 37t8 35t48 -16q38 -20 80 -19q42 -1 57 19q16 20 31 80q82 315 143 511t186 531l82 219l-170 12q-221 16 -262 78
q-15 20 7 47t60 27z" />
    <glyph glyph-name="a" unicode="a" horiz-adv-x="870" 
d="M106 592q0 -51 50 -94t114 -43q62 0 187 63q57 27 53 41q-10 12 51 215l64 203l-62 20q-70 23 -172 -13t-158 -107q-51 -59 -89 -147t-38 -138zM229 377q-74 0 -134 42t-70 118q-25 156 110 342q62 84 148 145q100 66 215 71t188 -53q43 -36 50 -60t-5 -123t-84 -241
t-45 -188t154 2q61 25 86 2q24 -23 -20 -38t-58 -40q-16 -18 -114 -29t-116 -4q-20 7 -30 47t-22 49t-44 -1q-135 -41 -209 -41z" />
    <glyph glyph-name="b" unicode="b" horiz-adv-x="704" 
d="M276 387q90 0 177 52q88 52 116 118q41 99 27 209t-72 149q-88 57 -192 -55t-158 -323q-28 -96 -8 -123t110 -27zM236 1520q2 26 34 26t39 -26q8 -20 -7 -124q-16 -104 -32 -168q-16 -65 -32 -144t-36 -144t-38 -122q-18 -58 -6 -62q10 -4 57 84q55 112 165 160t198 1
q18 -8 42 -49t37 -88q45 -132 13 -244t-107 -189q-74 -77 -174 -109t-182 -8t-109 -9q-66 -80 -75 19q-4 34 -2 62l3 42t6 43t8 44t16 88t36 165q45 219 57 272q83 361 89 480z" />
    <glyph glyph-name="c" unicode="c" horiz-adv-x="837" 
d="M488 979q104 0 152 -38t30 -97q-8 -29 -38 -42t-57 -6t-26 31q-4 4 0 11q6 41 -45 47q-84 8 -193 -60q-55 -35 -80 -71q-94 -127 -111 -208t38 -136q28 -29 56 -36t119 6t164 38t214 96l55 27q55 23 49 -4q-4 -17 -48 -61t-232 -123t-265 -79q-110 6 -180 71t-69 152
t87 218q85 131 173 190q103 74 207 74z" />
    <glyph glyph-name="d" unicode="d" horiz-adv-x="813" 
d="M104 525q0 -62 46 -98q46 -35 94 -19q49 16 53 69q5 53 65 201t33 180q-27 33 -89 29t-95 -41t-70 -148t-37 -173zM514 798q0 -40 -60 -91t-48 -105t-8 -55q-20 0 -21 -29q0 -46 52 26t117 201t85 181t51 178q31 125 12 125q-16 2 -43 -74q-73 -177 -105 -247t-32 -110z
M436 342q43 0 24 -32q-18 -32 -66 -60t-67 -19q-19 7 -25 45t-20 44q-15 6 -61 4q-133 -16 -188 147q-25 82 15 227t102 213t155 68q94 0 112 -29t46 -10q29 14 49 80q26 62 94 212t72 224q-1 12 22 53q20 43 60 33q22 -4 28 -32t3 -134q-10 -166 -54 -284
q-47 -143 -53 -168q-28 -123 -102 -273t-134 -206t-42 -89q8 -14 30 -14z" />
    <glyph glyph-name="e" unicode="e" horiz-adv-x="768" 
d="M563 1087q-37 35 -83 22t-120 -79q-127 -113 -167 -254q-12 -39 1 -46q14 -7 82 3q184 27 287 193q57 93 0 161zM180 610q0 -25 58 -79t91 -54q31 0 147 43t187 83t81 27q8 -13 -16 -47t-148 -108q-94 -53 -198 -63t-183 24q-49 25 -90 98t-41 134t-25 71q-31 18 -21 49
t46 31q43 0 88 86q71 134 264 275q72 49 102 34q43 -12 58 -14q34 -8 56 -54t21 -108q-1 -139 -115 -259t-263 -138q-41 -2 -70 -12t-29 -19z" />
    <glyph glyph-name="f" unicode="f" horiz-adv-x="790" 
d="M680 1151q29 94 6 147l-20 54l-39 -60q-25 -38 -71 -158t-70 -197t-18 -81q5 -4 46 23q111 77 166 272zM414 496l24 -4q14 -2 15 -7q-2 -5 -54 -31q-51 -26 -89 -153t-39 -275t-48 -176q-20 -14 -47 9q-16 16 -3 146t33 213t12 86q-9 3 -68 -11q-113 -31 -127 10
q-14 35 57 76q33 18 67 29q92 30 126 74q33 44 47 128t6 102t-43 38q-55 26 -55 66t18 43q20 3 94 -25q20 -10 34 14t45 127q30 103 56 174q95 236 152 324q47 78 100 3t41 -239q0 -16 -2 -25q-25 -233 -242 -413q-111 -90 -125 -158q-6 -23 -20 -65t-9 -60q5 -16 44 -20z
" />
    <glyph glyph-name="g" unicode="g" horiz-adv-x="909" 
d="M682 682q-29 0 -33 16q-5 16 23 64t27 65q0 16 -23 45q-41 41 -81 35t-95 -62q-56 -55 -68 -145t29 -141q39 -43 113 -36t114 59q70 88 29 98q-6 2 -35 2zM844 909q39 1 44 -71t-31 -161t-45 -135t-21 -200q-17 -242 -69 -318t-198 -71q-114 2 -274 47t-203 88t-19 91
t75 48t56 -5t-13 -26q-18 -22 -17 -36q2 -14 34 -39t81 -42t182 -31t174 -3q53 12 83 91t30 210l2 131l-80 -39q-59 -28 -83 -26t-81 32q-178 98 -123 308q23 82 70 143t102 84t93 19t122 -47q84 -42 109 -42z" />
    <glyph glyph-name="h" unicode="h" horiz-adv-x="872" 
d="M47 295q-29 -1 -27 67t34 236t62 482t60 333q18 10 31 12q47 1 6 -163t-43 -291t-26 -255q-24 -129 -27 -169q10 0 80 143q74 143 151 256q70 96 105 101q41 0 41 -17q4 -26 20 -266t26 -286t35 -57q26 -11 97 -1t137 29l39 8q8 -2 -20 -30t-106 -70t-142 -62
q-80 -20 -100 26t-33 307q-12 261 -35 261q-18 4 -114 -163q-96 -166 -110 -230q-16 -64 -64 -132t-77 -69z" />
    <glyph glyph-name="i" unicode="i" horiz-adv-x="569" 
d="M208 979q28 0 32 -40q4 -39 -23 -67t-70 -159t-43 -204t41 -122l41 -53l109 49q92 41 174 94q63 49 75 30t-52 -75t-149 -109t-133 -63t-98 12t-75 70q-39 70 6 296t113 312q24 29 52 29zM236 1139q-18 0 -22 54q-4 53 8 113q13 60 36 78q45 33 58 21t1 -78
q-35 -188 -81 -188z" />
    <glyph glyph-name="j" unicode="j" horiz-adv-x="708" 
d="M408 817q2 73 15 141t29 90t44 15q49 -16 -4 -311q-31 -190 -45 -372t-38 -290q-49 -218 -182 -201q-68 6 -131 64l-76 67l48 50q49 47 84 30q20 -12 9 -43t31 -55t76 -10q39 10 58 96q45 195 82 729zM639 1479q33 0 45 -37q12 -29 -16 -121t-47 -92q-27 0 -38 80t6 125
t50 45z" />
    <glyph glyph-name="k" unicode="k" horiz-adv-x="882" 
d="M270 509q0 -17 49 -52q150 -109 330 -113q113 -4 155 26t50 30t8 -30q0 -28 -79 -85t-128 -58q-82 1 -228 63t-210 124q-25 22 -35 30t-15 -1t-8 -14t-20 -46t-34 -41t-17 -35q-2 -27 -33 -18q-35 14 -35 45t31 125t67 175t91 527q31 221 45 246q14 18 39 21t39 -8
t10 -34q-16 -59 -36 -173t-26 -178q-5 -64 -30 -132q-24 -69 -12 -89t-10 -60t-7 -48q16 -10 54 38q37 48 101 72t95 -3t17 -55t-116 -130t-102 -119z" />
    <glyph glyph-name="l" unicode="l" horiz-adv-x="419" 
d="M113 520q0 -33 37 -41q37 -7 62 15q24 22 76 44t63 18q11 -3 11 -18q0 -14 -7 -26t-15 -12q-27 0 -70 -43q-49 -43 -126 -83t-91 -28q-12 14 -30 94q-19 80 61 360t180 484q31 59 60 94q49 62 65 20t-27 -112q-72 -117 -160 -390t-89 -376z" />
    <glyph glyph-name="m" unicode="m" horiz-adv-x="923" 
d="M903 227q1 -27 -27 -35t-59 10q-31 17 -39 66t-20 254t-34 248t-32 44q-8 1 -42 -42t-95 -184q-61 -142 -61 -186t-31 -78t-55 -19q-25 10 -36 241q-11 230 -34 296l-21 55l-30 -55q-2 -2 -5 -12t-13 -24q-9 -16 -12 -22t-4 -14t-17 -41q-23 -63 -65 -205t-42 -170
q0 -27 -45 -53q-59 -39 -64 33q-4 56 31 236t45 286t37 141q35 39 49 -12q12 -35 2 -98l-12 -80l51 86q43 70 73 90t67 5t51 -58t26 -191l15 -166l65 129q61 125 121 197l57 68l47 -47q43 -44 65 -142t36 -321t37 -215q20 12 20 -15z" />
    <glyph glyph-name="n" unicode="n" horiz-adv-x="827" 
d="M762 286q0 15 -14 -1l-5 -4q-15 -33 -77 -43t-74 -4q-33 15 0 456q18 219 -4 219q-42 0 -140 -94t-184 -219t-101 -200t-79 -105q-53 -29 -62 20q-4 15 10 71t43 224t33 253t38 85t42 -92t-16 -184l-22 -88l51 59q101 123 137 173t133 124q72 51 115 60t84 -15
q18 -12 21 -47t-4 -121t-17 -250t-12 -204t-1 -40l113 27l27 4q6 0 10 -4q-1 -27 -23 -51t-22 -9z" />
    <glyph glyph-name="o" unicode="o" horiz-adv-x="770" 
d="M641 750q-2 0 -4 -20t-15 -34q-13 -16 -37 -21t-30 2t5 51t-24 101q-36 57 -83 58q-47 0 -31 31l4 14q-4 0 -26 -20t-58 -5q-92 49 -190 -107q-48 -78 -20 -175q53 -177 300 -151q115 11 166 45t69 96q17 63 -3 99t-23 36zM750 650q0 -104 -106 -186t-257 -82
q-152 -1 -257 84t-110 218q-2 92 74 190t171 126t211 -16t196 -136q78 -94 78 -198z" />
    <glyph glyph-name="p" unicode="p" horiz-adv-x="743" 
d="M80 295q-78 0 -53 59q10 33 55 33t73 52t48 175q23 100 55 175t59 75q41 0 43 -33q4 -33 -36 -116q-72 -170 -70 -252q0 -29 14 -25q40 12 117 41q186 66 231 120t-2 141q-47 88 -150 142t-198 46q-115 -4 -114 26q0 12 18 35q43 51 172 29t240 -98q80 -56 120 -154
t12 -158q-53 -120 -329 -215q-86 -29 -124 -61t-53 -91q-16 -59 -20 -177t-11 -154t-34 -44q-27 -9 -44 29t-9 105q25 201 25 248q-4 47 -35 47z" />
    <glyph glyph-name="q" unicode="q" horiz-adv-x="518" 
d="M313 858q-37 35 -77 21q-40 -13 -77 -75q-36 -62 -44 -152q-9 -90 21 -135q30 -44 106 -34q45 2 58 32t24 167q9 137 -11 176zM187 -160q-34 0 -40 14t0 72q16 102 70 278t21 175q-2 0 -11 -4q-31 -17 -88 21t-84 93q-49 104 -29 216q20 111 84 181q66 70 92 82t68 1
q63 -7 131 -59t82 -79q15 -27 15 -95t-46 -149t-55 -102l-35 -65q-12 -23 -26 -62l-21 -51q-6 -16 -30 -112l-19 -72q-45 -170 -37 -216q8 -47 0 -57t-42 -10z" />
    <glyph glyph-name="r" unicode="r" horiz-adv-x="774" 
d="M754 1092q0 -23 -124 -115t-180 -103q-56 -10 -153 -62q-96 -52 -121 -89q-39 -61 -47 -188q-6 -57 -16 -101q-25 -123 -62 -102l-4 4q-47 24 -18 304q29 281 80 347q10 17 26 25t27 0q32 -14 -6 -111q-18 -45 -17 -51q0 -6 6 -5t45 23q54 39 156 65t204 78t128 85
q28 34 52 30t24 -34z" />
    <glyph glyph-name="s" unicode="s" horiz-adv-x="528" 
d="M352 548q0 -26 28 -37t36 -97t-4 -105q-8 -20 -60 -41t-158 4q-108 25 -149 70q-23 25 -25 43t15 45q13 31 29 42t27 -1t15 -43t26 -46t79 -28l90 -10q33 -2 35 27q0 33 -14 67t-82 173q-131 263 -105 343q14 42 35 43q31 6 111 -6q79 -12 145 -45t82 -78q6 -20 -10 -32
t-44 -8t-51 18q-39 39 -94 47t-63 -2t-1 -86t57 -154q50 -77 50 -103z" />
    <glyph glyph-name="t" unicode="t" horiz-adv-x="622" 
d="M367 1366q27 0 31 -40t-17 -71q-39 -43 -83 -126t-54 -127t-7 -53t29 1t107 -5q80 -15 80 -36q0 -8 -36 -22t-87 -23l-62 -12q-33 -4 -51 -28t-33 -93l-12 -82q0 -19 -6 -51q-13 -69 39 -127q51 -59 112 -50t161 85t124 60q22 -16 -42 -80q-64 -66 -150 -116t-146 -50
t-117 54t-61 120q-10 121 12 231q8 59 2 77t-34 29q-44 11 -46 45t29 33q37 0 74 34t46 82q9 49 59 157q85 184 139 184z" />
    <glyph glyph-name="u" unicode="u" horiz-adv-x="552" 
d="M20 467q0 72 21 151q72 268 137 269q43 0 45 -37q0 -39 -43 -129q-70 -143 -63 -260q2 -119 78 -119q109 0 177 116t67 293q0 177 16 189q12 16 51 -16q38 -32 22 -206q-16 -175 -73 -269q-86 -150 -193 -192t-166 17q-76 68 -76 193z" />
    <glyph glyph-name="v" unicode="v" horiz-adv-x="514" 
d="M129 569q14 0 17 -88t30 -100q55 -25 173 333q58 175 58 226t35 102q2 2 18 24t26 22q11 0 2 -108t-68 -290t-131 -322t-107 -141q-49 1 -94 153t-57 336t-8 240q6 55 61 56q10 0 20 -31q10 -51 10 -231t15 -181z" />
    <glyph glyph-name="w" unicode="w" 
d="M135 654q0 -178 17 -177q41 0 114 118q74 118 74 167t33 64q33 14 49 -12t10 -69t22 -132t56 -113q45 -37 98 0q54 37 100 133t82 262q36 167 44 193t26 26t29 -35q14 -82 -29 -241q-80 -311 -223 -418q-121 -94 -217 29q-16 20 -23 30q-37 68 -52 68q-15 -1 -54 -59
t-98 -102t-91 -44t-57 111t-25 251t19 201q14 47 63 35q18 -6 26 -57t7 -229z" />
    <glyph glyph-name="x" unicode="x" horiz-adv-x="714" 
d="M365 546q1 -19 117 -54q116 -36 116 -46q4 -9 -23 -16q-49 -18 -121 -9t-115 37q-42 28 -65 20t-100 -81q-116 -100 -146 -85t89 134l119 119l-50 66q-47 69 -84 199t-16 153q47 43 82 -20q16 -33 25 -86q8 -100 61 -187l49 -80l37 54q66 98 168 219q53 68 98 116
q47 47 53 48q83 0 -14 -123q-113 -135 -197 -247t-83 -131z" />
    <glyph glyph-name="y" unicode="y" horiz-adv-x="901" 
d="M20 -104q0 38 12 56q12 19 28 19q15 0 28 -16q18 -29 110 96t184 275q93 150 93 168q1 18 -65 44t-106 138t-24 226q16 112 30 132q13 20 49 6q36 -12 30 -36q-6 -52 -7 -148t8 -140t49 -76t93 6q54 38 140 174t115 170q73 85 93 3q11 -47 -42 -149t-155 -206t-158 -218
t-194 -310q-138 -194 -190 -231q-47 -37 -84 -29t-37 46z" />
    <glyph glyph-name="z" unicode="z" horiz-adv-x="718" 
d="M653 424q0 -45 -84 -62q-98 -14 -264 -12t-222 10q-57 8 -61 26t8 34q12 14 34 20t181 194t158 214q0 4 -48 4q-47 0 -125 -6t-104 0t-41 52t5 66t80 -2q60 -21 173 -3q112 18 151 57q51 45 112 10q2 0 4 -2q27 -16 11 -41q-15 -25 -75 -97t-77 -89q-113 -137 -176 -231
t-59 -103q4 -8 90 -12t133 -13q79 -6 113 -1t70 38t54 14q6 -6 3 -15t-13 -11q-31 -16 -31 -39z" />
    <glyph glyph-name="braceleft" unicode="{" horiz-adv-x="837" 
d="M817 1273q-1 -11 -23 -33t-42 -24t-54 11q-70 27 -138 -6q-126 -62 -185 -285q-31 -116 -63 -280t-54 -218q-20 -54 -16 -72q4 -20 32 -50t34 -58q5 -28 -8 -120t-13 -199q4 -66 -6 -82t-43 -17q-90 0 -66 119q4 11 6 33t15 111t8 108q-6 16 -39 18l-119 19q-35 4 -17 54
t60 58q55 10 87 90t77 304q45 225 72 305q29 73 87 147t103 92q44 18 150 18t135 -20q20 -12 20 -23z" />
    <glyph glyph-name="bar" unicode="|" horiz-adv-x="176" 
d="M156 1382q0 -6 -4 -22q-60 -203 -70 -309q-10 -105 -2 -441t15 -446t30 -187v-4q31 -102 28 -117t-42 -16h-2q-41 0 -51 22t-26 142q-15 120 -12 706q5 587 25 642q19 55 65 61t46 -31z" />
    <glyph glyph-name="braceright" unicode="}" horiz-adv-x="827" 
d="M305 -160h-158q-137 4 -124 23q11 20 113 10t128 -4t51 43q35 57 35 172q0 114 25 184t94 144l90 92l-49 57q-48 63 -26 117t132 158q78 68 100 100t7 80q-14 47 -56 103q-43 56 -97 84t-71 53t17 59q20 27 39 24t94 -43q74 -41 119 -108q60 -106 28 -244t-134 -205
q-68 -47 -68 -81t72 -79q72 -46 68 -85q-5 -39 -100 -85t-134 -111t-58 -214l-4 -31q-4 -27 -8 -57l-2 -33q-2 -25 -15 -57t-19 -40q-6 -6 -37 -16q-30 -10 -52 -10z" />
    <glyph glyph-name="asciitilde" unicode="~" horiz-adv-x="1171" 
d="M318 729q-64 0 -124 -41t-80 -96q-20 -54 -28 -60q-10 -6 -39 21q-27 27 -27 42t29 69t110 104t142 51q61 0 172 -44t176 -90t157 -58q92 -13 124 13q33 26 87 128t113 166q23 23 21 -2q-6 -49 -58 -173q-53 -124 -109 -179q-56 -56 -130 -56t-334 134q-138 72 -202 71z
" />
    <glyph glyph-name="cent" unicode="&#xa2;" horiz-adv-x="741" 
d="M121 544q-17 -92 21 -150t56 -28t53 224q34 192 28 203q-12 6 -77 -75t-81 -174zM459 934q80 0 124 -71t5 -132q-14 -23 -24 -23t-34 17q-36 33 -32 59t-8 38q-12 11 -37 16q-98 16 -144 -303q-23 -150 -33 -192t-2 -55t41 -22q125 -33 283 86q78 59 78 94q0 12 7 22
t15 9q20 0 23 -26q4 -66 -51 -136q-119 -135 -308 -139l-108 -6v-102q-4 -147 -43 -148q-15 0 -31 18q-33 35 -21 135q11 101 3 130t-62 81t-72 135q-20 83 6 169t80 165t109 107t74 55q17 29 37 130q44 227 92 229q74 0 8 -181q-33 -91 -28 -126q2 -33 53 -33z" />
    <glyph glyph-name="sterling" unicode="&#xa3;" horiz-adv-x="1005" 
d="M280 387q53 0 68 55q14 58 -2 78q-12 25 -112 26t-116 -25q-15 -26 47 -80t115 -54zM608 839q0 -5 -34 -19t-88 -28q-54 -13 -72 -28q-25 -14 -25 -48q-1 -34 15 -34t30 -51q16 -61 194 -138t253 -57q23 6 23 33t32 39q33 12 46 -23q14 -35 -14 -101t-59 -65
q-63 2 -407 109q-48 14 -62 9t-27 -54t-71 -73t-129 1q-72 25 -135 98q-119 138 12 199q60 29 142 24t94 9t-11 74q-14 45 -92 46t-89 36t36 47q2 2 22 4t29 16q8 14 4 58q-55 526 133 618q56 29 76 26t76 -50q56 -48 91 -136q36 -88 26 -153q-12 -90 -47 -31
q-18 30 -43 110t-59 126t-62 41q-60 -13 -97 -113q-61 -154 -8 -369q23 -96 42 -110q19 -15 107 -19t118 -11t30 -12z" />
    <glyph glyph-name="section" unicode="&#xa7;" 
d="M678 377q0 12 -108 136t-170 124q-64 0 -77 -31q-13 -32 53 -100t142 -107q78 -39 135 -34q25 0 25 12zM350 752q37 0 21 41q-61 145 -70 196q-8 51 18 143t82 140q56 49 92 60t162 10t162 -31q37 -25 60 -84t5 -88t-52 -11t-22 62t-54 66q-64 24 -155 9t-132 -53
t-52 -72q-11 -32 -12 -96q-1 -132 59 -240t245 -312q55 -61 79 -107q39 -80 -55 -102q-53 -14 -135 2l-82 14l43 -66q57 -82 63 -139t-42 -106q-96 -94 -367 -74q-197 10 -191 63q4 14 25 31q43 30 157 12t157 -14q44 4 100 27l86 35l-41 61q-30 57 -146 167t-138 148
t-22 107t48 135q47 66 104 66z" />
    <glyph glyph-name="guillemotleft" unicode="&#xab;" horiz-adv-x="876" 
d="M528 1047q96 0 -43 -140q-89 -88 -201 -217t-106 -160t129 -30q55 0 81 11t50 55t124 162q99 118 110 132q80 96 133 96q20 0 33 -4q63 -18 -54 -108q-74 -55 -170 -182l-98 -127l84 -72q88 -76 117 -76l14 -2q29 -10 2 -48t-76 -30t-95 46t-95 61q-49 18 -60 0t-159 0
t-184 32q-34 14 -40 40t-3 43q4 17 14 18q19 -1 177 179t230 247q74 74 86 74z" />
    <glyph glyph-name="guillemotright" unicode="&#xbb;" horiz-adv-x="1011" 
d="M444 614q29 0 29 -24q2 -41 -49 -76q-53 -29 -137 -59q-79 -21 -137 -69t-78 -55t-37 9q-63 61 160 172l139 68l-86 172q-86 170 -68 211q41 53 94 -9q26 -37 50 -114q24 -78 60 -152t60 -74zM983 729q35 0 -33 -81t-143 -134q-477 -336 -518 -291q-23 23 -13 42t134 94
q123 75 166 93t272 212q10 10 1 32t-26 37q-66 72 -91 157q-26 85 9 118q23 26 61 16t42 -39l4 -65q4 -27 61 -109t74 -82z" />
    <glyph glyph-name="questiondown" unicode="&#xbf;" horiz-adv-x="565" 
d="M293 643q0 35 10 48t36 13t36 -12q10 -14 10 -49q0 -90 -51 -211t-133 -217t-84 -147q-2 -32 37 -50q40 -18 78 -17t38 16t72 98l70 78l-17 -103q-12 -104 -42 -148q-29 -44 -53 -50q-24 -8 -106 2q-172 20 -174 182q0 57 21 95q20 38 90 114q162 168 162 358zM545 980
q0 -42 -43 -47t-58 30q-6 14 -8 -5v-24q4 -56 -36 -60t-67 38t-27 58q1 17 27 55t78 46q52 7 93 -21t41 -70z" />
    <glyph glyph-name="Agrave" unicode="&#xc0;" horiz-adv-x="1056" 
d="M713 1184q-16 0 -88 -106t-131 -206l-68 -116l70 -11q74 -8 141 7l68 10l12 213q12 209 -4 209zM330 782q297 466 350 584t100 137q23 8 27 -26q0 -27 37 -56q26 -14 26 -27t-22 -55q-31 -45 -41 -270q-8 -535 10 -605t-16 -95q-31 -14 -48 -14q-30 2 -38 121
q-2 30 -4 96q-3 66 -13 88q-10 20 -41 10t-182 -27l-141 -10l-109 -164q-92 -135 -121 -164t-55 -19t-29 22q-5 25 58 118q8 12 23 35t109 152q93 128 120 169zM998 1585q-32 1 -68 11t-45 24q-8 14 18 16q59 10 113 -18q20 -8 20 -23q-6 -10 -38 -10z" />
    <glyph glyph-name="Aacute" unicode="&#xc1;" horiz-adv-x="1019" 
d="M907 1513q-1 15 13 25t38 10t33 -18q8 -18 8 -106q1 -88 -23 -226t-44 -148q-20 -9 -8 -46q12 -49 -37 -199q-47 -165 -45 -309t-15 -197q-18 -49 -61 -35t-30 62t38 209q18 147 80 411q55 258 53 308t-5 58q-3 9 -23 -22q-230 -356 -331 -474t-85 -126q11 -16 153 -27
t142 -22q5 -5 -45 -36q-49 -32 -132 -41t-151 15q-68 25 -90 15t-102 -97t-101 -130q-27 -45 -72 -47t-45 24q0 28 199 225t315 331t244 340t129 273zM840 1594q0 44 45 44q31 0 34 -8t-18 -40t-41 -28q-20 6 -20 32z" />
    <glyph glyph-name="Acircumflex" unicode="&#xc2;" horiz-adv-x="1017" 
d="M569 918l6 92q0 33 -4 37q-8 0 -100 -159t-117 -210q-4 -18 79 -18t99 36q16 38 37 222zM420 944q4 -2 18 14t42 64q26 48 18 47q-12 0 -48 -58t-30 -67zM584 1325q34 19 60 -5t28 -77q2 -105 -20 -327t0 -230t17 -34t-32 -46q-25 -22 -43 -182t-53 -170q-12 -4 -33 9
t-6 153l12 141l-125 -6q-94 -7 -123 -23t-86 -98q-106 -147 -155 -98q-22 25 114 264q135 240 185 334t146 236q94 142 114 159zM410 1602q74 34 130 36t60 -8q0 -8 -78 -60t-98 -56t-44 18q-24 23 -18 34t48 36zM838 1599q-12 43 24 43q43 -4 74 -49q2 -2 17 -40t32 -70
q32 -64 -16 -66q-23 0 -49 21q-62 38 -82 161z" />
    <glyph glyph-name="Adieresis" unicode="&#xc4;" horiz-adv-x="970" 
d="M610 614l11 99q2 10 18 157l12 131q-4 0 -133 -194l-129 -193h221zM621 1085q55 88 55 119q2 16 -27 -20q-31 -49 -77 -136t-31 -83q29 22 80 120zM725 1363q0 24 23 25q22 1 34 -21t-8 -165q-41 -252 -63 -496t-6 -268q27 -28 -1 -62t-66 -34t-43 15t7 97t-4 87
q-6 4 -25 -6q-47 -17 -146 -27t-136 -30t-105 -94q-121 -132 -157 -110q-27 27 77 175q254 356 431 706q59 121 90 163t55 36q43 -15 43 9zM936 1389q-30 -1 -56 45t-34 112t-2 80q6 12 44 7t47 -24t13 -84q8 -138 -12 -136zM520 1595q0 43 47 43q23 0 47 -34t27 -76
q4 -41 -10 -60q-14 -14 -41 6q-26 20 -48 56t-22 65z" />
    <glyph glyph-name="Ccedilla" unicode="&#xc7;" horiz-adv-x="921" 
d="M901 1192q0 -74 -42 -177t-82 -119t-50 2q-10 17 18 50q88 109 89 246q0 43 -15 69q-14 26 -51 56q-49 35 -72 36t-88 -26q-195 -80 -366 -428q-58 -117 -100 -259t-23 -163q8 -8 -17 -41q-29 -29 0 -28q12 0 18 -10t2 -26q-5 -18 37 -92t63 -85q20 -12 78 -1t162 71
t124 98q12 29 30 94q8 49 40 61t52 -20t-5 -92q-24 -59 -76 -123q-70 -80 -91 -80q-20 1 -102 -57t-135 -58t-53 -18q4 -25 99 -114t89 -103q-4 -6 -26 -11q-80 -4 -238 160q-82 84 -59 105q6 6 16 6q20 0 -23 65l-8 13q-92 135 -71 305q19 170 137 409t178 317t166 155
t175 76t142 -77q49 -47 63 -80q14 -32 15 -106z" />
    <glyph glyph-name="Egrave" unicode="&#xc8;" horiz-adv-x="835" 
d="M573 1389q246 0 242 -46q0 -12 -18 -20q-29 -23 -230 -47l-198 -27l-35 -176q-20 -94 -23 -104q-16 -84 8 -99q12 -6 122 -5t165 24q56 23 74 7t-12 -65q-31 -45 -150 -79t-183 -20q-64 13 -65 -15q0 -20 -53 -162q-43 -104 -70 -199l-16 -65l94 16q88 13 215 63
q298 116 301 60q2 -39 -145 -104q-453 -201 -555 -160q-21 8 -21 34t73 240t85 272q12 60 -2 85q-18 25 -16 42t26 46t66 247q41 218 47 228q32 107 74 51q6 -8 61 -15t139 -7zM528 1638q43 0 132 -57t90 -84q-6 -16 -44 -10q-38 5 -92 31t-82 55l-67 65h63z" />
    <glyph glyph-name="Eacute" unicode="&#xc9;" horiz-adv-x="706" 
d="M655 1390q0 -26 -38 -49t-87 -23q-50 0 -70 -25q-20 -26 -68 -172t-34 -154t92 -2t134 18q29 6 40 -27q10 -34 -10 -62t-170 -46l-149 -12l-80 -207q-96 -252 -94 -271q3 -14 23 -9t62 13t123 36t169 24t88 -27q0 -39 -32 -67t-67 -21q-51 16 -194 -35q-143 -45 -203 -46
t-67 48q-6 49 32 164q68 186 110 280t44 118q2 26 -29 60q-60 67 33 99q76 27 74 43q-16 12 34 151t35 154q-16 -1 -20 39t14 57t162 -3t143 -46zM569 1604q18 35 68 34h49l-47 -49q-57 -57 -74 -28q-6 14 4 43z" />
    <glyph glyph-name="Ecircumflex" unicode="&#xca;" horiz-adv-x="833" 
d="M336 1327q0 -25 41 -29t239 8t197 -10q0 -35 -155 -84q-156 -49 -234 -50t-95 -13t-27 -61t-32 -142l-20 -86l201 17q129 8 165 6t37 -25q0 -33 -105 -70t-212 -43l-103 -6l-40 -159q-63 -242 -57 -264t44 -21q39 0 206 56t255 95q87 39 107 41t20 -18q0 -31 -108 -92
t-246 -117t-220 -66t-134 18t-35 71q33 91 97 371t95 464q30 184 55 232q16 34 40 26t24 -49zM403 1618q0 20 75 20t77 -5t-8 -14t-23 -15q-37 -25 -79 -20t-42 34zM653 1556q0 6 -10 36t-3 39t30 7q59 0 102 -53q0 -2 2 -4q37 -53 22 -64q-14 -11 -78 7t-65 32z" />
    <glyph glyph-name="Edieresis" unicode="&#xcb;" horiz-adv-x="989" 
d="M420 887q112 0 148 -6t36 -27q0 -26 -78 -52t-172 -37t-106 -17l-20 -10q-8 -3 -9 -5q-2 -2 -5 -4t-5 -6t-12 -21t-17 -44q-6 -27 -32 -123q-57 -214 32 -216q35 1 218 61q184 60 236 89t72 32t134 54q116 51 127 27q2 -2 2 -11q0 -18 -52 -52q-53 -33 -127 -63t-132 -66
t-215 -96t-247 -84t-112 -20q-22 2 -44 31t-17 76q2 47 63 334t104 447t80 208q50 57 96 45t187 -25t158 -36q8 -18 -33 -39q-119 -53 -238 -43q-80 4 -98 -5t-47 -85t-43 -135l-16 -76h184zM635 1389q-31 -1 -53 35t-23 79q0 43 9 55t32 7q39 -6 45 -92q8 -47 1 -65
t-11 -19zM425 1456q-34 0 -63 57q-28 58 -14 99q14 34 54 26t53 -49q18 -73 11 -103t-41 -30z" />
    <glyph glyph-name="Icircumflex" unicode="&#xce;" horiz-adv-x="509" 
d="M264 1366q16 0 23 -29q10 -61 -26 -154t-93 -447t-76 -426q-19 -70 -43 -79q-10 -2 -17 5q-30 26 22 302q52 277 93 518q41 240 83 290q18 20 34 20zM63 1477q1 21 93 87t200 76t126 -38q16 -48 -10 -64t-64 18t-60 32q-22 -3 -112 -64q-133 -92 -166 -62q-6 4 -7 15z
" />
    <glyph glyph-name="Idieresis" unicode="&#xcf;" horiz-adv-x="622" 
d="M199 1059q27 112 45 139t47 31q29 5 44 -11t-49 -212t-119 -441q-54 -246 -35 -254q18 -8 -12 -49t-50 -48t-38 8q-16 14 2 128t165 709zM602 1554q0 -52 -10 -84q-20 -55 -74 -8q-32 33 -18 105t59 71q25 0 34 -16t9 -68zM219 1638q23 0 40 -45t13 -94t-32 -60t-59 25
q-32 36 -37 81q-10 93 75 93z" />
    <glyph glyph-name="Ntilde" unicode="&#xd1;" horiz-adv-x="1173" 
d="M1153 1241q-1 -31 -19 -81t-73 -340t-74 -365q-33 -86 -78 -157t-65 -71q-35 0 -172 158t-238 311l-133 203l-20 -92q-13 -89 -69 -323t-72 -305q-34 -156 -94 -156t24 262q49 164 88 386q39 221 39 329t10 152t47 76t70 16q32 -16 18 -70q-14 -56 8 -111
q193 -418 225 -410q25 5 62 -66q19 -36 109 -129t112 -93q23 1 71 203t81 420t43 259q8 29 54 27t46 -33zM674 1638h51q41 0 51 -10t22 -36t21 -86q11 -60 21 -72t36 8t27 52q0 34 32 89t54 55q35 0 12 -65t-65 -156q-41 -91 -75 -113q-35 -22 -67 22t-58 132t-42 119
q-12 19 -19 27t-11 6q-18 -8 -68 -77t-66 -106q-6 -25 -38 0t-29 49q4 24 44 80q40 55 64 69q25 13 103 13z" />
    <glyph glyph-name="Oacute" unicode="&#xd3;" horiz-adv-x="970" 
d="M119 531q0 -123 34 -221t91 -128q82 -43 205 -1q123 41 224 143t134 198t40 246t-11 175q-18 26 -30 79q-12 52 -64 112t-76 70t-70 2q-260 -59 -412 -360q-41 -82 -53 -137t-12 -178zM471 1257q137 61 262 27t182 -145q27 -51 33 -123t-14 -90q-18 -26 -22 -214
t-74 -306t-277 -277q-41 -31 -113 -55t-122 -25q-51 -2 -60 19q0 22 -41 22t-95 90t-85 217q-33 117 -22 213q31 215 155 396q125 179 293 251zM666 1612q12 27 69 26h62l-58 -73q-59 -76 -82 -62q-22 15 9 109z" />
    <glyph glyph-name="Ocircumflex" unicode="&#xd4;" horiz-adv-x="1060" 
d="M451 295q165 0 317 99t184 227q18 65 16 161t-14 139t-18 72q-17 84 -62 120q-20 18 -51 32q-158 78 -372 2q-92 -33 -169 -99t-118 -151q-156 -334 65 -522q61 -53 99 -67t123 -13zM358 182q0 8 -16 16t-37 7q-61 0 -123 57q-130 106 -156 286t58 364q84 185 200 258
t357 92q90 6 115 43q20 39 37 38q35 1 128 -115t106 -157t12 -223t-25 -271t-98 -168q-73 -79 -171 -131q-97 -52 -203 -66q-106 -13 -143 -34q-41 -18 -41 4zM639 1551q0 13 35 50q36 37 114 37t106 -14t66 -66t45 -72q7 -19 -10 -30q-63 -37 -153 66l-54 59l-43 -51
q-31 -39 -43 -41q-12 -3 -38 23t-25 39z" />
    <glyph glyph-name="Odieresis" unicode="&#xd6;" horiz-adv-x="966" 
d="M715 1210q-21 14 -109 16t-137 -12t-131 -67t-119 -94q-90 -101 -109 -277t39 -280q59 -104 123 -136q64 -31 203 -28q219 2 317 117q97 115 93 370q0 127 -41 156q-42 27 -32 57q5 14 -34 89q-38 75 -63 89zM522 1296q48 0 68 10t28 37q14 53 58 35q26 -14 76 -59
t79 -46t65 -65t36 -121l12 -256q14 -221 -39 -343t-199 -194t-319 -62q-174 11 -252 100q-117 135 -115 358t125 408q51 78 166 138t211 60zM815 1638q31 0 39 -15t2 -69q-6 -86 -40 -86t-40 70t1 84q7 16 38 16zM561 1623q0 -15 -41 -93t-58 -89t-41 11q-23 22 -19 48
q4 24 22 61q37 77 87 77t50 -15z" />
    <glyph glyph-name="Ugrave" unicode="&#xd9;" horiz-adv-x="878" 
d="M856 1305v-101q-25 -510 -225 -739q-82 -90 -210 -186t-183 -109q-111 -23 -166 58q-106 156 5 649q51 237 71 289t20 57q31 72 72 73q70 4 -14 -210q-42 -106 -86 -324q-44 -219 -33 -311t49 -129q27 -31 46 -32q19 -2 94 28q74 30 224 172t150 186t26 70t58 216t18 294
q-14 106 19 116q43 20 57 -12q8 -16 8 -55zM560 1638q54 0 105 -33q50 -34 50 -69t-13 -35q-26 1 -98 37t-92 62t-13 32t61 6z" />
    <glyph glyph-name="Uacute" unicode="&#xda;" horiz-adv-x="878" 
d="M199 1331q59 0 -29 -350q-47 -195 -50 -368t34 -214q88 -97 283 27q78 50 151 117q55 55 92 127q63 129 83 349q19 220 -30 296q-18 31 -1 74t54 50t43 -40q11 -43 25 -59t-10 -296q-27 -252 -82 -380t-186 -239q-131 -109 -200 -145t-160 -38t-133 45t-55 169t1 246
t57 334t62 252t51 43zM643 1638h55l-51 -102q-49 -102 -65 -102q-27 0 -33 35t11 86q18 51 34 67t49 16z" />
    <glyph glyph-name="Ucircumflex" unicode="&#xdb;" horiz-adv-x="995" 
d="M944 1434q28 0 32 -52q3 -52 -26 -77q-16 -20 -45 -181q-17 -129 -35 -181t-119 -270q-101 -219 -203 -323t-242 -141t-213 46t-73 273q0 124 41 348t76 297t78 74q33 4 33 -48t-28 -82t-60 -169q-32 -138 -41 -280q-8 -142 -3 -195q4 -53 28 -91t53 -50t105 -12
q158 -1 337 298q197 336 201 596q0 140 38 180t66 40zM618 1638q80 0 111 -28t2 -76q-12 -20 -27 -15q-14 5 -64 54t-60 41q-18 -39 -88 -130t-86 -85q-29 19 -19 53t55 96t70 76q26 14 106 14z" />
    <glyph glyph-name="Udieresis" unicode="&#xdc;" horiz-adv-x="1058" 
d="M996 1366q34 0 40 -14q18 -91 -130 -404t-238 -426q-90 -112 -133 -154t-117 -79t-133 -35t-119 53q-108 91 -136 277t27 440q28 121 35 157q6 36 8 47q11 60 40 66q9 2 32 2t29 -14q4 -16 -6 -80q-8 -82 -48 -205q-59 -186 -28 -370t131 -234q80 -39 172 23
q86 55 242 248q90 120 180 318t90 277t16 91q12 16 46 16zM480 1283q-55 27 -65 63q-5 18 8 116t24 113q11 16 37 5t32 -42q2 -33 0 -113q-12 -127 -12 -147q-4 -4 -24 5zM643 1296q-37 0 -20 115q12 113 39 160q47 86 83 8q13 -41 -29 -162t-73 -121z" />
    <glyph glyph-name="germandbls" unicode="&#xdf;" horiz-adv-x="847" 
d="M680 1346q-63 61 -146 54t-120 -81q-25 -47 -53 -205q-29 -158 -37 -284t-34 -272t-41 -188t-6 -59q9 -16 67 -46q58 -29 100 -15t114 91t79 130t-25 166t-54 145t-67 56q-99 55 -79 112q10 29 47 37q36 7 88 -23t101 -22t80 47q76 96 45 225q-22 95 -59 132zM537 1501
q81 0 114 -14t97 -81t63 -81l4 -22q0 -19 10 -127q11 -108 -35 -200q-46 -93 -128 -132q-54 -23 -58 -35t25 -72q29 -59 37 -189t-27 -210q-39 -76 -147 -150q-72 -45 -97 -48t-98 24l-100 35l-25 -95q-27 -98 -28 -162t-13 -78t-55 -18t-52 4t-1 31t11 35q4 12 26 84
t69 226t72 280q25 128 53 410t56 394q30 112 88 151q58 40 139 40z" />
    <glyph glyph-name="agrave" unicode="&#xe0;" horiz-adv-x="1136" 
d="M137 281q8 0 31 15t117 136q94 120 135 192t78 193q36 121 24 141q-27 43 -123 -3q-97 -46 -159 -137t-92 -174t-37 -191q-16 -172 26 -172zM682 410q43 0 229 122q57 43 117 75t78 36q42 5 -28 -65t-164 -143t-162 -109l-125 -64l-52 51q-33 33 -41 70q-10 37 -10 143
t-6 108q-6 3 -12 -10q-6 -14 -9 -18t-5 -8q-49 -96 -162 -238t-158 -167q-43 -19 -58 -19t-40 27q-63 69 -51 235t92 330q43 90 130 182t142 105q154 39 221 -52q37 -49 42 -117t-17 -206q-43 -268 49 -268zM692 1229q-48 0 -127 75q-80 74 -100 112t-12 73t20 48
q21 23 62 -28q15 -19 63 -89t97 -108t60 -54t-2 -23q-13 -6 -61 -6z" />
    <glyph glyph-name="aacute" unicode="&#xe1;" horiz-adv-x="784" 
d="M106 590q0 -53 29 -86q78 -68 244 86q68 59 81 91t15 138q11 123 -14 145q-8 7 -47 11q-38 4 -96 -33t-101 -98q-111 -158 -111 -254zM626 1069q38 0 44 -18q4 -27 -6 -127t-56 -189q-46 -88 -44 -150q3 -63 48 -73t82 29t60 24q10 -6 10 -26q0 -33 -95 -89t-134 -47
q-45 10 -63 80q-10 37 -28 37t-92 -55t-114 -55t-48 -27q-12 -39 -84 23t-81 124q-23 111 63 268t203 220q82 43 130 49t98 -22t59 -1q10 25 48 25zM627 1469q0 -79 11 -109t6 -35q-5 -6 -28 0q-35 4 -60 76t-11 115q12 33 49 32q33 0 33 -79z" />
    <glyph glyph-name="acircumflex" unicode="&#xe2;" horiz-adv-x="1110" 
d="M623 860q-4 28 -30 58q-25 30 -93 35q-145 11 -255 -115q-60 -70 -93 -156q-80 -211 -17 -315q20 -43 55 -46t111 29q233 100 301 395q20 82 21 115zM590 418q0 55 -14 55q-14 1 -76 -69t-162 -123t-162 -53t-109 76q-47 77 -47 166t50 221q49 133 80 145q30 12 30 36
t68 75q68 52 106 53t76 24q84 53 207 -29q51 -35 64 -59t11 -102q-2 -76 -28 -162q-20 -76 -11 -167t40 -116q18 -14 154 24t198 74q10 6 14 7q12 4 11 -9q0 -25 -46 -65t-166 -93q-120 -54 -173 -55q-115 0 -115 146zM782 1024q-47 0 -95 70t-64 148q-17 78 -37 87
q-20 8 -56 -43q-66 -96 -92 -22q-14 28 82 147q98 117 125 109q13 -4 19 -24q12 -37 39 -147q27 -111 61 -176t56 -83t42 -21q39 -2 6 -20q-39 -25 -86 -25z" />
    <glyph glyph-name="adieresis" unicode="&#xe4;" horiz-adv-x="1015" 
d="M190 342q60 0 159 43t132 76t74 229q10 62 -31 105q-51 49 -75 45q-101 -4 -215 -144t-119 -268q-4 -62 5 -74q10 -12 70 -12zM954 477q42 0 42 -5t-38 -47q-36 -42 -194 -118t-189 -63q-33 8 -55 65l-20 53l-131 -67q-166 -84 -257 -58q-92 25 -92 149t103 296t201 217
q63 29 146 22t110 -43q26 -36 66 -31t50 -44q18 -90 -37 -220t-43 -190q4 -29 29 -29t133 40t121 59q13 14 55 14zM702 1183q0 -102 -24 -124q-31 -31 -66 55q-39 88 -10 156q0 2 10 16q25 27 47 19q43 -20 43 -122zM532 1328q0 -96 10 -130q10 -32 -10 -46q-18 -14 -44 -9
q-26 3 -39 25q-11 22 -17 88t8 126l2 4q14 53 47 48q43 -10 43 -106z" />
    <glyph glyph-name="ccedilla" unicode="&#xe7;" horiz-adv-x="628" 
d="M258 194q0 -22 44 -76t49 -73q5 -20 -13 -60t-47 -57q-41 -18 -131 -28t-125 16q-49 57 86 88l29 4q66 12 72 22t-28 47q-36 38 -37 117t-16 78q-23 0 -41 66q-48 116 56 354q59 140 105 196t130 109q94 53 147 17q52 -37 65 -124t-6 -166q-19 -78 -35 -104
q-26 -42 -52 -16q-27 27 5 163t-15 161t-160 -92q-47 -49 -88 -125q-93 -172 -76 -281q8 -60 51 -72t141 31t125 77t55 24t28 -44q0 -35 -61 -84q-59 -50 -127 -78t-99 -48t-31 -42z" />
    <glyph glyph-name="egrave" unicode="&#xe8;" horiz-adv-x="733" 
d="M485 899q-31 35 -63 30t-100 -57q-133 -109 -164 -204q-12 -37 -4 -41q8 -3 72 19t143 74q77 52 109 99t7 80zM575 860q1 -55 -21 -88q-22 -32 -108 -106t-186 -107q-88 -23 -110 -65t31 -96q51 -54 191 -19t242 131q98 88 99 37q0 -35 -86 -106t-199 -130
q-106 -61 -176 -60t-144 80t-83 181q-8 68 1 104t50 99q129 190 272 264q84 31 135 17t71 -47q20 -34 21 -89zM643 1184q0 -22 -46 -26q-47 -3 -107 14q-60 18 -99 52t-64 94t-3 82t60 8t58 -48q23 -47 83 -99q60 -51 89 -53t29 -24z" />
    <glyph glyph-name="eacute" unicode="&#xe9;" horiz-adv-x="833" 
d="M384 952q-18 0 -76 -30t-102 -88t-58 -108t-13 -69q-4 -14 13 -18q33 -8 112 31q74 32 149 100t75 102t-44 62q-38 18 -56 18zM596 494q0 -41 -148 -154t-204 -113q-96 0 -157 71q-119 141 -24 433q45 119 82 165t107 84t132 39q64 1 105 -24q102 -66 62 -168
q-29 -75 -137 -153t-242 -117q-51 -12 -54 -86t39 -113q42 -40 92 -30t136 73q83 53 107 53t57 33q33 31 40 31t7 -24zM432 1171q-31 0 -36 39q-4 40 20 60t166 132t178 132q35 20 53 -6q10 -20 -170 -188t-211 -169z" />
    <glyph glyph-name="ecircumflex" unicode="&#xea;" horiz-adv-x="776" 
d="M549 909q0 63 -22 75t-84 -20q-61 -30 -125 -114t-76 -146t4 -63q16 -2 104 43q199 104 199 225zM420 1049q56 33 118 29t84 -38q22 -36 16 -110q-5 -74 -34 -129q-57 -119 -264 -215q-90 -43 -104 -79t40 -85q32 -29 52 -32t80 20q60 22 92 22t126 75t126 60
q23 -16 -54 -88q-82 -82 -216 -142t-188 -47t-105 61q-50 47 -58 87q-15 76 -68 97q-47 23 -43 45t48 28q44 4 57 22q14 18 27 68q39 222 268 351zM332 1147q-44 16 -20 59t138 157t131 109q17 -6 93 -146t62 -152t-82 30q-70 42 -76 70q-6 29 -16 40t-56 -26q-8 -8 -57 -61
q-84 -96 -117 -80z" />
    <glyph glyph-name="edieresis" unicode="&#xeb;" horiz-adv-x="845" 
d="M506 858q0 66 -115 -12q-67 -44 -133 -118q-67 -73 -70 -97q0 -15 79 17t159 104t80 106zM236 829q89 103 169 140t119 25t60 -74q29 -96 -82 -215t-273 -168q-102 -25 -104 -78q-9 -59 23 -87t101 -20t244 66t244 96q69 37 84 18q6 -6 2 -14t-19 -12t-61 -43
q-35 -37 -245 -128t-295 -103q-84 -12 -135 38q-51 49 -48 142q6 188 216 417zM710 1092q-34 0 -56 51q-21 51 -3 100q19 45 57 27t44 -82t-1 -80t-41 -16zM465 1024q-63 0 -97 80t3 145q23 43 59 30t45 -65l21 -114q8 -48 3 -62t-34 -14z" />
    <glyph glyph-name="icircumflex" unicode="&#xee;" horiz-adv-x="538" 
d="M53 157q-35 33 -32 73t53 187t86 293q34 146 56 200t55 66q34 13 48 -15q10 -15 -89 -319t-98 -339t20 -43q35 -8 153 65t148 78q39 6 -17 -57q-106 -123 -221 -178q-75 -39 -101 -42t-61 31zM518 1159q0 -25 -53 -27t-101 17q-48 20 -68 15q-19 -5 -63 -50
q-61 -66 -104 -49q-20 7 -20 27q-1 20 29 57t98 107t105 80q38 11 62 -50q19 -55 67 -84t48 -43z" />
    <glyph glyph-name="idieresis" unicode="&#xef;" horiz-adv-x="552" 
d="M227 330q11 0 11 -20t-43 -63q-43 -44 -89 -75t-57 -20q-43 78 -23 293t84 352q62 137 83 137q76 -8 0 -178q-39 -80 -64 -232t-8 -213q6 -27 18 -28t72 43q12 4 16 4zM212 1056q-26 0 -48 64t7 98q28 34 69 9q2 -2 20 -11q18 -8 21 -20q1 -12 -9 -43t-14 -35
q-20 -63 -46 -62zM432 1202l17 62l43 -56q40 -47 40 -66q0 -20 -26 -56t-35 -34q-8 2 -29 38q-24 59 -10 112z" />
    <glyph glyph-name="oacute" unicode="&#xf3;" horiz-adv-x="731" 
d="M496 729q-25 45 -49 56t-97 12q-125 0 -198 -66q-35 -29 -20 -50t-9 -22q-16 -5 -15 -39t20 -83t44 -74q54 -61 158 -59t151 65q91 113 15 260zM598 557q0 -94 -62 -163t-154 -83t-183 27q-92 41 -140 129q-31 55 -36 90q-6 35 6 86q41 182 166 219q84 25 182 23
q183 -4 246 -123q31 -60 3 -104t-28 -101zM350 1047q-96 0 135 225q152 152 205 141q29 -6 20 -34t-69 -76q-106 -96 -186 -176t-105 -80z" />
    <glyph glyph-name="ocircumflex" unicode="&#xf4;" horiz-adv-x="847" 
d="M561 598q0 176 -149 176q-137 0 -234 -119q-53 -63 -65 -146t37 -130q52 -45 170 -28t180 81t61 166zM267 842q24 0 11 24q-14 24 -1 46q27 48 198 -39q96 -48 128 -97t32 -162q-4 -188 -139 -289q-134 -101 -270 -86t-181 110t-10 216t119 195q28 26 66 54t47 28z
M608 1316q0 18 26 31t52 4t90 -147q63 -138 47 -154t-60 12t-73 77l-41 69l-123 -121q-110 -102 -134 -116t-58 8q-16 16 4 45q37 45 117 117q65 55 109 105q44 52 44 70z" />
    <glyph glyph-name="odieresis" unicode="&#xf6;" horiz-adv-x="706" 
d="M520 735q-25 53 -50 58q-26 4 -108 -33q-252 -109 -251 -359q-1 -102 37 -140t124 -27q86 12 150 62t96 122q74 167 2 317zM20 348q0 60 30 169q30 108 57 157q27 48 109 104t96 74q13 18 -3 37q-16 18 23 20q86 4 178 -35t104 -92q8 -30 6 -156t-14 -180t-49 -116
q-147 -248 -418 -180q-47 14 -83 76t-36 122zM575 1237l9 29q25 57 61 28q47 -35 39 -141q-4 -106 -45 -102q-37 9 -57 69t-7 117zM236 1046q-10 34 -10 126t28 121q29 28 53 16q37 -23 27 -119t20 -160q33 -60 4 -78t-79 31q-33 29 -43 63z" />
    <glyph glyph-name="ugrave" unicode="&#xf9;" horiz-adv-x="765" 
d="M195 979q70 0 8 -127l-19 -37q-45 -86 -60 -271q-16 -186 16 -244t93 -49t130 84t71 103q12 74 30 172t18 233q-2 133 14 157t41 14q37 -20 49 -82t-11 -240q-40 -246 -40 -308t8 -65q20 0 92 48q83 49 107 37t-52 -92q-76 -79 -139 -109q-47 -19 -65 -17t-36 29t-32 24
t-53 -42q-123 -123 -244 -37q-57 41 -78 99t-23 179t25 249t70 210q39 82 80 82zM281 1396q0 -30 83 -99t121 -68q17 0 31 -10t14 -25q0 -33 -83 -33q-83 -1 -113 15t-90 80q-59 64 -76 139q-16 74 29 92q20 8 52 -26q32 -35 32 -65z" />
    <glyph glyph-name="uacute" unicode="&#xfa;" horiz-adv-x="860" 
d="M199 1024q27 0 35 -8t8 -35q-6 -53 -54 -199q-96 -276 -47 -388t172 24q93 99 117 177t45 228q27 230 62 248q29 23 51 12q20 -6 14 -148q-6 -143 -29 -201t-19 -155t30 -128q16 -25 43 -27t74 5t91 9t47 -4t-31 -28t-132 -65q-98 -42 -148 -34q-51 6 -61 78
q-8 60 -40 42q-15 -9 -35 -44t-108 -95t-130 -61q-100 1 -126 137t33 353l17 59q55 248 121 248zM668 1501q86 0 -41 -194q-81 -121 -97 -163q-32 -80 -57 -38q-10 16 -10 49q0 66 91 206t114 140z" />
    <glyph glyph-name="ucircumflex" unicode="&#xfb;" horiz-adv-x="765" 
d="M158 160q-42 0 -90 49q-37 33 -44 67t4 178q11 142 27 212t85 187q69 116 110 67l6 -7q12 -23 -54 -149t-86 -277t20 -185q42 -34 109 3t123 121t67 146t47 204q36 140 48 199q10 31 35 25t45 -42q23 -53 -19 -182t-47 -268q-6 -138 26 -150t104 23q68 29 71 14
q0 -12 -2 -24q-8 -33 -95 -86t-116 -44t-59 68l-31 60l-47 -56q-49 -57 -122 -105t-115 -48zM406 1212q0 40 -23 39q-23 0 -23 -16q0 -23 -66 -95t-100 -58t-34 26t79 110t74 130q-14 96 54 127q55 27 77 13t32 -80q12 -67 60 -155t80 -98q31 -8 9 -36q-23 -27 -67 -27
t-98 40t-54 80z" />
    <glyph glyph-name="udieresis" unicode="&#xfc;" horiz-adv-x="999" 
d="M197 250q25 0 101 94t125 228q50 134 50 236t19 136q16 35 63 35t49 -40t-29 -245q-8 -55 27 -139t83 -125t171 -55t123 -25q2 -4 -6 -9q-74 -46 -193 -44t-168 35q-51 41 -92 104l-41 70l-16 -53q-20 -66 -91 -160t-128 -133q-48 -37 -64 -38q-16 0 -53 32t-76 132
t-29 296t62 313q55 108 80 106q74 0 29 -94q-35 -66 -59 -175q-46 -215 8 -386q30 -96 55 -96zM460 1092q-24 0 -40 10q-14 10 -14 24q0 47 -31 29q-13 -7 -21 -27t-17 -27t-36 16q-27 24 -32 69t15 78t56 32q41 0 45 -49q2 -33 4 -33q6 4 31 78q14 52 40 18t33 -110t-1 -92
t-32 -16z" />
    <glyph glyph-name="eogonek" unicode="&#x119;" horiz-adv-x="677" 
d="M133 590q0 -34 12 -38q12 -5 52 5q109 29 208 123t89 156q-8 39 -31 45q-33 10 -114 -45q-81 -56 -149 -134t-67 -112zM610 489q23 1 29 -37t-6 -85t-40 -78q-27 -31 -139 -69t-176 -39t-67 -5q0 -4 27 -16q74 -29 69 -72q-4 -37 -63 -31q-8 4 -23 4q-47 12 -43 -16
q4 -37 55 -63q3 -2 7 -2t6 -3q70 -27 240 -13t171 -7q-1 -16 -35 -10t-34 -9q0 -16 -104 -50t-169 -35q-104 -11 -187 75t-65 162q10 41 46 62q31 24 29 36t-53 64q-50 52 -59 85q-9 32 -2 118t26 136q41 109 170 244q58 59 134 113t113 54t68 -46q31 -45 30 -104
q0 -138 -99 -236t-273 -133q-83 -16 -95 -44t31 -77t75 -60t126 -10t164 37t76 98t40 62z" />
    <glyph glyph-name="quoteright" unicode="&#x2019;" horiz-adv-x="335" 
d="M262 1274q-23 0 -51 -62q-66 -135 -145 -215q-33 -31 -45 -19t58 150t136 228q19 26 69 14t22 -23t-28 -42t-16 -31z" />
    <glyph glyph-name="quotedblleft" unicode="&#x201c;" horiz-adv-x="536" 
d="M428 397q28 33 54 28t33 -41t-59 -157t-102 -145q-35 -18 -49 -12q-23 16 27 87t82 169q8 39 -2 39q-11 -1 16 32zM156 455q41 0 51 -74q6 -78 -25 -176t-85 -159q-54 -60 -73 -46q-20 14 26 80t56 110t6 134t10 110q15 20 34 21z" />
    <glyph glyph-name="quotedblright" unicode="&#x201d;" horiz-adv-x="393" 
d="M313 1131q0 -34 -6 -50q-16 -39 -55 -17q-38 22 -28 96t62 130q52 57 78 38t-12 -91t-39 -106zM174 1456q22 0 30 -16q16 -35 -26 -81q-41 -46 -51 -133t14 -136q10 -23 2 -28t-50 3q-42 7 -62 67t-2 137t71 132q52 55 74 55z" />
    <glyph glyph-name="bullet" unicode="&#x2022;" horiz-adv-x="550" 
d="M20 733q0 47 75 139t124 111q49 18 78 14t86 -32q113 -55 141 -183t-49 -231q-35 -49 -61 -61t-92 -7q-111 2 -206 82t-96 168z" />
    <glyph glyph-name="Euro" unicode="&#x20ac;" horiz-adv-x="1103" 
d="M292 547q12 0 40 -59q26 -59 110 -81t167 7t181 92t109 92q9 20 29 16t20 -30t-100 -116q-100 -89 -168 -118q-180 -80 -330 14t-162 304q0 51 -9 67q-9 17 -50 17t-80 32t-25 65q14 34 50 25q18 -8 25 0t7 39t14 37t64 -4q51 -10 72 8q20 20 72 123q143 273 299 357
q76 39 176 43t152 -30q53 -34 95 -121t30 -133t-46 -50q-22 -6 -30 7q-8 12 -8 66t-50 111q-49 57 -116 73t-134 -11q-154 -78 -286 -316q-78 -145 -69 -153t181 -20t176 -19l-61 -31q0 -6 45 -6q98 -2 35 -66q-27 -27 -240 -26h-211l4 -103q10 -102 22 -102z" />
    <glyph glyph-name="A.001" horiz-adv-x="585" 
d="M377 1296q33 0 54 -52t44 -202t18 -182t3 -66t22 -134t32 -133q18 -32 15 -124q-3 -93 -25 -115t-33 14t-34 210q-38 365 -74 520l-10 41q-8 10 -12 8q-25 -18 -91 -145t-83 -191l-23 -86h121q137 0 145 -43q12 -53 -172 -75q-124 -11 -146 -31t-26 -114t-39 -113
q-23 -16 -38 24q-23 55 53 306q75 251 186 487q35 76 70 136t43 60z" />
    <glyph glyph-name="Aacute.001" horiz-adv-x="933" 
d="M735 0q-31 0 -38 28t12 417t10 620q0 31 -8 43q-23 27 -61 -48t-85 -124q-49 -57 -37 -78q2 -4 2 -6q2 -12 -8 -4t-26 -8t-36 -72t-81 -154l-70 -108h160q170 0 178 -27q8 -16 -11 -41q-20 -25 -70 -35t-158 -16l-201 -12l-66 -94q-67 -99 -86 -99q-53 0 -26 76
q10 36 53 94t43 80t33 39q28 17 152 203t249 392t152 224t39 8q8 -12 29 -73t23 -149t-10 -456q-14 -366 -12 -468t-4 -127q-10 -25 -41 -25zM799 1602q14 36 60 36t52 -5q5 -5 -25 -58t-61 -68q-31 -12 -37 15t11 80z" />
    <glyph glyph-name="Acircumflex.001" horiz-adv-x="976" 
d="M422 592q191 0 205 51q8 31 -2 229q-11 198 -23 211q-12 12 -41 -36t-129 -244l-108 -211h98zM680 233q-8 0 -33 38q-25 37 -25 129t-6 106q-8 14 -52 2t-171 -39l-139 -27l-84 -157q-90 -166 -121 -166q-16 0 -26 28q-23 63 253 570q106 197 136 272q20 64 104 197
t126 136t58 -120q14 -143 16 -522t-14 -413q-14 -34 -22 -34zM865 1638q48 0 76 -56t11 -79q-14 -13 -55 15t-65 67t-20 46t53 7zM586 1614q16 25 78 24h59l-51 -49q-48 -47 -74 -27t-12 52z" />
    <glyph glyph-name="Adieresis.001" horiz-adv-x="780" 
d="M492 1165q-4 0 -14 -13t-98 -207q-87 -194 -87 -210q0 -8 81 -8t118 18q18 13 23 117t-3 204t-20 99zM543 1389q35 -1 49 -111t23 -317t3 -399t-30 -206q-14 -8 -41 14t-27 146t-14 131q-6 3 -45 -15t-127 -18l-98 -2l-78 -157q-84 -160 -107 -160q-72 0 25 194
q57 121 57 181q-1 60 19 59q20 0 140 241t174 330t77 89zM718 1638q34 0 39 -14t-5 -81t-18 -79t-44 -2q-27 10 -34 74t16 86q12 16 46 16zM565 1560q-1 -54 -25 -70t-56 24t-33 82q0 42 47 42t57 -12t10 -66z" />
    <glyph glyph-name="Agrave.001" 
d="M524 641l15 164q23 238 0 242q-24 9 -119 -195q-96 -205 -80 -220t100 -3zM398 504q-50 0 -54 -2q-66 0 -90 -29t-77 -129t-73 -120t-34 -19q-45 0 -50 18q-4 35 117 299q117 244 117 264t31 54q47 59 127 219q104 187 152 253t73 52q25 -12 14 -107q-57 -533 -34 -571
q9 -14 40 -13t44 -17t3 -47q-10 -28 -38 -46q-29 -18 -37 -47q-8 -28 -7 -104t-10 -101q-12 -23 -44 -11t-36 38q-6 20 -1 86t-1 80q-8 14 -44 7q-38 -7 -88 -7zM643 1638q31 0 139 -96t109 -125q-1 -13 -57 2t-124 71t-88 95t-15 46t36 7z" />
    <glyph glyph-name="B.001" horiz-adv-x="774" 
d="M276 784q-104 0 -124 -39q-10 -25 -17 -122l-6 -138l156 7q179 8 326 51q24 6 44 15t9 30t-80 82q-101 78 -152 90l-53 12q-51 12 -103 12zM176 956q0 -48 15 -59q15 -10 85 -10q70 1 170 71t129 144q12 41 8 61q-5 20 -40 45q-45 37 -129 41q-84 5 -123 -25t-77 -125
t-38 -143zM189 1306q13 6 32 7q19 -1 105 23t103 25t67 -15q97 -32 139 -111q35 -57 36 -80t-23 -75q-46 -101 -138 -175q-84 -59 -80 -65q16 0 62 -13q49 -8 93 -59t48 -31q0 23 65 -49q121 -123 -12 -203q-121 -76 -416 -75q-121 0 -146 -32t-40 -34q-41 -4 -29 227
q14 180 -16 215q-20 25 -19 37q2 12 29 31q41 31 72 227q4 31 9 69t7 54q11 90 34 95q5 1 18 7z" />
    <glyph glyph-name="C.001" horiz-adv-x="831" 
d="M201 1120q154 163 333 175q105 7 183 -21q47 -16 78 -76t6 -88q-17 -16 -77 36t-158 60q-175 14 -319 -147q-67 -74 -104 -160q-92 -203 -26 -313q82 -164 208 -173t253 136q45 49 63 53q37 6 -27 -123q-55 -109 -177 -159t-212 2q-159 84 -195 254t58 368
q49 109 113 176z" />
    <glyph glyph-name="Ccedilla.001" horiz-adv-x="964" 
d="M888 1059q-30 0 -36 17t0 103t-15 132q-22 45 -73 57q-92 20 -240 -72q-147 -96 -235 -249q-125 -213 -166 -397t11 -292t175 -108t253 100t163 210t72 120q35 6 34 -33q-4 -31 -23 -105q-18 -74 -122 -197q-104 -122 -129 -103q-21 12 -83 -26t-65 -83t33 -139t32 -112
t-12 -23q-22 -19 -164 -19t-159 47q-6 20 24 44t44 0q14 -23 81 -21q66 2 66 28t-66 126t-79 98q-15 -4 -69 32t-93 158t-22 201q68 338 250 596q184 258 389 305q158 35 226 -40t52 -265q-4 -55 -14 -73t-40 -17z" />
    <glyph glyph-name="D.001" horiz-adv-x="856" 
d="M539 1016q-176 174 -224 131q-4 -2 -8 -14q-49 -152 -84 -367q-25 -178 -41 -185t1 -141t-5 -155q-45 -43 15 -49q27 -2 102 4q256 27 397 170q41 42 53 76t11 102q-6 227 -217 428zM750 901q16 0 32 -43q47 -117 54 -285q0 -39 -5 -84q-18 -86 -110 -171t-207 -119
q-72 -25 -192 -35t-210 -3q-91 7 -92 29q0 33 33 58q33 24 48 192t100 621q17 96 -3 144t-10 85q12 31 48 27t116 -40q78 -36 210 -160t151 -177t30 -43q3 4 7 4z" />
    <glyph glyph-name="E.001" horiz-adv-x="813" 
d="M498 831q0 -20 -31 -27t-135 -7q-104 1 -130 -9t-48 -60t-35 -177q-12 -127 12 -160q25 -29 127 -16q317 51 365 80q25 12 84 18t72 -2t14 -37q0 -45 -62 -59q-2 0 -11 -2l-20 -4q-10 -3 -92 -23t-112 -27q-146 -39 -282 -44t-167 26q-29 31 -25 127q3 96 29 196
q27 100 31 131q4 30 -20 44t-13 51q12 37 45 37q23 0 42 47q20 46 54 160t50 163l34 111l172 -16q183 -14 199 -43q8 -14 -8 -54q-18 -31 -44 -37t-126 5h-8q-49 4 -65 6t-42 -6q-27 -8 -33 -15q-26 -26 -47 -96q-20 -70 -26 -90t-8 -27l-35 -112l141 10q114 4 134 -5
t20 -57z" />
    <glyph glyph-name="Eacute.001" horiz-adv-x="978" 
d="M419 1343q33 0 27 -46t-32 -136q-26 -91 -31 -117q-6 -26 -16 -58q-11 -32 -11 -58t10 -38q10 -13 19 -16q51 -10 88 -10h90q92 0 125 -7t33 -26q0 -80 -258 -79h-170l-72 -224q-69 -221 -69 -264t16 -49t104 2t252 23q178 10 205 45q20 23 44 19t39 -30t0 -58t-58 -45
q-42 -13 -240 -36t-305 -55t-149 -29q-42 2 -40 37q0 10 10 31t39 154q30 133 118 408t144 469t88 193zM492 1432q27 0 100 -33q119 -47 305 -53q51 -2 58 -10t-13 -40q-51 -82 -334 -20q-92 18 -130 50t-21 73q8 33 35 33zM644 1548q-20 0 -61 -36q-40 -36 -79 -24t-29 52
q5 39 64 70q61 29 147 28h90l-55 -45q-57 -45 -77 -45z" />
    <glyph glyph-name="Ecircumflex.001" horiz-adv-x="946" 
d="M926 1294q0 -53 -310 -98q-217 -33 -237 -51q-18 -20 -43 -130t-14 -126q8 -21 157 -21t164 -10q8 -8 -6 -28t-43 -42q-30 -20 -64 -28t-127 -8h-153l-14 -84q-33 -180 -97 -357q-10 -25 0 -29t60 3l288 34q211 18 244 46q16 10 40 10t43 -9t17 -22q-6 -61 -40 -80
q-37 -18 -183 -26t-308 -46q-163 -38 -202 -40q-38 -2 -64 24t-6 52t81 243t70 279t36 109t49 201t60 277q8 31 43 28t52 -33t65 -34t245 6t197 -10zM526 1597q72 39 166 40t115 -6q22 -7 32 -29q19 -49 -20 -79q-17 -13 -31 -6t-36 42l-39 59l-60 -55q-69 -63 -141 -83
t-84 13q-13 41 98 104z" />
    <glyph glyph-name="Edieresis.001" horiz-adv-x="1024" 
d="M1004 1307q0 -27 -36 -41t-55 -15q-55 0 -159 -45t-256 -45h-21q-133 0 -161 -20t-58 -144l-33 -129l152 -8q139 -8 217 8q94 25 92 -12q0 -10 -16 -31q-84 -102 -332 -94l-150 4l-30 -112q-29 -119 -29 -189v-78l256 15q354 25 369 26q115 14 86 -4q-51 -29 -250 -74
q-180 -51 -361 -55h-77q-68 0 -97 17q-57 19 -18 182q9 47 41 176t32 146t44 130q42 125 42 219t20 147q20 52 55 59q34 7 48 -31q25 -66 435 -4q250 37 250 2zM636 1638q22 0 35 -32t4 -71q-9 -38 -36 -48q-37 -13 -56 11t-14 63t25 58t42 19zM434 1456q-37 0 -47 39t10 88
q27 57 74 57q39 -2 33 -49q-25 -135 -70 -135z" />
    <glyph glyph-name="Egrave.001" horiz-adv-x="806" 
d="M535 1286h-183l-30 -168q-29 -172 -50 -237l-24 -66l121 8q117 9 155 27t43 -23q3 -41 -23 -77t-61 -43q-35 -8 -118 -5l-136 7l-16 -76q-12 -67 -48 -187t-42 -188l-14 -94l75 18q78 18 216 70t198 83t76 17t-19 -72t-100 -69q-66 -6 -250 -91t-239 -66q-27 9 -37 48
q-10 58 -2 104t60 246t54 234q2 35 -24 59q-23 27 -20 40t42 49q47 39 65 85q18 47 34 203t43 262q10 29 223 28t248 -28q34 -26 34 -34t-28 -33q-43 -31 -223 -31zM770 1565q0 -17 -41 -19t-92 11t-74 36l-55 43l74 2q60 0 124 -24t64 -49z" />
    <glyph glyph-name="F.001" horiz-adv-x="710" 
d="M263 1327q177 59 269 73t102 26q11 12 38 -20q28 -32 14 -77t-23 -49t-59 14q-70 27 -204 -22t-158 -109q-31 -78 -61 -213t-19 -145q31 -31 284 0q130 14 136 -4t-23 -50t-72 -43t-159 -18l-193 -14l-26 -123q-15 -67 -15 -101t16 -54q36 -45 -34 -177q-49 -94 -56 29
q-6 170 47 502q10 63 26 192q16 128 25 142t-1 36t-35 44q-25 24 -29 40q-3 16 15 39t195 82z" />
    <glyph glyph-name="G.001" horiz-adv-x="608" 
d="M588 731q0 -82 -95 -200t-210 -179q-53 -30 -78 -30t-62 20q-137 74 -123 302q6 112 30 182q22 70 110 245q88 176 176 258q68 59 131 77t86 -17q31 -49 2 -195t-74 -164q-45 -16 -62 14t19 70q36 39 31 129l-8 86l-88 -78q-109 -96 -199 -320t-70 -351q6 -48 48 -98
t91 -39q48 11 143 99t52 105q-16 6 -53 0q-66 -18 -80 27q-15 43 11 58q26 16 124 26t123 4t25 -31z" />
    <glyph glyph-name="H.001" horiz-adv-x="888" 
d="M580 622q20 104 20 148t-20 51l-23 2q-25 4 -39 2t-103 -13t-151 -39t-81 -56q-17 -29 -38 -127q-37 -197 -42 -239t-14 -59t-34 -13q-88 16 56 608l55 239q27 131 80 191q20 23 38 13t7 -103q-9 -92 -29 -119t-35 -123l-10 -98h141q281 0 295 98q2 8 38 201t76 230
q17 18 55 18t44 -17q2 -17 -9 -127t-41 -206t-56 -267l-25 -135q-20 -114 -40 -264t-64 -162q-36 -11 -60 133q-11 129 9 233z" />
    <glyph glyph-name="I.001" horiz-adv-x="329" 
d="M283 1434q55 0 0 -116t-109 -360t-56 -408q-3 -164 -32 -175q-58 -23 -66 35t13 116q27 104 27 178t70 358q71 283 120 343q23 29 33 29z" />
    <glyph glyph-name="Icircumflex.001" horiz-adv-x="630" 
d="M394 1343q44 0 43 -56q-3 -86 -45 -195q-10 -26 -32 -86t-58 -176t-92 -264t-56 -238q-8 -135 -66 -172q-16 -8 -35 -4q-18 4 -27 28t3 53q59 186 106 336l111 353q58 180 70 280t24 125q10 16 54 16zM549 1593q-41 1 -54 23t61 22q42 0 52 -22q14 -23 -59 -23zM378 1638
q48 0 52 -6t-30 -54t-110 -118q-75 -72 -93 -71q-111 -1 39 149q94 100 142 100z" />
    <glyph glyph-name="Idieresis.001" horiz-adv-x="534" 
d="M162 1233q12 82 56 127t67 29q35 -25 -11 -137t-87 -320q-40 -207 -45 -340q-4 -133 -26 -182t-63 -33t-29 56t35 239q32 212 54 313t29 135t12 56zM401 1593q0 45 58 45q25 0 43 -8q37 -20 2 -65t-66 -31q-37 14 -37 59zM174 1561q0 -90 -43 -111q-23 -12 -45 12
q-24 31 -11 104t56 72q25 0 34 -15t9 -62z" />
    <glyph glyph-name="J.001" horiz-adv-x="671" 
d="M610 1448q12 0 28 -18t14 -62q-3 -44 -50 -230q-47 -188 -47 -243t-50 -184q-49 -129 -75 -155t-72 -34q-46 -10 -164 -10q-120 0 -145 8q-29 6 -29 36t16 38t75 12q127 0 199 8t91 50l25 36q51 78 57 119q18 221 48 401t55 210q12 18 24 18z" />
    <glyph glyph-name="K.001" horiz-adv-x="980" 
d="M684 236q0 -6 -12 -7h-19q-80 0 -280 381q-55 104 -87 150q-48 70 -48 14q0 -8 -12 -15t-23 -7q-33 0 -37 -29l-10 -86q-8 -39 -24 -205t-69 -178q-16 -4 -34 12q-23 26 19 180t120 526t123 398q45 27 49 -24q4 -41 -29 -124q-33 -82 -33 -98t-12 -48t-30 -100
q-18 -67 -13 -74q23 -27 248 134q225 160 324 248q147 133 163 98q6 -10 -5 -38t-11 -50q0 -20 -26 -20t-274 -200q-247 -200 -247 -222q0 -39 78 -210q137 -300 209 -300q29 0 32 -22t-22 -35q-25 -14 -12 -37q4 -6 4 -12z" />
    <glyph glyph-name="L.001" horiz-adv-x="618" 
d="M203 1335q10 25 46 17t42 -26t-4 -88q-10 -69 -43 -157q-51 -154 -133 -608q-4 -35 0 -63t10 -33q20 -8 244 31q223 44 233 36t-14 -62t-47 -65q-23 -10 -115 -13q-92 -4 -121 -26t-156 -32l-125 -6l3 67q0 43 81 507q83 464 99 521z" />
    <glyph glyph-name="M.001" horiz-adv-x="1218" 
d="M1163 1212q-1 -78 -57 -348t-68 -415l-8 -74q-20 -152 -72 -131q-4 2 -8 6l-6 2q-35 35 -20 76q12 48 45 246t67 348q31 156 27 162t-8 -1q-4 -6 -15 -20l-49 -78q-12 -20 -36 -58t-29 -48q-147 -244 -314 -426q-99 -108 -129 -131q-31 -23 -48 -33q-28 -16 -46 4
t-33 164q-14 202 -33 269q-79 289 -94 304q-12 19 -41 -192q-54 -520 -106 -588q-18 -24 -40 -14t-18 58t48 276q45 228 64 439q19 212 36 273q16 61 49 61q61 -1 98 -219t76 -350t39 -226q0 -93 21 -93q27 0 161 142t195 234q213 333 258 474q47 137 115 51q27 -33 2 -47
q-23 -18 -23 -97z" />
    <glyph glyph-name="N.001" horiz-adv-x="763" 
d="M85 852q33 240 35 314t28 91q26 19 54 17t29 -23q7 -35 15 -122t80 -321t122 -333t60 -99q44 2 94 265q51 263 40 363t-8 130t19 42t40 1q23 -11 43 -61t-2 -100q-22 -48 -65 -352q-44 -304 -108 -424l-33 -64l-77 123q-76 123 -166 383l-90 262l-29 -192
q-49 -324 -82 -357q-16 -18 -47 11q-31 30 -8 118t56 328z" />
    <glyph glyph-name="Ntilde.001" horiz-adv-x="1001" 
d="M93 205q-19 0 -51 51t-17 63q25 17 99 333t83 440q10 190 55 198q45 6 86 -147q14 -76 47 -156q27 -79 53 -157t136 -261l118 -202l52 129q50 123 72 257t44 214q23 107 23 295q-1 188 19 208t37 3q17 -16 26 -72q31 -205 -94 -799q-18 -82 -86 -240t-86 -157
q-8 0 -22 15q-13 15 -25 44q-12 28 -142 264t-196 359q-37 63 -45 57q-1 -33 -59 -306t-79 -347q-29 -86 -48 -86zM522 1638q66 0 88 -10t37 -51l29 -64l8 64q4 27 16 44t25 17q20 0 29 -36q16 -96 -33 -209l-35 -84l-51 65q-53 60 -77 142t-34 85t-28 -24q-35 -45 -35 -68
t-27 -47t-42 -24t-34 21q-18 21 -15 41t33 67t54 59q26 12 92 12z" />
    <glyph glyph-name="O.001" horiz-adv-x="724" 
d="M334 432q70 0 140 67q69 67 113 166t46 169t-4 86q-8 14 -34 4q-57 -22 -26 82q21 69 -20 122q-98 129 -299 -55q-115 -105 -147 -243t32 -261q39 -77 84 -107t115 -30zM330 1217q139 71 211 55t135 -127q36 -63 28 -224t-51 -281t-138 -220t-165 -101q-156 1 -242 103
t-88 283q3 365 310 512z" />
    <glyph glyph-name="Oacute.001" horiz-adv-x="970" 
d="M838 1130q0 53 -23 64q-23 16 -22 -16q0 -29 22 -64q16 -18 20 -14q3 4 3 16v14zM684 1257q23 10 -10 13q-92 10 -213 -19q-9 0 -15 -4q-78 -21 -181 -127t-118 -180q0 -6 -9 -38t-29 -128q-33 -131 2 -271t120 -216q31 -25 62 -30t98 3q168 18 276 164t119 373
q10 139 -18 240t-76 102q-33 0 -36 54t28 64zM950 1078q0 -52 -43 -142t-45 -174q-12 -184 -112 -352t-234 -226q-94 -41 -121 -44t-110 22q-169 44 -233 238t-3 477q25 111 89 225t132 168q66 53 198 81q132 27 210 19t137 -51t97 -116t38 -125zM592 1638h65l-71 -90
q-62 -78 -82 -86t-46 21t-22 47t49 63t107 45z" />
    <glyph glyph-name="Ocircumflex.001" horiz-adv-x="1105" 
d="M672 1069q-37 -1 -41 19t28 45q37 33 110 -15t108 -120t42 -121t-1 -136q-23 -244 -160 -401q-66 -74 -211 -155t-217 -82t-166 68t-127 148q-18 43 -17 158q2 115 25 205q49 215 166 375t260 205q92 30 178 20q87 -10 185 -58t175 -118t76 -105q1 -18 -37 -55
q-38 -36 -50 -26t-15 47q-4 37 -55 87t-134 92q-82 42 -198 34t-152 -26t-128 -116q-92 -96 -140 -209t-62 -281q-15 -168 38 -249q53 -82 182 -92q168 -10 329 157t185 352t-86 304q-53 49 -90 49zM753 1638q60 0 86 -14t58 -65l51 -80h-57q-53 0 -84 46t-59 40
q-28 -7 -80 -59q-99 -97 -137 -78q-38 22 51 125q49 57 80 71t91 14z" />
    <glyph glyph-name="Odieresis.001" horiz-adv-x="890" 
d="M635 1280q0 31 -37 39q-86 14 -207 -49q-141 -78 -220 -229t-71 -313t58 -263q50 -102 114 -115q62 -14 186 52t206 154q82 89 114 223q33 134 6 284t-108 172q-41 14 -41 45zM870 972q0 -206 -42 -328t-150 -210q-72 -58 -184 -118t-179 -74q-65 -18 -139 36t-110 135
t-42 140q-7 59 -1 197t19 198t66 158t129 176t148 98q123 41 244 21t186 -92q37 -37 46 -84t9 -253zM772 1638q35 0 53 -43t2 -94t-34 -53q-31 -6 -56 117q-10 49 -5 61t40 12zM356 1508q-12 30 3 70t43 53t51 3t22 -39q0 -117 -69 -116q-37 0 -50 29z" />
    <glyph glyph-name="P.001" horiz-adv-x="786" 
d="M279 637q83 0 193 49t157 107q74 92 64 229q-9 137 -97 205q-41 35 -115 43t-147 -13q-37 -10 -73 -137t-50 -295l-14 -188h82zM283 547h-80v-121q0 -139 -45 -180q-23 -22 -45 -8t-18 111q5 97 21 139t7 50q-10 8 -43 9q-33 0 -46 9t-14 36q0 45 56 45q35 0 43 16t8 92
q2 525 199 611q219 96 364 -107q88 -127 75 -291t-122 -256q-39 -32 -147 -96t-118 -62q-9 2 -95 3z" />
    <glyph glyph-name="Q.001" horiz-adv-x="815" 
d="M545 1157q-1 -41 -13 -55t-27 -3t-22 42q-10 27 -23 33t-48 -3q-136 -33 -220 -169t-87 -332t51 -268q54 -73 155 -21q74 33 74 51t-84 102t-68 136q6 26 29 28t53 -20q33 -33 60 -71q61 -86 86 -77q25 8 71 98t62 103q14 14 43 104t47 113q28 34 8 114t-67 113t-63 28
t-17 -46zM560 254q-18 0 -56 48t-52 54q-15 6 -40 -10q-90 -64 -138 -78t-106 10q-60 24 -84 63q-24 40 -50 160q-24 120 -6 257q17 137 67 232q50 96 173 190t197 94q35 0 83 56t84 54t97 -61q39 -41 52 -74t13 -97t-72 -264q-74 -200 -130 -298t-56 -117q0 -18 31 -51
q25 -31 29 -72q4 -40 -7 -68t-29 -28z" />
    <glyph glyph-name="R.001" horiz-adv-x="745" 
d="M332 1155q-16 27 -38 29t-26 -4q0 -12 -12 -66q-2 -41 -43 -190q-25 -109 -27 -123q-2 -13 4 -23t64 29q80 51 106 165t-28 183zM725 393q0 -14 -19 -43q-19 -30 -41 -50t-30 -8q-7 12 -241 134q-234 121 -253 121q-12 0 -3 -82t3 -108q-5 -26 -33 -40t-45 -8
q-39 11 -21 141t-4 154t-18 62q4 39 31 39q27 -1 70 169t44 226t-39 83q-40 28 -33 51t79 55t111 25t100 -65q43 -45 56 -78t13 -121t-35 -158q-36 -71 -129 -151t-85 -88q37 -31 222 -128t243 -110t57 -22z" />
    <glyph glyph-name="S.001" horiz-adv-x="645" 
d="M92 477q31 0 76 -36q45 -37 167 -59t140 7t-16 158q-37 123 -117 291q-178 379 -86 467q68 72 236 6q63 -27 103 -77t26 -96t-37 -44t-40 49t-87 82t-109 18q-90 -35 68 -354q100 -209 129 -369q23 -110 19 -140t-35 -58q-33 -28 -69 -33q-36 -4 -128 10q-144 16 -224 54
t-84 45q-4 6 1 24q4 18 20 36t47 19z" />
    <glyph glyph-name="T.001" horiz-adv-x="929" 
d="M719 1264h-154l-61 -236q-63 -252 -82 -438q-29 -281 -96 -268q-14 2 -28 17q-13 15 -13 37q-1 22 21 79t22 132t43 253l65 282l21 109l-105 -14q-102 -8 -202 -37q-68 -16 -88 -16t-33 22q-27 49 59 76q59 20 227 45l551 79q31 2 40 -24t-13 -57q-12 -23 -46 -32
t-128 -9z" />
    <glyph glyph-name="U.001" horiz-adv-x="628" 
d="M520 1159q0 113 8 137t41 23q33 0 37 -23t-6 -141q-24 -256 -98 -459t-176 -305t-156 -112q-53 -10 -102 53q-31 39 -39 86t-9 194q4 334 111 578q78 159 129 84q14 -20 -43 -123q-83 -139 -107 -359t27 -356q9 -31 17 -37t19 -2t58 34t80 71t82 135q127 243 127 522z
" />
    <glyph glyph-name="Uacute.001" horiz-adv-x="1087" 
d="M20 564q0 92 43 296q35 145 55 292t58 165q35 20 61 0q25 -20 23 -51t-20 -84q-84 -252 -104 -476t25 -322q44 -98 77 -116t96 11q123 53 262 211q138 158 238 352q100 192 116 352q8 84 20 111t45 33q32 6 42 -3q10 -10 10 -43q-2 -102 -133 -393q-132 -291 -230 -422
t-212 -216t-192 -103t-102 -12t-69 56q-45 48 -77 160q-32 110 -32 202zM725 1626q0 -20 -48 -107t-65 -98q-8 -2 -11 5t-3 44t29 129q10 31 54 39t44 -12z" />
    <glyph glyph-name="Ucircumflex.001" horiz-adv-x="892" 
d="M799 1479q45 0 63 -90q31 -166 -28 -504q-25 -145 -70 -260t-92 -152q-39 -27 -66 -76q-35 -53 -149 -118q-74 -47 -118 -59t-119 -9q-76 4 -102 17q-26 12 -59 60t-37 84q-13 91 79 503q92 411 112 440q51 63 61 -3t-32 -212q-42 -148 -83 -355q-40 -207 -40 -289
t43 -113q44 -31 152 -13t206 100t160 209q47 90 64 160q16 70 32 258t-5 273t-6 117t34 32zM419 1535q-7 40 15 68q22 29 94 33t134 -8q61 -16 67 -39q5 -25 -17 -37t-48 -3t-35 32q-18 41 -51 31t-62 -68q-14 -27 -34 -44t-29 -13q-29 8 -34 48z" />
    <glyph glyph-name="Udieresis.001" horiz-adv-x="991" 
d="M496 313q0 -23 -92 -83t-151 -79q-60 -19 -126 23q-65 42 -91 119t-12 239t59 321q44 159 58 288t60 157q55 27 57 -32q0 -62 -66 -316t-72 -427q-7 -173 52 -232l49 -51l105 55q106 61 232 195t180 254t89 268t29 236q-6 89 2 113q8 25 55 47t57 12t-12 -146
q-20 -137 -76 -333t-128 -323q-119 -211 -207 -251q-51 -25 -51 -54zM809 1563q-27 -33 -61 -17t-19 54q13 38 57 38t48 -17t-25 -58zM473 1567q0 72 68 71q33 0 39 -19t1 -98t-15 -101t-37 -22q-28 0 -42 25q-14 23 -14 144z" />
    <glyph glyph-name="Ugrave.001" horiz-adv-x="892" 
d="M828 1389q34 0 40 -30t4 -134q-8 -209 -94 -460t-215 -435t-244 -219q-68 -20 -120 -21q-103 0 -141 99t-38 351t78 621q18 125 47 246q6 21 37 27t47 -13l-2 -35q-14 -98 -49 -254q-36 -156 -64 -403q-28 -248 -12 -313q42 -194 100 -222t181 74q252 201 367 672
q63 254 26 326q-22 39 -2 81t54 42zM446 1638q70 0 109 -45q4 -4 11 -12t9 -10l11 -19q4 -6 2 -8q-8 0 -58 -9t-100 46l-53 57h69z" />
    <glyph glyph-name="V.001" horiz-adv-x="602" 
d="M131 268q0 -20 -39 -14q-33 8 -41 78t-19 406t-10 390q1 52 9 74q18 66 53 72q31 4 41 -50t4 -179t0 -373l2 -205l70 119q53 90 123 270t110 265t39 113q0 28 30 61t44 44q37 27 33 -18q-2 -67 -94 -263t-144 -342q-51 -146 -131 -285q-80 -138 -80 -163z" />
    <glyph glyph-name="W.001" horiz-adv-x="948" 
d="M555 272q-51 0 -80 92t-35 161q-6 68 -8 180l-6 172l-35 -115q-201 -610 -262 -612q-12 -2 -21 16t-18 57l-6 39q-47 326 -61 634t20 314q11 0 31 2t27 -7q18 -24 27 -414q10 -390 38 -394q10 4 43 80q84 207 121 330q2 21 40 121t38 176q0 147 55 147q33 1 45 -73
t12 -284t14 -336t31 -126q25 0 95 176q71 176 114 336q51 213 51 342q5 138 25 152q80 57 78 -63t-64 -376q-62 -255 -163 -491q-100 -236 -146 -236z" />
    <glyph glyph-name="X.001" horiz-adv-x="827" 
d="M264 1215q0 -29 30 -95t57 -134q26 -68 36 -68q49 20 231 262q115 158 152 145q51 -14 32 -53q-18 -38 -154 -184t-177 -218t-18 -165q10 -37 26 -63t5 -46t-10 -22t13 4q27 16 33 -12t0 -49t29 -62t9 -45t7 -31l4 -4q39 -31 23 -33q-16 0 10 -19t14 -79t-45 -62
q-14 0 -71 124q-58 124 -62 154t-48 145q-44 114 -49 120t-13 0l-29 -33q-33 -43 -97 -136t-103 -140q-41 -47 -63 -40t-12 55t56 108q21 21 57 71q125 154 145 191t3 86q-2 4 -23 62q-21 59 -74 153t-56 114t22 48t40 28q14 0 42 -24t28 -53z" />
    <glyph glyph-name="Y.001" horiz-adv-x="737" 
d="M94 389q6 1 28 21t7 34q-8 2 -15 -7q-6 -9 -14 -27t-6 -21zM20 284q0 32 82 204t100 182q18 12 -16 131l-30 123q-20 84 -62 207t-35 169q8 41 47 41q38 0 52 -22t26 -95t54 -167t55 -148q8 -33 26 -18q33 33 211 375l91 164q14 26 30 26t46 -17t13 -61t-87 -137
q-33 -49 -187 -316t-182 -302q-74 -98 -156 -355q-12 -36 -45 -26t-33 42z" />
    <glyph glyph-name="Z.001" horiz-adv-x="1017" 
d="M592 1227q-220 0 -217 55q0 16 15 34q26 31 188 16q161 -15 284 20l133 34q2 -2 2 -22l-6 -59q-12 -86 -83 -152q-70 -66 -148 -171t-219 -285t-154 -208l-53 -79q-101 -146 -96 -153q6 -7 50 -7t254 50q208 50 260 79t67 11t-13 -78q-28 -58 -96 -68q-193 -31 -399 -79
q-205 -48 -239 -75q-34 -28 -68 -12t-34 55t66 103t218 281q154 218 237 308q83 96 111 91t28 -3l-23 17q-20 14 -17 30t78 98q75 81 126 169q8 14 4 18q-36 -18 -256 -18z" />
    <glyph glyph-name="A.002" horiz-adv-x="724" 
d="M644 1188q-15 0 -127 -164t-169 -270l-49 -86q117 6 350 14l6 254q4 252 -11 252zM166 631q0 13 14 33t33 28q43 26 59 62t148 248t162 251t58 77t42 38q14 -2 20 -85t-1 -390t-22 -416t5 -160q20 -39 6 -105t-41 -73q-27 -8 -39 31q-24 74 -2 228t13 171q-12 12 -187 13
h-170l-74 -158q-31 -62 -49 -116t-11 -64t-12 -30t-44 -28t-39 0q-19 20 -17 104t17 124q16 41 57 90q74 84 74 127z" />
    <glyph glyph-name="Aacute.002" horiz-adv-x="942" 
d="M381 588q15 -15 72 3q57 17 68 16t27 20t44 148q29 128 24 138q-2 2 -11 -8t-30 -33q-219 -264 -194 -284zM770 1248q0 -8 18 -15q28 -23 -2 -95q-14 -32 -38 -89t-28 -69q-2 -12 -20 -60q-18 -49 -25 -84q-7 -36 -21 -98q-70 -326 -70 -480q0 -68 -7 -87t-33 -13t-32 32
t0 109q4 135 14 183t8 50t-41 -30q-37 -32 -105 -38q-68 -8 -97 -28t-83 -101t-52 -107q0 -26 -40 -60t-66 -23t-30 53t21 56q23 14 91 142q69 128 69 157t20 29t117 130q96 130 204 270q108 142 140 194t58 78q26 24 40 22q39 0 8 -14q-18 -6 -18 -14zM922 1599
q0 -35 -52 -99t-82 -64q-25 0 -22 24q0 18 4 30t29 72q25 62 71 76t50 -32q2 -2 2 -7z" />
    <glyph glyph-name="Acircumflex.002" horiz-adv-x="860" 
d="M506 1030q-8 0 -92 -158t-105 -198q-41 -66 -25 -88t92 -11q75 10 95 62q25 55 34 224t1 169zM457 514q-13 0 -67 -36t-136 -27q-53 1 -78 -9q-24 -10 -64 -61t-75 -35q-17 6 -17 30t84 154q84 131 127 209q44 78 162 313q172 342 197 332q33 -8 33 -149t-31 -367
q-41 -262 -42 -399t-4 -179t-12 -53q-12 -14 -18 -14h-10l-27 6q-25 10 -26 37q-6 32 1 96t6 108t-3 44zM674 1602q0 36 56 36t56 -41t33 -86q51 -76 -33 -75q-28 0 -70 62t-42 104zM590 1638h72l-97 -94q-63 -68 -83 -77t-50 20q-28 29 -24 45t58 61t124 45z" />
    <glyph glyph-name="Adieresis.002" horiz-adv-x="1056" 
d="M582 725l102 12q28 -1 28 63t25 136q23 72 15 143l-7 76l-65 -113q-55 -106 -136 -226q-39 -57 -7 -81q31 -10 45 -10zM803 1417q0 35 13 47t48 9q35 -6 32 -73t-37 -208q-34 -142 -46 -246t-7 -120t42 -5q37 10 39 4t-44 -57q-47 -51 -57 -82q-10 -30 -3 -130t23 -124
t4 -60q-11 -38 -34 -38q-29 0 -46 58t-17 167t-27 111q-14 0 -35 -25q-27 -27 -129 -16q-102 6 -102 -4q0 -25 -158 -169t-182 -145q-43 0 -56 27q-12 27 16 48t153 183q95 133 133 176t144 189t220 298q113 150 113 185zM969 1503q-31 0 -45 33t-1 68q13 34 60 34t52 -10
t-11 -57q-29 -68 -55 -68zM668 1610q0 28 41 28t51 -11t9 -53t-19 -65q-8 -8 -31 9q-51 39 -51 92z" />
    <glyph glyph-name="Agrave.002" horiz-adv-x="819" 
d="M365 590q55 -12 87 12t36 64t-1 139l-10 168q-27 -61 -84 -185t-84 -184zM574 1346q20 0 31 -12t5 -148l-18 -178q-39 -328 -6 -330q4 0 13 4t16 -1t5 -27t-29 -56q-26 -35 -23 -132q3 -98 28 -106t26 -85q2 -77 -16 -124t-30 -54t-30 11t-26 58q-8 39 -24 178l-13 135
l-116 -6q-76 -6 -102 -17t-43 -49q-55 -123 -95 -193q-41 -70 -54 -84t-36 9q-19 25 -17 47t25 74q122 309 216 506q93 198 133 284t90 192q50 104 90 104zM659 1636q47 0 90 -12q42 -12 50 -25q6 -25 -27 -26q-52 -7 -108 23t-56 36q4 4 51 4z" />
    <glyph glyph-name="B.002" horiz-adv-x="1091" 
d="M879 500q89 50 109 78t-10 63t-120 94t-142 65t-144 -29q-92 -34 -135 -38q-42 -4 -55 -18q-12 -15 -22 -61t-20 -149t-4 -120q6 -31 106 -4q20 4 68 8q221 20 369 111zM465 819q0 8 -23 8t-22 -24q0 -8 7 -11t15 3q23 10 23 24zM546 895q82 0 126 11t118 67
q76 56 92 106t-41 105q-56 55 -177 63q-180 8 -226 -33q-18 -14 -31 -129t-24 -149v-21q-2 -10 18 -12l45 -6q18 -2 100 -2zM240 207v94l-101 -4q-86 -4 -104 10q-25 14 -13 45t51 41t69 8t30 -20q0 -6 16 -10q70 -6 88 26q8 14 8 84t3 87q2 16 17 68t10 70t-35 39l-48 29
l50 49q29 29 40 71t23 140q8 142 0 142t-24 -21t-24 -27t-12 -1q-5 5 -14 26q-16 43 34 86t138 59q209 41 340 -2q146 -42 166 -158q10 -58 -3 -90q-13 -30 -83 -104t-66 -84t44 -20q42 -10 138 -104t93 -149q-2 -54 -102 -118q-86 -51 -281 -104q-196 -53 -278 -53t-94 -10
t0 -70q11 -60 -21 -117q-33 -55 -47 20q-8 31 -8 72z" />
    <glyph glyph-name="C.002" horiz-adv-x="688" 
d="M76 778q0 -90 13 -136t54 -114q91 -141 179 -147t206 121q98 98 108 90q9 -8 -39 -79t-113 -141t-93 -83q-147 -61 -317 213q-33 55 -43 104q-11 49 -11 175t14 194q13 69 53 145t88 116t164 98t222 18q39 -12 77 -102t29 -142q-9 -51 -30 -47q-29 2 -45 99t-91 125
t-167 -19t-158 -146q-100 -150 -100 -342z" />
    <glyph glyph-name="Ccedilla.002" horiz-adv-x="925" 
d="M636 1481q-93 0 -169 -38t-154 -130q-78 -93 -126 -189t-59 -156t-15 -156q-4 -95 9 -210t51 -164t129 -58t177 31q87 40 103 105t59 66q68 0 34 -89t-126 -155q-39 -31 -82 -41q-63 -10 -127 -78l-55 -63l53 -43q52 -43 108 -65t71 -42q29 -38 -34 -100q-27 -27 -97 -41
t-132 -5q-61 10 -61 32t102 45t108 32q4 21 -101 58t-134 109t41 120q27 18 23 28t-44 27q-104 47 -153 303q-17 88 -15 142t32 189q30 136 52 181t46 107q22 62 116 155q95 93 181 135q87 42 197 46t167 -35q53 -32 75 -108t17 -109q-6 -33 -45 -111q-38 -78 -66 -110
t-51 -31q-23 2 -28 44q-6 42 22 67q68 49 77 131t-48 137q-35 37 -128 37z" />
    <glyph glyph-name="D.002" horiz-adv-x="1011" 
d="M372 51q116 0 197 33q80 33 191 137q174 160 174 344q0 103 -53 251t-117 228t-162 134q-98 55 -152 55t-67 -11q-12 -11 -12 -55q0 -45 -36 -255q-35 -210 -61 -324t-29 -156q-3 -43 12 -63q15 -19 11 -31t-32 -27q-63 -33 -70 13q-4 35 18 137q141 709 99 776
q-21 33 -19 47t25 31q37 23 145 3t195 -67q129 -69 222 -227t130 -367q25 -156 -10 -257t-149 -215q-114 -113 -204 -155t-212 -50t-176 -2q-52 7 -117 38q-76 31 -87 46t9 36q43 41 177 50q15 1 17 -1q0 -4 -24 -26q-66 -49 12 -62q39 -8 155 -8z" />
    <glyph glyph-name="E.002" horiz-adv-x="884" 
d="M706 1250q-38 -14 -174 -15q-136 0 -175 -27q-38 -27 -92 -190q-54 -162 -54 -180q12 -12 142 0q131 12 134 12h54q37 -2 26 -25q-25 -76 -264 -100l-133 -16l-35 -115q-35 -135 -45 -213l-16 -100l86 16q63 10 278 88q412 150 426 119q0 -4 -2 -10q-6 -20 -150 -90
t-200 -78q-56 -10 -227 -88q-102 -43 -181 -35l-84 6l7 145q10 140 40 244t6 132t-12 63t45 34q25 0 70 131q44 154 64 202t27 68t15 42q8 21 22 63q15 42 22 52q8 11 32 -20q23 -30 165 -23q143 8 181 -26t38 -43q2 -9 -36 -23z" />
    <glyph glyph-name="Eacute.002" horiz-adv-x="925" 
d="M768 787q0 -11 -53 -54t-107 -55t-276 -8q-68 2 -86 -23t-79 -210t-39 -220t96 -61t146 -13q70 11 208 59t219 91q115 55 108 12q-4 -14 -14 -31q-39 -63 -252 -148t-332 -85q-57 0 -154 37t-118 65q-43 53 31 252q27 70 97 301q71 231 101 345t6 137q-43 47 17 84
q72 39 153 22q160 -29 284 -44t128 -50q2 -14 -23 -39t-44 -27t-80 15q-80 27 -197 26h-111l-116 -360l53 -12q38 -15 236 -5t198 -1zM610 1571q0 39 10 53t42 14t38 -38t-26 -70q-64 -63 -64 41z" />
    <glyph glyph-name="Ecircumflex.002" 
d="M560 1188q-89 0 -124 -28t-74 -146q-4 -14 -26 -76t-14 -78t66 -14t138 4q82 2 165 11t87 5q0 -6 -26 -26q-113 -100 -346 -107l-158 -4l-55 -158q-92 -260 -56 -286q13 -9 99 -15t267 12t267 36t82 8q-12 -23 -143 -66t-228 -61q-299 -61 -399 -25q-62 23 -62 66
q0 44 64 238t129 352q66 158 90 280l35 145q6 37 8 41q10 42 41 48t53 -22t78 -30q56 -4 170 2q365 20 76 -71q-115 -35 -204 -35zM768 1548q24 0 16 -44t-43 -52q-45 -8 -90 45l-45 57l-90 -59q-94 -59 -125 -59q-57 0 -22 47q24 37 108 90t161 62t91 -42q14 -45 39 -45z
" />
    <glyph glyph-name="Edieresis.002" horiz-adv-x="1048" 
d="M471 1202q0 -35 -68 -180l-65 -150h102q96 0 224 44t133 22q16 -20 -2 -20t-86 -50q-57 -47 -209 -87t-182 -14t-33 13q-35 -55 -104 -212t-60 -160q12 -14 272 40t336 89q90 37 92 28q-1 -7 -19 -39t-34 -39q-92 -8 -135 -49q-59 -47 -365 -104l-174 -37q-51 -13 -66 21
q-16 34 14 115t162 349t146 343t55 145t24 87t278 7h8q145 -4 228 -10t90 -26t-85 -36q-92 -18 -272 -24t-192 -18q-13 -12 -13 -48zM516 1623q0 -13 -38 -65t-54 -60t-35 7q-62 50 10 103q45 35 97 30q20 -2 20 -15zM837 1638q26 0 42 -20q23 -45 -15 -61q-37 -15 -54 15
t-8 48t35 18z" />
    <glyph glyph-name="Egrave.002" horiz-adv-x="876" 
d="M805 1278q0 -12 -25 -27q-72 -53 -147 -57q-29 -2 -140 26t-152 -5q-15 -11 -39 -45t-75 -175q-25 -78 -25 -97t25 -38q35 -25 179 -41t190 -4q47 12 60 8t14 -26q0 -94 -318 -72l-196 16l-25 -73q-29 -70 -23 -175t57 -149t155 -43t170 21t203 78q136 58 161 38
q14 -12 -39 -45q-252 -137 -381 -171t-251 1q-123 35 -149 99t4 237q30 174 43 225t87 259q74 207 74 251t12 56q25 28 206 -20t261 -36q84 6 84 -16zM488 1638q60 0 94 -36q27 -35 88 -58l55 -24l-66 -19q-51 -14 -121 16t-116 89q-14 24 -4 28t70 4z" />
    <glyph glyph-name="F.002" horiz-adv-x="935" 
d="M868 1343q12 0 35 -28q8 -27 9 -41t-60 -27t-203 -23q-141 -8 -223 -28t-116 -64t-60 -155l-35 -150l80 -4q127 -6 233 11t107 -7q0 -23 -93 -61t-165 -49t-104 -17t-54 -8q-21 -2 -29 -10q-21 -22 -26 -53t-33 -130t-14 -104q4 0 10 6q39 33 43 -2q0 -10 -6 -24
q-25 -57 -84 -98t-60 28q0 47 35 176q45 185 44 237t20 80t59 193l45 174l-49 -12q-24 -8 -52 6t-40 35q-10 23 7 41q17 19 273 41t324 34q70 12 115 21l45 10q10 2 22 2z" />
    <glyph glyph-name="G.002" horiz-adv-x="1021" 
d="M796 1526q50 0 120 -74t82 -142q14 -68 -20 -152q-34 -83 -69 -68q-33 12 -35 34t25 70q27 49 8 123q-18 73 -60 101t-69 28t-82 -21q-137 -49 -267 -165t-216 -275l-18 -35q-45 -78 -55 -98t-18 -64q-9 -44 -24 -102q-55 -262 74 -397q61 -68 143 -68t210 89t213 201
q86 113 64 147t-146 34t-156 7q-33 7 -45 42t18 58q31 23 92 4q75 -18 181 -11t127 1t29 -46t-11 -81q-18 -41 -55 -132t-154 -198q-178 -170 -311 -193t-242 101q-96 106 -105 280q-8 174 62 347t212 334t296 241q152 80 202 80z" />
    <glyph glyph-name="H.002" horiz-adv-x="942" 
d="M883 1458q37 0 38 -46t-34 -172t-72 -339q-36 -213 -41 -235q-33 -150 -10 -172q14 -18 8 -45t-29 -47t-38 -3q-49 39 18 379q4 25 12 70l8 51q2 12 2 19q-8 0 -43 -35q-51 -51 -454 -56q-76 0 -76 -32q0 -25 -41 -158q-47 -129 -22 -135q12 -4 30 4q19 8 27 4t5 -28
t-41 -55q-38 -32 -55 -34t-34 15q-16 20 -8 78t61 288q8 47 -37 62q-2 0 -4 2q-37 10 -33 34q6 35 68 41q39 6 50 42q11 35 37 279t52 245q9 -1 25 -55t-1 -227t-44 -249q-5 -14 19 -20q91 -23 265 3q173 27 234 56q31 15 46 59t30 160q23 137 28 172t17 55q12 21 18 23
t19 2z" />
    <glyph glyph-name="I.002" horiz-adv-x="473" 
d="M268 1434q8 29 70 10q23 -8 31 -8q20 -2 22 -31q0 -53 -49 -113q-47 -66 -50 -80t-7 -28t-25 -97q-63 -227 -76 -522q-2 -172 -57 -155q-14 6 -33 26q-29 35 10 318t85 427t79 253z" />
    <glyph glyph-name="Icircumflex.002" horiz-adv-x="555" 
d="M139 379q10 -6 3 -31q-8 -24 -32 -60t-39 -46t-38 8t-7 60q16 40 40 207q26 167 100 420t89 312t29 77t45 20q32 0 36 -29q2 -31 -48 -131q-49 -100 -129 -445q-80 -344 -49 -362zM502 1593q0 -37 21 -57t8 -45t-28 -21t-57 35l-59 47l-51 -47q-53 -47 -66 -47
q-20 0 -16 41t41 80t85 54t85 6t37 -46z" />
    <glyph glyph-name="Idieresis.002" horiz-adv-x="626" 
d="M408 1413q49 0 18 -86q-12 -37 -96 -207t-154 -379q-68 -209 -70 -329q-2 -180 -45 -181q-8 0 -22 11q-35 31 -9 219t85 334l57 145q121 300 195 420q31 53 41 53zM522 1571q18 35 45 38t36 -28t-17 -57t-51 -15q-44 15 -13 62zM319 1573q0 -12 -55 -41t-80 -29
q-18 0 -21 40q-3 39 15 59t80 9t61 -38z" />
    <glyph glyph-name="J.002" horiz-adv-x="1130" 
d="M418 311q-62 0 -156 41t-168 94t-74 82t33 53q33 23 74 23t56 -16t-3 -36t-3 -38t85 -60t145 -50t103 25q28 34 74 169q45 134 45 192t20 155t56 312q8 77 2 89t-38 7t-46 -3q-57 6 -62 36q-4 39 96 66q49 10 113 18q164 13 242 31q78 17 81 21t7 0q18 -23 -10 -39
q-85 -45 -169 -73q-85 -28 -89 -32t-39 -142t-45 -202t-24 -98t-47 -202q-34 -169 -61 -273q-16 -61 -76 -105t-122 -45z" />
    <glyph glyph-name="K.002" 
d="M817 1110q-31 0 -147 -102t-205 -164q-90 -63 -90 -99q-1 -59 69 -188t150 -225t98 -64q10 18 29 15q35 -6 37 -68q0 -159 -133 -29q-93 88 -191 230t-133 239q-8 25 -20 28t-45 -14q-34 -17 -46 -59t-34 -212q-22 -169 -47 -230t-58 -53q-12 4 -20 14q-25 25 18 242
q43 239 46 279t18 65q43 106 64 315q21 208 47 272t49 81q24 17 40 -1q17 -18 17 -82t-37 -158q-37 -95 -63 -338q-1 -19 3 -22q11 0 197 136t244 188q58 51 108 131q57 82 88 63q20 -18 20 -61t-22 -86q-20 -43 -51 -43z" />
    <glyph glyph-name="L.002" horiz-adv-x="712" 
d="M70 440q12 117 86 385t91 351q17 82 42 148t43 67q57 0 12 -144q-37 -103 -52 -173t-30 -122l-117 -467q-14 -57 -14 -94q-4 -31 14 -47t50 -16l108 -17q55 -8 111 -13t107 9q50 14 91 72q43 68 62 67q20 -2 20 -32q-8 -68 -76 -154l-73 -88l-135 14q-130 14 -232 12
t-138 30q-36 30 -12 83t42 129z" />
    <glyph glyph-name="M.002" horiz-adv-x="786" 
d="M710 266q-36 0 -42 23q-14 44 -4 457t8 419q-6 0 -104 -145t-126 -156q-45 -16 -82 19q-36 35 -78 129t-55 96q-10 0 -24 -41q-13 -41 -21 -103t-57 -317q-49 -254 -55 -338t-29 -82q-23 1 -20 145t23 232t43 222t47 255t30 154q6 35 42 71t46 30t41 -78q31 -70 31 -98
t42 -100t56 -67q22 3 149 191q49 78 93 130t53 48q20 -10 17 -496t18 -524q26 -28 10 -52t-52 -24z" />
    <glyph glyph-name="N.002" horiz-adv-x="948" 
d="M762 1440q0 104 10 116q31 39 91 -59q39 -63 57 -127t2 -65q-16 0 -58 47l-39 51l-2 -57q-5 -276 -29 -564t-53 -422q-27 -125 -149 70q-72 113 -219 416q-150 297 -162 297q-18 0 -18 -90q1 -90 -51 -387t-70 -328q-23 -30 -43 -8t26 351q47 329 90 564q23 111 41 117
t129 -212t151 -334t124 -253l82 -129l20 68q18 63 30 278t28 224q16 3 12 288v148z" />
    <glyph glyph-name="Ntilde.002" horiz-adv-x="1130" 
d="M1087 1368q23 0 23 -41t-16 -86t-34 -94q-17 -49 -103 -257t-177 -356t-121 -202l-12 -19q-33 -57 -61 -26q-45 49 -201 456q-8 16 -8 25l-111 289l-47 -199q-45 -186 -85 -403t-71 -228q-43 -14 -43 19q0 24 16 96t28 142t84 361q72 290 74 353q2 64 14 78q10 14 48 14
t50 -18q10 -23 18 -103q18 -121 43 -195t49 -156t92 -238q69 -156 82 -156q27 2 165 255q241 442 241 599q0 64 16 74q12 16 47 16zM362 1602q14 36 62 36t49 -8t-33 -59t-69 -47q-34 10 -9 78zM979 1614q0 -35 -74 -118q-75 -83 -107 -83q-32 1 -82 67t-49 110t31 50
q45 4 78 -65l4 -6l29 -72l63 72q80 92 103 63q4 -8 4 -18z" />
    <glyph glyph-name="O.002" horiz-adv-x="737" 
d="M561 1094q0 66 -9 80t-56 14q-96 0 -196 -121t-154 -285q-56 -164 -55 -236q1 -73 44 -120q80 -86 180 -79q99 7 189 99t118 183q28 92 27 282q-4 190 -12 176q-2 -2 -2 -4q-8 -47 -38 -73t-34 6q-2 12 -2 78zM584 1323q0 27 8 39q23 27 84 -66q31 -53 38 -110t1 -256
q-7 -199 -23 -290t-55 -156t-123 -138q-63 -51 -100 -65q-37 -15 -111 -15q-73 0 -105 14t-88 73q-56 58 -72 94q-17 36 -18 85q0 154 114 399t212 304q68 43 136 43t84 9q18 9 18 36z" />
    <glyph glyph-name="Oacute.002" horiz-adv-x="1089" 
d="M906 1022q-12 0 -80 72q-66 72 -98 71q-32 0 -69 11q-53 16 -239 -86q-80 -39 -113 -25q-10 2 -16 2q-8 2 -6 -4q15 -15 -108 -119q-34 -29 -33 -38t-27 -72q-53 -111 -23 -289t119 -266q43 -43 76 -57t100 -13q150 0 320 123t252 289q45 98 52 245t-34 199
q-23 27 -30 25t-19 -35t-24 -33zM1069 862q0 -160 -93 -334t-249 -284q-98 -70 -207 -98q-110 -28 -192 -16t-129 50q-70 58 -128 222t-48 282q14 178 102 282q89 104 333 219q244 116 357 38q47 -33 82 -21q66 24 119 -78t53 -262zM756 1638q30 0 30 -15t-51 -143t-65 -128
q-8 0 -17 20q-17 46 13 76q14 14 30 102t60 88z" />
    <glyph glyph-name="Ocircumflex.002" horiz-adv-x="960" 
d="M862 940q-20 0 -30 39q-17 70 -97 119q-78 53 -78 67q0 27 28 35q27 8 55 -14t29 -10t-48 59q-84 73 -246 21t-264 -164q-53 -57 -84 -127q-55 -127 -23 -330t123 -299q63 -68 121 -66t182 71t214 168t112 175t27 170q-1 86 -21 86zM55 997q35 76 150 169t221 135
q106 43 180 45q72 2 148 -39t108 -101t60 -213q33 -147 10 -268q-22 -121 -132 -254t-283 -223t-263 -58q-90 35 -170 216q-41 86 -52 147q-12 61 -12 215t35 229zM593 1571q-11 0 -85 -71t-100 -50q-22 26 38 94t86 80q26 14 77 9q49 -5 69 -23t51 -92q41 -113 35 -121
q-18 -13 -55 15t-71 94t-45 65z" />
    <glyph glyph-name="Odieresis.002" horiz-adv-x="1118" 
d="M739 1276q0 22 -16 22q-190 -30 -273 -68t-178 -136q-129 -137 -167 -295q-37 -158 27 -279t142 -165t226 -44t262 72q113 72 205 231q41 68 53 117t12 142t-22 158q-24 65 -50 95t-99 90q-73 62 -93 54q-29 -16 -29 6zM604 1360q117 24 160 18t114 -47t78 -71
q23 -47 72 -109q48 -70 64 -209t-15 -240q-37 -104 -117 -216t-153 -162q-115 -76 -210 -96t-215 4t-194 78t-125 153q-75 145 -23 337t206 345q86 88 164 135t194 80zM881 1411q-34 52 77 186q18 18 27 19q59 0 12 -92q-33 -56 -29 -80q7 -40 -42 -49q-31 -2 -45 16z
M727 1640q19 0 25 -36t-6 -79q-12 -44 -34 -68q-24 -24 -61 -1q-16 14 -15 32q0 18 28 86q28 66 63 66z" />
    <glyph glyph-name="P.002" horiz-adv-x="802" 
d="M674 1196q-31 39 -59 49t-127 8t-136 -19t-47 -96t-45 -246q-35 -168 -45 -196t-2 -36t35 -7q90 6 225 88t176 146q119 186 25 309zM104 319q-14 0 -30 24q-16 23 -16 51t20 92t17 84q-3 19 -32 34q-53 29 -43 59q10 29 50 19t51 5q12 15 35 89q28 106 50 244t21 185
q-1 48 57 94q58 47 188 47t185 -24t95 -98t26 -195q-14 -120 -72 -203q-58 -82 -194 -162q-138 -80 -230 -96t-109 -34q-17 -19 -29 -117t-40 -98z" />
    <glyph glyph-name="Q.002" horiz-adv-x="921" 
d="M525 1233q-81 0 -151 -49t-147 -160q-77 -112 -99 -188t-16 -190t26 -126t38 -58t93 -77t146 -19t71 28q0 14 -64 58q-63 44 -76 60q-12 18 3 47t35 26t101 -44l115 -58l53 54q51 49 100 150q48 101 61 185t-3 84q-4 0 -8 -2q-23 -16 -41 30t-31 46q-21 0 -21 52t-51 102
q-53 49 -134 49zM776 1233q35 0 69 -44t51 -111q16 -67 -16 -214q-32 -146 -86 -246t-63 -137t11 -75t-6 -59t-73 -1t-71 18t-80 -30q-135 -70 -228 -47t-178 147q-33 49 -64 166q-32 117 -17 141q4 6 20 74q12 70 77 187q112 204 233 278q115 70 249 32q82 -24 110 -52
t62 -27z" />
    <glyph glyph-name="R.002" horiz-adv-x="1128" 
d="M244 737q-59 0 -70 -22q-2 -6 23 -10q67 -1 98 24q8 8 -51 8zM266 827q57 0 96 -22q25 -10 53 -1q29 8 97 60t113 113q37 59 35 140q0 81 -37 108t-118 29t-122 -23q-70 -37 -139 -283l-35 -121h57zM1108 466q0 -30 -39 -142t-57 -144q-16 -6 -29 -14q-19 -11 -248 214
q-229 224 -285 268t-79 34q-67 -28 -135 -52t-82 -41t-14 -96t-29 -124q-19 -27 -29 -28t-31 21q-27 35 -4 121q25 86 -6 117t-16 85q14 54 61 87q53 28 53 90q0 32 33 108q33 75 47 180t46 139q33 34 139 60t197 1t110 -88q82 -293 -142 -451l-92 -68l219 -227
q84 -90 164 -160q70 -68 83 -68t33 26t52 98q31 72 64 80q16 4 16 -26z" />
    <glyph glyph-name="S.002" horiz-adv-x="614" 
d="M174 1405q197 53 328 -39q55 -45 52 -92t-46 -60q-39 -4 -41 33q0 43 -48 70t-141 28t-94 -38q-2 -43 142 -193t219 -336q74 -184 35 -329q-20 -80 -70 -120t-148 -55q-162 -20 -286 127q-57 68 -56 115q2 48 62 114t133 92q74 26 127 10t57 -36q5 -26 -69 -26t-144 -58
t-74 -89q-4 -32 48 -89q55 -66 158 -77t161 44q125 123 -16 404q-55 109 -115 179t-147 144q-88 74 -103 102q-14 28 -8 75q2 47 18 65t66 35z" />
    <glyph glyph-name="T.002" horiz-adv-x="753" 
d="M774 1481q0 -19 -41 -69t-69 -56t-144 6q-143 8 -144 0t11 -21q16 -25 13 -53t-21 -80q-59 -164 -101 -389t-18 -254t-4 -71q-12 -29 -28 -40q-34 -23 -54 25q-20 55 42 384t118 462q8 27 -8 28t-98 -13t-124 -27t-72 27t7 69q25 17 183 37t323 24q164 4 178 20
q15 15 33 12t18 -21z" />
    <glyph glyph-name="U.002" horiz-adv-x="722" 
d="M664 1391q26 1 36 -103t-9 -141t-41 -199t-63 -304q-42 -140 -85 -206t-138 -130t-151 -64q-133 0 -176 152t20 399q94 381 109 444q8 53 30 73t44 -3q22 -22 -38 -230q-60 -207 -85 -397t-4 -268q8 -37 26 -47t74 -11q156 0 274 222q41 80 79 274t42 350q11 144 25 166
t31 23z" />
    <glyph glyph-name="Uacute.002" horiz-adv-x="1013" 
d="M233 1341l50 99q12 25 32 49q21 14 29 11t26 -20q18 -18 5 -58q-12 -40 -64 -130q-125 -227 -175 -430t-9 -311q20 -51 104 -100q172 -100 293 4q63 53 160 198q209 311 211 508q0 98 43 117q23 10 47 -12q23 -26 -17 -176t-100 -267l-125 -229q-45 -88 -133 -172
t-160 -108t-156 3q-83 27 -149 91t-100 151q-35 88 -20 172q34 245 208 610z" />
    <glyph glyph-name="Ucircumflex.002" horiz-adv-x="991" 
d="M934 1458q24 0 33 -59q10 -59 -9 -82q-16 -25 -71 -184q-76 -242 -241 -470t-327 -315q-90 -47 -140 -42t-107 65q-31 37 -41 81q-11 44 -11 208t78 415q33 111 72 179t70 69q86 0 -17 -207q-77 -141 -107 -306q-30 -166 -3 -276t102 -110q88 0 217 123t262 336
q80 125 137 279t39 198q-10 26 15 62t49 36zM403 1464q-5 54 63 112t140 60t91 -10t39 -59t20 -65t-23 -29q-33 -20 -82 38l-47 60l-65 -68q-43 -45 -78 -59q-53 -25 -58 20z" />
    <glyph glyph-name="Udieresis.002" horiz-adv-x="985" 
d="M927 1526q32 0 36 -31q5 -31 -9 -183t-48 -243q-34 -90 -19 -100q10 -14 -10 -37q-23 -35 -65 -169t-112 -270t-94 -137q-16 0 -85 -62t-224 -52q-67 2 -141 81q-155 165 -133 469q10 153 73 422q16 66 30 82t17 21q33 27 65 7t-5 -58q-61 -66 -86 -368t22 -413
q35 -86 108 -133q155 -100 324 74q92 94 142 217q11 29 63 148t74 205t12 104q-10 16 10 33q20 8 25 118q0 95 4 140l-6 108q0 27 32 27zM743 1595q51 33 52 -26q0 -37 -23 -95t-49 -63q-31 -4 -23 70q0 10 2 16q14 82 41 98zM513 1638q38 0 44 -22q4 -23 -18 -78
q-14 -44 4 -70t12 -46q-5 -20 -27 -23q-22 -2 -47 14q-53 45 -20 176q14 49 52 49z" />
    <glyph glyph-name="Ugrave.002" horiz-adv-x="964" 
d="M639 623q0 23 19 29q18 6 90 228t71 275q0 53 37 73t50 15q14 -6 30 -52t2 -111t-74 -185q-115 -231 -147 -489l-17 -123l72 36q70 37 66 15q-2 -31 -85 -119t-117 -74t-30 43t21 166l10 121l-96 -131q-84 -113 -153 -168q-68 -54 -146 -80t-100 -22t-62 46t-50 81
t-10 237t52 395l61 248q33 172 49 207q12 20 43 16t31 -26q-4 -57 -109 -455q-57 -207 -49 -394t76 -230q27 -19 113 31t151 122q68 70 134 161t67 114zM481 1610q1 28 45 28t66 -19t56 -90q36 -71 81 -97q45 -28 43 -46t-56 -18t-145 91q-90 92 -90 151z" />
    <glyph glyph-name="V.002" horiz-adv-x="661" 
d="M20 884q0 406 19 437q39 61 49 -35q12 -86 7 -416t9 -424l15 -100l37 55q78 117 198 404q121 287 146 414q4 22 24 116q16 55 58 55t55 -25q12 -25 -20 -61q-31 -36 -53 -142t-194 -493q-172 -388 -229 -446q-63 -68 -92 93q-29 162 -29 568z" />
    <glyph glyph-name="W.002" horiz-adv-x="786" 
d="M109 160q0 -29 -37 -29q-37 1 -47 111t2 414t28 442t48 164q33 24 49 4t1 -72t-35 -267q-48 -525 -26 -593q25 0 80 250t51 330q-3 80 13 120t40 41q49 0 91 -428q14 -127 42 -232q29 -105 53 -130t58 41q45 92 98 383q52 291 54 455t12 202q10 39 32 44t38 -13
q14 -20 12 -51q-25 -340 -64 -551l-34 -207q-23 -133 -72 -270q-50 -137 -72 -161t-34 -22t-48 35q-38 33 -86 157q-47 124 -47 203q-6 92 -18 140q-14 43 -35 -31q-23 -90 -51 -244q-4 -20 -50 -117t-46 -118z" />
    <glyph glyph-name="X.002" horiz-adv-x="870" 
d="M733 311q13 -1 19 -29t0 -57t-21 -28q-31 -4 -59 34q-41 47 -109 166q-69 119 -110 185l-23 36q-18 27 -186 -184q-88 -111 -138 -160q-30 -24 -40 -28t-29 10q-40 31 20 88q2 2 21 24q18 22 63 74t92 109l144 172l-43 115q-68 188 -104 352t-17 188q20 18 53 6t35 -38
q3 -66 23 -167t32 -115t17 -56q0 -37 15 -113t26 -94q14 -14 32 -6q20 14 121 167q99 153 155 252t101 109q23 -2 27 -33q0 -26 -127 -236t-199 -302l-51 -66l70 -115q151 -260 190 -260z" />
    <glyph glyph-name="Y.002" horiz-adv-x="784" 
d="M160 156q0 47 45 147q45 111 74 152q14 25 22 21t12 -5q4 2 -2 12q-18 22 47 178q65 157 62 164q-10 6 -87 -41t-132 -16q-55 32 -105 136t-64 158t-12 152t15 140q10 39 43 30q24 -8 24 -146t12 -186q12 -46 54 -106q55 -88 101 -92t139 72q92 68 151 207l96 229
q21 54 39 72t41 9q41 -16 25 -104q-23 -131 -148 -319q-53 -80 -144 -278t-155 -363l-41 -115q-12 -41 0 -33q25 14 25 -6q-17 -68 -77 -110q-60 -43 -60 41z" />
    <glyph glyph-name="Z.002" horiz-adv-x="1052" 
d="M432 1313q129 11 294 43t224 56q58 24 72 18t6 -48q-16 -83 -158 -221q-98 -100 -278 -324t-225 -307q-29 -45 -91 -110l-65 -70l80 15q115 20 256 24t197 -12q56 -15 100 9q43 24 43 -13q2 -29 -39 -71q-40 -42 -62 -45t-73 23t-183 30q-251 6 -393 -105
q-84 -66 -110 -31q-7 10 -7 28t199 259l275 352q127 168 239 309l139 176l-71 -10q-199 -45 -342 -76l-150 -34q-37 -8 -53 -4t-27 26q-16 43 32 70t171 43z" />
    <glyph glyph-name="a.001" horiz-adv-x="698" 
d="M135 636q0 -38 -18 -54q-15 -6 -21 -74t4 -85t43 -26q100 -25 213 77t129 231q15 87 37 147t-14 80q-37 20 -107 -14t-168 -138q-98 -106 -98 -144zM498 401q0 -35 11 -35t75 35q64 36 84 37q45 6 -80 -104q-80 -74 -110 -77t-42 12t-18 50l-15 66l-122 -66
q-105 -59 -147 -62t-75 44t-39 115t22 196t104 220t207 139q130 47 176 44t70 -47t38 -59q33 -31 1 -153t-97 -207q-43 -59 -43 -148z" />
    <glyph glyph-name="aacute.001" horiz-adv-x="808" 
d="M442 418q16 76 40 232t26 200q2 45 -8 59t-47 19q-93 10 -195 -103t-146 -277t81 -229q37 -18 61 -16t86 27q88 43 102 88zM574 295q20 -1 102 65t104 66q33 2 -20 -76q-90 -135 -176 -172t-119 45q-20 51 -57 37q-180 -80 -284 -28t-104 216t85 312q86 147 225 229
q279 166 282 -178q4 -199 -2 -267t-40 -130t-21 -101q5 -18 25 -18zM606 1415q55 98 109 109q31 2 33 -38t-27 -81t-156 -199l-47 -57l10 80q12 82 78 186z" />
    <glyph glyph-name="acircumflex.001" horiz-adv-x="811" 
d="M381 768q0 49 -41 51t-92 -49q-41 -47 -90 -150q-48 -102 -50 -138t8 -39t38 12q53 29 140 147t87 166zM322 477q-8 0 -80 -65q-60 -58 -122 -78t-85 12q-45 66 33 266t180 289q60 47 80 51t64 -28t80 -13q36 18 39 3q3 -16 -6 -86t-46 -172t-43 -196q-6 -93 24 -120
q72 -59 244 106q94 94 104 74q25 -25 -133 -186q-143 -139 -220 -130t-95 171q-10 102 -18 102zM311 1296q154 135 164 138q16 0 53 -66q31 -63 80 -99t33 -64q-15 -29 -67 -21t-93 47l-53 47l-104 -84q-105 -89 -133 -57q-13 17 9 45t111 114z" />
    <glyph glyph-name="adieresis.001" horiz-adv-x="712" 
d="M318 965q-13 0 -64 -31q-51 -30 -98 -142t-47 -202t6 -99t54 21t129 156q81 125 82 179t-26 93q-23 25 -36 25zM84 342q-16 0 -44 34t-16 192t48 232q36 73 36 92t71 98t127 79t118 -60q62 -61 72 -93t-3 -120t-2 -168q11 -81 41 -81q34 1 88 25t68 16q27 -18 -68 -100
t-167 -70t-72 123q0 31 -10 30q-16 -1 -143 -115q-128 -114 -144 -114zM512 1462q8 14 37 16t45 -12q12 -14 -9 -72t-25 -136t-16 -103t-32 -17t-44 53q-24 46 7 148q19 80 37 123zM336 1376q0 -86 -8 -106q-8 -18 -37 -18t-49 42t-20 98t27 82q26 26 46 13q41 -25 41 -111z
" />
    <glyph glyph-name="agrave.001" horiz-adv-x="894" 
d="M506 887q-82 86 -201 5t-170 -243q-33 -106 -18 -200q10 -45 22 -62q12 -23 29 -22q44 1 152 121t159 222t55 126q4 22 -28 53zM313 1008q131 49 248 -54q51 -49 65 -83q14 -35 15 -115q2 -80 -5 -105t-32 -18q-45 4 -76 -133q-12 -54 -9 -106t22 -64q41 -27 223 119
q96 79 109 67t-63 -106t-153 -158q-96 -76 -133 -66q-44 8 -70 70t-16 139l15 92l-125 -118q-100 -94 -169 -116t-98 16q-55 73 -35 257q21 184 140 352q73 103 147 130zM481 1212q-77 78 -123 152t-33 108q13 35 48 27q35 -7 69 -71t114 -144q81 -80 146 -108l78 -33
l-116 -2q-76 -2 -107 10t-76 61z" />
    <glyph glyph-name="b.001" horiz-adv-x="612" 
d="M170 495q0 -56 -29 -67q-47 -16 15 -33q78 -20 142 -13t101 30q27 14 60 63q55 83 54 191t-56 164t-81 56t-79 -71q-51 -74 -89 -169t-38 -151zM172 1026q47 304 58 324t38 8t23 -47t-40 -204t-52 -247l-6 -31q1 -2 23 20t44 40q41 43 72 55t81 8q49 -4 75 -20t51 -60
q84 -143 40 -307t-184 -237q-51 -25 -136 -38t-101 2t-47 17q-96 16 -91 47l9 15q16 23 41 157q24 134 38 169q14 36 64 329z" />
    <glyph glyph-name="c.001" horiz-adv-x="569" 
d="M451 1022q27 0 65 -40t34 -79q-3 -39 -32 -98q-30 -59 -62 -100t-46 -27q-25 26 13 102t38 105q0 67 -110 -15t-189 -204q-35 -53 -50 -120q-36 -159 85 -159q80 0 179 74q98 74 124 87t43 -7q14 -23 -69 -99q-82 -76 -166 -116t-115 -44t-72 13q-96 41 -101 136
q-4 95 84 265t265 289q55 37 82 37z" />
    <glyph glyph-name="ccedilla.001" horiz-adv-x="675" 
d="M20 483q0 115 117 305t228 250q65 37 145 31t112 -51t34 -86t-25 -101q-27 -57 -51 -49t-27 79q-2 71 -24 95q-21 24 -77 11q-56 -15 -118 -63t-109 -113q-104 -150 -102 -269q0 -66 27 -110q36 -47 74 -45t159 57q136 62 197 72q16 0 -41 -45q-6 -4 -97 -76l-32 -25
q-117 -90 -130 -108t3 -45l66 -116q46 -85 47 -105t-35 -66q-37 -47 -73 -58q-36 -12 -123 14t-104 52q-29 43 1 50t94 -5q106 -13 120 13t-57 108q-70 76 -134 206q-65 130 -65 193z" />
    <glyph glyph-name="d.001" horiz-adv-x="686" 
d="M361 592q-23 0 -37 52t-45 70q-31 20 -59 10t-62 -54q-92 -119 -13 -234q45 -63 117 -43t86 103q10 52 22 74t-9 22zM565 952q0 27 -26 27q-9 0 -13 -6q-4 -7 5 -21t-23 -97t-33 -150l4 -15q6 -2 46 116t40 146zM588 1145q-21 21 -32 -91q-6 -50 10 -50t28 64t-6 77z
M547 682q-29 0 -29 -41t-49 -137t-51 -114q-2 -19 26 -43t62 -36q51 -18 -51 -53l-25 -8q-47 -12 -61 -7q-15 5 -23 41t-20 42t-57 -10t-113 8q-68 25 -103 79q-59 86 -16 226q16 59 51 103q72 90 220 54q75 -18 75 -51q0 -49 20 -12t43 131q28 136 78 322t68 219
q39 74 61 8q31 -90 3 -237t-29 -167l-11 -43q-8 -42 -38 -146t-21 -114q16 -8 -6 -12q-2 -2 -4 -2z" />
    <glyph glyph-name="e.001" horiz-adv-x="651" 
d="M512 803q-16 31 -46 34t-113 -41t-120 -91l-45 -48l68 17q94 25 180 65q85 41 76 64zM631 393q0 -23 -32 -42t-160 -53q-129 -34 -201 -35t-140 44t-75 101q-18 121 78 262q98 141 245 209q102 49 136 51t81 -37q113 -94 -38 -186q-151 -91 -258 -107t-138 -53
q-56 -66 26 -153q81 -86 263 -21q189 71 207 50q6 -7 6 -30z" />
    <glyph glyph-name="eacute.001" horiz-adv-x="661" 
d="M129 616q0 -45 117 -8q197 63 286 230q27 57 19 84q-10 26 -58 30t-102 -16q-59 -27 -161 -151t-101 -169zM391 1018q72 26 108 24t81 -32q143 -100 -111 -377q-33 -37 -135 -84t-142 -48t-59 -12q-37 -25 12 -77q99 -106 304 32q150 98 149 68q0 -50 -108 -139
t-175 -115q-129 -55 -220 27q-91 81 -71 241t124 300q102 140 243 192zM403 1171q-61 0 -4 82q24 35 90 111q104 115 142 127q25 8 12 -31q-23 -80 -116 -184t-124 -105z" />
    <glyph glyph-name="ecircumflex.001" horiz-adv-x="837" 
d="M119 630q0 -16 72 -16q71 0 171 62t170 145q64 80 50 125q-10 25 -66 30q-56 4 -110 -20q-55 -24 -125 -90t-116 -144t-46 -92zM360 266q30 0 126 29t206 97t122 58q11 -11 -21 -44q-83 -82 -187 -132t-158 -63q-54 -12 -151 -14q-96 -2 -124 8t-62 57q-68 84 -84 164
t12 188q61 238 270 381q150 96 252 70q111 -33 103 -135q-2 -51 -46 -119q-55 -96 -155 -173q-99 -77 -197 -107t-122 -44t-19 -43q12 -98 154 -155q51 -23 81 -23zM643 1139q-35 0 -72 38t-55 93q-8 37 -20 37q-16 -4 -85 -68t-97 -73t-50 19t-10 47q14 19 76 62
q94 59 139 125q43 71 72 53t71 -145t62 -138t12 -31t-43 -19z" />
    <glyph glyph-name="edieresis.001" horiz-adv-x="808" 
d="M434 819q-29 0 -82 -35t-84 -79l-35 -54l97 54q96 53 116 77t19 31q-2 6 -31 6zM240 547q-36 0 -86 -80q-33 -55 -37 -75t14 -40q45 -50 153 -28t298 112t204 78q14 -14 -14 -43q-33 -29 -102 -65q-88 -42 -157 -98t-201 -87t-160 -29t-76 38q-47 38 -53 89q-7 51 27 162
t34 141t43 50q18 4 37 21q18 17 22 36q19 53 111 125q55 50 90 64t86 10t65 -18t19 -59q4 -46 -7 -71t-48 -61q-76 -63 -159 -117t-103 -55zM632 1114q-38 0 -42 19q-6 15 8 107t27 110q14 14 23 19q15 8 32 -48q30 -90 6 -160q-16 -47 -54 -47zM471 1370q0 -14 -38 -127
t-57 -141q-35 -53 -65 -6q-10 18 -9 53t-21 35q-10 0 -11 2q0 2 27 22q39 22 39 48t54 86t77 47q4 -5 4 -19z" />
    <glyph glyph-name="egrave.001" horiz-adv-x="696" 
d="M197 616q-1 -25 65 -1t148 110q82 87 88 147t-41 54q-43 -4 -107 -60t-108 -130q-45 -75 -45 -120zM471 1024q55 0 75 -13t38 -53q16 -40 14 -68q-2 -26 -27 -71q-43 -86 -131 -174t-157 -115q-150 -59 -27 -182q34 -35 60 -43t77 0t101 50t118 89q68 43 64 9
q-6 -39 -77 -114t-145 -116t-132 -41q-59 0 -125 66t-88 147q-18 86 -62 117q-23 14 -27 42t11 46q15 16 35 8t32 5t24 65t86 160q75 106 134 143q74 43 129 43zM549 1120q-17 -18 -103 40t-128 121t-50 90q-6 27 22 55t52 14q27 -10 123 -160t84 -160z" />
    <glyph glyph-name="eogonek.001" horiz-adv-x="722" 
d="M702 985q0 -75 -93 -191t-211 -191t-169 -44q-25 16 -33 38q-9 22 3 35t39 11q66 -4 172 70t170 166t33 132q-33 39 -69 31t-123 -72t-206 -251q-119 -188 -113 -264l4 -29q2 -16 3 -33q5 -33 125 -27q209 10 364 144q57 51 78 47q30 -4 -32 -96q-62 -91 -156 -137
t-105 -64q-12 -18 -1 -106t-37 -145q-48 -56 -120 -9q-23 14 -21 24t27 23q43 27 37 111t-16 96t-53 4q-76 -16 -127 28q-52 44 -52 121t25 153t49 77q8 0 10 6t-2 12q-12 18 92 164q103 146 156 193t119 83t113 44q28 -1 74 -61t46 -93z" />
    <glyph glyph-name="f.001" horiz-adv-x="825" 
d="M723 1108q2 170 -37 166q-16 0 -35 -39q-35 -59 -101 -262t-54 -215q10 -12 74 40t108 107q39 45 45 203zM364 717q42 0 46 22q0 21 14 55t72 226q50 182 112 286t82 105q14 0 58 -57t51 -92q8 -35 4 -119q-5 -160 -67 -264t-204 -203q-7 -4 -43 -28q-35 -24 -50 -34
t-16 -11t-36 -124l-33 -119l138 15q127 14 129 -6q0 -4 -3 -7q-16 -47 -204 -77q-4 0 -6 -2q-64 -8 -74 -37q-18 -48 -17 -172q0 -123 -14 -148t-47 -6q-35 27 -8 252q6 66 -6 78l-103 -23q-81 -16 -113 20t31 66q35 17 115 27t102 22t35 60q41 146 36 192t-16 46t-17 8
q-6 10 -3 20q13 29 55 29z" />
    <glyph glyph-name="g.001" horiz-adv-x="933" 
d="M498 592q44 0 108 64t58 102q-14 96 -88 37q-75 -59 -90 -131t12 -72zM758 779q0 -60 -45 -136q-39 -59 -108 -103t-95 -28l-14 6q-10 4 -9 -6q0 -23 39 -61q36 -41 94 -39t121 45q43 33 55 59t8 125q-3 98 3 125q4 31 35 31q30 1 54 -61t12 -120t-22 -238
q-11 -179 -39 -269t-87 -134q-68 -43 -153 -40t-258 57t-187 53q-14 0 -74 40t-65 54q-6 12 17 37q24 25 38 25t66 -33t214 -81t251 -48t135 49t57 172l8 127l-78 -35q-99 -42 -163 -32t-113 69q-77 87 -55 229t122 236q53 49 94 53t95 -33q47 -35 47 -95z" />
    <glyph glyph-name="h.001" horiz-adv-x="755" 
d="M45 240q-38 0 -18 210t60 396t57 326q16 140 30 178q14 39 32 39q18 -1 24 -17q5 -16 -3 -74t-12 -94q-4 -37 -8 -59l-17 -109q-26 -194 -58 -322t-32 -161q0 -25 140 115q90 94 118 112t56 -20t28 -140q0 -104 23 -203t47 -133t119 20q94 54 102 42q2 -2 2 -20
q0 -35 -97 -112t-140 -77q-51 0 -88 89q-37 88 -37 234t-21 173q-12 20 -57 -19q-107 -92 -169 -233t-81 -141z" />
    <glyph glyph-name="i.001" horiz-adv-x="368" 
d="M72 780q63 150 123 94q12 -20 -34 -112q-45 -92 -57 -190t13 -140q14 -20 37 -17t79 38l9 4q104 55 106 16t-112 -123q-12 -8 -19 -14l-102 -68l-49 47q-31 31 -39 69t-4 134q0 141 49 262zM188 1174q0 104 23 147t39 47q32 6 26 -136t-47 -173q-8 -6 -18 0
q-23 11 -23 115z" />
    <glyph glyph-name="icircumflex.001" horiz-adv-x="569" 
d="M541 635q0 -35 -127 -167q-126 -132 -232 -202t-138 -50t-20 160q12 138 79 385q69 247 100 264t51 1t14 -49t-35 -119q-125 -338 -124 -446q0 -50 7 -56t46 13q55 35 174 131q188 158 201 153q4 0 4 -18zM291 1207q0 -35 -32 -75t-55 -40q-24 0 -36 32q-26 67 104 211
q35 39 85 40q49 1 69 -34t83 -117t29 -108t-130 58t-107 76q-10 -8 -10 -43z" />
    <glyph glyph-name="idieresis.001" horiz-adv-x="534" 
d="M195 1055q20 49 52 58t52 -21q13 -22 -57 -178t-82 -230t10 -158q12 -41 50 -58t59 11q12 25 32 21t21 -31q0 -29 -120 -93q-58 -32 -76 -34t-44 31q-51 68 -33 309q2 58 120 336q11 27 16 37zM80 1315q82 92 110 70t-43 -123l-8 -13q-59 -78 -86 -77t-33 26
q-6 49 60 117zM514 1333q0 -67 -24 -143t-44 -76q-87 0 -8 200q41 104 62 93q14 -8 14 -74z" />
    <glyph glyph-name="j.001" horiz-adv-x="493" 
d="M201 302q0 -18 -45 -93q-45 -74 -45 -112t39 -79q38 -41 68 -41t39 34q9 35 20 189t24 222q7 78 23 278t41 226q47 59 68 15t0 -124q-21 -79 -50 -405t-40 -412t-32 -117q-21 -39 -35 -40t-81 34q-127 65 -161 135t17 168q37 63 107 113q43 27 43 9zM473 1344
q1 -84 -23 -158q-24 -72 -49 -72q-12 0 -16 69q-5 69 3 139t28 90t37 20q20 -4 20 -88z" />
    <glyph glyph-name="k.001" horiz-adv-x="770" 
d="M215 567q0 -23 90 46q91 69 113 110t22 53q4 33 -58 -22q-62 -56 -114 -114t-53 -73zM125 319q-1 -47 -23 -47t-22 -42q0 -22 -24 -24q-24 -4 -34 24t23 157q104 359 219 928q14 81 30 111t41 30q24 0 33 -8t9 -45t-57 -215q-58 -178 -58 -248t-35 -156t-28 -93t131 108
q150 143 182 84q35 -95 -53 -226q-59 -88 -135 -133l-64 -39l92 -39q90 -36 182 -36t160 -33q51 -20 58 -27q0 -6 -14 -10t-18 -5q-3 -1 -5 -1q-93 -18 -227 -12t-201 32q-162 63 -162 -35z" />
    <glyph glyph-name="l.001" horiz-adv-x="444" 
d="M128 387q9 0 79 35l45 18q25 6 22 -10q-2 -31 -98 -117t-110 -86q-46 0 -46 117t48 229l73 177q12 37 31 104q14 68 35 90q20 33 67 170q56 149 89 178t57 5t-66 -210q-172 -377 -225 -598q-25 -102 -1 -102z" />
    <glyph glyph-name="m.001" horiz-adv-x="1030" 
d="M150 512q0 -4 2 -6q25 25 142 208q118 183 118 195q0 25 36 25t45 -28t19 -134l16 -162l70 111q98 165 156 151t123 -247q27 -102 43 -167q16 -66 36 -126t36 -73t18 -25t-17 -35q-92 -127 -157 153q-14 53 -23 107q-53 293 -102 293q-23 0 -81 -138t-59 -190
q0 -86 -36 -129q-16 -23 -29 -12q-27 18 -62 331q-12 146 -17 152t-9 1q-84 -106 -186 -286q-101 -180 -128 -217t-49 -37q-29 0 -31 40t22 165t33 269t34 167q6 6 10 9q29 18 35 -55t2 -123t-4 -66l-6 -101v-20z" />
    <glyph glyph-name="n.001" horiz-adv-x="677" 
d="M123 524q13 0 77 132t160 227q60 61 88 75t60 -4q32 -20 47 -76q14 -56 39 -296q28 -229 52 -260t-21 -76l-47 -45l-29 49q-27 55 -40 307t-44 287q-25 26 -80 -30t-140 -218t-95 -223t-48 -115t-63 -47q-36 20 -1 410q17 201 36 210q12 6 34 -13t26 -56q4 -36 -5 -96
q-8 -60 -9 -101t3 -41z" />
    <glyph glyph-name="o.001" horiz-adv-x="741" 
d="M513 508q85 76 111 137t7 127t-75 98q-56 31 -112 27t-162 -56t-153 -124q-47 -73 -15 -137t107 -82q72 -12 73 2t54 19t49 -13q-5 -18 -73 -47t-78 -58q-4 -16 33 -6q9 5 79 21t155 92zM350 975q74 23 101 23t96 -29q156 -63 172 -191t-113 -270q-176 -188 -352 -189
q-76 0 -117 27t-78 103q-80 156 1 303t290 223z" />
    <glyph glyph-name="oacute.001" horiz-adv-x="694" 
d="M306 797q-12 1 -82 -55q-71 -56 -81 -80q-53 -100 -8 -199q39 -96 134 -130t180 38q59 49 71 138t-26 163q-39 73 -113 102q-10 2 -31 10l-26 11q-6 2 -18 2zM362 954q59 0 122 -72q62 -73 98 -184q54 -170 -8 -306t-212 -171q-115 -31 -251 107q-59 61 -81 140t1 153
q49 172 186 227q74 31 158 18q37 -2 37 15q-1 24 -50 47l-51 26h51zM655 1456q31 0 11 -49q-43 -113 -131 -236t-125 -124q-109 0 71 204q113 125 125 166q18 39 49 39z" />
    <glyph glyph-name="ocircumflex.001" horiz-adv-x="712" 
d="M561 672q0 80 -11 114t-60 78q-49 45 -85 45t29 -47q35 -28 47 -56q13 -28 13 -96t-32 -73q-32 -4 -48 61q-29 115 -113 72q-55 -32 -102 -100t-70 -144q-51 -178 27 -254q104 -92 235 29q170 147 170 371zM629 650q0 -134 -39 -224t-152 -195q-168 -158 -319 -61
q-88 59 -99 190q-10 131 58 278t183 241t181 99t127 -71q41 -43 51 -83t9 -174zM332 1130q38 77 194 236q45 45 70 44q24 -1 50 -52t39 -131t1 -104t-38 -2t-46 73l-33 82l-96 -115q-67 -82 -89 -94q-22 -11 -44 11t-8 52z" />
    <glyph glyph-name="odieresis.001" horiz-adv-x="948" 
d="M53 614q49 0 49 -22t-32 -22t-42 16q-19 28 25 28zM612 864q-40 0 -118 -74t-101 -126t-17 -154t33 -140q25 -38 49 -45t88 1t142 67t60 90q-11 17 10 17q8 0 18 17t12 40q14 57 -28 57q-35 0 -42 20t21 38q29 16 20 55t-54 80q-53 57 -93 57zM625 967q0 92 131 -39
q74 -80 98 -136t23 -173q0 -117 -73 -221t-204 -156q-195 -84 -293 106q-39 76 -41 107t25 142t51 157t80 100q92 80 148 80t55 33zM906 1036q-14 0 -23 7t-11 24t-22 65t6 115q6 14 12 33q10 18 21 8l12 -20q15 -29 23 -85q8 -55 2 -101t-20 -46zM473 1317q70 113 94 121
q39 10 -26 -185q-37 -115 -74 -114q-103 0 6 178z" />
    <glyph glyph-name="p.001" horiz-adv-x="630" 
d="M330 885q-43 0 -66 -49q-18 -52 -45 -220t-17 -177t130 -9q121 0 163 29t42 93t-38 149q-81 184 -169 184zM346 1001q43 1 78 -29t95 -128t83 -200t-9 -181q-32 -80 -96 -114t-182 -25l-133 6l-26 -170q-26 -176 -48 -242t-57 -74q-27 -4 -28 15q-8 49 34 278
q11 39 49 319t74 382q36 100 94 145q29 18 72 18z" />
    <glyph glyph-name="q.001" horiz-adv-x="569" 
d="M455 444q21 39 31 102q10 64 8 68q-12 0 -34 -60t-21 -94t16 -16zM369 741q-29 35 -97 31t-106 -43q-88 -88 -60 -235q16 -84 54 -121t112 -41l86 -2l9 106q3 80 -5 94t-68 20t-67 28q-6 23 47 49q136 67 95 114zM309 -160q-28 0 -24 70q0 70 32 248l7 39q0 16 -2 22
t-27 2q-41 -15 -110 13t-105 84t-52 155q-17 99 1 163q17 64 89 136t126 94q54 20 81 18t71 -37q44 -34 79 -3q18 16 33 16q51 -2 39 -225q-1 -101 -15 -153t-53 -110t-63 -148t-58 -298q-12 -86 -49 -86z" />
    <glyph glyph-name="r.001" horiz-adv-x="563" 
d="M111 922q12 0 20 -8t5 -20q-3 -10 2 -20t16 -10q23 0 22 21q0 9 33 29t76 36q84 39 136 45t105 -14q33 -14 -8 -33q-14 -8 -130 -51q-179 -66 -208 -132q-10 -23 -14 -57t-33 -186t-31 -176q-2 -25 -26 -22q-31 2 -42 51t-12 174t21 256q27 117 68 117z" />
    <glyph glyph-name="s.001" horiz-adv-x="667" 
d="M375 182q-59 0 -161 43t-148 82q-44 39 -46 91t33 67q35 10 35 -21q0 -45 92 -108q92 -64 161 -64t99 18t37 62q23 147 -172 324q-121 111 -135 162q-18 48 16 104t88 66q184 36 290 -24t79 -181q-9 -37 -29 -49t-34 6t-15 61q0 43 -14 61t-77 45q-62 29 -138 13t-84 -61
q-10 -43 115 -164q73 -68 107 -120t54 -120q37 -131 -6 -212t-147 -81z" />
    <glyph glyph-name="germandbls.001" horiz-adv-x="1028" 
d="M668 1372q138 149 228 124q36 -9 73 -56q98 -123 -37 -371q-35 -67 -42 -97t7 -57q63 -119 -13 -344t-222 -344q-37 -29 -89 -1q-51 28 -81 89q-33 57 -15 109q8 18 31 26t42 -2t15 -34t26 -48t48 -15t78 80q61 71 97 181t22 183q-14 75 -28 79t-59 -36q-46 -40 -69 -78
q-22 -39 -52 -41t-53 37q-41 58 138 235q35 35 53 39q45 12 101 112q57 100 57 158q0 60 -10 74t-44 15q-90 1 -211 -179t-182 -403q-41 -156 -47 -430q-11 -280 -33 -260q-4 6 -6 6q-2 -2 -5 -36t26 -161q10 -59 -39 -71q-72 -20 -285 51q-39 12 -53 26q-31 23 12 68
q27 31 40 34t32 -23t102 -40q2 -2 6 -2q74 -8 88 33q12 43 25 317v23q16 426 127 670l90 196q31 78 111 164z" />
    <glyph glyph-name="t.001" horiz-adv-x="673" 
d="M308 1161q34 0 42 -37q8 -36 -28 -66t-76 -114l-47 -90l94 -12q96 -12 92 -35q-9 -23 -107 -63t-124 -76t-25 -124q0 -87 31 -122q30 -35 102 -35t177 44t165 97l49 47v-55q-1 -49 -27 -80q-26 -30 -68 -30t-42 -25q0 -8 -38 -34t-89 -46q-109 -49 -177 -44t-117 57
q-48 52 -56 103q-8 49 9 157t-6 137t-20 42t33 40q55 47 111 175t80 158q28 31 62 31z" />
    <glyph glyph-name="u.001" horiz-adv-x="686" 
d="M449 301q0 -27 -56 -37q-117 -28 -233 58t-132 204q-17 118 15 234q33 117 78 117q72 0 8 -160q-47 -115 31 -236q33 -51 89 -84q57 -33 115 -33t128 66q70 64 75 121l6 121q5 72 -31 130t-39 78t13 44q18 22 28 20t29 -26q27 -43 59 -125t34 -119q6 -150 -101 -291
q-68 -92 -98 -74q-8 6 -13 3t-5 -11z" />
    <glyph glyph-name="uacute.001" horiz-adv-x="983" 
d="M223 1024q43 0 42 -37t-61 -165t-76 -218q-17 -88 -12 -121t36 -80q57 -78 88 -79q33 -8 139 86t140 159t34 135t27 177q26 108 49 139q45 53 71 2q14 -16 -10 -258l-31 -234l64 -106q47 -80 69 -94t96 -6t75 -5q0 -43 -80 -81t-133 -12q-54 26 -104 100t-75 110l-14 19
q-6 10 -97 -88q-187 -200 -288 -144q-163 91 -154 271q6 90 39 213t81 220t85 97zM362 1280q2 12 37 37t120 157t108 128q33 -20 -29 -158t-135 -203q-37 -33 -47 -34t-35 30q-20 31 -19 43z" />
    <glyph glyph-name="ucircumflex.001" horiz-adv-x="833" 
d="M90 694q0 4 2 15t14 114q11 104 28 134t53 16t32 -51q-27 -209 -74 -367q-23 -82 -23 -181t21 -112q31 -18 140 96t118 172q1 9 9 48t12 63l20 121q20 123 48 174t71 35q31 -12 13 -172t-54 -245q-35 -85 -39 -112t2 -77q4 -31 72 -20t123 42q31 14 57 37q41 29 64 10
q20 -10 13 -21t-49 -39q-43 -28 -111 -96t-148 -71q-80 -4 -107 67l-18 52l-37 -54q-43 -57 -116 -97t-119 -28t-65 38q-20 25 -22 107t70 402zM520 1460q25 16 41 -6q17 -22 35 -92t37 -107q14 -39 35 -46q22 -7 22 -49t-24 -57t-91 48q-68 63 -67 98q0 33 -52 -27t-69 -68
q-18 -9 -34 12q-15 22 -2 55t79 128q65 95 90 111z" />
    <glyph glyph-name="udieresis.001" horiz-adv-x="673" 
d="M106 258q0 -18 23 -16q49 6 121 71q188 182 264 602q12 50 34 64q43 27 60 10q6 -10 6 -37l-6 -69q-25 -219 -78 -330q-37 -63 -20 -197q8 -82 33 -77q8 1 19 21t49 39t40 14t-26 -62q-57 -115 -111 -127t-82 82l-24 88l-115 -111q-80 -79 -155 -105q-76 -26 -100 15
q-45 76 32 459q59 270 67 336q0 24 44 26q45 2 59 -19t-44 -207t-71 -316q-10 -66 -14 -121l-5 -29v-4zM643 1389q0 -13 2 -15q11 -55 -11 -140t-54 -116q-45 -45 -45 21q-3 49 26 155q41 133 60 136q6 2 14 -13t8 -28zM389 1429q0 4 37 5q37 0 23 -39q-5 -6 -31 -140
t-49 -163t-60 0q-20 14 -16 45t50 159t46 133z" />
    <glyph glyph-name="ugrave.001" horiz-adv-x="815" 
d="M475 874q0 64 12 110q13 46 55 37t36 -188t-58 -331t-35 -195q10 -25 37 -17q26 8 144 72q118 66 129 48q-1 -25 -99 -117q-179 -168 -242 -141q-26 10 -48 69l-21 53l-84 -67q-76 -61 -128 -67t-103 42q-29 29 -39 73q-11 44 -11 169t32 294t62 206q30 36 60 30t29 -50
q0 -44 -37 -109q-35 -70 -48 -257q-12 -188 14 -238t56 -45t99 72t93 115t59 208q36 160 36 224zM272 1427q63 63 121 -96q37 -94 94 -157q29 -38 34 -52t-9 -28q-34 -29 -104 23t-112 139q-42 88 -46 116t22 55z" />
    <glyph glyph-name="v.001" horiz-adv-x="532" 
d="M407 882q35 83 62 101t37 -4q18 -33 -16 -85t-62 -190q-29 -138 -77 -234q-48 -95 -101 -126q-31 -20 -48 -16t-52 45q-78 90 -119 381q-16 123 -9 157q13 62 56 35q18 -12 28 -44t36 -196t59 -219q16 -33 39 -28q30 10 68 94t50 165t49 164z" />
    <glyph glyph-name="w.001" horiz-adv-x="942" 
d="M106 365q-47 0 -73 184q-27 184 -2 338q12 82 26 104q13 29 53 31t42 -39q0 -43 -18 -60t-22 -165q-5 -148 8 -172q13 -23 19 -23q18 3 50 113t40 147q9 37 21 50t34 9t32 -31q10 -28 22 -115t44 -168t64 -101t88 29q54 48 86 114t122 342t123 348q34 72 53 72l4 -4
q6 -20 -26 -142t-58 -184t-64 -217t-106 -283t-149 -172t-131 -10t-101 175l-27 67l-31 -78q-27 -61 -65 -110t-58 -49z" />
    <glyph glyph-name="x.001" horiz-adv-x="675" 
d="M618 1024q90 0 -30 -127q-82 -92 -170 -208t-88 -134t66 -95t77 -95q6 -17 -27 -55t-49 -38t-82 109l-61 106l-94 -106q-98 -113 -131 -111q-18 4 6 56q27 49 102 131l78 80l-59 233q-37 139 -44 189q-7 51 6 67t21 25q63 51 86 -158q16 -152 60 -219q18 -29 28 -12l2 2
q1 2 15 23l30 45t48 74q34 50 112 134t98 84z" />
    <glyph glyph-name="y.001" horiz-adv-x="813" 
d="M569 500q25 0 61 56t27 69q-14 12 -60 -53q-46 -66 -28 -72zM762 903q10 0 18 -8q16 -25 14 -53t-33 -148q-32 -120 -90 -204t-126 -97q-39 -6 -80 -47t-109 -129q-94 -131 -165 -208t-97 -77q-45 0 -63 20t-2 50q18 43 49 43q32 0 96 71t123 163l70 106l-48 82
q-47 82 -45 223q6 326 82 326q41 0 15 -164q-47 -248 41 -336q27 -32 46 -16t87 131q162 272 217 272z" />
    <glyph glyph-name="z.001" horiz-adv-x="802" 
d="M182 889q72 0 208 46t166 54q28 8 56 8t33 -10q6 -10 6 -43q0 -57 -215 -311l-215 -258l197 -19q182 -20 280 4q53 12 74 11q39 -2 -63 -70q-51 -39 -95 -45t-232 5t-240 -9t-95 8q-29 20 -27 30t39 42q76 59 228 240t213 284q10 23 -164 -35l-19 -6q-281 -92 -280 -10
q0 39 37 61q36 22 108 23z" />
    <glyph glyph-name="a.002" horiz-adv-x="681" 
d="M323 469q21 14 61 85q40 72 70 226t8 194t-54 29t-97 -77q-158 -158 -194 -316q-15 -82 13 -118t100 -36q72 -1 93 13zM181 289q-64 0 -85 13q-20 14 -45 66t-28 103q-4 51 6 162q31 360 155 424q31 16 35 16t-33 -42q-38 -42 -70 -118t-32 -116q0 -13 17 17t26 48
q39 89 133 185t158 98t122 -84t65 -181t-38 -127t-39 -147q6 -116 22 -138t60 -10q45 12 50 6q4 -5 -16 -43t-66 -66t-66 -7q-25 20 -39 98l-22 78l-35 -71q-41 -78 -106 -121t-129 -43z" />
    <glyph glyph-name="aacute.002" horiz-adv-x="862" 
d="M100 409q0 -131 71 -143t185 113q64 67 84 105t25 102q6 219 -35 248q-23 14 -37 13t-57 -20q-92 -39 -164 -163t-72 -255zM582 805q-12 0 12 -31t2 -85q-53 -140 -37 -345q8 -104 52 -148t89 5t74 127q20 47 51 51q17 4 17 -23t-49 -123t-80 -129q-31 -41 -87 -41
q-56 1 -73 15q-18 14 -45 80t-27 112q0 45 -22 45q-23 2 -101 -63q-90 -80 -128 -90t-107 31q-68 41 -68 77q1 36 -21 54q-22 16 -11 71l12 76q2 13 4 29t4 24t2 13q17 117 109 235t173 142t124 11t96 -67t35 -53zM630 1458q38 0 44 -13t-5 -67t-65 -144q-54 -91 -80 -91
q-31 0 -26 33q0 27 28 102q48 114 56 141q10 39 48 39z" />
    <glyph glyph-name="acircumflex.002" horiz-adv-x="888" 
d="M459 1004q-19 0 -77 -26t-131 -94t-104 -128q-49 -94 -26 -211t94 -135q67 -14 137 34t73 110t62 210q39 88 47 118t4 48q-5 18 -33 46t-46 28zM655 863q1 -89 -33 -201t-73 -156q-35 -35 -10 -66q25 -23 103 1t154 77q75 53 70 21q0 -37 -94 -118t-156 -99t-114 12
q-54 30 -74 32q-20 1 -63 -22q-176 -86 -281 37q-59 72 -47 89t-7 30t-3 104q2 8 6 46t0 42q4 29 37 86q34 70 122 161t154 126q43 33 124 30t133 -73t52 -159zM723 1374l8 -71q10 -100 64 -140q33 -27 37 -37t-19 -28q-33 -23 -48 -21t-52 31q-47 31 -66 115l-24 82
l-86 -82q-14 -14 -31 -27q-76 -60 -104 -36q-35 31 139 192q51 49 104 90q27 20 53 8q12 -6 25 -76z" />
    <glyph glyph-name="adieresis.002" horiz-adv-x="835" 
d="M500 872q-45 45 -70 43q-25 -3 -81 -31t-93 -63q-84 -78 -134 -224t-3 -177q85 -52 197 18t153 203q12 47 31 86q14 39 24 45q46 30 -24 100zM534 379q42 0 144 78q117 96 133 69q4 -8 4 -22t-47 -61t-82 -74q-209 -172 -264 -41q-20 51 -57 37q-103 -49 -163 -59t-102 9
q-74 37 -80 132q-11 171 111 350q63 94 142 153q79 60 163 60t127 -58t70 -57q31 -10 23 -80t-49 -169q-42 -99 -85 -145t-37 -84q7 -38 49 -38zM477 1224q0 -80 27 -81q27 0 -14 -42q-41 -43 -72 -15t-31 130t16 113q47 33 61 4t13 -109zM702 1098q0 -113 -67 -33
q-45 51 45 293q24 55 60 50t33 -57q-3 -51 -37 -115t-34 -138z" />
    <glyph glyph-name="agrave.002" horiz-adv-x="878" 
d="M156 311q34 0 142 112t153 189q57 88 69 179q16 84 37 96q23 11 19 45t-36 64t-61 31t-94 -28q-102 -45 -180 -172t-99 -276q-14 -90 2 -165t48 -75zM375 1390q-1 -40 71 -123t123 -104q55 -16 39 -51t12 -71q28 -37 31 -103q2 -66 21 -66q8 0 -42 -136
q-49 -136 -79 -169q-15 -25 -23 -130t0 -123t52 -20q44 -3 79 19q37 27 113 115q57 70 80 67t-22 -90t-123 -169t-125 -82t-95 60q-47 60 -47 134v82l-133 -129q-49 -47 -103 -86t-73 -35q-55 10 -87 100t-22 211q10 120 29 182q20 62 92 189q72 117 181 189l114 77l-57 46
q-59 47 -99 137q-41 90 -18 129q20 43 66 18q45 -28 45 -68z" />
    <glyph glyph-name="b.002" horiz-adv-x="714" 
d="M616 836q19 57 -17 113t-56 59q-29 -2 -108 -43q-197 -102 -240 -200q-25 -53 -26 -153t7 -120t43 -31q51 -10 140 50q89 59 164 153t93 172zM315 377l-18 -2l-96 -19q-99 -20 -143 19t-35 94q4 23 17 23q27 0 51 208q23 208 30 240l49 395q9 123 22 147q14 24 40 0
t26 -96q0 -33 -10 -28q-2 0 -7 2q-13 5 -20 -41q0 -31 -6 -86q-8 -29 -21 -176t-4 -150t41 25q33 28 37 33q25 31 126 71q100 40 152 39q52 0 74 -12t42 -55q34 -64 32 -114t-38 -133t-170 -233t-169 -149z" />
    <glyph glyph-name="c.002" horiz-adv-x="681" 
d="M583 782q-34 0 -34 82q0 166 -100 193q-49 12 -121 -49q-109 -92 -197 -322q-53 -131 -42 -198t89 -103q51 -25 80 -25q68 0 158 52t144 100t77 47q59 0 -21 -91t-202 -151q-37 -14 -39 -16q-174 -57 -264 -3t-91 212q0 88 60 226q58 138 142 252t147 139q63 24 121 5
q58 -20 96 -74t50 -119q13 -65 -3 -111t-50 -46z" />
    <glyph glyph-name="ccedilla.002" horiz-adv-x="708" 
d="M211 872q128 193 303 201q90 4 133 -34q43 -37 41 -109t-42 -136t-51 -72t-52 7q-20 10 -25 15t27 42q39 39 39 115q4 49 -7 63t-71 18q-60 5 -150 -74q-90 -80 -147 -194t-59 -192t47 -106q102 -66 362 76q49 28 67 22t18 -20q-1 -14 -101 -88q-99 -74 -183 -116
t-92 -63q-12 -20 22 -48q34 -29 38 -93t-27 -84t-147 -24q-116 -5 -129 18q-13 24 15 46t74 22t72 14q26 16 24 30q-1 14 -31 58q-30 43 -29 104q0 61 -25 74q-49 31 -53 123q-8 191 139 405z" />
    <glyph glyph-name="d.002" horiz-adv-x="798" 
d="M588 963q-10 0 -78 32q-104 41 -208 -10t-155 -168q-90 -213 -30 -340q45 -94 138 -68t179 152q100 141 156 328q13 53 10 64q-2 10 -12 10zM688 382q0 -18 -56 -80t-72 -67t-34 19q-14 30 -7 144t28 175v9q-12 -6 -64 -85q-53 -79 -125 -130t-133 -54q-141 -4 -186 140
q-27 71 -15 189t66 226q53 108 121 153q68 46 170 54q101 8 161 -13t73 -14q34 18 67 236q12 125 20 148q14 26 42 26t34 -39q4 -39 -6 -191t-28 -226t-29 -130t-15 -70q-4 -15 -11 -41t-13 -41q-6 -16 -27 -66t-40 -148t-16 -114q3 -15 49 -4t46 -6z" />
    <glyph glyph-name="e.002" horiz-adv-x="722" 
d="M584 891q-18 33 -41 43q-39 8 -129 -62q-92 -76 -181 -188l-69 -88l98 16q164 25 268 115t54 164zM217 221q57 1 167 57t174 114t124 69q25 2 18 -15q0 -32 -297 -258q-55 -41 -144 -60q-89 -18 -140 8t-79 90t-8 174q20 108 99 235q127 201 272 307q82 58 148 64
q67 6 103 -46t34 -100q-2 -47 -45 -110q-106 -154 -336 -189q-137 -18 -162 -43q-23 -27 -30 -115q-17 -182 102 -182z" />
    <glyph glyph-name="eacute.002" horiz-adv-x="712" 
d="M467 770q-2 20 -33 16q-68 -14 -158 -95t-129 -163q-18 -37 0 -36q53 0 187 116q133 117 133 162zM692 485q0 -53 -59 -132t-128 -113t-186 -41t-185 29t-94 83q-24 47 -17 144q4 123 18 114q12 -12 65 64q99 125 235 200t191 9q54 -66 -38 -190t-252 -201l-131 -64
l39 -51q61 -80 196 -49q134 31 240 134t106 64zM481 1243q72 93 105 113t51 -10q11 -18 -103 -166t-138 -150q-24 0 -23 23q-1 59 108 190z" />
    <glyph glyph-name="ecircumflex.002" horiz-adv-x="659" 
d="M483 889l-4 49q-90 -20 -182 -92t-123 -148t-22 -88q16 -14 111 42t149 112q71 68 71 125zM184 851q80 81 172 129t120 49t63 -36t34 -65q-1 -66 -67 -159t-158 -163t-146 -70t-69 -34q-14 -35 14 -70q66 -76 312 45q109 48 134 56q26 7 25 -19q0 -22 -18 -22t-135 -78
t-195 -102t-100 -20q-23 5 -64 47t-70 155q-30 113 -5 131q23 27 49 86t104 140zM536 1145q-30 0 -61 35q-27 22 -42 20t-73 -43t-70 -11q-14 30 72 109q142 137 160 43q4 -18 26 -38t48 -30t35 -18q8 -6 4 -13t-36 -31q-33 -24 -63 -23z" />
    <glyph glyph-name="edieresis.002" horiz-adv-x="919" 
d="M582 918q-33 95 -287 53q-57 -12 -127 -85t-67 -133t75 -63q166 -6 309 88q111 76 97 140zM20 756q0 100 50 162t153 94q105 32 227 32t166 -34t36 -108q-9 -74 -70 -142q-62 -68 -96 -68t-62 -34t-43 -21q-18 10 -35 -12q-5 -21 -110 -21q-50 0 -55 -22t52 -78
q82 -80 191 -74q108 6 292 89t183 61q0 -14 -82 -56t-98 -59q-29 -35 -149 -83t-179 -48q-137 0 -254 133t-117 289zM856 1321q16 0 18 -10q6 -27 -18 -43t-25 -70q0 -54 -45 -55q-31 -1 -42 25t4 61q12 35 45 55q47 37 63 37zM360 1341q133 102 134 62q0 -29 -79 -121
t-102 -90q-69 16 -33 65q35 48 80 84z" />
    <glyph glyph-name="egrave.002" horiz-adv-x="696" 
d="M496 797q-4 41 -20 55t-58 16q-137 14 -248 -200q-49 -100 -26 -121q24 -19 132 21t168 104t52 125zM268 911q123 72 211 38t99 -154q4 -59 -10 -89t-72 -88q-147 -141 -322 -157q-43 -1 -56 -15q-14 -14 -22 -74t27 -109q35 -50 57 -57t80 1q150 29 330 178q44 41 62 45
t22 -2q6 -18 -43 -67t-109 -103t-164 -114q-106 -62 -170 -48q-139 37 -163 212q-25 175 79 397q45 93 79 135t85 71zM313 1300q25 104 185 -69q61 -71 72 -93t-13 -30q-37 -14 -100 18t-109 85q-46 52 -35 89z" />
    <glyph glyph-name="eogonek.002" horiz-adv-x="641" 
d="M137 654q0 -22 47 -38q57 -14 171 46t145 126q51 111 -25 170q-29 23 -43 25t-53 -14q-128 -63 -203 -214q-39 -79 -39 -101zM88 494q0 -111 84 -147t215 20q63 27 119 91q55 65 55 113q0 20 3 27t32 -20q25 -20 25 -40q1 -20 -21 -74t-88 -114t-104 -62q-38 -1 -54 -27
t4 -60q14 -31 34 -38t63 -1l71 12l-63 -24q-61 -31 -49 -60q12 -30 -7 -68t-51 -46t-130 4q-100 12 -120 34t-12 23q35 -17 126 9t87 38q-16 27 -39 88q-36 72 -80 72q-24 0 -83 46q-58 46 -70 79q-14 27 -15 94q0 182 110 355t251 220q98 35 168 -41q84 -83 37 -201
t-199 -208q-59 -35 -98 -43t-106 -2t-81 -1t-14 -48z" />
    <glyph glyph-name="f.002" horiz-adv-x="858" 
d="M723 1055q35 69 43 109t-8 106t-43 71q-27 6 -82 -67q-55 -78 -69 -138t-45 -155q-29 -94 -17 -129t56 -11t87 84t78 130zM584 374q0 -22 -34 -40t-108 -38t-94 -34q-22 -16 -22 -54t-18 -68t-32 -114q-16 -84 -18 -137q0 -29 -37 -28q-20 0 -25 11q-4 12 14 84t32 172
t7 108t-79 -25q-121 -66 -143 -6q-14 39 14 63q35 25 124 51t113 46t31 34q27 47 59 243t62 232t32 96q1 61 59 214q59 153 97 194q75 81 136 49q96 -46 80 -249q-2 -6 -2 -16q-4 -81 -74 -199q-69 -117 -146 -185q-76 -63 -118 -49q-18 5 -34 -23t-34 -96l-49 -172
q-6 -26 10 -32q17 -6 77 -2t97 -1q23 -7 23 -29z" />
    <glyph glyph-name="g.002" horiz-adv-x="1007" 
d="M687 895q-44 0 -97 -25t-53 -41t-45 -63q-72 -78 -35 -199q16 -51 52 -86t72 -35t99 33q62 33 114 73t43 55t-44 1q-14 -4 0 31q65 168 -11 221q-51 35 -95 35zM987 759q0 -65 -37 -167q-31 -100 -45 -214t-51 -218t-78 -133q-43 -25 -121 -22t-151 36l-49 18
q-23 7 -59 21t-82 30t-68 25q-215 78 -226 121q-4 16 19 39t149 -39q233 -111 455 -156q71 -12 99 17t58 139t29 170v45l-59 -45q-63 -51 -143 -60t-138 25q-63 33 -100 102t-30 165t81 180t191 126t225 -61q59 -59 72 -55q37 6 48 -9t11 -80z" />
    <glyph glyph-name="h.002" horiz-adv-x="753" 
d="M317 1444q11 0 27 -16t11 -45t-55 -149t-72 -190t-40 -165t-40 -154t-34 -90q-11 -31 1 -31q16 0 118 109q139 153 197 139t70 -205q2 -20 1 -54q-3 -87 23 -83q41 7 117 51q75 45 92 33q2 -6 -46 -60t-131 -126q-83 -70 -103 -50q-26 26 -36 192q-9 165 -21 176t-61 -27
q-50 -38 -94 -83q-44 -44 -44 -66t-66 -117t-80 -91q-23 2 -32 74t109 509t165 505q12 14 24 14z" />
    <glyph glyph-name="i.002" horiz-adv-x="468" 
d="M328 453q-228 -214 -288 -166q-28 23 -14 95t80 270q68 198 72 220t13 22q9 1 45 -11q30 -9 20 -57t-74 -215t-61 -193q3 -4 39 14t119 78q149 111 167 88t-118 -145zM221 1364q6 25 39 27q33 1 45 -19t-6 -96q-25 -86 -57 -162t-54 -72q-30 6 -18 102t51 220z" />
    <glyph glyph-name="icircumflex.002" horiz-adv-x="518" 
d="M246 1008q37 0 37 -23q1 -12 -49 -125t-93 -196q-20 -44 -31 -150t5 -121q23 -10 119 35t112 27q10 -9 -54 -59t-75 -60q-53 -47 -106 -47t-76 47q-29 51 0 203q28 152 98 299q35 78 66 124t47 46zM305 1368q0 34 43 -20q44 -54 58 -101t61 -94q31 -37 30 -44t-40 -19
q-53 -10 -113 51q-57 63 -70 41q-7 -30 -40 -1q-32 29 -28 41t42 56q57 57 57 90z" />
    <glyph glyph-name="idieresis.002" horiz-adv-x="460" 
d="M334 560q0 19 20 22q27 0 13 -33q-20 -59 -88 -115q-91 -68 -143 -81t-86 28t-27 131q2 90 57 225t57 205q9 82 27 107q6 12 22 19t31 3q76 -14 -29 -307q-45 -125 -61 -209t2 -95q17 -11 111 35t94 65zM131 1232q0 -42 27 -57q28 -15 16 -35t-53 -20t-68 31t-24 69
t34 57t49 8t19 -53zM348 1290q51 43 82 -12q27 -57 -2 -104q-8 -12 -16 -15q-31 -11 -57 11t-28 54t21 66z" />
    <glyph glyph-name="j.002" horiz-adv-x="714" 
d="M238 -57q8 1 36 81t0 107q-27 27 -98 -39q-36 -29 -28 -77t32 -31q6 6 18 -1t22 -25q9 -18 18 -15zM338 135q8 0 10 2q14 6 17 -14q10 -49 -25 -127q-18 -53 -25 -107q-5 -29 -69 -29t-90 19q-26 18 -80 104q-56 86 -56 107q0 27 70 60t137 36q96 10 97 25q2 27 80 255
q79 228 121 326t30 99q-4 0 -27 -17q-47 -31 -84 0q-18 13 -11 32q7 20 107 82t128 63q18 2 24 -31t-3 -74q-9 -42 -31 -64t-128 -279q-104 -257 -118 -327t-48 -106q-34 -35 -26 -35z" />
    <glyph glyph-name="k.002" horiz-adv-x="1003" 
d="M504 813q-12 39 -53 30q-70 -15 -162 -190q-31 -55 -17 -67t76 34t112 106q52 62 44 87zM983 385q0 -20 -80 -72q-78 -59 -79 -88t-31 -28q-59 8 -156 112q-117 117 -211 148q-76 29 -100 27t-82 -28q-57 -26 -82 -54q-24 -28 -44 -93t-56 -98t-40 -15t5 140
q8 124 43 208q34 84 34 125q0 42 48 208t66 229l27 99q23 92 27 100q31 152 72 173q23 11 37 -16q10 -10 -18 -115t-136 -497l-41 -158q-16 -74 -6 -71q12 3 50 83t122 175q68 71 84 77t68 -16q70 -39 73 -113t-65 -157l-68 -82l107 -82q104 -76 160 -137l53 -56l57 43
q57 47 133 47q29 -4 29 -18z" />
    <glyph glyph-name="l.002" horiz-adv-x="567" 
d="M354 1433q0 38 40 48t59 -21q14 -23 -118 -287q-132 -263 -176 -381t-63 -270q-8 -53 -2 -80t31 -49q53 -49 138 2t192 193q61 80 85 64t-26 -113q-50 -95 -169 -195q-120 -100 -184 -100t-102 66q-80 145 -3 411q40 138 165 391q133 283 133 321z" />
    <glyph glyph-name="m.002" horiz-adv-x="841" 
d="M762 289q-23 0 -23 218t-37 345l-36 123l-41 -90q-43 -96 -83 -260t-74 -194q-34 -31 -40 -27q-10 6 -11 261t-42 259q-20 2 -66 -67t-111 -240q-64 -171 -66 -219t-69 -111q-25 -25 -32 -17q-33 31 24 390q57 358 99 400t48 -7q7 -49 -14 -121q-53 -164 -28 -174
q10 -4 44 70t102 160q70 85 100 80t58 -63q28 -59 28 -123t16 -65q23 0 39 84q49 178 98 210t103 -77q26 -45 36 -128t18 -301t18 -226q8 -8 -16 -49t-42 -41z" />
    <glyph glyph-name="n.002" horiz-adv-x="649" 
d="M478 918q-22 0 -90 -110t-157 -294q-87 -184 -123 -238t-63 -48t-24 82t33 228t56 302t80 231q23 29 54 26q63 -6 -2 -141q-23 -49 -63 -218t-40 -212q4 -10 31 43l45 90q49 107 147 249t144 171q27 20 46 6t23 -89q4 -74 -1 -334t12 -261q18 25 28 25q23 -2 9 -78
q-15 -51 -57 -92t-64 -27q-20 13 -12 351q10 338 -12 338z" />
    <glyph glyph-name="o.002" horiz-adv-x="800" 
d="M397 803q35 23 17 24h-11q-69 2 -149 -99t-123 -230q-43 -128 -31 -180t86 -108t169 -57t180 50q76 43 116 118q41 75 43 125t-23 121q-27 72 -93 124t-137 51t-74 28q-1 17 30 33zM20 361q0 79 70 231t145 229q75 78 103 89t140 1t171 -59q59 -48 93 -162t38 -158
q2 -44 -22 -148q-49 -221 -295 -294q-152 -45 -252 -12t-160 147q-31 57 -31 136z" />
    <glyph glyph-name="oacute.002" horiz-adv-x="780" 
d="M647 564q0 86 -12 117q-13 30 -73 83t-112 60q-52 6 -147 -40t-155 -146t-49 -202t81 -158t154 -50t165 60q148 98 148 276zM270 836q188 90 357 22l84 -33l2 -182q2 -211 -78 -329t-252 -158q-74 -18 -108 -16t-91 28q-90 43 -132 134q-42 92 -30 194t80 196
q66 94 168 144zM731 1458q66 0 -19 -119t-159 -268q-86 -178 -86 -55q2 68 170 336q25 38 55 72t39 34z" />
    <glyph glyph-name="ocircumflex.002" horiz-adv-x="698" 
d="M461 760q-37 66 -102 88t-129 -9q-64 -30 -99 -98q-78 -174 -2 -333q35 -76 88 -98t140 -8t127 49q40 36 53 116q12 80 -17 134q-30 53 -24 73t-35 86zM322 936q36 0 105 -31t103 -79t50 -134q35 -199 2 -295t-156 -161q-166 -84 -324 61q-59 49 -70 82q-10 33 -10 163
t52 232q52 104 137 137q75 25 111 25zM369 1262q195 109 219 65q4 -8 4 -20q2 -104 51 -162q71 -75 -7 -67q-38 4 -63 38q-29 33 -67 113q0 2 -33 -10t-61 -29q-141 -74 -170 -27q-6 8 35 40t92 59z" />
    <glyph glyph-name="odieresis.002" horiz-adv-x="1130" 
d="M644 289q112 0 217 94t157 240q26 74 26 83t-32 9t-31 51q0 51 -26 78q-27 26 -111 28t-98 -19t-54 -10q-41 11 -90 -46t-82 -156q-53 -164 -20 -258q32 -94 144 -94zM64 1030q38 0 38 -20q0 -28 -24 -34t-41 19q-18 25 -15 30q4 5 42 5zM727 1178q23 20 51 6t47 -56
q16 -50 -2 -74t-59 -7q-23 7 -37 61t0 70zM647 199q-141 0 -202 102q-60 102 -15 272q43 171 126 269t183 98q70 0 115 34t84 34t48 8t3 24q-16 33 27 103t78 69q24 -2 8 -57t-18 -93t-19 -65q-16 -27 8 -57q23 -39 19 -184t-31 -209q-59 -141 -182 -245t-232 -103z" />
    <glyph glyph-name="p.002" horiz-adv-x="731" 
d="M643 735q-2 77 -44 181t-88 152t-75 50t-65 -39q-84 -88 -92 -307q-6 -129 -25 -231l-16 -99l98 17q150 25 232 99t75 177zM299 356h-96l-23 -106q-2 -12 -9 -46q-21 -103 -44 -224t-68 -119q-35 0 -39 28q-4 33 43 210t49 256t24 107t52 288q18 133 65 259
q46 126 94 181q47 55 107 41t113 -88q167 -225 141 -441t-198 -301q-90 -45 -211 -45z" />
    <glyph glyph-name="q.002" horiz-adv-x="612" 
d="M313 760q15 20 59 27t56 57t-23 92q-34 41 -114 11q-156 -58 -186 -283q-13 -104 9 -182t84 -86q64 -9 124 40q59 42 74 110q14 68 24 98t5 36t-23 0t-45 9q-28 15 -43 38t-1 33zM274 1038q117 41 207 -53q68 -68 90 -67q23 -6 21 -64q-8 -134 -104 -330t-145 -347
q-48 -151 -42 -212t-2 -77t-43 -23q-35 -6 -37 18q-6 31 45 235t45 210t-63 -15q-104 -41 -167 31t-59 224t81 292t173 178z" />
    <glyph glyph-name="r.002" horiz-adv-x="645" 
d="M223 784q17 42 4 41q-12 2 -21 -24q-9 -27 -2 -33t19 16zM227 954q29 0 19 -59q-2 -29 2 -34t28 15t137 53q112 34 147 34t48 -7q36 -20 10 -69t-96 -42t-148 -39t-120 -129q-43 -83 -129 -343q-35 -98 -72 -101q-12 -3 -20 9q-9 12 -15 54t45 273q52 231 91 308t73 77z
" />
    <glyph glyph-name="s.002" horiz-adv-x="548" 
d="M248 985q182 0 248 -100q24 -37 26 -59t-16 -58l-19 -33q-29 -33 -81 76q-26 47 -88 79t-108 16t-44 -72q4 -121 192 -326q125 -139 160 -221q31 -86 -26 -144q-33 -31 -70 -33q-36 -2 -142 30q-106 30 -183 76t-77 81q0 25 26 40t56 9q29 -10 35 -33q10 -37 90 -75
t145 -39q64 0 64 38t-59 127t-121 138q-119 106 -162 239q-42 133 21 205q37 39 133 39z" />
    <glyph glyph-name="germandbls.002" horiz-adv-x="1019" 
d="M815 731q-59 55 -103 65t-171 -5q-61 -10 -76 -52q-15 -43 -37 -226t-36 -247t-3 -78q10 -14 55 -24q109 -24 221 32t181 164q139 221 -31 371zM856 1208q-55 43 -130 46t-112 -35q-30 -41 -58 -145t-38 -136q-10 -31 35 -37q82 -12 203 47q251 136 100 260zM38 -86
q9 0 34 -4q53 -10 98 28q46 38 66 101t15 85t-46 60q-104 111 10 152q43 15 43 2l-4 -16q-6 -12 -3 -22t11 -11t20 25t26 122q16 96 42 204t35 165q49 223 127 467l23 71l178 -4q150 -5 207 -37t72 -114q16 -82 -20 -150t-110 -108l-67 -41l69 -60q86 -73 111 -187t-19 -234
q-82 -223 -340 -308q-131 -44 -186 -32q-56 12 -74 0t-57 -87t-69 -98t-114 -19t-93 26q-7 24 15 24z" />
    <glyph glyph-name="t.002" horiz-adv-x="602" 
d="M370 918q64 0 66 -29q2 -37 -102 -80q-10 -4 -47 -14q-57 -16 -109 -129q-52 -114 -53 -214q-2 -100 7 -116t69 -22t209 73q172 86 172 43q4 -16 -23 -45q-76 -88 -242 -145t-243 -21q-35 14 -44 38q-10 25 -10 115t56 236q57 134 57 198t35 84q36 20 94 143
q58 124 70 136q30 35 56 22t25 -35t-29 -90q-28 -67 -59 -102q-31 -34 -25 -40t70 -6z" />
    <glyph glyph-name="u.002" horiz-adv-x="727" 
d="M596 958l4 80q2 14 25 16q56 6 77 -34q12 -37 -1 -124q-39 -264 -216 -486q-100 -127 -216 -170t-195 36q-61 58 -51 216t96 512q10 41 40 47q29 6 55 -25t-24 -174t-67 -272q-16 -129 4 -187q61 -141 258 31q91 78 151 218t60 316z" />
    <glyph glyph-name="uacute.002" horiz-adv-x="933" 
d="M668 972q0 50 30 58q31 8 45 -30t-49 -234q-158 -477 -32 -477q35 0 135 57t110 47t-8 -14q-29 0 -29 -29q0 -8 -26 -38t-72 -64q-96 -74 -158 -63q-61 11 -98 106l-35 88l-73 -57q-68 -48 -153 -66q-166 -34 -218 108q-25 69 -15 134t89 243q78 178 118 240q33 8 55 -15
q23 -23 23 -48q-4 -45 -51 -106q-47 -60 -98 -176q-52 -116 -52 -180t48 -96q48 -33 116 -14q70 14 131 80q135 137 166 354q10 74 23 99q12 31 37 32q41 11 41 61zM582 1180q0 18 93 204t103 187q37 -2 53 -30t5 -64q-25 -61 -115 -185t-113 -127q-25 0 -26 15z" />
    <glyph glyph-name="ucircumflex.002" horiz-adv-x="671" 
d="M20 480q0 132 35 262t66 130q10 0 12 -6q8 -23 -43 -235q-51 -236 49 -348q39 -43 83 -35t112 74t96 130q28 62 52 210t44 241q14 51 26 63t40 -10q26 -22 24 -104t-39 -194t-41 -225q-4 -112 21 -138q16 -10 44 11t42 26q27 2 -4 -64t-69 -72q-38 -8 -70 32t-37 112
q0 8 -2 14q-2 25 -72 -57q-74 -94 -126 -123t-105 -2q-76 32 -107 104t-31 204zM313 1335q117 98 127 101q31 2 79 -133t27 -149t-65 35q-43 50 -45 85q0 53 -92 -17l-20 -14q-43 -37 -63 -43t-33 9t3 40t82 86z" />
    <glyph glyph-name="udieresis.002" horiz-adv-x="737" 
d="M481 299q0 49 -12 53q-15 2 -67 -58t-124 -100t-124 -40q-84 0 -118 128t24 414q72 355 147 303q11 -8 -15 -106t-55 -145q-25 -60 -32 -242t38 -248q35 -33 117 16q82 50 152 150t69 194q0 62 34 108q33 46 33 118t27 141q15 53 25 58t36 -31t12 -70q-14 -33 -48 -200
q-35 -167 -47 -265t33 -178q35 -61 63 -10q12 23 47 22q38 0 10 -47t-81 -69q-53 -29 -99 13t-45 91zM549 1075q-27 -1 -35 71t20 115q27 43 58 39q27 -6 14 -49q-4 -6 -12 -54t-22 -85t-23 -37zM397 1323q29 0 31 -20t-6 -84q-18 -139 -53 -140q-12 0 -21 8q-20 12 -16 95
t24 116q12 25 41 25z" />
    <glyph glyph-name="ugrave.002" horiz-adv-x="780" 
d="M189 940q44 0 35 -48t-50 -135t-52 -143t-9 -143q4 -160 53 -198q49 -37 128 47t110 180q32 96 59 321q8 59 38 89t56 5q33 -25 30 -81t-37 -162t-38 -276t23 -198q27 -26 117 54t106 53q6 -8 -16 -49q-22 -42 -90 -106t-98 -64t-76 74t-46 120t-7 46t-71 -72t-132 -90
t-124 26q-78 66 -78 263t80 381q45 106 89 106zM246 1374q20 24 53 6t103 -100t67 -96q-2 -14 -40 -24q-37 -10 -63 3q-26 11 -72 65t-58 89q-17 34 10 57z" />
    <glyph glyph-name="v.002" horiz-adv-x="604" 
d="M31 796q-27 257 5 294q32 36 60 28t33 -63q6 -55 8 -237t11 -255q9 -72 38 -127l43 -88l52 72q47 68 104 220t68 245q23 139 73 133q10 -2 33 -21q39 -33 16 -73q-14 -31 -67 -197q-78 -252 -223 -438q-45 -57 -85 -29t-94 154q-49 125 -75 382z" />
    <glyph glyph-name="w.002" horiz-adv-x="860" 
d="M796 1413q36 0 42 -16t-6 -86t-34 -82t3 -21q14 -6 -19 -252t-56 -320q-24 -74 -86 -185t-93 -138t-92 23t-101 137l-37 86l-63 -102q-26 -43 -56 -72t-46 -29q-52 0 -96 188t-33 386q2 114 12 136t47 22t45 -34t10 -285t21 -267q10 -6 18 2q27 16 57 100q31 84 31 140
t33 81q29 27 65 11t37 -64q0 -48 38 -173q37 -126 59 -146q22 -19 36 -11t52 73t75 233t49 376t33 249q19 40 55 40z" />
    <glyph glyph-name="x.002" horiz-adv-x="978" 
d="M467 1120q23 -29 38 -137q15 -107 31 -127t74 22t158 144t121 113q19 12 39 5t26 -31q6 -23 -22 -59t-198 -174q-172 -138 -173 -163q0 -14 45 -130t58 -134q10 -5 102 63t101 60t9 -32t-98 -126t-127 -102t-75 71q-46 73 -77 169q-32 96 -45 96t-128 -97
q-256 -215 -293 -201q-12 6 -13 29q0 10 213 192q125 103 168 147t33 62q-16 47 -35 157q-18 111 -17 143t31 49t54 -9z" />
    <glyph glyph-name="y.002" horiz-adv-x="651" 
d="M592 967q0 -4 22 -4t17 -17q0 -46 -84 -244q-188 -443 -375 -768q-45 -74 -94 -73q-33 0 -38 8t11 35q18 43 45 57q35 25 79 127t26 96q-59 -24 -105 100t-62 299q-15 175 -12 220q4 45 30 69t50 17q18 1 22 -197q5 -198 16 -266t33 -91q22 -22 35 -21t48 32
q76 70 171 289t95 328q0 57 28 85t44 26t30 -37q14 -34 -10 -50q-22 -16 -22 -20z" />
    <glyph glyph-name="z.002" horiz-adv-x="761" 
d="M672 244q56 0 51 -29q-10 -29 -87 -35q-78 -6 -140 20t-141 24t-129 -35q-50 -31 -109 -29t-79 35t-13 47q11 14 79 42t97 28t65 50q36 52 147 259q112 207 111 219h-6q-8 0 -90 -24t-125 -50t-80 2q-100 72 129 133l21 6q164 41 219 69t98 30t49 -8t-4 -40
q-8 -45 -112 -157q-94 -96 -168 -254q-74 -145 -90 -160q-20 -12 -21 -33q0 -26 20 -12t136 -22q115 -36 127 -56q13 -20 45 -20z" />
    <glyph glyph-name="zero.001" horiz-adv-x="626" 
d="M231 334q55 -25 75 -23t78 43q58 42 106 142t48 179t-52 191q-54 112 -102 159q-48 48 -72 42t-70 -59q-86 -96 -122 -240t-5 -270q31 -125 116 -164zM436 1084q0 -8 54 -80q54 -70 76 -114t35 -135t-26 -216t-114 -215q-53 -60 -84 -78t-88 -19q-125 0 -206 130t-58 292
q68 423 299 525q74 34 122 30t103 -45q106 -82 16 -133q-27 -14 -38 -10t-16 26t-21 36t-34 14q-20 0 -20 -8z" />
    <glyph glyph-name="one.001" horiz-adv-x="604" 
d="M170 356q0 -76 -40 -98t-62 14q-8 12 81 248t191 469l39 92l-111 -104q-190 -182 -237 -111q-18 32 -2 50t97 59t213 186t159 217q18 57 57 52q37 -10 27 -62t-79 -186q-69 -133 -201 -461t-132 -365z" />
    <glyph glyph-name="two.001" horiz-adv-x="698" 
d="M657 500q47 0 -18 -80q-18 -25 -23 -29l-61 -76l-86 37q-135 57 -328 -39q-43 -20 -82 -9t-39 43t92 129q92 98 156 196t115 162q63 66 90 141q30 70 51 72q20 0 20 55t-7 64q-8 9 -51 -6q-42 -15 -96 -71q-54 -57 -76 -117t-44 -81q-23 -21 -32 8q-12 25 -6 84
q7 59 31 97q25 38 103 108t121 88q125 51 142 -53q24 -161 -205 -461q-6 -6 -21 -27l-45 -63q-44 -62 -53 -72l-98 -141l94 24q100 20 152 6q179 -43 182 -12q0 23 22 23z" />
    <glyph glyph-name="three.001" horiz-adv-x="854" 
d="M178 297q68 0 201 30q133 31 182 71t49 108t-39 106t-111 54t-75 57t57 70t153 119t126 150q33 62 35 84t-29 54q-31 31 -55 23t-88 -88t-80 -56q-6 12 -6 54q-1 96 112 174q51 35 84 35t69 -26t54 -67q66 -158 -151 -381q-111 -117 -101 -135q33 -12 76 -65
q43 -52 56 -104t-19 -138t-82 -119q-80 -55 -268 -90t-256 -10q-49 16 -52 63q-2 47 46 72q28 14 36 12t9 -24q-1 -33 67 -33z" />
    <glyph glyph-name="four.001" horiz-adv-x="428" 
d="M354 1434q100 0 6 -144q-37 -53 -93 -212t-92 -300t-17 -141q28 1 96 63t100 35q18 -14 9 -52t-18 -83t-27 -85t-5 -97q9 -66 -31 -105t-66 -7t-2 131t24 114q-18 9 -82 -28q-64 -38 -86 -41t-37 18q-23 36 -5 80t98 335q81 291 136 412q57 107 92 107z" />
    <glyph glyph-name="five.001" horiz-adv-x="894" 
d="M20 425q0 73 107 130q16 10 16 -6q-6 -25 -19 -57t-12 -52q1 -18 23 -30q43 -29 96 -20t101 58q48 50 49 108q0 58 -55 163q-119 215 -155 297t-36 127t30 88t62 43q20 0 21 37q0 23 45 27t233 -4q188 -7 235 9q46 17 80 7q33 -10 33 -16t-54 -34q-54 -30 -177 -59
t-170 -18q-51 6 -119 -20t-92 -50q-43 -45 29 -182q43 -83 104 -185t61 -216t-67 -185q-55 -66 -145 -84q-90 -17 -157 17t-67 107z" />
    <glyph glyph-name="six.001" horiz-adv-x="673" 
d="M143 569q17 -1 -17 -35t-11 -116t89 -107t134 3t126 80t75 104q28 102 -68 161q-61 37 -87 40t-94 -17t-136 -80q-33 -33 -11 -33zM332 762q130 0 170 -9t77 -47q36 -38 42 -102q12 -139 -99 -260q-55 -61 -145 -101q-89 -40 -153 -36t-127 56q-62 52 -70 83t1 160
t132 364q122 235 273 389t189 138t28 -43t-89 -99q-121 -104 -181 -177t-112 -173l-65 -135q-1 -8 129 -8z" />
    <glyph glyph-name="seven.001" horiz-adv-x="688" 
d="M164 512q-100 0 -119 8q-25 6 -25 37t18 38t74 4q54 -3 110 -3t77 12l29 17q28 16 69 140t66 168t25 88q0 45 38 157q39 112 9 112q-16 0 -52 -22q-45 -35 -169 -83q-124 -49 -164 -57t-62 11q-76 61 53 94q7 2 71 13t164 50t168 87t97 51q25 0 27 -33t-21 -76t-41 -131
q-100 -360 -157 -489q-23 -41 -7 -68t56 -6l2 -2q-8 -12 -41 -39q-86 -74 -176 -471q-33 -133 -68 -137q-12 -2 -29 14q-27 27 43 238t66 251q-6 31 -96 27h-35z" />
    <glyph glyph-name="eight.001" horiz-adv-x="606" 
d="M227 705q-12 1 -67 -99q-54 -100 -60 -213t33 -151t52 -34t57 52q44 49 49 122q6 73 -21 198t-43 125zM248 864q16 0 53 56t61 112q10 38 6 58t-41 67q-36 47 -90 48t-71 -56q-10 -43 24 -164t58 -121zM373 1239q0 -8 40 -56q40 -47 40 -97t-70 -170t-94 -119
q-13 0 -17 -23t7 -45q7 -25 27 -32t29 -59t9 -186t-11 -170t-52 -79q-86 -88 -145 -62q-58 27 -89 103t-27 162t60 202q55 117 90 144q16 14 14 45q-6 31 -39 98q-145 331 19 403q62 25 202 12t179 -46q37 -38 41 -52t-14 -42t-32 -26q-13 3 -46 30q-58 58 -114 66
q-7 1 -7 -1z" />
    <glyph glyph-name="nine.001" 
d="M821 969q0 4 5 15q5 12 -3 28t-12 0q-4 -8 -3 -26q2 -34 13 -17zM397 1022q1 -70 13 -99q12 -28 47 -57q94 -74 225 -24q45 16 51 34t-10 118q-16 98 -18 158t-35 77q-33 23 -60 21q-26 -2 -92 -32t-94 -78t-27 -118zM604 1319q78 0 111 -14t82 -60q76 -80 90 -161
t-33 -186t-47 -178t-36 -162t-90 -144t-100 -44t-71 -8q-14 -8 -30 -8t-48 17l-22 10q-18 4 -110 37t-142 35q-51 2 -103 43q-31 31 -33 40q-2 10 26 34t69 1q100 -51 227 -77t240 -21q109 10 139 217q2 29 6 45q0 17 -2 27t-29 0q-162 -62 -276 16t-115 252q-1 68 49 148
t109 112q61 29 139 29z" />
    <glyph glyph-name="zero.002" horiz-adv-x="700" 
d="M530 1214q0 39 -85 -12t-134 -117q-4 -5 -53 -67t-90 -156t-53 -157q-33 -172 8 -283t139 -111q59 0 176 116t137 198q37 123 15 252q-8 57 -31 55q-4 0 -9 -4t-18 12q-29 41 -18 82q4 12 -11 66t3 86q24 24 24 40zM621 1122q-1 -106 29 -168t30 -107q0 -46 -29 -173
q-29 -128 -67 -192q-122 -207 -273 -274q-53 -24 -112 -10t-109 78q-55 76 -63 200q-17 258 146 540q83 144 200 250q248 219 248 -144z" />
    <glyph glyph-name="one.002" horiz-adv-x="495" 
d="M219 679q0 36 27 36q20 0 7 25q-7 13 38 162t28 226q-3 16 -16 6q-14 -10 -42 -22t-66 -35q-137 -68 -168 -22q-29 37 20 69q17 14 69 24t136 72t108 116q25 54 67 54t47 -12q5 -14 -6 -74t-146 -554q-43 -146 -73 -244t-39 -194q-8 -96 -26 -139q-18 -44 -50 -32t-37 14
t13 111q19 109 64 243t45 170z" />
    <glyph glyph-name="two.002" horiz-adv-x="647" 
d="M309 1233q104 63 176 37t82 -130q10 -103 -41 -249q-49 -127 -157 -287l-113 -170l137 -6q133 -8 167 19t54 10q33 -25 -24 -88q-35 -43 -78 -53t-219 -12q-176 -3 -224 2t-49 28q0 12 20 32t44 29q53 27 157 161q259 338 234 550q-6 43 -24 60q-48 46 -154 -64
q-53 -54 -73 -102t-40 -64q-44 -35 -58 42q-7 38 55 127t128 128z" />
    <glyph glyph-name="three.002" horiz-adv-x="808" 
d="M398 379q-114 0 -242 41t-133 78q-11 51 36 51q41 0 107 -27q145 -55 305 -36t209 100q30 45 -20 120t-144 137t-103 94q-9 31 47 59t144 110t88 102q0 44 -114 8t-170 -106q-31 -39 -43 -43q-12 -5 -45 19t-32 35t44 57q98 108 260 147q80 18 106 14t62 -39
q92 -92 -98 -266l-95 -86l82 -82q84 -78 111 -168t-10 -160q-38 -70 -138 -114q-100 -45 -214 -45z" />
    <glyph glyph-name="four.002" horiz-adv-x="555" 
d="M451 1366q16 0 38 -25q20 -27 -141 -385q-143 -307 -137 -335q15 -38 184 122q98 94 125 82q39 -14 -41 -272q-35 -113 -27 -175t-12 -98t-57 -36q-27 0 -37 68t18 176q28 106 9 106q-8 0 -33 -23t-110 -67t-123 -77q-38 -34 -52 -36q-14 -1 -28 15t5 74q18 58 126 275
t118 259q34 133 50 184t30 53q25 11 25 37t27 52t43 26z" />
    <glyph glyph-name="five.002" horiz-adv-x="784" 
d="M449 621q0 -141 -80 -197t-211 -12q-131 43 -138 88q-6 45 109 69q49 8 61 6q8 -7 6 -31t10 -35t64 -16t76 21t18 118q-5 91 -38 124q-35 40 -35 66t-24 36t-107 126q-84 116 -71 192t140 135q99 47 317 53t218 -12q-2 -43 -48 -74t-123 -26q-77 6 -229 -18t-166 -50
q-15 -26 3 -70q18 -42 99 -152t115 -185t34 -156z" />
    <glyph glyph-name="six.002" horiz-adv-x="980" 
d="M156 670q-14 0 -45 -56t-31 -87q0 -32 41 -78q29 -39 33 -25t7 130t-5 116zM463 760q-29 0 -49 7t-19 15q-2 25 -26 25q-43 -4 -74 -51q-57 -94 -52 -218t73 -160t180 40q111 76 131 178q12 60 -41 112t-123 52zM379 900q0 -8 -2 -15t10 -11q13 -4 19 -7t30 -8t79 -21
q56 -16 71 -17q70 -17 108 -79t23 -137q-14 -75 -96 -174t-164 -138q-180 -90 -258 31q-37 54 -54 42q-16 -10 -62 54t-59 118t54 150q68 96 108 111q39 10 97 98q51 86 203 245q153 158 182 158t127 80q96 72 143 61t0 -65q-8 -12 -25 -24q-59 -56 -89 -76t-56 -20
t-128 -87q-104 -85 -158 -145t-67 -75t-25 -28t-11 -21z" />
    <glyph glyph-name="seven.002" horiz-adv-x="835" 
d="M555 760q37 0 45 -21q4 -30 -121 -72q-15 -5 -35 -12t-38 -27t-38 -70q-20 -48 -33 -79t-40 -93t-35 -98t12 -46q14 -12 13 -25q-6 -14 -40 -41t-50 -30t-37 16q-22 29 -4 83t88 193t71 158q0 25 -127 2q-100 -14 -133 -5t-33 58q0 29 42 42t84 5t130 16q86 24 116 52
t96 144t122 262q55 146 36 162t-132 -41q-113 -56 -168 -71q-55 -14 -64 -8q-10 6 -8 34t14 50t25 15q19 -13 189 69t207 123q66 72 104 29q15 -12 -53 -192t-113 -251q-45 -70 -51 -106q14 -2 -21 -37q-35 -47 -35 -60q0 -12 -20 -56t-34 -53t8 -14q24 -5 61 -5z" />
    <glyph glyph-name="eight.002" horiz-adv-x="600" 
d="M199 479v90q-6 106 -19 158l-14 68l-39 -58q-39 -55 -36 -97t52 -97zM404 1346q-92 0 -91 21q-1 21 -27 25t-62 -10q-36 -12 -52 -32q-31 -31 -37 -133q-7 -101 13 -189t53 -88q16 0 131 123t133 164q31 55 11 87q-22 32 -72 32zM139 1448q59 39 227 25t197 -62
q84 -135 -235 -463l-109 -114l25 -111q66 -303 16 -342q-37 -31 -85 -5t-93 99q-123 186 -6 326l55 65l-43 127q-41 109 -47 184q-7 75 25 159t73 112z" />
    <glyph glyph-name="nine.002" horiz-adv-x="733" 
d="M399 764q10 0 43 29q109 98 72 262q-14 69 -11 91t32 44q40 37 30 53q-33 29 -97 -11t-102 -113t-40 -183t30 -140q32 -32 43 -32zM653 796q0 -220 -9 -292t-54 -182q-44 -110 -96 -147q-52 -38 -86 -39t-165 30q-133 30 -183 60t-41 61t61 42q93 19 127 -5q10 -8 9 -18
t11 -15q25 -12 127 -15h148l28 91q31 84 43 270l11 180l-86 -84q-74 -70 -115 -80t-78 35q-88 104 -60 257t84 252t128 126q49 20 107 5t102 -62q43 -49 46 -90q3 -40 -28 -100t-31 -280z" />
    <glyph glyph-name="asterisk.001" horiz-adv-x="722" 
d="M430 1352q0 -28 -17 -84t-15 -70t35 -14q32 0 87 29q54 29 118 25t64 -32q0 -18 -98 -66t-135 -48q-63 0 -35 -48q20 -36 104 -126t80 -105q-4 -10 -28 -12q-53 -10 -137 61l-86 68l-15 -90q-10 -53 -18 -72q-8 -12 -22 -14q-32 -4 -44 32q-6 20 -2 109l8 131l-84 -35
q-170 -74 -170 8q0 70 121 70q27 0 27 8q2 12 -76 78t-65 102q9 17 35 31t50 10t23 -22q0 -10 75 -62t93 -53q7 0 23 109q12 111 27 126t46 -1t31 -43z" />
    <glyph glyph-name="backslash.001" horiz-adv-x="428" 
d="M119 989q-37 248 -67 374q-30 127 -32 161t17 58q20 24 37 24q45 2 63 -168q88 -632 112 -739q23 -107 61 -200t56 -103t28 -34q12 -24 14 -50t-8 -40t-38 -18q-53 -8 -75 57q-111 291 -168 678z" />
    <glyph glyph-name="bullet.001" horiz-adv-x="405" 
d="M26 754q15 62 92 132t128 68t94 -90q111 -215 -70 -309q-70 -35 -138 -19t-89 72q-33 84 -17 146z" />
    <glyph glyph-name="colon.001" horiz-adv-x="405" 
d="M104 410q31 0 37 -16t-5 -73q-11 -59 -35 -99q-25 -40 -51 -40t-27 43q-5 45 17 115t64 70zM289 946q8 33 26 47q19 14 37 3t28 -50t-1 -72q-12 -33 -41 -32q-74 0 -49 104z" />
    <glyph glyph-name="comma.001" horiz-adv-x="348" 
d="M229 375q29 68 82 2q41 -47 -15 -179t-154 -219t-118 -70t58 109t125 188q47 97 22 122q-12 12 0 47z" />
    <glyph glyph-name="exclam.001" horiz-adv-x="364" 
d="M129 312q0 -28 -23 -36t-49 3q-49 20 -32 63q3 17 23 28q20 10 50 -10t31 -48zM248 1372q16 29 45 37t49 -12q10 -12 -35 -119q-104 -238 -149 -488q-44 -250 -54 -256t-30 13q-33 25 -23 121q2 62 83 348t114 356z" />
    <glyph glyph-name="numbersign.001" horiz-adv-x="1019" 
d="M289 676q-10 -54 8 -58q17 -4 71 12t90 28q36 11 64 31t43 67q16 47 5 58t-60 -7l-117 -33q-61 -16 -79 -32t-25 -60v-6zM401 1479q41 0 41 -64t-45 -223q-57 -223 -57 -264t17 -45t103 11t111 30q23 16 29 53q45 227 96 364t86 138q29 -1 34 -55t-18 -68
q-22 -14 -70 -162t-48 -194q0 -44 22 -48q18 -6 138 -2q90 8 131 4q29 -6 28 -30q0 -39 -53 -61q-53 -21 -142 -21t-128 -27q-35 -29 -48 -78t1 -45q4 0 13 6q10 6 26 -12t-17 -39q-33 -20 -41 -52t-12 -146q-2 -199 -35 -209q-14 -6 -35 14q-20 20 -24 55t6 143t-2 129
q-12 22 -74 -8q-116 -57 -146 -84t-42 -95t6 -62q16 10 18 -17q2 -53 -34 -142t-54 -28q-14 41 -14 144v162l-72 -13q-76 -12 -76 19q0 80 99 100q53 13 65 29t29 94l8 41q2 12 0 20q-7 11 -59 -9t-86 -20t-48 32q-28 68 114 91q70 11 94 24q22 13 26 46t43 225t50 270
q11 79 46 79z" />
    <glyph glyph-name="period.001" horiz-adv-x="141" 
d="M37 197q-29 18 -14 98q14 80 47 78q16 0 34 -25q18 -33 14 -74t-28 -66t-53 -11z" />
    <glyph glyph-name="question.001" horiz-adv-x="483" 
d="M64 160q-38 0 -42 60q-6 60 27 93t86 23q31 -2 42 -13t6 -49t-43 -76t-76 -38zM236 1366q90 35 139 -2q49 -38 71 -132t16 -147q-5 -53 -42 -169t-150 -323q-113 -206 -141 -206q-39 6 -30 51t44 90q86 111 153 269q67 157 71 265t-13 163q-20 47 -61 45t-65 -38
t-48 -128t-49 -96q-31 -2 -27 97t40 169t92 92z" />
    <glyph glyph-name="questiondown.001" horiz-adv-x="493" 
d="M440 23q0 -72 -89 -127q-89 -56 -185 -56t-115 10q-18 10 -26 54q-37 182 237 684q95 164 123 164q74 0 -23 -158q-101 -151 -187 -374q-87 -224 -69 -275q24 -73 156 14q68 45 42 76t0 57t70 16q44 -12 55 -28t11 -57zM418 909q-33 1 -48 53q-16 52 8 82t54 24
q30 -5 38 -47q9 -42 -6 -77t-46 -35z" />
    <glyph glyph-name="semicolon.001" horiz-adv-x="507" 
d="M154 190q44 80 44 123t31 73t51 12t14 -85q-5 -65 -80 -181t-128 -134q-55 -24 -64 -8q-10 16 38 68t94 132zM438 874q-12 0 -36 28t-13 52q14 23 47 24t47 -24q14 -24 -9 -52q-24 -28 -36 -28z" />
    <glyph glyph-name="slash.001" horiz-adv-x="897" 
d="M649 1098q55 86 115 166t74 79q96 0 -43 -178q-195 -253 -437 -663t-241 -490q0 -37 -38 -50t-56 18q-23 36 165 374t461 744z" />
    <glyph glyph-name="asterisk.002" horiz-adv-x="692" 
d="M633 1160q0 -7 -10 -21q-33 -37 -121 -64l-92 -31l69 -57q106 -90 153 -128t40 -56q-35 -59 -191 45q-88 59 -137 55q-43 -14 -43 35t-27 56t-118 -21q-68 -25 -92 -26t-37 24q-14 25 4 41q20 16 96 41l84 24l-57 105q-90 164 8 164q43 0 71 -93q33 -94 50 -98
q16 -5 3 69t3 111q4 13 20 23t39 5t30 -29t11 -130l2 -61l131 16q111 8 111 1z" />
    <glyph glyph-name="backslash.002" horiz-adv-x="628" 
d="M211 1078q0 -60 113 -306q39 -90 89 -219t79 -185t36 -57q8 1 20 -21t19 -62t31 -54q24 -16 -4 -76q-30 -59 -56 -50t-372 915q-51 137 -92 221q-40 84 -50 172q-10 90 10 117t51 29q30 2 42 -15q13 -23 25 -141t36 -158q23 -50 23 -110z" />
    <glyph glyph-name="bullet.002" horiz-adv-x="415" 
d="M21 796q0 64 47 105q66 53 162 37t132 -90q68 -127 -5 -203q-73 -77 -156 -63t-131 82t-49 132z" />
    <glyph glyph-name="colon.002" horiz-adv-x="305" 
d="M25 322q14 63 63 51q27 -4 43 -17q35 -31 -14 -82t-77 -33t-15 81zM286 930q1 -51 -36 -80q-37 -30 -75 -14t-42 58t28 76t43 36t46 -12t36 -64z" />
    <glyph glyph-name="comma.002" horiz-adv-x="286" 
d="M266 317q0 -90 -76 -194t-141 -105q-41 0 -22 35q33 45 59 78q68 80 68 127t14 60q14 14 56 14t42 -15z" />
    <glyph glyph-name="exclam.002" horiz-adv-x="661" 
d="M57 93q-37 29 -37 55t47 58q46 32 64 35t58 -13q41 -16 59 -60q18 -45 0 -79t-36 -39t-68 5q-49 10 -87 38zM278 517q-32 -77 -32 -122t-71 -94q-15 -10 -25 17q-10 26 13 112t57 154t93 236q59 167 93 282q37 141 90 276q25 74 44 100t46 25q49 0 55 -37q6 -38 -34 -104
t-169 -417q-128 -351 -160 -428z" />
    <glyph glyph-name="numbersign.002" horiz-adv-x="817" 
d="M451 748q12 31 -7 30q-30 2 -98 -24t-67 -58q-1 -45 -9 -70q-8 -26 6 -30t58 3t62 18q17 11 28 42q2 15 27 89zM345 862q32 0 77 18q46 18 72 60q26 40 42 144t60 212q27 58 42 74q16 16 34 1t11 -60t-54 -183l-78 -215l123 17q76 8 100 6q23 -4 23 -25q0 -27 -84 -67
t-142 -39q-45 0 -45 -52t-12 -94q-10 -20 -4 -27t32 -2t39 -6t1 -34t-41 -23q-39 -8 -49 -27q-10 -18 -10 -84t-8 -84q-7 -18 -30 -12q-41 6 -47 76q-6 46 -16 56t-57 2t-71 -60q-25 -52 -47 -54q-22 -3 -32 39t-68 40t-71 7q-14 9 -15 36q0 49 68 51q43 4 63 20
q19 15 34 59t15 61q-1 17 -22 30q-35 18 -33 50t37 50q25 17 59 115q33 98 61 282t38 197q18 29 57 -8q17 -16 17 -42t-60 -257t-51 -246q10 -2 42 -2z" />
    <glyph glyph-name="period.002" horiz-adv-x="161" 
d="M83 176q-32 0 -49 29t-14 65q4 36 37 60t49 22t30 -46t-4 -87q-17 -43 -49 -43z" />
    <glyph glyph-name="question.002" horiz-adv-x="579" 
d="M129 -50q-1 -32 -19 -61t-28 -27t-30 20q-20 19 -27 42q-8 23 -2 35q9 25 35 34t48 -1t23 -42zM389 1346q-51 0 -102 -58t-81 -160q-30 -100 -65 -92q-12 2 -20 27q-18 49 19 133q38 84 127 173t164 89t106 -61t18 -209q-4 -70 -85 -250q-80 -180 -194 -366t-148 -288
q-34 -100 -71 -98q-31 2 -26 88q11 92 35 118t161 251q268 449 246 625q-10 78 -84 78z" />
    <glyph glyph-name="questiondown.002" horiz-adv-x="571" 
d="M401 692q58 0 -12 -194q-87 -258 -189 -382q-52 -62 -69 -98q-20 -31 -16 -43q18 -27 100 -37t117 4q35 15 35 21q-3 10 -65 40t-77 63q-10 20 -6 32q12 43 113 -2q227 -102 121 -200q-37 -39 -191 -37t-203 45q-35 25 -39 43q-4 19 20 73t85 122t83 111t38 65t76 202
q63 172 79 172zM432 938q27 52 60 66t50 -14t-1 -58q-17 -30 -67 -52q-50 -24 -60 -10t18 68z" />
    <glyph glyph-name="semicolon.002" horiz-adv-x="421" 
d="M43 -117q-23 0 -23 11q2 12 50 83q55 72 64 127q8 55 -16 121t-1 99q55 66 96 -2t12 -195q-12 -45 -22 -66q-84 -178 -160 -178zM262 911q0 14 26 50t64 40t49 -28q7 -23 -27 -69t-50 -50q-14 -2 -38 20t-24 37z" />
    <glyph glyph-name="slash.002" horiz-adv-x="720" 
d="M51 86q-31 0 -31 52t29 98q74 108 298 528t224 444q-1 24 19 74q20 49 54 60q34 10 51 -16t-4 -54t-49 -96q-28 -70 -194 -378t-275 -510q-108 -202 -122 -202z" />
    <glyph glyph-name="braceleft.001" horiz-adv-x="643" 
d="M600 1456q35 0 18 -31q-16 -35 -59 -45q-119 -20 -153 -264t-146 -387q-52 -74 -74 -86t-22 -89t-35 -181q-41 -107 -28 -273t79 -200t258 30q96 33 125 33q37 2 -41 -67q-41 -36 -87 -46t-181 -10t-173 9t-49 39q-12 30 -12 215t14 350t13 177v21q0 21 8 26t33 5t88 75
t93 145t46 214q16 143 51 227t103 113q49 20 84 10t47 -10z" />
    <glyph glyph-name="braceright.001" horiz-adv-x="960" 
d="M735 1360q1 33 15 42t62 9t88 -34t40 -85t-55 -184q-55 -132 -124 -234t-63 -141t88 -45t94 -14q11 -8 2 -47q-8 -39 -76 -109t-108 -164t-76 -240t-62 -189q-26 -44 -74 -58t-187 -25q-119 -2 -169 3t-88 38t-20 51t60 -6q43 -24 187 -20t188 35q86 63 131 387
q10 66 65 170q20 41 16 57q-5 16 -40 41q-61 45 -45 120q16 74 104 202t114 184t26 109t-10 73q-9 20 -46 30t-37 44z" />
    <glyph glyph-name="bracketleft.001" horiz-adv-x="880" 
d="M345 -143q57 -1 55 -5t-34 -9q-31 -5 -92 5q-38 2 -12 6t83 3zM457 1325q27 11 97 1t125 13q53 23 105 24t67 -16t8 -39t-29 -39t-122 -17t-152 -37q-52 -36 -116 -179q-64 -142 -98 -304t-98 -377t-88 -334t-39 -143q-14 -24 -48 -32t-42 0q-10 4 -7 16t78 263
q119 433 167 629q49 196 107 373t85 198z" />
    <glyph glyph-name="bracketright.001" horiz-adv-x="817" 
d="M401 40q-1 -78 -35 -108t-34 -59q0 -51 -99 -21t-176 105q-90 88 43 37q84 -39 123 -39q29 0 67 86t75 244q166 741 239 921l41 109l-168 16q-137 12 -190 39t-39 72q10 26 27 30t59 -4q102 -24 215 -34t129 4q47 28 82 14t37 -57t-29 -97q-162 -229 -287 -866
q-80 -314 -80 -392z" />
    <glyph glyph-name="parenleft.001" horiz-adv-x="661" 
d="M598 1479q102 0 -39 -142q-200 -200 -385 -675q-37 -92 -27 -93q15 -1 -13 -29t-24 -166t34 -194t31 -97q1 -42 -9 -51t-39 -5q-47 8 -77 92t-30 204t33 216q83 250 211 502t228 356q72 82 106 82z" />
    <glyph glyph-name="parenright.001" horiz-adv-x="692" 
d="M137 -160q-117 0 -117 35t84 35t118 17q32 17 93 87q86 92 152 219q49 113 86 284t37 304t-54 308t-133 286q-28 39 6 77q33 38 59 18t79 -124q80 -158 96 -362q0 -4 2 -13t4 -27q9 -75 16 -116q7 -42 7 -68t-2 -32t-13 4q-10 0 -8 -66t-2 -97t-18 -23q-15 8 -15 0t4 -25
q20 -49 -40 -223t-152 -316q-94 -142 -133 -159q-39 -23 -156 -23z" />
    <glyph glyph-name="braceleft.002" horiz-adv-x="915" 
d="M895 1360q0 -82 -70 -12q-39 39 -84 41t-141 -31q-178 -66 -252 -230t-29 -397q15 -69 -7 -109t-60 -40t-41 -10q-4 -10 22 -52q29 -54 30 -158t-23 -193t-13 -151q13 -62 25 -76t61 -14t123 72t74 35q0 -27 -42 -89t-69 -74t-116 -11h-129l-17 78q-12 82 12 249t12 228
q-11 61 -81 135q-72 75 -58 109t107 20l90 -16l2 145q2 170 16 237q13 66 62 152t101 128t176 86t249 -3q70 -27 70 -49z" />
    <glyph glyph-name="braceright.002" horiz-adv-x="747" 
d="M182 244q120 0 167 48q48 48 48 170t29 190t27 89t-40 61t-38 55q-1 15 105 87t138 126t5 120q-17 41 -67 76t-91 48t-41 5q0 -7 17 -27q34 -39 -5 -37q-22 3 -54 17t-48 42t37 70q33 27 109 19t132 -45q115 -76 116 -181t-114 -229q-59 -62 -69 -84t14 -45
q27 -20 24 -47q-3 -28 -49 -136t-47 -202q-4 -262 -307 -293q-168 -16 -160 39q4 12 15 27q27 37 147 37z" />
    <glyph glyph-name="bracketleft.002" horiz-adv-x="919" 
d="M674 -59q0 -13 -18 -31t-47 -30q-30 -12 -173 -16q-143 -5 -279 -1t-137 18q0 23 175 408q41 85 115 323t90 335q18 97 56 170t38 101t26 56q35 26 200 14t176 -23t-2 -39t-41 -32t-115 6q-86 10 -112 2t-67 -63q-57 -72 -108 -277q-109 -428 -252 -751
q-66 -147 -66 -166q15 -11 117 -11t231 10t161 22q32 11 32 -25z" />
    <glyph glyph-name="bracketright.002" horiz-adv-x="770" 
d="M313 -94q1 -31 -25 -38t-123 -7t-121 7t-24 33t16 44t36 19q18 0 30 -18t64 -18t72 29q18 35 88 243t156 550q84 342 112 428q8 33 -12 40t-158 6t-163 6q-26 7 -33 43t14 42q27 3 146 -7t231 21t129 14q22 -9 -76 -205q-50 -100 -78 -243q0 -10 -29 -57q-25 -51 -12 -62
q13 -16 -21 -69t-47 -115q-18 -109 -64 -292t-77 -273t-31 -121z" />
    <glyph glyph-name="parenleft.002" horiz-adv-x="817" 
d="M57 625q-9 1 50 153t126 250q53 84 193 216t220 173q79 41 116 37q57 -14 24 -63q-16 -25 -74 -59t-214 -162q-158 -128 -220 -222t-133 -319l-59 -191l47 -30q33 -25 34 -36t-30 -45t-61 -36q-63 -4 -54 182q4 104 28 128t7 24z" />
    <glyph glyph-name="parenright.002" horiz-adv-x="425" 
d="M344 868q0 127 -56 336t-57 246t11 45t41 4q53 -9 56 -71t42 -240q57 -272 -9 -603t-206 -464q-70 -71 -70 -97t-33 -16q-98 37 24 159t189 310q68 188 68 391z" />
    <glyph glyph-name="hyphen.001" horiz-adv-x="491" 
d="M27 578q19 60 302 16q140 -23 142 -47q0 -12 -29 -35q-49 -29 -195 -24t-192 26t-28 64z" />
    <glyph glyph-name="hyphen.002" horiz-adv-x="456" 
d="M39 594q23 23 53 29q63 8 234 -15q57 -12 69 -16q49 -16 41 -42t-194 -33t-211 17t8 60z" />
    <glyph glyph-name="guillemotleft.001" horiz-adv-x="1007" 
d="M934 956q33 0 47 -22t2 -46q-12 -26 -51 -38t-174 -145t-135 -164q-1 -14 29 -53t63 -66q94 -92 112 -130t-10 -58q-29 -19 -57 -5q-26 8 -94 68t-121 133l-58 78l68 98q64 94 197 221q125 129 182 129zM143 597q0 -30 78 -112q78 -90 90 -130t6 -50q-5 -10 -41 -10
t-116 78t-113 144t-17 107q16 42 85 104q70 62 256 212q106 82 141 82q20 2 28 -10t-3 -37q-18 -49 -76 -86q-82 -49 -200 -155t-118 -137z" />
    <glyph glyph-name="guillemotright.001" horiz-adv-x="940" 
d="M545 307q-9 1 -15 17t-1 43t31 57t91 81t86 73t27 28t9 12t6 10t1 10q-2 5 -2 6t-7 6t-9 7t-38 24t-103 51q-66 30 -94 62t-3 74q20 43 50 40t94 -52t114 -70q45 -14 99 -57q37 -31 39 -47t-22 -64t-174 -180q-150 -131 -179 -131zM203 999q0 -21 102 -135
q104 -121 141 -176q31 -55 18 -98q-12 -44 -74 -104t-132 -98t-109 -71t-83 -31t-46 25q0 24 62 76q66 51 162 111q120 82 118 102q0 8 -38 58t-99 114q-182 190 -119 232l13 4q37 16 61 14t23 -23z" />
    <glyph glyph-name="quotedblleft.001" horiz-adv-x="528" 
d="M467 272q29 0 43 -12t-29 -63q-101 -130 -128 -113q-21 12 22 100q45 88 92 88zM39 109q-39 -8 -11 91t64 140q35 41 62 39q28 -2 32 -33t-28 -92q-32 -60 -67 -102q-34 -42 -52 -43z" />
    <glyph glyph-name="quotedblright.001" horiz-adv-x="569" 
d="M549 1322q0 -20 -35 -106t-35 -137q1 -51 -23 -53t-42 47q-29 92 41 221q23 43 59 46t35 -18zM92 1081q0 -14 -10 -24t-26 -10q-110 0 98 303q37 49 65 77q66 61 81 19t-40 -109q-168 -199 -168 -256z" />
    <glyph glyph-name="quoteright.001" horiz-adv-x="225" 
d="M76 1094q0 -50 -29 -41q-35 15 -25 131t46 191q37 75 75 100q35 18 53 -11t-1 -59q-27 -29 -73 -156t-46 -155z" />
    <glyph glyph-name="guillemotleft.002" horiz-adv-x="942" 
d="M786 360q0 -15 68 -10q68 10 68 -12q0 -29 -84 -42t-214 -3t-201 71q-82 65 -1 195q25 44 175 207q151 163 204 195t86 22q12 -5 12 -23q1 -18 -181 -198t-210 -237q-28 -58 16 -86q42 -28 132 -49t110 -18t20 -12zM135 573q0 -16 39 -28q162 -51 162 -90q0 -29 -24 -44
t-132 13t-129 57q-37 49 -28 76q7 36 99 117q26 23 44 40t53 47t57 49t66 55q43 36 70 59l30 24q86 60 102 26t-37 -85q-54 -51 -210 -174q-53 -37 -107 -85t-55 -57z" />
    <glyph glyph-name="guillemotright.002" horiz-adv-x="796" 
d="M666 688q20 53 -8 119q-28 65 -50 65t-52 60q-31 60 -19 94q12 33 41 21q28 -17 38 -27t64 -68q170 -182 33 -352q-102 -118 -137 -148t-61 -21t-17 28t59 80q88 96 109 149zM226 424q-22 0 -44 -22q-67 -61 -137 -31q-47 18 4 55q25 18 111 62t114 102q27 58 -17 142
q-44 83 -89 134t-68 52q-27 0 -50 48t-13 75q10 26 29 32q57 16 171 -127t129 -239q14 -95 -52 -189t-88 -94z" />
    <glyph glyph-name="quotedblleft.002" horiz-adv-x="602" 
d="M463 131q-47 0 -50 5t27 35q30 31 29 105q0 74 16 86q12 16 56 17q37 0 40 -46t-34 -124t-84 -78zM141 428q8 6 17 8q47 16 57 -55q14 -96 -39 -179t-103 -90t-53 -2q-2 5 35 46q37 42 49 150t37 122z" />
    <glyph glyph-name="quotedblright.002" horiz-adv-x="636" 
d="M494 1053q-35 0 -62 44t-20 87l12 88q2 26 72 108q72 78 88 78q68 -2 -13 -123q-1 -5 -21 -29q-45 -57 -41 -155q5 -98 -15 -98zM258 1458q29 0 39 -14t1 -38t-34 -46q-88 -76 -126 -151t-17 -113q8 -20 42 -32t36 -32t-43 -30t-90 18t-45 79q0 50 51 150q49 101 103 155
t83 54z" />
    <glyph glyph-name="quoteright.002" horiz-adv-x="479" 
d="M201 1153q164 272 215 283q25 2 38 -32t-19 -100t-73 -98q-49 -33 -237 -315q-78 -117 -100 -107q-10 4 -2 36t178 333z" />
    <glyph glyph-name="cent.001" horiz-adv-x="655" 
d="M174 391q8 25 45 180t43 256l4 29q2 27 -2 31q-16 0 -72 -71t-78 -120q-20 -49 -14 -169t37 -156q23 -25 37 20zM590 694q0 12 7 24t15 11q18 0 21 -31q21 -144 -172 -333q-97 -93 -155 -113t-69 -38t-11 -78t-10 -76q-9 -16 -41 -15q-32 0 -37 17t3 88q2 59 0 85t-22 31
q-49 18 -76 110t-20 212q8 203 120 319q43 43 95 63t66 53q15 34 36 151q21 171 36 207t52 24q74 -24 10 -164q-25 -69 -38 -143t-6 -85t66 -11q60 0 98 -64q38 -63 3 -119q-25 -37 -51 -37q-23 6 -16 41q6 35 -36 71t-69 18t-63 -186t-52 -194q-2 2 -8 -8t-12 -94l-4 -111
l61 31q82 43 181 164q98 121 98 180z" />
    <glyph glyph-name="dollar.001" horiz-adv-x="897" 
d="M586 471q-23 123 -41 127q-16 4 -35 -63q0 -3 -22 -87t-19 -102q2 -25 43 -31q2 -2 4 -2q55 -10 70 27q14 37 0 131zM545 1370q-15 45 -137 -19q-70 -36 -90 -66q-20 -29 -13 -109q6 -80 37 -136q31 -66 86 -110q20 -16 28 -10t54 201q44 195 35 249zM780 1204
q0 56 -20 98t-49 41q-14 0 -54 -163q-53 -240 -75 -329t-25 -120q-2 -31 14 -47q47 -29 84 -293q13 -104 -31 -143t-161 -29q-90 2 -129 21q-31 10 -17 41q2 12 -24 36q-37 29 -114 71t-124 81q-39 43 -30 76q17 69 129 69q47 0 51 -6t-23 -35q-26 -29 -24 -42t47 -53
q90 -80 115 -67t47 109q0 6 4 23t10 51l39 203l-58 75q-57 68 -106 182t-53 145q-3 30 21 90q24 59 114 113t154 54t73 12q10 12 10 74q-1 60 15 82t65 6q49 -14 76 -14t27 -32t-22 -73t-22 -53q1 -12 23 -24q80 -45 109 -87t31 -114q0 -135 -50 -137q-47 0 -47 108z" />
    <glyph glyph-name="Euro.001" horiz-adv-x="921" 
d="M442 1036q78 0 109 -18q43 -27 -49 -64q-58 -26 -122 -34t-84 -18t-30 -26q-10 -18 -10 -30t9 -18t69 4q60 8 187 31q126 23 153 24q24 0 24 -44q0 -45 -17 -55t-189 -38t-220 -29q-45 0 -56 -97q-10 -98 14 -200t64 -118t171 48t218 146t101 61q4 -8 4 -26
q0 -37 -111 -140q-351 -320 -499 -100q-33 55 -41 98t-3 154t-1 135q-10 23 -50 23q-40 1 -57 27q-18 26 6 54t66 29q42 0 69 23q28 23 30 57q-1 14 -53 14t-82 23t-17 55q11 37 85 37t95 13q20 13 56 87t110 159q160 184 321 142q87 -23 136 -103t53 -155q4 -76 -33 -90
q-39 -12 -49 4t-13 88t-48 122q-45 49 -112 55t-167 -83t-129 -182q-10 -31 2 -38t90 -7z" />
    <glyph glyph-name="sterling.001" horiz-adv-x="837" 
d="M692 1044q0 18 11 69t13 131t-14 91q-24 23 -82 -30t-120 -147t-84 -164q-24 -70 -56 -152v-17q0 -6 17 -10l37 -6q14 -2 82 -2t92 -6q22 -10 22 -39t-24 -39q-28 -10 -132 -14q-104 -3 -128 -15t-46 -76q-24 -64 -24 -91t103 -163t122 -137q31 1 90 59t90 122t58 69
q31 0 6 -90q-8 -35 -32 -93q-25 -58 -95 -118q-70 -61 -123 -61t-139 112q-31 47 -62 81t-36 34q-14 -2 -83 -102t-116 -76q-10 6 -18 30t27 120q36 94 75 138t75 134t20 104t-74 14q-56 0 -87 32q-31 30 -17 64t30 37t64 -9t54 -11q53 -12 76 15t84 185q61 157 138 265
t132 137q94 49 136 21q41 -29 61 -156q11 -72 -23 -157t-77 -99q-23 -10 -23 16z" />
    <glyph glyph-name="cent.002" horiz-adv-x="610" 
d="M94 546q0 -50 28 -94q28 -46 62 -70t52 -6q37 37 96 294q-2 24 12 67t14 54q12 88 -116 -9q-60 -38 -104 -112t-44 -124zM524 1255q35 0 35 -51t-33 -130t-41 -114t2 -50q11 -14 57 -36t46 -76t-33 -58t-57 42q-53 104 -76 -37q-31 -156 -51 -155q-6 0 -11 3q-4 3 -6 -5
t6 -41t-8 -72q-34 -76 -26 -94q8 -17 78 7t90 42q20 12 33 11t14 -13q0 -12 -17 -29q-62 -63 -130 -77t-86 -41q-17 -27 -23 -93q-5 -66 -23 -130q-18 -62 -33 -62q-76 0 -30 172q14 55 20 78t2 41t-6 19t-27 6q-103 21 -144 105q-40 85 -18 177t73 151q53 59 159 111
t130 83q24 30 70 173t64 143z" />
    <glyph glyph-name="dollar.002" horiz-adv-x="796" 
d="M123 334q21 0 35 34t-4 33q-18 1 -35 -33t4 -34zM555 293q117 23 137 57t-31 121q-51 88 -157 156q-84 57 -88 16q0 -16 -10 -84q-12 -123 -46 -231q-2 -6 -2 -11q-2 -55 197 -24zM356 705q-25 6 -38 8q-28 4 -68 -191q-18 -94 -22 -147t14 -73q20 -20 47 6t16 26
q-11 11 25 186t26 185zM272 932q15 55 25 140t0 89t-55 -53q-84 -104 -49 -199q47 -121 79 23zM465 1175q0 86 -31 82q-30 -6 -66 -133q-35 -126 -28 -141q12 -11 -8 -73t-20 -77t26 -33q25 -18 40 -18t51 154t36 239zM262 151q0 44 -10 60t-23 6q-16 -8 -24 -43
q-12 -41 -40 -36t-36 50q-3 36 -59 84t-50 86t66 62q94 37 117 227q8 69 -1 97t-52 71q-86 80 -63 183q24 103 149 214q90 82 102 172q14 76 43 124t57 32q51 -33 -8 -149q-26 -47 -22 -57t38 -11q34 0 48 36q16 36 16 134t14 106q24 32 58 2q41 -39 27 -61q-7 -10 -25 -90
t-12 -96t72 -45q67 -29 91 -76q43 -84 17 -176q-27 -87 -72 -49l-4 2q-29 24 -16 58q14 34 -16 98t-73 67q-20 2 -29 -10q-10 -11 -16 -77t-38 -188t-36 -170q-3 -48 23 -51q33 1 60 -25t90 -69t84 -63t19 -24q-2 -5 24 -73q54 -127 -8 -197t-244 -85q-90 -7 -112 -19
t-26 -52t-26 -69q-35 -41 -60 15q-14 31 -14 75z" />
    <glyph glyph-name="Euro.002" horiz-adv-x="1089" 
d="M281 647q0 -8 16 -14t35 -4q164 12 203 -15q8 -2 4 -10q-12 -27 -240 -78q-35 -8 -49 -27t-25 -73q-23 -147 92 -219q39 -25 67 -25t134 34t214 135t110 73q2 -8 -11 -49t-85 -112t-146 -107q-203 -102 -333 -32t-111 271q10 104 -9 109q-4 2 -22 -2q-41 -14 -79 18
t-21 70q14 41 77 26q66 -10 80 15q8 14 -18 31q-26 16 -17 46t57 30t72 57q64 139 220 309t303 262q83 45 109 35t48 -10q22 1 65 -47q42 -48 48 -126t-27 -124t-53 -37q-33 16 -19 105t-22 124q-35 34 -103 12q-69 -22 -239 -189t-219 -253l-41 -74h86q90 0 158 20t95 8
q28 -13 11 -52q-8 -23 -139 -56q-131 -32 -203 -32t-73 -23z" />
    <glyph glyph-name="sterling.002" horiz-adv-x="645" 
d="M440 1255q-70 0 -123 -125t-55 -294q0 -72 8 -86q14 -8 152 30q126 43 139 23q0 -21 -78 -67t-146 -67q-67 -21 -79 -39t-12 -96q0 -80 9 -95t53 -15t94 -40t69 -41q18 -1 59 28t58 28q28 0 -34 -100t-77 -100q-10 0 -78 56t-113 56t-54 -16q-9 -17 -6 -123t-38 -129
q-14 -6 -30 11q-16 16 -52 122t-36 126t33 47q34 26 56 35t23 136q8 119 -12 119q-6 0 -8 -2q-37 -13 -89 17q-53 30 -53 63t32 50t47 -7t49 -23q34 0 42 32q8 33 16 185t44 237q35 85 112 130q78 45 106 42t91 -60q113 -106 33 -224q-31 -39 -60 -49t-32 19q-6 27 16 73
t-2 89q-25 44 -74 44z" />
    <glyph glyph-name="asciitilde.001" horiz-adv-x="1040" 
d="M317 752q-48 0 -115 -62t-85 -140q-18 -77 -60 -93q-29 -10 -34 32q-2 6 -3 23q0 82 68 185t126 125q60 22 164 18t126 -28q24 -24 112 -72t119 -52t64 14q210 117 221 103q8 -8 -94 -117t-135 -129q-35 -16 -76 -4t-59 37q-18 24 -154 92q-137 68 -185 68z" />
    <glyph glyph-name="equal.001" horiz-adv-x="997" 
d="M725 669q0 -5 -93 -17t-467 -13q-132 -1 -141 31q-5 18 3 44t479 26t471 -16q0 -15 -96 -37t-123 -11q-33 7 -33 -7zM946 901q0 -2 -7 -16t-256 -6t-345 8t-116 8q-19 8 -19 46t22 49q23 11 80 2t340 -27q301 -14 301 -64z" />
    <glyph glyph-name="greater.001" horiz-adv-x="1034" 
d="M45 1135q35 -1 173 -53t314 -93t278 -49t150 -16q46 -8 54 -24t-27 -62q-43 -50 -89 -60t-217 -91t-227 -101t-78 -45q-22 -23 -104 -55t-114 -31q-27 0 -27 34q0 23 136 97q135 74 177 80t143 64t193 101q37 12 -26 31q-63 14 -254 52t-331 80q-140 43 -146 96
q-6 45 22 45z" />
    <glyph glyph-name="less.001" horiz-adv-x="937" 
d="M863 1180q15 0 37 -26t18 -36q-6 -8 -37 -24q-397 -150 -611 -248q-86 -35 -73 -54q14 -21 246 -131t235 -137q0 -28 -27 -54t-44 -22t-60 37q-51 45 -219 125t-204 100t-75 19q-33 4 -31 48q2 43 20 61t70 29q53 11 167 63q115 52 295 124q180 74 229 100t64 26z" />
    <glyph glyph-name="percent.001" horiz-adv-x="1333" 
d="M1068 524q-9 0 -32 29q-18 27 -34 24t-58 -47q-43 -44 -54 -96q-10 -53 14 -86q24 -32 78 -24t118 96t72 166q10 78 3 98t-51 42t-116 8q-70 -14 -96 -12q-26 3 -27 9q0 21 46 21t46 18t43 28q43 9 115 -3t79 -25q100 -118 -20 -356q-66 -131 -178 -176q-112 -44 -170 20
q-59 64 -41 191q10 61 31 100q20 39 78 90t92 60q33 9 86 -17q78 -37 10 -127q-25 -31 -34 -31zM432 1282q-25 31 -73 35t-95 -23q-59 -32 -85 -116q-25 -84 -9 -168t66 -127t94 -28q43 15 85 82t48 185t-31 160zM346 1411q68 0 178 -76t111 -123q0 -28 -30 -28t-53 23
t-24 3q0 -10 12 -62t-17 -146q-28 -94 -85 -162t-111 -78t-81 -2t-64 45q-145 139 -94 348q31 106 58 150q28 42 96 75t104 33zM680 688q0 -16 -135 -164q-137 -144 -137 -162t-120 -148t-160 -183t-75 -54q-14 0 -24 5q-49 27 100 176q119 116 257 276t153 174
q23 18 114 142q100 128 214 254t182 233q130 190 157 226t45 50q43 29 54 -14q12 -53 -60 -132q-73 -79 -181 -223t-246 -292t-138 -164z" />
    <glyph glyph-name="plus.001" horiz-adv-x="575" 
d="M379 848q29 142 29 198t22 141t49 87q18 4 19 -49q-6 -76 -45 -294t-33 -223q6 -6 66 -14t61 -9q9 -5 4 -50q-9 -31 -25 -37t-65 0l-74 14l2 -170q4 -180 -22 -188q-10 -4 -29 8q-27 14 -10 184l14 166l-76 15q-84 12 -102 11t-86 39q-66 40 -55 77q16 61 127 8
q68 -31 135 -43l67 -17z" />
    <glyph glyph-name="asciitilde.002" horiz-adv-x="954" 
d="M827 748l7 36q-2 4 -3 28t-4 38q-4 14 -6 43l-6 43q-16 109 0 115q25 8 78 -154q37 -98 40 -133t-22 -76q-94 -147 -462 -14q-147 51 -245 38t-128 -91q-12 -37 -38 -5t-15 84q20 80 152 100t284 -30q98 -39 243 -41h60l43 2q14 0 22 17z" />
    <glyph glyph-name="equal.002" horiz-adv-x="937" 
d="M47 686q7 12 411 16t449 -6q27 -8 -24 -24q-152 -43 -463 -62h-21q-175 -8 -233 -5q-97 5 -119 51q-8 18 0 30zM42 894q-17 9 -21 42q-5 33 15 41t154 15t361 -4t262 -30q72 -39 10 -59q-47 -12 -133 -10q-402 12 -516 4t-132 1z" />
    <glyph glyph-name="greater.002" horiz-adv-x="884" 
d="M27 1190q18 28 55 14t133 -86q264 -195 520 -250q88 -18 111 -30t18 -47q-8 -55 -61 -68q-121 -33 -453 -242q-197 -125 -268 -102q-23 12 -21 34q3 22 21 36t56 18q38 3 151 77t219 138t121 84q10 8 4 14q-5 6 -145 66t-294 158t-168 134q-15 36 1 52z" />
    <glyph glyph-name="less.002" horiz-adv-x="886" 
d="M866 446q0 -28 -22 -58t-40 -27q-17 3 -91 55t-90 53q-15 0 -263 166t-278 177t-50 47q-19 36 -8 47t136 46q119 27 309 86q299 86 328 37q10 -12 -19 -31q-60 -47 -156 -66t-253 -65l-158 -45l90 -77q82 -72 292 -198q209 -126 241 -118t32 -29z" />
    <glyph glyph-name="percent.002" horiz-adv-x="1189" 
d="M936 406q16 54 14 82t-28 68q-27 40 -44 44t-59 -29q-63 -47 -69 -139t53 -121q96 -53 133 95zM819 199q-51 0 -105 61q-54 60 -64 126t40 166q49 100 96 118q51 24 128 12t113 -45t44 -72t-12 -58t-21 -34q-6 -100 -76 -187t-143 -87zM82 162q0 27 110 141t287 309
q175 195 279 323t210 244t140 138q29 14 46 3q17 -10 16 -26q0 -16 -30 -61t-60 -63q-58 -33 -204 -209q-144 -177 -328 -377t-343 -379q-68 -82 -107 -74q-16 4 -16 31zM352 1206q0 72 -50 106t-89 34t-71 -69t-37 -174t38 -190q8 -20 19 -6q6 12 10 25q16 41 82 94t83 80
q15 28 15 100zM25 1174q24 178 102 235t203 -6q61 -33 87 -79q27 -46 25 -124t-28 -130t-103 -140q-47 -48 -67 -60t-37 0q-29 25 -43 13q-14 -11 -64 35t-68 104t-7 152z" />
    <glyph glyph-name="plus.002" horiz-adv-x="651" 
d="M286 696q0 42 22 134t38 112q14 20 36 21q22 -1 30 -5q15 -10 2 -88l-27 -114q-10 -48 4 -56t126 -8t113 -30q2 -30 -110 -54t-130 -44t-14 -108q3 -87 -43 -127t-61 29q-8 24 -4 94t-7 86t-83 7q-72 -11 -121 17t-32 71q9 25 39 27t107 -5q77 -8 97 -2q18 2 18 43z" />
    <glyph glyph-name="bar.001" horiz-adv-x="145" 
d="M88 1411q35 0 38 -17q3 -16 -7 -64q-11 -48 -15 -310t1 -628t-11 -417q-6 -20 -24 -16q-29 5 -36 111t-11 668t5 617q9 56 60 56z" />
    <glyph glyph-name="at.001" horiz-adv-x="1435" 
d="M709 -84q16 6 -9 10h-32l-39 -4q1 -4 25 -10t55 4zM1188 203q90 90 102 82q10 -11 -46 -71t-84 -74t-25 -7q6 17 53 70zM1341 406q53 72 68 71q12 0 2 -41q-33 -109 -76 -151q-29 -29 -8 8q12 21 -10 31q-19 13 24 82zM776 907q-34 51 -112 48t-144 -58
q-110 -90 -146 -223t23 -217q25 -33 47 -40t94 2q70 9 112 53t71 155t57 174q23 39 22 58t-24 48zM882 1378q-130 0 -220 -53t-218 -186t-190 -231q-64 -98 -112 -234q-48 -135 -40 -182q14 -56 -14 -92t-6 -35q10 0 22 -37t17 -68q16 -102 96 -194q43 -43 66 -60
q29 -26 49 -24t84 -25q66 -27 250 0t284 77t116 37t-52 -59q-66 -46 -160 -91q-94 -46 -114 -42t-132 -16q-168 -27 -314 44t-222 214q-41 78 -49 278q-8 126 14 115q16 -10 22 18q2 12 0 74t23 72q29 10 29 52t44 132q43 90 73 108t63 81q63 127 236 262t298 151t250 -39
t205 -170q45 -61 56 -105q12 -44 14 -169t-34 -242t-144 -231t-242 -178l-142 -68q-104 121 -108 127l-90 -47q-98 -49 -154 -44t-100 71q-90 139 -19 346q73 207 215 288t279 -2q72 -45 107 -45q30 -8 32 -69t-30 -155t-74 -163q-70 -104 -44 -142t136 5q72 27 165 120
t133 182q40 88 42 228t-39 218q-47 80 -137 139t-220 59z" />
    <glyph glyph-name="ampersand.001" horiz-adv-x="886" 
d="M268 748q0 88 -106 -68q-52 -76 -60 -161t31 -152q16 -35 38 -42t77 1q90 10 170 71l80 60l-115 137q-115 132 -115 154zM565 1196q0 68 -17 81q-16 13 -72 -5t-120 -114t-63 -161v-67l74 39q198 104 198 227zM590 547q28 -1 100 109t63 136t23 66t44 42q13 1 32 -23
q27 -39 2 -97t-111 -174l-88 -112l52 -56q88 -94 32 -159q-14 -21 -31 -13t-65 64l-72 84l-118 -84q-109 -78 -205 -96t-158 32q-86 68 -66 248q19 180 126 307q55 63 45 117q-16 61 38 182q56 121 132 189q85 72 163 80q78 7 117 -47t23 -156q-31 -193 -215 -291l-52 -27
q-57 -29 -64 -41t30 -63q45 -75 120 -146t103 -71z" />
    <glyph glyph-name="section.001" horiz-adv-x="811" 
d="M315 660q0 -46 37 -130t63 -104q27 -20 105 -30t119 12q35 30 21 96t-52 119q-40 53 -104 88t-88 37t-62 -23q-39 -19 -39 -65zM758 1161q-14 -1 -24 13t-11 32q0 55 -49 83t-124 16t-120 -78q-45 -65 -6 -179t213 -337q88 -115 105 -214t-40 -139t-136 -39q-79 0 -87 -9
t17 -68q27 -76 4 -140t-88 -90q-68 -31 -209 -37q-141 -5 -161 15t-23 47q-1 27 13 43t34 14q59 -20 159 -21t131 15q49 30 46 96t-54 146q-88 129 -115 265t25 187q31 37 115 37h78l-70 135q-68 137 -59 215q10 78 28 107t86 70q80 42 160 40t137 -47t57 -111t-32 -67z" />
    <glyph glyph-name="bar.002" horiz-adv-x="178" 
d="M137 408q-20 -8 1 -182q20 -174 20 -213t-26 -67t-48 -5t-32 639q-9 616 -20 678t-9 75q1 13 29 13t40 -18t24 -105q12 -86 17 -157q4 -71 -2 -81q-12 0 -16 -134t2 -260t18 -142q29 -33 2 -41z" />
    <glyph glyph-name="at.002" horiz-adv-x="1269" 
d="M1212 187q0 11 -15 11q-27 1 -30 -24q1 -26 23 -12t22 25zM741 756q0 31 33 41q58 24 17 92q-21 33 -93 39q-164 14 -318 -176q-91 -114 -82 -176t53 -97q81 -65 230 38q60 42 66 84t51 83q43 41 43 72zM840 446q70 0 142 78t121 208q50 130 59 260t1 161q-7 31 -73 97
t-132 82q-66 17 -163 -9q-172 -47 -374 -223t-269 -340q-42 -94 -58 -268t17 -193q12 -8 16 -8q6 4 -6 22l-6 13q-4 8 0 7t8 -7q20 -20 20 -53q-1 -33 9 -47t20 -11q29 4 29 -27q0 -37 98 -97t182 -75q133 -26 359 36t319 149q19 20 35 28q16 9 26 -17t-60 -89
q-71 -63 -89 -45q-4 6 -48 -14q-45 -20 -107 -61q-62 -40 -108 -49t-232 -9t-273 40q-88 40 -176 161q-234 322 29 749q72 117 170 219q192 198 387 268q76 27 172 30q96 4 158 -20q61 -24 125 -99t79 -140q12 -84 -12 -197q-6 -39 -31 -165q-18 -75 -71 -181t-115 -168
t-146 -86q-64 -24 -84 -18t-70 53t-68 50t-95 -33q-76 -36 -159 -29q-83 6 -126 57q-74 94 -26 238t192 250q98 74 175 94t159 -8q109 -37 122 -131t-71 -232q-129 -201 19 -201z" />
    <glyph glyph-name="ampersand.002" horiz-adv-x="1013" 
d="M504 670q-26 0 -182 -106t-180 -148q-24 -43 38 -103q100 -94 301 -47q53 10 90 22t42 12q5 1 19 12q13 11 15 16v12q2 10 2 20t-4 18t-7 22t-7 28t-12 27q-7 14 -25 58q-18 45 -50 101t-40 56zM764 1133q-23 14 -86 32q-109 31 -146 -58q-36 -89 -18 -191t45 -121
q8 -7 50 29t96 101q53 65 73 124t-14 84zM735 379q29 0 104 62t67 83q-8 22 17 48q26 26 38 22t24 -31q25 -45 -26 -126t-156 -113q-7 -2 -21 -16t-14 -15q0 -27 14 -47l25 -43q25 -51 37 -57t32 17q20 25 29 17q8 -8 29 -57q41 -96 8 -140q-16 -22 -30 -21t-51 36
q-36 35 -79 123t-75 139q-7 6 -105 -45t-208 -61t-173 22t-132 103q-69 69 -69 103q0 73 299 253q174 106 175 113q0 31 -32 90t-52 67q-50 20 -8 141q96 272 308 218q118 -31 167 -119q25 -49 -25 -139t-140 -168t-109 -107t-6 -75t71 -162q58 -115 67 -115z" />
    <glyph glyph-name="section.002" horiz-adv-x="892" 
d="M496 827q-60 1 -110 -35t-50 -90q0 -29 9 -43t23 -8q13 6 23 35t37 29q10 0 14 -9t-4 -24q-8 -33 39 -66t128 -53t110 -18t63 24l56 37l-56 72q-56 72 -112 66t-68 38q-6 27 -24 36t-78 9zM468 424q14 0 40 -39q28 -53 50 -96t36 -67t65 -167q11 -35 -31 -83t-72 -57
t-81 -1q-182 28 -318 100t-137 140q0 33 12 47t27 8q14 -6 23 -27q28 -74 152 -125t224 -58t115 21t-25 122q-40 95 -116 204q-182 270 -186 383q0 39 60 100t116 78l49 13l-43 63q-78 111 -45 227t160 169q127 52 231 7q46 -20 66 -70t8 -85q-22 -65 -60 -25q-18 18 -23 58
t-49 62t-98 8q-119 -32 -164 -150q-24 -61 21 -137q25 -47 55 -76t125 -92q160 -109 204 -217t-17 -148q-60 -38 -178 -22t-187 50t-71 29q0 -7 16 -47t18 -63q14 -37 28 -37z" />
  </font>
</defs>
</svg>
