<?xml version="1.0" encoding="utf-8"?>
<!-- Generator: Adobe Illustrator 16.0.0, SVG Export Plug-In . SVG Version: 6.00 Build 0)  -->
<!DOCTYPE svg PUBLIC "-//W3C//DTD SVG 1.1//EN" "http://www.w3.org/Graphics/SVG/1.1/DTD/svg11.dtd">
<svg version="1.1" id="Layer_1" xmlns="http://www.w3.org/2000/svg" xmlns:xlink="http://www.w3.org/1999/xlink" x="0px" y="0px"
	 width="36px" height="34px" viewBox="0 0 36 34" enable-background="new 0 0 36 34" xml:space="preserve">
<path fill="#ADADAD" d="M25.15,2.282v15.491H12.638c-0.987,0-1.788-0.8-1.788-1.788s0.801-1.788,1.788-1.788h11.321V-0.102H12.042
	c-1.311,0-2.383,1.073-2.383,2.383v14.299c0,1.311,1.073,2.384,2.383,2.384h14.3V2.282H25.15z"/>
<path fill="#ADADAD" d="M12.64,15.39L12.64,15.39C12.639,15.39,12.639,15.39,12.64,15.39c-0.33,0-0.598,0.266-0.598,0.595
	c0,0.329,0.268,0.596,0.597,0.596c0,0,0,0,0.001,0l0,0h11.318V15.39H12.64z"/>
</svg>
