<?xml version="1.0" encoding="utf-8"?>
<!-- Generator: Adobe Illustrator 16.0.0, SVG Export Plug-In . SVG Version: 6.00 Build 0)  -->
<!DOCTYPE svg PUBLIC "-//W3C//DTD SVG 1.1//EN" "http://www.w3.org/Graphics/SVG/1.1/DTD/svg11.dtd">
<svg version="1.1" id="Layer_1" xmlns="http://www.w3.org/2000/svg" xmlns:xlink="http://www.w3.org/1999/xlink" x="0px" y="0px"
	 width="36px" height="34px" viewBox="0 0 36 34" enable-background="new 0 0 36 34" xml:space="preserve">
<path fill="#ADADAD" d="M28.907,7.727c0-4.28-1.252-7.753-2.801-7.78c0.007,0,0.013,0,0.019,0h-1.767c0,0-4.15,3.118-10.124,4.34
	c-0.183,0.965-0.299,2.115-0.299,3.44c0,1.326,0.116,2.476,0.299,3.44c5.974,1.223,10.124,4.341,10.124,4.341h1.767
	c-0.006,0-0.012,0-0.019,0C27.655,15.48,28.907,12.007,28.907,7.727z M25.517,14.331c-0.2,0-0.415-0.208-0.527-0.331
	c-0.27-0.3-0.527-0.766-0.75-1.35c-0.495-1.304-0.768-3.052-0.768-4.924c0-1.871,0.272-3.619,0.768-4.924
	c0.223-0.583,0.48-1.05,0.75-1.349c0.112-0.124,0.327-0.331,0.527-0.331c0.199,0,0.415,0.207,0.527,0.331
	c0.269,0.299,0.528,0.766,0.749,1.349c0.496,1.304,0.769,3.053,0.769,4.924c0,1.871-0.272,3.619-0.769,4.924
	c-0.221,0.583-0.48,1.05-0.749,1.35C25.932,14.123,25.716,14.331,25.517,14.331z M12.458,7.727c0-1.106,0.081-2.182,0.234-3.176
	c-1.009,0.14-1.894,0.221-2.989,0.221c-1.43,0-1.43,0-1.43,0L7.093,6.788v1.878l1.181,2.017c0,0,0,0,1.43,0
	c1.095,0,1.979,0.081,2.989,0.22C12.539,9.91,12.458,8.834,12.458,7.727L12.458,7.727z M14.937,12.263L12.21,11.74l1.743,6.85
	c0.09,0.355,0.441,0.533,0.781,0.398l2.526-1.011c0.339-0.136,0.476-0.51,0.303-0.833L14.937,12.263z M25.517,10.272
	c-0.076,0-0.16-0.08-0.202-0.128c-0.104-0.115-0.204-0.295-0.289-0.52c-0.192-0.503-0.297-1.176-0.297-1.898
	c0-0.721,0.104-1.395,0.297-1.897c0.085-0.226,0.185-0.404,0.289-0.52c0.042-0.048,0.126-0.127,0.202-0.127
	c0.077,0,0.16,0.079,0.203,0.127c0.104,0.115,0.204,0.294,0.289,0.52c0.19,0.502,0.296,1.176,0.296,1.897
	c0,0.722-0.105,1.395-0.296,1.898c-0.085,0.225-0.185,0.404-0.289,0.52C25.677,10.193,25.594,10.272,25.517,10.272z"/>
</svg>
