<?xml version="1.0" encoding="utf-8"?>
<!-- Generator: Adobe Illustrator 16.0.0, SVG Export Plug-In . SVG Version: 6.00 Build 0)  -->
<!DOCTYPE svg PUBLIC "-//W3C//DTD SVG 1.1//EN" "http://www.w3.org/Graphics/SVG/1.1/DTD/svg11.dtd">
<svg version="1.1" id="Layer_1" xmlns="http://www.w3.org/2000/svg" xmlns:xlink="http://www.w3.org/1999/xlink" x="0px" y="0px"
	 width="36px" height="34px" viewBox="0 0 36 34" enable-background="new 0 0 36 34" xml:space="preserve">
<path fill="#ADADAD" d="M15.023,7.085h2.381v2.382h-2.381V7.085z M18.596,7.085h2.381v2.382h-2.381V7.085z M22.168,7.085h2.383
	v2.382h-2.383V7.085z M11.45,14.23h2.382v2.382H11.45V14.23z M15.023,14.23h2.381v2.382h-2.381V14.23z M18.596,14.23h2.381v2.382
	h-2.381V14.23z M15.023,10.658h2.381v2.381h-2.381V10.658z M18.596,10.658h2.381v2.381h-2.381V10.658z M22.168,10.658h2.383v2.381
	h-2.383V10.658z M11.45,10.658h2.382v2.381H11.45V10.658z M24.551-0.06v1.19h-2.383v-1.19h-8.335v1.19H11.45v-1.19H9.069v19.054
	h17.863V-0.06H24.551z M25.74,17.803H10.26V4.704h15.48V17.803z"/>
</svg>
