<svg version="1.1" id="Layer_1" xmlns="http://www.w3.org/2000/svg" xmlns:xlink="http://www.w3.org/1999/xlink" x="0px" y="0px"
	 width="36px" height="34px" viewBox="0 0 36 34" enable-background="new 0 0 36 34" xml:space="preserve">
<path fill="#9EA3A8" d="M13.255,10.969c0,2.621,2.124,4.746,4.745,4.746c2.621,0,4.746-2.125,4.746-4.746
	c0-2.621-2.125-4.746-4.746-4.746C15.379,6.224,13.255,8.348,13.255,10.969z M28.223,2.938h-5.111c-0.365-1.46-0.73-2.92-2.191-2.92
	h-5.84c-1.459,0-1.824,1.46-2.189,2.92H7.779c-0.803,0-1.46,0.657-1.46,1.46V17.54c0,0.803,0.657,1.46,1.46,1.46h20.444
	c0.803,0,1.459-0.657,1.459-1.46V4.398C29.682,3.596,29.025,2.938,28.223,2.938z M18,17.449c-3.579,0-6.479-2.9-6.479-6.479
	S14.421,4.49,18,4.49c3.58,0,6.48,2.9,6.48,6.479S21.58,17.449,18,17.449z M28.223,7.319h-2.922v-1.46h2.922V7.319z"/>
</svg>
