<svg version="1.1" id="Calque_1" xmlns="http://www.w3.org/2000/svg" xmlns:xlink="http://www.w3.org/1999/xlink" x="0px" y="0px"
	 viewBox="0 0 370 123" style="enable-background:new 0 0 370 123;" xml:space="preserve">
<style type="text/css">
	.st0{fill:none;enable-background:new    ;}
	.st1{fill:#222221;}
	.st2{fill:#F6D83E;}
	.st3{fill:#FFFFFF;}
</style>
<path class="st0" d="z"/>
<g>
	<g>
		<g>
			<circle class="st1" cx="61" cy="60.1" r="41.9"/>
		</g>
	</g>
	<g>
		<path class="st1" d="M114.3,37.8h21.2c5.9,0,10.7,1.3,14,3.9c3.4,2.5,5.1,6.3,5.1,11.2c0,4.4-2,9-6.7,11.6
			c9.3,3.3,9.5,11,9.5,13.4c0,4.6-1.8,9.7-5.3,12.6c-5.3,4.4-9.1,5-18.9,5h-18.9V37.8z M129.1,59.7h5.2c1,0,2.6,0,3.9-0.5
			c1.3-0.6,2.3-1.8,2.3-4.1c0-2.2-1-3.3-2.3-3.8c-1.2-0.5-2.8-0.5-4-0.5h-5.2V59.7z M129.1,82.5h6.9c0.9,0,2.8,0,4.4-0.7
			c1.6-0.7,3-2.1,3-4.8c0-2.5-1.2-3.7-2.8-4.4C139,72,137.2,72,136,72h-6.9V82.5z"/>
		<path class="st1" d="M171.7,37.8h14.7v57.7h-14.7V37.8z"/>
		<path class="st1" d="M206.9,37.8h32.7v12.9h-17.9v9h17.4v12.9h-17.4v9.9h17.9v12.9h-32.7V37.8z"/>
		<path class="st1" d="M256.6,37.8h18.9c9,0,14.7,1.6,17.9,4.1c4.8,3.7,7,9.4,7,15.8c0,4.4-1.2,7.9-2.9,10.4c-1.9,3-4.8,5-7.5,6.2
			l11.9,21.2h-15.2l-15-27.8h2.4c3.7,0,6.9-0.3,8.9-1.6c1.8-1.2,3.3-3.9,3.3-7.1c0-3-1.5-5.5-3.4-6.7c-1.6-1-4-1.6-6-1.6h-5.5v44.8
			h-14.7V37.8z"/>
		<path class="st2" d="M314.5,37.8h32.7v12.9h-17.9v9h17.4v12.9h-17.4v9.9h17.9v12.9h-32.7V37.8z"/>
	</g>
	<g>
		<path class="st1" d="M279.9,24.5c0-0.5-0.1-0.9-0.3-1.3c-0.3-0.5-0.7-0.9-1.5-0.9c-1.3,0-2.1,1.2-2.1,3.7c0,2.7,0.8,3.7,2.1,3.7
			c0.7,0,1.2-0.3,1.5-0.8c0.3-0.5,0.4-1.1,0.4-1.7h-2.2v-1.6h3.9v1.8c0,2-1.2,3.8-3.5,3.8c-2.6,0-3.8-2.1-3.8-5.3
			c0-3.2,1.3-5.3,3.8-5.3c2.1,0,3.4,1.5,3.5,3.7H279.9z"/>
		<path class="st1" d="M284.2,20.9h2.4c1.5,0,2.3,0.3,2.7,0.8c0.6,0.6,0.9,1.4,0.9,2.4c0,0.6-0.1,1.2-0.4,1.7
			c-0.3,0.7-0.8,1.1-1.4,1.3l2,4.1h-1.9l-2.3-5c0.2,0,0.3,0,0.5,0c0.5,0,0.9-0.1,1.3-0.4c0.4-0.4,0.5-0.9,0.5-1.4
			c0-0.6-0.1-1.1-0.6-1.5c-0.3-0.2-0.8-0.3-1.4-0.3h-0.6v8.7h-1.7V20.9z"/>
		<path class="st1" d="M293.4,31.2h-1.7l2.8-10.2h1.6l2.9,10.2h-1.7l-0.6-2.4H294L293.4,31.2z M295.3,23.3l-0.9,3.9h1.8L295.3,23.3z
			"/>
		<path class="st1" d="M305.9,27.9v-7h1.5v10.2h-1.6l-3.4-7.4v7.4h-1.5V20.9h1.8L305.9,27.9z"/>
		<path class="st1" d="M310.2,20.9h2.7c1.5,0,2.5,0.5,3.2,1.5c0.6,0.9,1,2.1,1,3.6c0,3.2-1.6,5.1-4.1,5.1h-2.8V20.9z M311.8,29.6h1
			c2,0,2.4-1.9,2.4-3.5c0-1.1-0.2-2-0.6-2.6c-0.4-0.6-1-0.9-1.9-0.9h-1V29.6z"/>
		<path class="st1" d="M330.8,27.4c0,2.1-1.2,3.9-3.5,3.9c-2.2,0-3.6-1.8-3.6-5.3c0-3.5,1.4-5.3,3.6-5.3c2.3,0,3.5,1.9,3.5,4h-1.7
			c0-1.6-0.6-2.4-1.7-2.4c-1.3,0-2,1.2-2,3.7c0,2.6,0.9,3.7,2,3.7c1.3,0,1.6-1.2,1.7-2.3H330.8z"/>
		<path class="st1" d="M333.1,20.9h2.4c1.5,0,2.3,0.3,2.7,0.8c0.6,0.6,0.9,1.4,0.9,2.4c0,0.6-0.1,1.2-0.4,1.7
			c-0.3,0.7-0.8,1.1-1.4,1.3l2,4.1h-1.9l-2.3-5c0.2,0,0.3,0,0.5,0c0.5,0,0.9-0.1,1.3-0.4c0.4-0.4,0.5-0.9,0.5-1.4
			c0-0.6-0.1-1.1-0.6-1.5c-0.3-0.2-0.8-0.3-1.4-0.3h-0.6v8.7h-1.7V20.9z"/>
		<path class="st1" d="M343.1,20.9v7.2c0,0.5,0.1,1,0.4,1.3c0.2,0.3,0.6,0.4,1.1,0.4c0.5,0,0.9-0.1,1.1-0.4c0.3-0.3,0.4-0.7,0.4-1.3
			v-7.2h1.7v7.4c0,0.9-0.2,1.7-0.7,2.2c-0.5,0.5-1.3,0.8-2.5,0.8c-1.1,0-1.9-0.3-2.5-0.8c-0.5-0.5-0.7-1.3-0.7-2.2v-7.4H343.1z"/>
	</g>
	<g>
		<path class="st1" d="M371.4,123.1H-1.4V-0.1h372.7V123.1z M8.6,113.1h352.7V9.9H8.6V113.1z"/>
	</g>
	<path class="st3" d="M73.5,68c0-6.9-1.2-10.8-2.8-13.7c-1.7-2.8-2.2-5.4-2.3-7.9s-1.1-5.6-2.6-7.8c-1.8-2.7-1.7-6.5-1.7-6.5
		s0.8-0.6,0.8-1.8c0-1.2-0.6-2.1-0.6-2.9c0-0.8,0.4-0.7,0.4-2c0-1.3-1.3-1.8-1.3-1.8L60.3,23l-3.1-0.7c0,0-1.3-0.2-1.3,1.2
		c0,1.3,0.4,1.4,0.4,2.2c0,0.8-0.6,1.4-0.6,2.6c0,1.2,0.8,2.2,0.8,2.2s0.1,3.9-1.7,5.8c-1.4,1.5-2.4,4.2-2.6,6.6
		c-0.1,2.4-0.6,4.8-2.3,6.8c-1.7,2.1-2.8,5.5-2.8,12.4v29.3l7.2,1.6c1.1-0.5,3.9-0.8,4.5-1.4c0.7-0.7,0.9-4-0.8-4.8
		c-7.4-3.4-5.3-11.1-4.6-13.2c0.8-2.1,1.2-5.3,1.2-6.8c0-1.4,5-0.5,5.6-0.4c0.6,0.1,5.7,0.9,5.7,2.3c0,1.5,0.4,4.8,1.2,7.2
		c0.8,2.4,2.9,10.7-4.6,11.7c-1.7,0.2-1.5,3.6-0.8,4.6c0.7,1,4.9,2.7,4.9,3.4c0,0.1-0.1,0.2-0.1,0.2l7.1,1.6V68z"/>
	<polygon class="st2" points="232.2,27.1 228.6,34.7 209.4,26.3 213.3,17.2 	"/>
</g>
</svg>
