<svg version="1.1" id="Calque_1" xmlns="http://www.w3.org/2000/svg" xmlns:xlink="http://www.w3.org/1999/xlink" x="0px" y="0px"
	 width="36px" height="34px" viewBox="0 0 36 34" enable-background="new 0 0 36 34" xml:space="preserve">
<path d="M18,0C8.611,0,1,7.611,1,17s7.611,17,17,17s17-7.611,17-17S27.389,0,18,0z M23.066,20.225v11.877l-2.882-0.656
	c0.028-0.021,0.046-0.053,0.05-0.087c0-0.308-1.713-1.01-1.996-1.397c-0.284-0.388-0.364-1.764,0.339-1.854
	c3.008-0.386,2.162-3.778,1.85-4.741c-0.312-0.965-0.469-2.319-0.469-2.918c0-0.566-2.059-0.897-2.293-0.934
	c-0.258-0.046-2.292-0.398-2.292,0.162c0,0.6-0.155,1.9-0.469,2.761c-0.313,0.86-1.155,3.97,1.854,5.365
	c0.705,0.324,0.623,1.677,0.34,1.968c-0.23,0.233-1.36,0.363-1.806,0.562l-2.932-0.667V17.788c0-2.797,0.468-4.184,1.144-5.025
	c0.675-0.842,0.882-1.788,0.935-2.772c0.052-0.984,0.463-2.078,1.042-2.688c0.727-0.766,0.675-2.333,0.675-2.333
	s-0.312-0.384-0.312-0.879s0.26-0.749,0.26-1.06s-0.182-0.347-0.182-0.881c0-0.534,0.547-0.467,0.547-0.467l1.247,0.283l1.246,0.284
	c0,0,0.545,0.183,0.545,0.715s-0.182,0.488-0.182,0.799s0.261,0.682,0.261,1.178c0,0.497-0.313,0.737-0.313,0.737
	s-0.053,1.543,0.675,2.642c0.577,0.871,0.988,2.152,1.04,3.16c0.053,1.007,0.259,2.049,0.936,3.198
	c0.678,1.148,1.145,2.747,1.145,5.545H23.066z"/>
</svg>
