<svg version="1.1" id="Layer_2" xmlns="http://www.w3.org/2000/svg" xmlns:xlink="http://www.w3.org/1999/xlink" x="0px" y="0px"
	 width="137.034px" height="60.528px" viewBox="0 0 137.034 60.528" enable-background="new 0 0 137.034 60.528"
	 xml:space="preserve">
<path class="elementlogo" d="M0,44.375c0-3.426,0.973-6.397,2.917-8.911c1.973-2.484,5.374-5.213,10.201-8.186l7.711-4.759
	c2.886-1.772,5.013-3.473,6.384-5.103c1.371-1.6,2.056-3.53,2.056-5.788c0-2.516-0.893-4.48-2.679-5.895
	c-1.787-1.415-3.881-2.123-6.283-2.123c-3.087,0-6.21,1.115-9.369,3.344C7.78,9.183,6.25,1.72,6.664,2.235s1.164,0.772,2.249,0.772
	c0.4,0,2.006-0.494,4.818-1.48c2.813-0.987,5.219-1.481,7.217-1.481c4.855,0,8.752,1.473,11.693,4.417
	c2.079,2.082,3.384,4.555,3.993,7.38v-11.1C36.634,0.298,36.932,0,37.377,0h12.485c0.446,0,0.669,0.223,0.669,0.595v19.479
	c0,0.297,0.223,0.52,0.52,0.52h1.486c0.372,0,0.67-0.298,0.67-0.52V0.669C53.207,0.298,53.429,0,53.801,0H66.36
	c0.446,0,0.744,0.298,0.744,0.669v54.272c0,0.373-0.223,0.818-0.595,0.818H53.875c-0.371,0-0.668-0.445-0.668-0.818V35.538
	c0-0.298-0.149-0.595-0.447-0.595h-1.709c-0.371,0-0.52,0.297-0.52,0.595v19.478c0,0.372-0.297,0.743-0.669,0.743H37.6
	c-0.079,0-0.132-0.079-0.207-0.101l-0.669,4.76h-1.918c-0.115-0.722-0.35-1.4-0.707-2.035c-0.356-0.636-1.047-0.953-2.073-0.953
	c-0.427,0-2.116,0.516-5.066,1.548c-2.951,1.033-5.78,1.55-8.488,1.55c-5.388,0-9.814-1.543-13.277-4.627S0,48.975,0,44.375
	 M8.88,47.217c0,3.173,1.018,5.646,3.054,7.418c2.036,1.771,4.449,2.658,7.239,2.658c5.155,0,9.469-2.045,12.942-6.135
	c1.696-1.994,3.194-4.605,4.519-7.758V18.609c-0.537,2.162-1.607,4.201-3.302,6.096c-1.339,1.458-3.138,2.902-5.393,4.331
	l-7.495,4.674c-4.311,2.687-7.138,4.702-8.481,6.046C9.908,41.872,8.88,44.359,8.88,47.217 M70.076,40.593V0.817
	C70.076,0.298,70.373,0,70.819,0h12.634c0.446,0,0.818,0.298,0.818,0.817v37.768c0,0.967,0.371,1.636,1.262,1.636
	c0.892,0,1.264-0.669,1.264-1.561V0.743C86.797,0.372,87.169,0,87.615,0h12.56c0.37,0,0.816,0.223,0.816,0.743v39.85
	c0,7.881-5.648,15.166-15.458,15.166C75.65,55.759,70.076,48.399,70.076,40.593 M103.592,13.977V0.743
	c0-0.445,0.223-0.743,0.669-0.743h31.807c0.521,0,0.966,0.298,0.966,0.892v13.085c0,0.595-0.445,1.041-1.041,1.041h-7.431
	c-0.52,0-0.892,0.371-0.892,1.041v38.734c0,0.521-0.445,0.966-1.04,0.966h-12.634c-0.52,0-1.04-0.445-1.04-1.04V15.91
	c0-0.521-0.446-0.892-0.966-0.892h-7.432C104.112,15.018,103.592,14.423,103.592,13.977"/>
</svg>
